<?xml version="1.0" encoding="UTF-8"?>
<svg id="Layer_2" data-name="Layer 2" xmlns="http://www.w3.org/2000/svg" xmlns:xlink="http://www.w3.org/1999/xlink" viewBox="0 0 259.94 259.94">
  <defs>
    <style>
      .cls-1 {
        fill: #2d2926;
      }

      .cls-2 {
        fill: #fff;
      }

      .cls-3 {
        fill: none;
        stroke: #2d2926;
        stroke-miterlimit: 10;
        stroke-width: 40px;
      }

      .cls-4 {
        fill: #ee3441;
      }
    </style>
    <symbol id="Derthona_Lion" data-name="Derthona Lion" viewBox="0 0 117.67 155.94">
      <g>
        <path class="cls-4" d="M30.27,6.82c2.16-3.26-.48-6.44-.48-6.44,0,0-3.84-1.52-6.27,1.54-2.43-3.06-6.27-1.54-6.27-1.54,0,0-2.63,3.18-.47,6.44-3.66,1.37-3.4,5.49-3.4,5.49,0,0,2.21,3.49,5.98,2.44.17,3.9,4.17,4.93,4.17,4.93,0,0,4-1.02,4.17-4.93,3.76,1.05,5.98-2.44,5.98-2.44,0,0,.26-4.12-3.4-5.49ZM25.46,11.75l-1.94-.98-1.94.98.33-2.15-1.53-1.55,2.15-.35.99-1.94,1,1.94,2.15.35-1.53,1.55.33,2.15Z"/>
        <path class="cls-1" d="M55.31,141.03s0,0,0,0"/>
        <path class="cls-1" d="M10.29,60.45c-.46-.15-.87-.29-1.28-.44l-.19-.07s.47-5.28.52-10.85.35-8.94.35-8.94h.23c.32-.03.64-.08.97-.16l.35-.08s-.26,3.03-.25,10.02c0,6.98-.37,10.63-.37,10.63l-.32-.1Z"/>
        <path class="cls-1" d="M0,90.8c.07-.06.14-.12.2-.18.17-.18.42-.45.57-.61.09-.12.22-.28.34-.44.13-.16.26-.33.36-.46l.15-.23.65-1c.1-.18.27-.51.44-.82.16-.29.31-.58.41-.75.11-.22.36-.8.55-1.22l.19-.43c.21-.43.44-1.09.65-1.67.08-.22.15-.43.22-.6.04-.1.08-.22.12-.34.1-.27.21-.57.27-.8.54-1.71,1.02-3.54,1.45-5.44l.05-.21h2.11l-.07.32c-.25,1.24-.51,2.39-.8,3.51l-.77,2.76c-.18.51-.39,1.13-.59,1.71l-.35,1.02c-.12.28-.24.57-.37.87-.31.73-.62,1.49-.96,2.11l-.6,1.14-.88,1.41c-.18.25-.27.36-.36.48-.07.09-.14.18-.25.33l-.2.27c-.05.07-.11.13-.16.19l-.08.08c-.2.22-.46.5-.75.77,0,0-.49-.14-.98-.71s-.57-1.03-.57-1.03Z"/>
        <path class="cls-1" d="M15.12,22.05c-.21-.09-.42-.17-.64-.24l-.3-.09.13-.28c.73-1.52,1.41-2.76,2.11-3.8.36-.54.79-1.19,1.33-1.83,0,0,.22.04.51.26s.38.47.38.47c-1.12,1.39-2.15,3.15-3.17,5.37l-.11.24-.24-.11Z"/>
        <g>
          <path class="cls-1" d="M57.29,12.12h-.24s0,0,0,0c.08,0,.15,0,.23,0h0Z"/>
          <path class="cls-1" d="M49.23,42.35c-.3.62-.62,1.22-.97,1.81-.14.25-.29.5-.44.74-.04.07-.09.15-.13.22-1.57,2.5-3.47,4.78-5.64,6.77-.71.65-1.44,1.27-2.2,1.85h-.01c-1.48-.43-2.21-.57-3.65-1.11-9-3.36-17.04-8.72-23.55-15.53-.73.89-1.84,1.46-3.08,1.46-2.18,0-3.95-1.77-3.95-3.96,0-1.23.56-2.34,1.45-3.06-.65-.59-1.06-1.43-1.06-2.38,0-.09,0-.18.02-.27.13-1.64,1.51-2.92,3.18-2.92.26,0,.52.03.77.09.17-1.6,1.53-2.85,3.17-2.85.98,0,1.86.44,2.45,1.14.05.07.11.15.17.23.01.01.02.02.03.04,6.64,8.62,16.28,14.8,27.37,16.97.23.05.46.09.7.13,1.69.31,3.61.52,5.37.63Z"/>
          <path class="cls-1" d="M48.23,28.95c3.56,0,6.18-1.71,8.63-1.71s4.24.77,4.24.77c0,0-.66-2.95-3.68-2.95-2.17,0-4.18.8-7.77.8-3.16,0-4.65-2.02-4.65-3.96s.51-2.8.51-2.8c0,0-3.15,1.14-3.15,5.06,0,2.45,2.32,4.79,5.88,4.79Z"/>
          <path class="cls-1" d="M104.84,82.02s0-.09,0-.14c-.09-.01-.17-.02-.26-.04.08.06.17.12.26.18Z"/>
          <path class="cls-1" d="M59.74,107.67c-.24-.5-.52-.98-.83-1.44.29.47.57.95.83,1.44Z"/>
          <g>
            <path class="cls-1" d="M74.18,67.95h0s0,.02,0,.03c0-.01,0-.02,0-.03Z"/>
            <polygon class="cls-1" points="74.17 67.99 74.17 67.99 74.17 67.99 74.17 67.99 74.17 67.99 74.17 67.99"/>
            <path class="cls-1" d="M116.61,71.9c-2.8-.96-4.82-4.35-4.82-7.8,0-5.59-5.11-10.36-9.83-10.36-4.47,0-6.77,1.22-9.33,3.26-1.6,1.27-2.93,2.87-3.9,4.69-1.12,2.1-1.75,4.49-1.75,7.03v.39c.14,9.59,5.66,17.89,9,27.36,1.37,3.87,2.37,7.93,2.5,12.36.01.32.02.65.02.98,0,3-.92,5.93-6.05,5.93-7,0-18.94-22.66-18.94-37.54,0-5.28.39-7.67.43-7.95-1.83,4.38-11.14,14.93-17.14,17.28-.66-.84-1.37-1.63-2.12-2.39-4.79-4.77-11.4-7.72-18.7-7.72-2.07,0-4.08.23-6.02.68,1.28,4.49,5.52,11.56,14.76,16.95,9.24,5.39,11.38,6.67,14.17,11.16-2.1-3.07-5.62-5.08-9.62-5.08h-.3c-.29.01-.58.03-.86.05-.01,0-.02.01-.03.01-4.46.52-7.91,4.31-7.91,8.91,0,2.3.87,4.41,2.3,6l-7.63-5.33c.36-1.2.56-2.47.56-3.79,0-2.36-.63-4.58-1.74-6.48-1.26-2.18-3.13-3.95-5.38-5.08-.2-.09-.4-.16-.61-.23-1.01-.34-2.09-.52-3.22-.52-1.3,0-2.56.25-3.71.7.84.53,1.55,1.25,2.08,2.09.12.18.23.36.33.56-.51,0-1.01.06-1.48.17-.98.22-1.88.64-2.64,1.23.16.13.31.26.46.39.7.64,1.27,1.43,1.65,2.31-1.33.5-2.46,1.42-3.24,2.58,1.27.29,2.42.95,3.31,1.86.08.07.15.15.22.23,1.09,1.22,1.75,2.81,1.75,4.57,0,.11-.01.22-.01.34-.06,1.13-.39,2.18-.93,3.1-.07.13-.14.25-.23.37-.4.6-.9,1.14-1.47,1.58l19.14,13.37,10.65,7.43c0-12.41,4.57-16.58,9.91-16.58s9.91,4.17,9.91,16.58c0,1.78-.17,4.88-1.07,7.96-1.44-.76-3-1.31-4.66-1.6h-.01c-.9-.16-1.82-.24-2.77-.24-1.2,0-2.37.13-3.5.39-4.48,1-8.25,3.89-10.43,7.79,1.35-.37,2.76-.57,4.22-.57.54,0,1.08.03,1.6.08-.85,1.4-1.49,2.94-1.87,4.58h23.85c.11-1.09.28-2.16.52-3.21.4-1.77.96-3.47,1.68-5.09,2.09-4.72,5.47-8.74,9.68-11.62-.27-1.56-.41-3.16-.41-4.79,0-2.07.22-4.08.66-6.02,1.07.24,2.19.37,3.34.37,3.71,0,7.1-1.34,9.72-3.57,3.23-2.75,5.27-6.84,5.27-11.41v-.39c-.02-1.77-.17-3.44-.44-5.04-1.39-8.58-5.84-14.88-8.73-22.37-1.48-3.84-3.78-7.74-3.78-13.66,0-7.43,3.75-9.9,6.08-9.9s3.52,1.93,3.52,3.72c0,.49-.09.95-.26,1.38-.55,1.44-1.94,2.46-3.57,2.46-1,0-1.91-.38-2.59-1-.25.52-.39,1.11-.39,1.73,0,2.24,1.81,4.05,4.05,4.05.12,0,.23,0,.34-.01-.07.51-.11,1.03-.11,1.56,0,3.59,1.77,6.77,4.49,8.71.08.01.17.03.25.04v-.2c0-2.38,1.16-4.48,2.94-5.77.98.51,2.09.79,3.27.79,1.56,0,3-.5,4.17-1.35.11-.08.21-.16.32-.25.94-.77,1.69-1.77,2.14-2.93-.37-.06-.72-.15-1.06-.27Z"/>
            <path class="cls-1" d="M57.73,83.36c5.55-3.46,15.11-15.59,16.25-20.99,2.46,2.26,4.3,5.6,4.95,10.26,1.74-1.96,5.95-7.95,8.87-15.07.76-1.68,1.34-3.47,1.69-5.33,0-.03.01-.05.02-.08.02-.1.03-.19.05-.28.15-.79.25-1.57.29-2.32,0,0,2.35.09,4.39,2.55,2.33-6.99-4.32-13.85-4.32-13.85,0,0,2.48-1.6,7.72.24-.58-7-5.08-12.91-9.19-15.02,3.77-2.96,5.59-5.92,6.52-11.34h-7.08c.86-2.02,1.56-4.12,2.07-6.3h-18.86c-.47,0-.93.03-1.38.1-.25.03-.5.08-.74.13-2.68.59-4.94,2.28-6.3,4.56.78.77,1.85,1.24,3.03,1.24.65,0,1.26-.14,1.81-.4.2-.09.39-.2.57-.31.01,0,.03-.02.04-.03.85-.57,1.88-.9,2.98-.9.23,0,.46.02.69.05.92.11,1.77.46,2.48.98-.33.32-.68.61-1.05.88-.61.44-1.26.81-1.96,1.11-1.18.5-2.49.78-3.86.78-.06,0-.12,0-.17,0-.42,0-.84-.04-1.24-.1-.73-.1-1.43-.28-2.09-.54-.05-.02-.1-.04-.15-.06-.64-.25-1.3-.46-1.98-.63-1.42-.36-2.91-.56-4.44-.56-.08,0-.16,0-.23,0-1.5.02-2.96.22-4.35.59.14.29.27.57.4.86.25.55.48,1.1.69,1.67.1.25.2.51.29.77.89,2.48,1.52,5.08,1.84,7.78,1.39-1,3.1-1.59,4.95-1.59.86,0,1.69.13,2.48.37.53.16,1.03.37,1.51.62.37.2.72.42,1.06.66,0,.03,0,.06-.01.08,0,.01,0,.02,0,.03-.23,1.89-1.09,3.59-2.35,4.89-.78.8-1.86,1.26-2.98,1.28-.04,0-.07,0-.11,0-1.57,0-3.04-.42-4.3-1.17-.02.78-.06,1.56-.14,2.33-.13,1.49-.36,2.95-.67,4.39-.09.41-.19.83-.29,1.24-.22.88-.48,1.75-.77,2.6,7.63-.57,15.28-1.74,21.03-6.21-6.97,9.78-22.16,9.11-22.16,9.11-.32.72-.66,1.43-1.02,2.12-.37.72-.78,1.43-1.2,2.11-.48.78-.98,1.54-1.52,2.27-1.6,2.22-3.46,4.24-5.52,6.03-.12.1-.24.2-.35.3-3.8,3.21-8.28,5.64-13.2,7.04-3.09.88-6.36,1.35-9.74,1.35-3.55,0-6.98-.52-10.21-1.49-2.49-.74-4.86-1.75-7.09-3-.75.75-1.21,1.79-1.21,2.93,0,.34.04.67.12.99-1.29.56-2.2,1.84-2.2,3.34,0,1.68,1.14,3.1,2.7,3.51-.08.28-.12.57-.12.87,0,1.77,1.43,3.2,3.2,3.2h30.18c8.56,0,16.29,3.6,21.74,9.37Z"/>
          </g>
        </g>
      </g>
    </symbol>
  </defs>
  <g id="Layer_1-2" data-name="Layer 1">
    <g>
      <g>
        <circle class="cls-2" cx="129.97" cy="129.97" r="109.97"/>
        <circle class="cls-3" cx="129.97" cy="129.97" r="109.97"/>
      </g>
      <use width="117.67" height="155.94" transform="translate(71.33 54.86)" xlink:href="#Derthona_Lion"/>
      <g>
        <g>
          <path class="cls-2" d="M80.09,213.03l9.3,4.65,2.16,6.49-.14.29c-1.5,3-3.6,4.86-6.08,5.54l1.48,4.45-2.6,5.19-6.42,2.2-9.69-4.85,11.99-23.96ZM76.22,236.67c2.33,1.16,3.83.66,4.96-1.59l.27-.54c.98-1.97.65-3.52-1-4.62-.98-.27-2-.64-3.04-1.16l-3.4,6.8,2.22,1.11ZM86.26,224.21c1.07-2.15.54-3.58-1.79-4.74l-1.93-.97-3.49,6.97c3.67,1.79,5.87,1.42,7.21-1.27Z"/>
          <path class="cls-2" d="M101.1,222.21l6.05,1.67-2.06,27.23-4.24-1.17c-.08-2.72-1.25-4.91-2.83-5.35-1.62-.45-3.76.83-5.18,3.13l-4.05-1.12,12.31-24.4ZM99.04,240.9c.85.23,1.68.84,2.41,1.79l.73-9.09.69-5.95-.19-.05-2.46,5.46-4.06,8.09c1.06-.37,2.04-.47,2.89-.24Z"/>
          <path class="cls-2" d="M112.47,247.7l.41-4.9,4.62.38-.23,2.75c-.16,1.95.83,3.12,2.78,3.28,1.95.16,3.12-.83,3.28-2.78.08-.96-.43-2.12-1.35-3.04l-8.29-8.47.39-4.74,5.22-4.42,5.26.43,4.42,5.22-.32,3.87-4.62-.38.15-1.79c.16-1.95-.75-3.11-2.54-3.26-1.83-.15-2.95.68-3.08,2.27-.06.68.47,1.64,1.32,2.52l8.36,8.56-.48,5.78-5.22,4.42-5.66-.47-4.42-5.22Z"/>
          <path class="cls-2" d="M133.09,226.79l4.61-.51,1.23,11.21c.64-.07,1.24-.06,1.81,0l3.24-11.91,4.61-.51-3.86,13.62c3.65,2.05,6.16,6.65,6.86,13.01l-4.65.51c-.79-7.24-3.51-11.12-7.59-10.84l1.27,11.53-4.61.51-2.92-26.64Z"/>
          <path class="cls-2" d="M152.42,224.12l12.39-3.81,1.15,3.75-7.95,2.45,2.25,7.3c1.11-1.01,3.67-2.09,6.43-2.77l1.15,3.75c-3.19.77-5.34,1.69-6.42,2.81l2.14,6.96,8.3-2.55,1.18,3.82-12.73,3.92-7.88-25.62Z"/>
          <path class="cls-2" d="M173.75,220.3l-4.59,2.36-1.72-3.34,13.3-6.84,1.72,3.34-4.59,2.36,10.54,20.49-4.13,2.12-10.54-20.49Z"/>
        </g>
        <g>
          <path class="cls-2" d="M46.9,38.45l8.11-6.51,6.8.74,7.89,9.83c3.76,4.68,3.27,9.38-1.35,13.08l-4.68,3.76-16.78-20.9ZM66.52,46.14l-6.71-8.36c-1.5-1.87-3.36-2.07-5.23-.57l-1.65,1.33,11.92,14.85,1.12-.9c2.5-2,2.63-3.75.55-6.34Z"/>
          <path class="cls-2" d="M66.55,23.94l11.44-6.09,1.84,3.46-7.34,3.91,3.59,6.74c.9-1.2,3.2-2.75,5.79-3.94l1.84,3.46c-2.99,1.37-4.92,2.67-5.77,3.98l3.42,6.43,7.66-4.08,1.88,3.53-11.76,6.26-12.59-23.66Z"/>
          <path class="cls-2" d="M86.19,14.35l9.86-3.05,6.05,3.19.34,1.11c1.19,3.86.71,6.9-1.44,9.15,3.56,1.08,6.24,4.6,8.08,10.56l-4.47,1.38c-2.2-7.11-4.84-9.68-8.7-8.49l-.54.17,3.16,10.2-4.43,1.37-7.92-25.6ZM98.55,19.11l-.28-.92c-.63-2.03-2.35-2.87-4.53-2.2l-1.99.62,2.52,8.14c3.81-1.22,5.12-2.93,4.28-5.64Z"/>
          <path class="cls-2" d="M114.08,11.38l-5.13.58-.42-3.74,14.87-1.68.42,3.74-5.13.58,2.59,22.9-4.61.52-2.59-22.9Z"/>
          <path class="cls-2" d="M141.28,23.1c-.41-.99-1.6-1.68-3.04-1.79-1.52-.11-2.76.4-3.27,1.36l-.81,10.77-4.63-.35,2-26.72,4.63.35-.86,11.41c1.08-.52,2.22-.76,3.26-.68,1.04.08,2.09.48,3.09,1.11l.85-11.37,4.59.34-2,26.72-4.63-.35.81-10.81Z"/>
          <path class="cls-2" d="M150.21,30.48l4.87-16.91,6.07-3.29,6.23,1.79,3.39,6.01-4.87,16.91-6.07,3.29-6.23-1.79-3.39-6.01ZM161.96,31.58l3.68-12.76c.48-1.65-.62-3.34-2.46-3.87-1.84-.53-3.67.32-4.15,1.97l-3.68,12.76c-.48,1.65.62,3.34,2.46,3.87,1.84.53,3.67-.32,4.15-1.97Z"/>
          <path class="cls-2" d="M180.76,17.23l4.45,2.36-2.49,17.07-.33,1.14.18.09,8.16-15.37,3.96,2.1-12.56,23.68-4.28-2.27,2.33-17.02.26-1.17-.18-.09-.32.69-7.75,14.59-3.99-2.12,12.57-23.68Z"/>
          <path class="cls-2" d="M205.36,32.26l4.87,3.96-12.83,24.12-3.41-2.78c1.02-2.52.82-5-.45-6.04-1.3-1.06-3.77-.75-6,.79l-3.26-2.65,21.08-17.4ZM195.97,48.54c.68.56,1.2,1.44,1.49,2.61l4.32-8.03,3.02-5.17-.16-.13-4.45,4.01-6.97,5.78c1.12.08,2.06.39,2.74.94Z"/>
        </g>
      </g>
      <g>
        <path class="cls-2" d="M14.3,140.83h-3.02v-15.42l1.98-2h1.04v17.42Z"/>
        <path class="cls-2" d="M18.38,126.39l3.2-3.15h3.95l3.2,3.15v11.44l-3.2,3.15h-3.59l-3.2-3.15v-2.44h2.96v1.07c0,1.22.75,1.98,1.98,1.98s1.98-.75,1.98-1.98v-3.54l-1.3,1.4h-2.78l-3.2-3.15v-4.78ZM23.43,131.78c1.25,0,2.24-.88,2.24-2v-1.95c0-1.12-.86-1.98-2.11-1.98s-2.11.86-2.11,1.98v1.95c0,1.22.75,2,1.98,2Z"/>
      </g>
      <g>
        <path class="cls-2" d="M228.22,123.4h9.98v2.65h-6.92v3.85l1.17-1.25h2.91l3.2,3.15v6.03l-3.2,3.15h-3.95l-3.2-3.15v-2.78h3.07v1.35c0,1.12.86,1.98,2.11,1.98s2.11-.86,2.11-1.98v-3.2c0-1.22-.75-2-1.98-2s-2.24.86-2.24,1.92v.08h-3.07v-9.8Z"/>
        <path class="cls-2" d="M242.26,123.4h9.98v2.65h-6.92v3.85l1.17-1.25h2.91l3.2,3.15v6.03l-3.2,3.15h-3.95l-3.2-3.15v-2.78h3.07v1.35c0,1.12.86,1.98,2.11,1.98s2.11-.86,2.11-1.98v-3.2c0-1.22-.75-2-1.98-2s-2.24.86-2.24,1.92v.08h-3.07v-9.8Z"/>
      </g>
    </g>
  </g>
</svg>