<?xml version="1.0" encoding="UTF-8"?>
<svg id="Layer_2" data-name="Layer 2" xmlns="http://www.w3.org/2000/svg" viewBox="0 0 38.62 86.67">
  <defs>
    <style>
      .cls-1 {
        fill: #2d2926;
      }

      .cls-2 {
        fill: #fff;
      }

      .cls-3 {
        fill: #ee3441;
      }
    </style>
  </defs>
  <g id="Layer_1-2" data-name="Layer 1">
    <g>
      <path class="cls-2" d="M25.56,1.02l11.3,11.3v24.98c0,.54,0,1.05-.02,1.58-.08,3.3-.6,6.27-1.56,8.85-.17.44-.33.86-.5,1.26l-.02.05c-.09.19-.18.4-.29.62-.06.17-.16.37-.28.58-.79,1.56-1.73,2.95-2.82,4.14l6.25,6.25v13.73l-11.1,11.3H1.02V1.02h24.54"/>
      <g>
        <path class="cls-1" d="M35.12,13.03v24.27c0,.52,0,1.02-.02,1.52-.07,3.09-.55,5.87-1.46,8.3-.16.41-.32.82-.48,1.21-.09.2-.18.41-.3.61-.05.14-.11.3-.21.43-.95,1.91-2.21,3.62-3.77,4.98-2.34,2.14-5.41,3.66-9.28,4.46-1.11.23-2.3.41-3.55.5-.55.07-1.11.09-1.68.11v-8.8c3.37,0,5.66,0,7.8-1.43,2.52-1.68,2.82-3.62,2.82-6.8v-23.58c0-2.55-.66-4.5-2.02-5.87-1.36-1.36-3.32-2.05-5.87-2.05h-4.5v14.37H2.75V2.75h22.08l10.28,10.28ZM30.23,55.7c-1.98,1.8-4.48,3.21-7.5,4.14,2.02,1.23,3.05,3.48,3.05,6.75v1.27c0,2.66-.61,4.62-1.86,5.87-1.25,1.25-3.25,1.86-6.03,1.86h-5.28v-40.5h4.59c2.77,0,4.78.59,6.03,1.75v-9.8H2.75v56.88h23.01l10.1-10.28v-12.3l-5.64-5.64Z"/>
        <path class="cls-3" d="M25.56,1.02l11.3,11.3v24.98c0,.54,0,1.05-.02,1.58-.08,3.3-.6,6.27-1.56,8.85-.17.44-.33.86-.5,1.26l-.02.05c-.09.19-.18.4-.29.62-.06.17-.16.37-.28.58-.79,1.56-1.73,2.95-2.82,4.14l6.25,6.25v13.73l-11.1,11.3H1.02V1.02h24.54M14.34,25.31h8.93v-6.5c0-2.1-.5-3.62-1.52-4.64-1.04-1.04-2.55-1.54-4.64-1.54h-2.77v12.68M14.38,48.89c3.2,0,5.14,0,6.83-1.14,1.77-1.18,2.05-2.32,2.05-5.36v-3.15l-1.22-1.13c-.92-.85-2.55-1.29-4.85-1.29h-2.86l.04,12.06M14.34,73.86h3.54c2.28,0,3.9-.46,4.8-1.36.9-.9,1.36-2.46,1.36-4.64v-1.27c0-2.64-.72-4.37-2.21-5.27l-1.47-.89c-.13.03-.26.06-.4.08-1.3.27-2.52.44-3.73.53-.6.07-1.2.1-1.78.12h-.11v12.7M25.98,0H0v86.67h26.93l.3-.31,11.1-11.3.29-.3v-14.57l-.3-.3-5.58-5.58c.88-1.07,1.66-2.28,2.32-3.59.12-.2.23-.42.32-.65.11-.22.21-.43.29-.61h0s0-.02,0-.02l.02-.05c.18-.44.35-.88.51-1.29,1.01-2.69,1.55-5.78,1.63-9.19.02-.55.02-1.07.02-1.61V11.89l-.3-.3L26.28.3l-.3-.3h0ZM15.36,13.65h1.75c1.8,0,3.09.41,3.92,1.24.82.82,1.22,2.1,1.22,3.92v5.48h-6.89v-10.64h0ZM15.36,37.85h1.84c2.53,0,3.65.55,4.15,1.02l.89.83v2.7c0,2.9-.25,3.61-1.6,4.51-1.28.86-2.77.95-5.25.97l-.03-10.02h0ZM16.33,62.06c1.24-.09,2.5-.27,3.83-.54,0,0,0,0,0,0l1.12.68c1.16.7,1.72,2.14,1.72,4.4v1.27c0,1.87-.37,3.23-1.06,3.92-.69.69-2.1,1.06-4.08,1.06h-2.52v-10.7c.32-.02.64-.04.97-.08h0Z"/>
      </g>
    </g>
  </g>
</svg>