<?xml version="1.0" encoding="UTF-8"?>
<svg id="Layer_2" data-name="Layer 2" xmlns="http://www.w3.org/2000/svg" xmlns:xlink="http://www.w3.org/1999/xlink" viewBox="0 0 611.38 502.18">
  <defs>
    <style>
      .cls-1, .cls-2 {
        fill: none;
        stroke: #2d2926;
        stroke-miterlimit: 10;
        stroke-width: .5px;
      }

      .cls-3 {
        fill: #2d2926;
      }

      .cls-4, .cls-5 {
        fill: #231f20;
        font-family: PPNeueMontreal-Medium, 'PP Neue Montreal';
        font-size: 6.41px;
        font-weight: 500;
      }

      .cls-2, .cls-6 {
        opacity: .3;
      }

      .cls-7 {
        fill: #fff;
      }

      .cls-8 {
        letter-spacing: 0em;
      }

      .cls-9 {
        letter-spacing: -.02em;
      }

      .cls-10, .cls-5 {
        letter-spacing: -.02em;
      }

      .cls-11 {
        fill: #ee3441;
      }

      .cls-12 {
        letter-spacing: 0em;
      }

      .cls-13 {
        letter-spacing: .01em;
      }
    </style>
    <symbol id="Derthona_Lion" data-name="Derthona Lion" viewBox="0 0 117.67 155.94">
      <g>
        <path class="cls-11" d="M30.27,6.82c2.16-3.26-.48-6.44-.48-6.44,0,0-3.84-1.52-6.27,1.54-2.43-3.06-6.27-1.54-6.27-1.54,0,0-2.63,3.18-.47,6.44-3.66,1.37-3.4,5.49-3.4,5.49,0,0,2.21,3.49,5.98,2.44.17,3.9,4.17,4.93,4.17,4.93,0,0,4-1.02,4.17-4.93,3.76,1.05,5.98-2.44,5.98-2.44,0,0,.26-4.12-3.4-5.49ZM25.46,11.75l-1.94-.98-1.94.98.33-2.15-1.53-1.55,2.15-.35.99-1.94,1,1.94,2.15.35-1.53,1.55.33,2.15Z"/>
        <path class="cls-3" d="M55.31,141.03s0,0,0,0"/>
        <path class="cls-3" d="M10.29,60.45c-.46-.15-.87-.29-1.28-.44l-.19-.07s.47-5.28.52-10.85.35-8.94.35-8.94h.23c.32-.03.64-.08.97-.16l.35-.08s-.26,3.03-.25,10.02c0,6.98-.37,10.63-.37,10.63l-.32-.1Z"/>
        <path class="cls-3" d="M0,90.8c.07-.06.14-.12.2-.18.17-.18.42-.45.57-.61.09-.12.22-.28.34-.44.13-.16.26-.33.36-.46l.15-.23.65-1c.1-.18.27-.51.44-.82.16-.29.31-.58.41-.75.11-.22.36-.8.55-1.22l.19-.43c.21-.43.44-1.09.65-1.67.08-.22.15-.43.22-.6.04-.1.08-.22.12-.34.1-.27.21-.57.27-.8.54-1.71,1.02-3.54,1.45-5.44l.05-.21h2.11l-.07.32c-.25,1.24-.51,2.39-.8,3.51l-.77,2.76c-.18.51-.39,1.13-.59,1.71l-.35,1.02c-.12.28-.24.57-.37.87-.31.73-.62,1.49-.96,2.11l-.6,1.14-.88,1.41c-.18.25-.27.36-.36.48-.07.09-.14.18-.25.33l-.2.27c-.05.07-.11.13-.16.19l-.08.08c-.2.22-.46.5-.75.77,0,0-.49-.14-.98-.71s-.57-1.03-.57-1.03Z"/>
        <path class="cls-3" d="M15.12,22.05c-.21-.09-.42-.17-.64-.24l-.3-.09.13-.28c.73-1.52,1.41-2.76,2.11-3.8.36-.54.79-1.19,1.33-1.83,0,0,.22.04.51.26s.38.47.38.47c-1.12,1.39-2.15,3.15-3.17,5.37l-.11.24-.24-.11Z"/>
        <g>
          <path class="cls-3" d="M57.29,12.12h-.24s0,0,0,0c.08,0,.15,0,.23,0h0Z"/>
          <path class="cls-3" d="M49.23,42.35c-.3.62-.62,1.22-.97,1.81-.14.25-.29.5-.44.74-.04.07-.09.15-.13.22-1.57,2.5-3.47,4.78-5.64,6.77-.71.65-1.44,1.27-2.2,1.85h-.01c-1.48-.43-2.21-.57-3.65-1.11-9-3.36-17.04-8.72-23.55-15.53-.73.89-1.84,1.46-3.08,1.46-2.18,0-3.95-1.77-3.95-3.96,0-1.23.56-2.34,1.45-3.06-.65-.59-1.06-1.43-1.06-2.38,0-.09,0-.18.02-.27.13-1.64,1.51-2.92,3.18-2.92.26,0,.52.03.77.09.17-1.6,1.53-2.85,3.17-2.85.98,0,1.86.44,2.45,1.14.05.07.11.15.17.23.01.01.02.02.03.04,6.64,8.62,16.28,14.8,27.37,16.97.23.05.46.09.7.13,1.69.31,3.61.52,5.37.63Z"/>
          <path class="cls-3" d="M48.23,28.95c3.56,0,6.18-1.71,8.63-1.71s4.24.77,4.24.77c0,0-.66-2.95-3.68-2.95-2.17,0-4.18.8-7.77.8-3.16,0-4.65-2.02-4.65-3.96s.51-2.8.51-2.8c0,0-3.15,1.14-3.15,5.06,0,2.45,2.32,4.79,5.88,4.79Z"/>
          <path class="cls-3" d="M104.84,82.02s0-.09,0-.14c-.09-.01-.17-.02-.26-.04.08.06.17.12.26.18Z"/>
          <path class="cls-3" d="M59.74,107.67c-.24-.5-.52-.98-.83-1.44.29.47.57.95.83,1.44Z"/>
          <g>
            <path class="cls-3" d="M74.18,67.95h0s0,.02,0,.03c0-.01,0-.02,0-.03Z"/>
            <polygon class="cls-3" points="74.17 67.99 74.17 67.99 74.17 67.99 74.17 67.99 74.17 67.99 74.17 67.99"/>
            <path class="cls-3" d="M116.61,71.9c-2.8-.96-4.82-4.35-4.82-7.8,0-5.59-5.11-10.36-9.83-10.36-4.47,0-6.77,1.22-9.33,3.26-1.6,1.27-2.93,2.87-3.9,4.69-1.12,2.1-1.75,4.49-1.75,7.03v.39c.14,9.59,5.66,17.89,9,27.36,1.37,3.87,2.37,7.93,2.5,12.36.01.32.02.65.02.98,0,3-.92,5.93-6.05,5.93-7,0-18.94-22.66-18.94-37.54,0-5.28.39-7.67.43-7.95-1.83,4.38-11.14,14.93-17.14,17.28-.66-.84-1.37-1.63-2.12-2.39-4.79-4.77-11.4-7.72-18.7-7.72-2.07,0-4.08.23-6.02.68,1.28,4.49,5.52,11.56,14.76,16.95,9.24,5.39,11.38,6.67,14.17,11.16-2.1-3.07-5.62-5.08-9.62-5.08h-.3c-.29.01-.58.03-.86.05-.01,0-.02.01-.03.01-4.46.52-7.91,4.31-7.91,8.91,0,2.3.87,4.41,2.3,6l-7.63-5.33c.36-1.2.56-2.47.56-3.79,0-2.36-.63-4.58-1.74-6.48-1.26-2.18-3.13-3.95-5.38-5.08-.2-.09-.4-.16-.61-.23-1.01-.34-2.09-.52-3.22-.52-1.3,0-2.56.25-3.71.7.84.53,1.55,1.25,2.08,2.09.12.18.23.36.33.56-.51,0-1.01.06-1.48.17-.98.22-1.88.64-2.64,1.23.16.13.31.26.46.39.7.64,1.27,1.43,1.65,2.31-1.33.5-2.46,1.42-3.24,2.58,1.27.29,2.42.95,3.31,1.86.08.07.15.15.22.23,1.09,1.22,1.75,2.81,1.75,4.57,0,.11-.01.22-.01.34-.06,1.13-.39,2.18-.93,3.1-.07.13-.14.25-.23.37-.4.6-.9,1.14-1.47,1.58l19.14,13.37,10.65,7.43c0-12.41,4.57-16.58,9.91-16.58s9.91,4.17,9.91,16.58c0,1.78-.17,4.88-1.07,7.96-1.44-.76-3-1.31-4.66-1.6h-.01c-.9-.16-1.82-.24-2.77-.24-1.2,0-2.37.13-3.5.39-4.48,1-8.25,3.89-10.43,7.79,1.35-.37,2.76-.57,4.22-.57.54,0,1.08.03,1.6.08-.85,1.4-1.49,2.94-1.87,4.58h23.85c.11-1.09.28-2.16.52-3.21.4-1.77.96-3.47,1.68-5.09,2.09-4.72,5.47-8.74,9.68-11.62-.27-1.56-.41-3.16-.41-4.79,0-2.07.22-4.08.66-6.02,1.07.24,2.19.37,3.34.37,3.71,0,7.1-1.34,9.72-3.57,3.23-2.75,5.27-6.84,5.27-11.41v-.39c-.02-1.77-.17-3.44-.44-5.04-1.39-8.58-5.84-14.88-8.73-22.37-1.48-3.84-3.78-7.74-3.78-13.66,0-7.43,3.75-9.9,6.08-9.9s3.52,1.93,3.52,3.72c0,.49-.09.95-.26,1.38-.55,1.44-1.94,2.46-3.57,2.46-1,0-1.91-.38-2.59-1-.25.52-.39,1.11-.39,1.73,0,2.24,1.81,4.05,4.05,4.05.12,0,.23,0,.34-.01-.07.51-.11,1.03-.11,1.56,0,3.59,1.77,6.77,4.49,8.71.08.01.17.03.25.04v-.2c0-2.38,1.16-4.48,2.94-5.77.98.51,2.09.79,3.27.79,1.56,0,3-.5,4.17-1.35.11-.08.21-.16.32-.25.94-.77,1.69-1.77,2.14-2.93-.37-.06-.72-.15-1.06-.27Z"/>
            <path class="cls-3" d="M57.73,83.36c5.55-3.46,15.11-15.59,16.25-20.99,2.46,2.26,4.3,5.6,4.95,10.26,1.74-1.96,5.95-7.95,8.87-15.07.76-1.68,1.34-3.47,1.69-5.33,0-.03.01-.05.02-.08.02-.1.03-.19.05-.28.15-.79.25-1.57.29-2.32,0,0,2.35.09,4.39,2.55,2.33-6.99-4.32-13.85-4.32-13.85,0,0,2.48-1.6,7.72.24-.58-7-5.08-12.91-9.19-15.02,3.77-2.96,5.59-5.92,6.52-11.34h-7.08c.86-2.02,1.56-4.12,2.07-6.3h-18.86c-.47,0-.93.03-1.38.1-.25.03-.5.08-.74.13-2.68.59-4.94,2.28-6.3,4.56.78.77,1.85,1.24,3.03,1.24.65,0,1.26-.14,1.81-.4.2-.09.39-.2.57-.31.01,0,.03-.02.04-.03.85-.57,1.88-.9,2.98-.9.23,0,.46.02.69.05.92.11,1.77.46,2.48.98-.33.32-.68.61-1.05.88-.61.44-1.26.81-1.96,1.11-1.18.5-2.49.78-3.86.78-.06,0-.12,0-.17,0-.42,0-.84-.04-1.24-.1-.73-.1-1.43-.28-2.09-.54-.05-.02-.1-.04-.15-.06-.64-.25-1.3-.46-1.98-.63-1.42-.36-2.91-.56-4.44-.56-.08,0-.16,0-.23,0-1.5.02-2.96.22-4.35.59.14.29.27.57.4.86.25.55.48,1.1.69,1.67.1.25.2.51.29.77.89,2.48,1.52,5.08,1.84,7.78,1.39-1,3.1-1.59,4.95-1.59.86,0,1.69.13,2.48.37.53.16,1.03.37,1.51.62.37.2.72.42,1.06.66,0,.03,0,.06-.01.08,0,.01,0,.02,0,.03-.23,1.89-1.09,3.59-2.35,4.89-.78.8-1.86,1.26-2.98,1.28-.04,0-.07,0-.11,0-1.57,0-3.04-.42-4.3-1.17-.02.78-.06,1.56-.14,2.33-.13,1.49-.36,2.95-.67,4.39-.09.41-.19.83-.29,1.24-.22.88-.48,1.75-.77,2.6,7.63-.57,15.28-1.74,21.03-6.21-6.97,9.78-22.16,9.11-22.16,9.11-.32.72-.66,1.43-1.02,2.12-.37.72-.78,1.43-1.2,2.11-.48.78-.98,1.54-1.52,2.27-1.6,2.22-3.46,4.24-5.52,6.03-.12.1-.24.2-.35.3-3.8,3.21-8.28,5.64-13.2,7.04-3.09.88-6.36,1.35-9.74,1.35-3.55,0-6.98-.52-10.21-1.49-2.49-.74-4.86-1.75-7.09-3-.75.75-1.21,1.79-1.21,2.93,0,.34.04.67.12.99-1.29.56-2.2,1.84-2.2,3.34,0,1.68,1.14,3.1,2.7,3.51-.08.28-.12.57-.12.87,0,1.77,1.43,3.2,3.2,3.2h30.18c8.56,0,16.29,3.6,21.74,9.37Z"/>
          </g>
        </g>
      </g>
    </symbol>
  </defs>
  <g id="Layer_1-2" data-name="Layer 1">
    <g>
      <line class="cls-1" x1="533.94" y1="2.71" x2="419.17" y2="2.71"/>
      <line class="cls-1" x1="533.94" y1="72.43" x2="419.17" y2="72.43"/>
      <line class="cls-1" x1="178" y1="9.47" x2="139.1" y2="9.47"/>
      <line class="cls-1" x1="178" y1="32.71" x2="139.1" y2="32.71"/>
      <line class="cls-1" x1="178" y1="55.95" x2="139.1" y2="55.95"/>
      <line class="cls-1" x1="291.24" y1="14.33" x2="252.33" y2="14.33"/>
      <line class="cls-1" x1="291.24" y1="37.57" x2="252.33" y2="37.57"/>
      <line class="cls-1" x1="365.48" y1="116.01" x2="365.48" y2="77.1"/>
      <line class="cls-1" x1="353.86" y1="116.01" x2="353.86" y2="77.1"/>
      <line class="cls-1" x1="431.93" y1="116.01" x2="431.93" y2="77.1"/>
      <line class="cls-1" x1="420.3" y1="116.01" x2="420.3" y2="77.1"/>
      <line class="cls-1" x1="291.24" y1="60.81" x2="252.33" y2="60.81"/>
      <line class="cls-1" x1="178" y1="79.19" x2="139.1" y2="79.19"/>
      <g>
        <path class="cls-3" d="M50.51,183.75h18.34l8.54,8.39v21.85c0,5.18-1.41,9.18-4.23,12-2.82,2.82-6.84,4.23-12.06,4.23h-10.58v-46.48ZM67.24,221.59c1.18-1.22,1.76-3.27,1.76-6.14v-18.59c0-2.08-.56-3.68-1.69-4.79s-2.75-1.66-4.87-1.66h-3.74v33.02h2.54c2.82,0,4.82-.61,6-1.84Z"/>
        <path class="cls-3" d="M83.53,183.75h22.86v6.8h-14.68v13.94c.99-.46,2.32-.81,3.99-1.04,1.67-.23,3.52-.35,5.54-.35,1.22,0,2.14.02,2.75.07v6.8c-1.69-.09-2.89-.14-3.6-.14-4,0-6.89.51-8.68,1.53v11.93h15.31v6.94h-23.49v-46.48Z"/>
        <path class="cls-3" d="M111.97,183.75h18.2l8.54,8.39v2.01c0,6.98-2.4,11.79-7.2,14.43,5.41,3.61,8.11,10.82,8.11,21.64h-8.26c0-6.43-.81-11.12-2.43-14.08-1.62-2.96-4.22-4.44-7.8-4.44h-.99v18.52h-8.18v-46.48ZM127.88,203.35c1.62-1.13,2.43-2.92,2.43-5.38v-1.66c0-1.85-.58-3.31-1.73-4.37-1.15-1.06-2.74-1.6-4.76-1.6h-3.67v14.78c3.53-.05,6.1-.63,7.73-1.77Z"/>
        <path class="cls-3" d="M151.83,190.27h-9.1v-6.52h26.39v6.52h-9.1v39.96h-8.18v-39.96Z"/>
        <path class="cls-3" d="M192.68,212.12c-.42-.83-1.14-1.49-2.15-1.98-1.01-.49-2.15-.73-3.42-.73-1.36,0-2.54.24-3.53.73-.99.49-1.67,1.17-2.05,2.05v18.04h-8.18v-46.48h8.18v20.53c1.88-1.06,3.76-1.6,5.64-1.6s3.64.51,5.57,1.53v-20.46h8.11v46.48h-8.18v-18.11Z"/>
        <path class="cls-3" d="M206.86,222.25v-30.52l8.68-8.39h11.43l8.68,8.39v30.52l-8.68,8.39h-11.43l-8.68-8.39ZM225.56,222.18c1.18-1.02,1.76-2.27,1.76-3.75v-23.03c0-1.48-.59-2.73-1.76-3.75-1.18-1.02-2.61-1.53-4.3-1.53s-3.13.51-4.3,1.53c-1.18,1.02-1.76,2.27-1.76,3.75v23.03c0,1.48.59,2.73,1.76,3.75,1.18,1.02,2.61,1.53,4.3,1.53s3.13-.51,4.3-1.53Z"/>
        <path class="cls-3" d="M241.65,183.75h8.89l10.23,28.16.42,2.01h.35v-30.18h7.9v46.48h-8.54l-10.44-27.96-.56-2.01h-.35l.07,1.32v28.65h-7.97v-46.48Z"/>
        <path class="cls-3" d="M282.22,183.75h11.15l9.24,46.48h-7.69c-.71-2.27-1.74-4.1-3.1-5.52-1.36-1.41-2.78-2.12-4.23-2.12s-2.94.71-4.3,2.12c-1.36,1.41-2.38,3.25-3.03,5.52h-7.2l9.17-46.48ZM287.58,215.94c1.6,0,3.25.62,4.94,1.87l-3.03-15.54-1.62-10.27h-.35l-1.62,10.27-3.1,15.4c1.69-1.16,3.29-1.73,4.8-1.73Z"/>
      </g>
      <g>
        <path class="cls-3" d="M380.67,183.73h18.34l8.54,8.4v.56c0,5.83-1.74,10.27-5.22,13.32l5.86,5.76v10.06l-8.4,8.4h-19.12v-46.5ZM396.76,201.98c1.65-1.2,2.47-3.1,2.47-5.69,0-2.08-.52-3.6-1.55-4.55-1.04-.95-2.71-1.42-5.01-1.42h-3.81v13.53c3.62-.05,6.26-.67,7.9-1.87ZM393.23,223.43c2.3,0,3.97-.51,5.01-1.53,1.03-1.02,1.55-2.61,1.55-4.79v-1.04c0-3.84-1.74-5.97-5.22-6.38-1.88.37-3.79.56-5.72.56v13.19h4.37Z"/>
        <path class="cls-3" d="M420.04,183.73h11.15l9.24,46.5h-7.69c-.71-2.27-1.74-4.11-3.1-5.52-1.36-1.41-2.78-2.12-4.23-2.12s-2.94.71-4.3,2.12c-1.36,1.41-2.38,3.25-3.03,5.52h-7.2l9.17-46.5ZM425.4,215.93c1.6,0,3.25.62,4.94,1.87l-3.03-15.55-1.62-10.27h-.35l-1.62,10.27-3.1,15.41c1.69-1.16,3.29-1.73,4.8-1.73Z"/>
        <path class="cls-3" d="M442.9,222.25v-8.54h8.18v4.79c0,1.71.46,3.02,1.38,3.92.92.9,2.25,1.35,3.99,1.35s3.07-.45,3.99-1.35c.92-.9,1.38-2.21,1.38-3.92,0-.83-.25-1.7-.74-2.6-.49-.9-1.19-1.72-2.08-2.46l-15.8-13.46v-8.26l8.54-8.4h9.31l8.54,8.4v6.73h-8.18v-3.12c0-1.71-.42-3.02-1.27-3.92-.85-.9-2.07-1.35-3.67-1.35s-2.85.38-3.74,1.14c-.89.76-1.34,1.84-1.34,3.23,0,.6.25,1.27.74,2.01.49.74,1.14,1.46,1.94,2.15l15.95,13.6v10.06l-8.54,8.4h-10.02l-8.54-8.4Z"/>
        <path class="cls-3" d="M474.93,183.73h8.18v19.57c1.03,0,2.09.12,3.18.35l7.97-19.92h8.18l-9.38,22.76c3.01,2.13,5.35,5.24,7.02,9.33,1.67,4.09,2.5,8.89,2.5,14.4h-8.26c0-6.34-.98-11.24-2.93-14.71-1.95-3.47-4.72-5.27-8.29-5.41v20.13h-8.18v-46.5Z"/>
        <path class="cls-3" d="M508.16,183.73h22.86v6.8h-14.68v13.95c.99-.46,2.32-.81,3.99-1.04,1.67-.23,3.52-.35,5.54-.35,1.22,0,2.14.02,2.75.07v6.8c-1.69-.09-2.89-.14-3.6-.14-4,0-6.89.51-8.68,1.53v11.94h15.31v6.94h-23.49v-46.5Z"/>
        <path class="cls-3" d="M543.58,190.26h-9.1v-6.52h26.39v6.52h-9.1v39.97h-8.18v-39.97Z"/>
      </g>
      <g>
        <path class="cls-3" d="M297.53,14.33h18.04l8.39,8.39v21.85c0,5.18-1.39,9.18-4.16,12-2.78,2.82-6.73,4.23-11.86,4.23h-10.41V14.33ZM313.98,52.17c1.16-1.23,1.73-3.27,1.73-6.14v-18.59c0-2.08-.56-3.68-1.67-4.79-1.11-1.11-2.71-1.66-4.79-1.66h-3.68v33.02h2.5c2.77,0,4.74-.61,5.9-1.84Z"/>
        <path class="cls-3" d="M336.87,20.85h-8.95v-6.52h25.95v6.52h-8.95v39.96h-8.05V20.85Z"/>
      </g>
      <g>
        <path class="cls-3" d="M431.93,14.31h18.04l8.4,8.4v.56c0,5.83-1.71,10.27-5.14,13.32l5.76,5.76v10.06l-8.26,8.4h-18.81V14.31ZM447.75,32.56c1.62-1.2,2.43-3.1,2.43-5.69,0-2.08-.51-3.6-1.53-4.55-1.02-.95-2.66-1.42-4.93-1.42h-3.75v13.53c3.56-.05,6.15-.67,7.77-1.87ZM444.28,54c2.27,0,3.91-.51,4.93-1.53,1.02-1.02,1.53-2.61,1.53-4.79v-1.04c0-3.84-1.71-5.97-5.14-6.39-1.85.37-3.72.56-5.62.56v13.19h4.3Z"/>
        <path class="cls-3" d="M464.34,14.31h8.05v19.57c1.02,0,2.06.12,3.12.35l7.84-19.92h8.05l-9.23,22.76c2.96,2.13,5.26,5.24,6.91,9.33,1.64,4.09,2.46,8.9,2.46,14.4h-8.12c0-6.34-.96-11.24-2.88-14.71-1.92-3.47-4.64-5.27-8.15-5.41v20.13h-8.05V14.31Z"/>
      </g>
      <text class="cls-5" transform="translate(269.86 28.24)"><tspan x="0" y="0">X</tspan></text>
      <text class="cls-5" transform="translate(156.63 23.38)"><tspan x="0" y="0">X</tspan></text>
      <text class="cls-5" transform="translate(156.63 46.62)"><tspan x="0" y="0">X</tspan></text>
      <text class="cls-5" transform="translate(156.63 69.87)"><tspan x="0" y="0">X</tspan></text>
      <text class="cls-5" transform="translate(269.86 51.48)"><tspan x="0" y="0">X</tspan></text>
      <line class="cls-1" x1="559.54" y1="2.7" x2="520.64" y2="2.7"/>
      <text class="cls-4" transform="translate(536.26 39.86)"><tspan class="cls-12" x="0" y="0">3</tspan><tspan class="cls-10" x="3.81" y="0">X</tspan></text>
      <line class="cls-1" x1="559.54" y1="72.43" x2="520.64" y2="72.43"/>
      <text class="cls-4" transform="translate(354.71 98.85)"><tspan class="cls-13" x="0" y="0">X</tspan><tspan class="cls-9" x="3.92" y="0">/</tspan><tspan class="cls-8" x="6.29" y="0">2</tspan></text>
      <text class="cls-4" transform="translate(421.15 98.85)"><tspan class="cls-13" x="0" y="0">X</tspan><tspan class="cls-9" x="3.92" y="0">/</tspan><tspan class="cls-8" x="6.29" y="0">2</tspan></text>
      <line class="cls-1" x1="572.48" y1="172.13" x2="367.92" y2="172.13"/>
      <line class="cls-1" x1="572.48" y1="241.85" x2="367.92" y2="241.85"/>
      <line class="cls-1" x1="38.9" y1="183.75" x2="0" y2="183.75"/>
      <line class="cls-1" x1="38.9" y1="206.99" x2="0" y2="206.99"/>
      <line class="cls-1" x1="314.23" y1="285.43" x2="314.23" y2="246.53"/>
      <line class="cls-1" x1="302.61" y1="285.43" x2="302.61" y2="246.53"/>
      <line class="cls-1" x1="380.67" y1="285.43" x2="380.67" y2="246.53"/>
      <line class="cls-1" x1="369.05" y1="285.43" x2="369.05" y2="246.53"/>
      <line class="cls-1" x1="38.9" y1="230.23" x2="0" y2="230.23"/>
      <text class="cls-5" transform="translate(17.53 197.66)"><tspan x="0" y="0">X</tspan></text>
      <text class="cls-5" transform="translate(17.53 220.91)"><tspan x="0" y="0">X</tspan></text>
      <line class="cls-1" x1="611.38" y1="172.13" x2="572.48" y2="172.13"/>
      <text class="cls-4" transform="translate(588.1 209.28)"><tspan class="cls-12" x="0" y="0">3</tspan><tspan class="cls-10" x="3.81" y="0">X</tspan></text>
      <line class="cls-1" x1="611.38" y1="241.85" x2="572.48" y2="241.85"/>
      <text class="cls-4" transform="translate(303.45 268.27)"><tspan class="cls-13" x="0" y="0">X</tspan><tspan class="cls-9" x="3.92" y="0">/</tspan><tspan class="cls-8" x="6.29" y="0">2</tspan></text>
      <text class="cls-4" transform="translate(369.89 268.27)"><tspan class="cls-13" x="0" y="0">X</tspan><tspan class="cls-9" x="3.92" y="0">/</tspan><tspan class="cls-8" x="6.29" y="0">2</tspan></text>
      <use width="117.67" height="155.94" transform="translate(85.47 6.76) scale(.46)" xlink:href="#Derthona_Lion"/>
      <use width="117.67" height="155.94" transform="translate(365.57) scale(.46)" xlink:href="#Derthona_Lion"/>
      <use width="117.67" height="155.94" transform="translate(314.4 169.42) scale(.46)" xlink:href="#Derthona_Lion"/>
    </g>
    <path class="cls-11" d="M525.89,398.43c5.85-8.82-1.29-17.44-1.29-17.44,0,0-10.4-4.12-16.98,4.16-6.57-8.29-16.98-4.16-16.98-4.16,0,0-7.13,8.62-1.29,17.44-9.91,3.7-9.21,14.86-9.21,14.86,0,0,5.99,9.45,16.18,6.61.45,10.57,11.29,13.34,11.29,13.34,0,0,10.84-2.77,11.3-13.34,10.19,2.84,16.18-6.61,16.18-6.61,0,0,.71-11.16-9.21-14.86ZM512.88,411.79l-5.26-2.66-5.25,2.66.9-5.82-4.15-4.19,5.82-.94,2.69-5.25,2.7,5.25,5.82.94-4.15,4.19.9,5.82Z"/>
    <g class="cls-6">
      <path class="cls-11" d="M470.94,398.43c5.85-8.82-1.29-17.44-1.29-17.44,0,0-10.4-4.12-16.98,4.16-6.57-8.29-16.98-4.16-16.98-4.16,0,0-7.13,8.62-1.29,17.44-9.91,3.7-9.21,14.86-9.21,14.86,0,0,5.99,9.45,16.18,6.61.45,10.57,11.29,13.34,11.29,13.34,0,0,10.84-2.77,11.3-13.34,10.19,2.84,16.18-6.61,16.18-6.61,0,0,.71-11.16-9.21-14.86ZM457.93,411.79l-5.26-2.66-5.25,2.66.9-5.82-4.15-4.19,5.82-.94,2.69-5.25,2.7,5.25,5.82.94-4.15,4.19.9,5.82Z"/>
    </g>
    <g class="cls-6">
      <path class="cls-11" d="M580.83,398.43c5.85-8.82-1.29-17.44-1.29-17.44,0,0-10.4-4.12-16.98,4.16-6.57-8.29-16.98-4.16-16.98-4.16,0,0-7.13,8.62-1.29,17.44-9.91,3.7-9.21,14.86-9.21,14.86,0,0,5.99,9.45,16.18,6.61.45,10.57,11.29,13.34,11.29,13.34,0,0,10.84-2.77,11.3-13.34,10.19,2.84,16.18-6.61,16.18-6.61,0,0,.71-11.16-9.21-14.86ZM567.82,411.79l-5.26-2.66-5.25,2.66.9-5.82-4.15-4.19,5.82-.94,2.69-5.25,2.7,5.25,5.82.94-4.15,4.19.9,5.82Z"/>
    </g>
    <g class="cls-6">
      <path class="cls-11" d="M525.89,345.15c5.85-8.82-1.29-17.44-1.29-17.44,0,0-10.4-4.12-16.98,4.16-6.57-8.29-16.98-4.16-16.98-4.16,0,0-7.13,8.62-1.29,17.44-9.91,3.7-9.21,14.86-9.21,14.86,0,0,5.99,9.45,16.18,6.61.45,10.57,11.29,13.34,11.29,13.34,0,0,10.84-2.77,11.3-13.34,10.19,2.84,16.18-6.61,16.18-6.61,0,0,.71-11.16-9.21-14.86ZM512.88,358.51l-5.26-2.66-5.25,2.66.9-5.82-4.15-4.19,5.82-.94,2.69-5.25,2.7,5.25,5.82.94-4.15,4.19.9,5.82Z"/>
    </g>
    <g class="cls-6">
      <path class="cls-11" d="M525.89,451.71c5.85-8.82-1.29-17.44-1.29-17.44,0,0-10.4-4.12-16.98,4.16-6.57-8.29-16.98-4.16-16.98-4.16,0,0-7.13,8.62-1.29,17.44-9.91,3.7-9.21,14.86-9.21,14.86,0,0,5.99,9.45,16.18,6.61.45,10.57,11.29,13.34,11.29,13.34,0,0,10.84-2.77,11.3-13.34,10.19,2.84,16.18-6.61,16.18-6.61,0,0,.71-11.16-9.21-14.86ZM512.88,465.07l-5.26-2.66-5.25,2.66.9-5.82-4.15-4.19,5.82-.94,2.69-5.25,2.7,5.25,5.82.94-4.15,4.19.9,5.82Z"/>
    </g>
    <line class="cls-1" x1="590.05" y1="314.32" x2="590.05" y2="498.89"/>
    <line class="cls-2" x1="535.1" y1="314.32" x2="535.1" y2="498.89"/>
    <line class="cls-2" x1="480.16" y1="314.32" x2="480.16" y2="498.89"/>
    <line class="cls-1" x1="425.19" y1="314.32" x2="425.19" y2="498.89"/>
    <line class="cls-1" x1="605.33" y1="486.53" x2="409.9" y2="486.53"/>
    <line class="cls-1" x1="605.33" y1="326.68" x2="409.9" y2="326.68"/>
    <line class="cls-2" x1="605.33" y1="433.25" x2="409.9" y2="433.25"/>
    <line class="cls-2" x1="605.33" y1="379.97" x2="409.9" y2="379.97"/>
    <g>
      <path class="cls-7" d="M165.87,364.29l11.3,11.3v24.98c0,.54,0,1.05-.02,1.58-.08,3.3-.6,6.27-1.56,8.85-.17.44-.33.86-.5,1.26l-.02.05c-.09.19-.18.4-.29.62-.06.17-.16.37-.28.58-.79,1.56-1.73,2.95-2.82,4.14l6.25,6.25v13.73l-11.1,11.3h-25.48v-84.63h24.54"/>
      <g>
        <path class="cls-3" d="M175.43,376.3v24.27c0,.52,0,1.02-.02,1.52-.07,3.09-.55,5.87-1.46,8.3-.16.41-.32.82-.48,1.21-.09.2-.18.41-.3.61-.05.14-.11.3-.21.43-.95,1.91-2.21,3.62-3.77,4.98-2.34,2.14-5.41,3.66-9.28,4.46-1.11.23-2.3.41-3.55.5-.55.07-1.11.09-1.68.11v-8.8c3.37,0,5.66,0,7.8-1.43,2.52-1.68,2.82-3.62,2.82-6.8v-23.58c0-2.55-.66-4.5-2.02-5.87-1.36-1.36-3.32-2.05-5.87-2.05h-4.5v14.37h-9.85v-22.51h22.08l10.28,10.28ZM170.54,418.97c-1.98,1.8-4.48,3.21-7.5,4.14,2.02,1.23,3.05,3.48,3.05,6.75v1.27c0,2.66-.61,4.62-1.86,5.87-1.25,1.25-3.25,1.86-6.03,1.86h-5.28v-40.5h4.59c2.77,0,4.78.59,6.03,1.75v-9.8h-20.47v56.88h23.01l10.1-10.28v-12.3l-5.64-5.64Z"/>
        <path class="cls-11" d="M165.87,364.29l11.3,11.3v24.98c0,.54,0,1.05-.02,1.58-.08,3.3-.6,6.27-1.56,8.85-.17.44-.33.86-.5,1.26l-.02.05c-.09.19-.18.4-.29.62-.06.17-.16.37-.28.58-.79,1.56-1.73,2.95-2.82,4.14l6.25,6.25v13.73l-11.1,11.3h-25.48v-84.63h24.54M154.65,388.58h8.93v-6.5c0-2.1-.5-3.62-1.52-4.64-1.04-1.04-2.55-1.54-4.64-1.54h-2.77v12.68M154.69,412.16c3.2,0,5.14,0,6.83-1.14,1.77-1.18,2.05-2.32,2.05-5.36v-3.15l-1.22-1.13c-.92-.85-2.55-1.29-4.85-1.29h-2.86l.04,12.06M154.65,437.13h3.54c2.28,0,3.9-.46,4.8-1.36.9-.9,1.36-2.46,1.36-4.64v-1.27c0-2.64-.72-4.37-2.21-5.27l-1.47-.89c-.13.03-.26.06-.4.08-1.3.27-2.52.44-3.73.53-.6.07-1.2.1-1.78.12h-.11v12.7M166.29,363.27h-25.98v86.67h26.93l.3-.31,11.1-11.3.29-.3v-14.57l-.3-.3-5.58-5.58c.88-1.07,1.66-2.28,2.32-3.59.12-.2.23-.42.32-.65.11-.22.21-.43.29-.61h0s0-.02,0-.02l.02-.05c.18-.44.35-.88.51-1.29,1.01-2.69,1.55-5.78,1.63-9.19.02-.55.02-1.07.02-1.61v-25.41l-.3-.3-11.3-11.3-.3-.3h0ZM155.67,376.92h1.75c1.8,0,3.09.41,3.92,1.24.82.82,1.22,2.1,1.22,3.92v5.48h-6.89v-10.64h0ZM155.68,401.12h1.84c2.53,0,3.65.55,4.15,1.02l.89.83v2.7c0,2.9-.25,3.61-1.6,4.51-1.28.86-2.77.95-5.25.97l-.03-10.02h0ZM156.64,425.33c1.24-.09,2.5-.27,3.83-.54,0,0,0,0,0,0l1.12.68c1.16.7,1.72,2.14,1.72,4.4v1.27c0,1.87-.37,3.23-1.06,3.92-.69.69-2.1,1.06-4.08,1.06h-2.52v-10.7c.32-.02.64-.04.97-.08h0Z"/>
      </g>
    </g>
    <g class="cls-6">
      <path class="cls-7" d="M114.76,448.92l-11.3-11.3v-24.98c0-.54,0-1.05.02-1.58.08-3.3.6-6.27,1.56-8.85.17-.44.33-.86.5-1.26l.02-.05c.09-.19.18-.4.29-.62.06-.17.16-.37.28-.58.79-1.56,1.73-2.95,2.82-4.14l-6.25-6.25v-13.73l11.1-11.3h25.48v84.63h-24.54"/>
      <g>
        <path class="cls-3" d="M105.2,436.91v-24.27c0-.52,0-1.02.02-1.52.07-3.09.55-5.87,1.46-8.3.16-.41.32-.82.48-1.21.09-.2.18-.41.3-.61.05-.14.11-.3.21-.43.95-1.91,2.21-3.62,3.77-4.98,2.34-2.14,5.41-3.66,9.28-4.46,1.11-.23,2.3-.41,3.55-.5.55-.07,1.11-.09,1.68-.11v8.8c-3.37,0-5.66,0-7.8,1.43-2.52,1.68-2.82,3.62-2.82,6.8v23.58c0,2.55.66,4.5,2.02,5.87,1.36,1.36,3.32,2.05,5.87,2.05h4.5v-14.37h9.85v22.51h-22.08l-10.28-10.28ZM110.09,394.25c1.98-1.8,4.48-3.21,7.5-4.14-2.02-1.23-3.05-3.48-3.05-6.75v-1.27c0-2.66.61-4.62,1.86-5.87,1.25-1.25,3.25-1.86,6.03-1.86h5.28v40.5h-4.59c-2.77,0-4.78-.59-6.03-1.75v9.8h20.47v-56.88h-23.01l-10.1,10.28v12.3l5.64,5.64Z"/>
        <path class="cls-11" d="M114.76,448.92l-11.3-11.3v-24.98c0-.54,0-1.05.02-1.58.08-3.3.6-6.27,1.56-8.85.17-.44.33-.86.5-1.26l.02-.05c.09-.19.18-.4.29-.62.06-.17.16-.37.28-.58.79-1.56,1.73-2.95,2.82-4.14l-6.25-6.25v-13.73l11.1-11.3h25.48v84.63h-24.54M125.98,424.64h-8.93v6.5c0,2.1.5,3.62,1.52,4.64,1.04,1.04,2.55,1.54,4.64,1.54h2.77v-12.68M125.94,401.05c-3.2,0-5.14,0-6.83,1.14-1.77,1.18-2.05,2.32-2.05,5.36v3.15l1.22,1.13c.92.85,2.55,1.29,4.85,1.29h2.86l-.04-12.06M125.98,376.08h-3.54c-2.28,0-3.9.46-4.8,1.36-.9.9-1.36,2.46-1.36,4.64v1.27c0,2.64.72,4.37,2.21,5.27l1.47.89c.13-.03.26-.06.4-.08,1.3-.27,2.52-.44,3.73-.53.6-.07,1.2-.1,1.78-.12h.11v-12.7M114.34,449.94h25.98v-86.67h-26.93l-.3.31-11.1,11.3-.29.3v14.57l.3.3,5.58,5.58c-.88,1.07-1.66,2.28-2.32,3.59-.12.2-.23.42-.32.65-.11.22-.21.43-.29.61h0s0,.02,0,.02l-.02.05c-.18.44-.35.88-.51,1.29-1.01,2.69-1.55,5.78-1.63,9.19-.02.55-.02,1.07-.02,1.61v25.41l.3.3,11.3,11.3.3.3h0ZM124.96,436.29h-1.75c-1.8,0-3.09-.41-3.92-1.24-.82-.82-1.22-2.1-1.22-3.92v-5.48h6.89v10.64h0ZM124.96,412.1h-1.84c-2.53,0-3.65-.55-4.15-1.02l-.89-.83v-2.7c0-2.9.25-3.61,1.6-4.51,1.28-.86,2.77-.95,5.25-.97l.03,10.02h0ZM123.99,387.89c-1.24.09-2.5.27-3.83.54,0,0,0,0,0,0l-1.12-.68c-1.16-.7-1.72-2.14-1.72-4.4v-1.27c0-1.87.37-3.23,1.06-3.92.69-.69,2.1-1.06,4.08-1.06h2.52v10.7c-.32.02-.64.04-.97.08h0Z"/>
      </g>
    </g>
    <g class="cls-6">
      <path class="cls-7" d="M204.49,364.29l11.3,11.3v24.98c0,.54,0,1.05-.02,1.58-.08,3.3-.6,6.27-1.56,8.85-.17.44-.33.86-.5,1.26l-.02.05c-.09.19-.18.4-.29.62-.06.17-.16.37-.28.58-.79,1.56-1.73,2.95-2.82,4.14l6.25,6.25v13.73l-11.1,11.3h-25.48v-84.63h24.54"/>
      <g>
        <path class="cls-3" d="M214.05,376.3v24.27c0,.52,0,1.02-.02,1.52-.07,3.09-.55,5.87-1.46,8.3-.16.41-.32.82-.48,1.21-.09.2-.18.41-.3.61-.05.14-.11.3-.21.43-.95,1.91-2.21,3.62-3.77,4.98-2.34,2.14-5.41,3.66-9.28,4.46-1.11.23-2.3.41-3.55.5-.55.07-1.11.09-1.68.11v-8.8c3.37,0,5.66,0,7.8-1.43,2.52-1.68,2.82-3.62,2.82-6.8v-23.58c0-2.55-.66-4.5-2.02-5.87-1.36-1.36-3.32-2.05-5.87-2.05h-4.5v14.37h-9.85v-22.51h22.08l10.28,10.28ZM209.16,418.97c-1.98,1.8-4.48,3.21-7.5,4.14,2.02,1.23,3.05,3.48,3.05,6.75v1.27c0,2.66-.61,4.62-1.86,5.87-1.25,1.25-3.25,1.86-6.03,1.86h-5.28v-40.5h4.59c2.77,0,4.78.59,6.03,1.75v-9.8h-20.47v56.88h23.01l10.1-10.28v-12.3l-5.64-5.64Z"/>
        <path class="cls-11" d="M204.49,364.29l11.3,11.3v24.98c0,.54,0,1.05-.02,1.58-.08,3.3-.6,6.27-1.56,8.85-.17.44-.33.86-.5,1.26l-.02.05c-.09.19-.18.4-.29.62-.06.17-.16.37-.28.58-.79,1.56-1.73,2.95-2.82,4.14l6.25,6.25v13.73l-11.1,11.3h-25.48v-84.63h24.54M193.27,388.58h8.93v-6.5c0-2.1-.5-3.62-1.52-4.64-1.04-1.04-2.55-1.54-4.64-1.54h-2.77v12.68M193.31,412.16c3.2,0,5.14,0,6.83-1.14,1.77-1.18,2.05-2.32,2.05-5.36v-3.15l-1.22-1.13c-.92-.85-2.55-1.29-4.85-1.29h-2.86l.04,12.06M193.27,437.13h3.54c2.28,0,3.9-.46,4.8-1.36.9-.9,1.36-2.46,1.36-4.64v-1.27c0-2.64-.72-4.37-2.21-5.27l-1.47-.89c-.13.03-.26.06-.4.08-1.3.27-2.52.44-3.73.53-.6.07-1.2.1-1.78.12h-.11v12.7M204.92,363.27h-25.98v86.67h26.93l.3-.31,11.1-11.3.29-.3v-14.57l-.3-.3-5.58-5.58c.88-1.07,1.66-2.28,2.32-3.59.12-.2.23-.42.32-.65.11-.22.21-.43.29-.61h0s0-.02,0-.02l.02-.05c.18-.44.35-.88.51-1.29,1.01-2.69,1.55-5.78,1.63-9.19.02-.55.02-1.07.02-1.61v-25.41l-.3-.3-11.3-11.3-.3-.3h0ZM194.29,376.92h1.75c1.8,0,3.09.41,3.92,1.24.82.82,1.22,2.1,1.22,3.92v5.48h-6.89v-10.64h0ZM194.3,401.12h1.84c2.53,0,3.65.55,4.15,1.02l.89.83v2.7c0,2.9-.25,3.61-1.6,4.51-1.28.86-2.77.95-5.25.97l-.03-10.02h0ZM195.26,425.33c1.24-.09,2.5-.27,3.83-.54,0,0,0,0,0,0l1.12.68c1.16.7,1.72,2.14,1.72,4.4v1.27c0,1.87-.37,3.23-1.06,3.92-.69.69-2.1,1.06-4.08,1.06h-2.52v-10.7c.32-.02.64-.04.97-.08h0Z"/>
      </g>
    </g>
    <g class="cls-6">
      <path class="cls-7" d="M117.31,337.52l11.3-11.3h24.98c.54,0,1.05,0,1.58.02,3.3.08,6.27.6,8.85,1.56.44.17.86.33,1.26.5l.05.02c.19.09.4.18.62.29.17.06.37.16.58.28,1.56.79,2.95,1.73,4.14,2.82l6.25-6.25h13.73l11.3,11.1v25.48h-84.63v-24.54"/>
      <g>
        <path class="cls-3" d="M129.32,327.96h24.27c.52,0,1.02,0,1.52.02,3.09.07,5.87.55,8.3,1.46.41.16.82.32,1.21.48.2.09.41.18.61.3.14.05.3.11.43.21,1.91.95,3.62,2.21,4.98,3.77,2.14,2.34,3.66,5.41,4.46,9.28.23,1.11.41,2.3.5,3.55.07.55.09,1.11.11,1.68h-8.8c0-3.37,0-5.66-1.43-7.8-1.68-2.52-3.62-2.82-6.8-2.82h-23.58c-2.55,0-4.5.66-5.87,2.02-1.36,1.36-2.05,3.32-2.05,5.87v4.5h14.37v9.85h-22.51v-22.08l10.28-10.28ZM171.99,332.84c1.8,1.98,3.21,4.48,4.14,7.5,1.23-2.02,3.48-3.05,6.75-3.05h1.27c2.66,0,4.62.61,5.87,1.86,1.25,1.25,1.86,3.25,1.86,6.03v5.28h-40.5v-4.59c0-2.77.59-4.78,1.75-6.03h-9.8v20.47h56.88v-23.01l-10.28-10.1h-12.3l-5.64,5.64Z"/>
        <path class="cls-11" d="M117.31,337.52l11.3-11.3h24.98c.54,0,1.05,0,1.58.02,3.3.08,6.27.6,8.85,1.56.44.17.86.33,1.26.5l.05.02c.19.09.4.18.62.29.17.06.37.16.58.28,1.56.79,2.95,1.73,4.14,2.82l6.25-6.25h13.73l11.3,11.1v25.48h-84.63v-24.54M141.6,348.73v-8.93h-6.5c-2.1,0-3.62.5-4.64,1.52-1.04,1.04-1.54,2.55-1.54,4.64v2.77h12.68M165.18,348.7c0-3.2,0-5.14-1.14-6.83-1.18-1.77-2.32-2.05-5.36-2.05h-3.15l-1.13,1.22c-.85.92-1.29,2.55-1.29,4.85v2.86l12.06-.04M190.15,348.73v-3.54c0-2.28-.46-3.9-1.36-4.8-.9-.9-2.46-1.36-4.64-1.36h-1.27c-2.64,0-4.37.72-5.27,2.21l-.89,1.47c.03.13.06.26.08.4.27,1.3.44,2.52.53,3.73.07.6.1,1.2.12,1.78v.11h12.7M116.29,337.09v25.98h86.67v-26.93l-.31-.3-11.3-11.1-.3-.29h-14.57l-.3.3-5.58,5.58c-1.07-.88-2.28-1.66-3.59-2.32-.2-.12-.42-.23-.65-.32-.22-.11-.43-.21-.61-.29h0s-.02-.01-.02-.01l-.05-.02c-.44-.18-.88-.35-1.29-.51-2.69-1.01-5.78-1.55-9.19-1.63-.55-.02-1.07-.02-1.61-.02h-25.41l-.3.3-11.3,11.3-.3.3h0ZM129.94,347.71v-1.75c0-1.8.41-3.09,1.24-3.92.82-.82,2.1-1.22,3.92-1.22h5.48v6.89h-10.64ZM154.14,347.71v-1.84c0-2.53.55-3.65,1.02-4.15l.83-.89h2.7c2.9,0,3.61.25,4.51,1.6.86,1.28.95,2.77.97,5.25l-10.02.03h0ZM178.34,346.74c-.09-1.24-.27-2.5-.54-3.83,0,0,0,0,0,0l.68-1.12c.7-1.16,2.14-1.72,4.4-1.72h1.27c1.87,0,3.23.37,3.92,1.06.69.69,1.06,2.1,1.06,4.08v2.52h-10.7c-.02-.32-.04-.64-.08-.97h0Z"/>
      </g>
    </g>
    <g class="cls-6">
      <path class="cls-7" d="M201.94,475.5l-11.3,11.3h-24.98c-.54,0-1.05,0-1.58-.02-3.3-.08-6.27-.6-8.85-1.56-.44-.17-.86-.33-1.26-.5l-.05-.02c-.19-.09-.4-.18-.62-.29-.17-.06-.37-.16-.58-.28-1.56-.79-2.95-1.73-4.14-2.82l-6.25,6.25h-13.73l-11.3-11.1v-25.48h84.63v24.54"/>
      <g>
        <path class="cls-3" d="M189.93,485.06h-24.27c-.52,0-1.02,0-1.52-.02-3.09-.07-5.87-.55-8.3-1.46-.41-.16-.82-.32-1.21-.48-.2-.09-.41-.18-.61-.3-.14-.05-.3-.11-.43-.21-1.91-.95-3.62-2.21-4.98-3.77-2.14-2.34-3.66-5.41-4.46-9.28-.23-1.11-.41-2.3-.5-3.55-.07-.55-.09-1.11-.11-1.68h8.8c0,3.37,0,5.66,1.43,7.8,1.68,2.52,3.62,2.82,6.8,2.82h23.58c2.55,0,4.5-.66,5.87-2.02,1.36-1.36,2.05-3.32,2.05-5.87v-4.5h-14.37v-9.85h22.51v22.08l-10.28,10.28ZM147.27,480.17c-1.8-1.98-3.21-4.48-4.14-7.5-1.23,2.02-3.48,3.05-6.75,3.05h-1.27c-2.66,0-4.62-.61-5.87-1.86-1.25-1.25-1.86-3.25-1.86-6.03v-5.28h40.5v4.59c0,2.77-.59,4.78-1.75,6.03h9.8v-20.47h-56.88v23.01l10.28,10.1h12.3l5.64-5.64Z"/>
        <path class="cls-11" d="M201.94,475.5l-11.3,11.3h-24.98c-.54,0-1.05,0-1.58-.02-3.3-.08-6.27-.6-8.85-1.56-.44-.17-.86-.33-1.26-.5l-.05-.02c-.19-.09-.4-.18-.62-.29-.17-.06-.37-.16-.58-.28-1.56-.79-2.95-1.73-4.14-2.82l-6.25,6.25h-13.73l-11.3-11.1v-25.48h84.63v24.54M177.66,464.28v8.93h6.5c2.1,0,3.62-.5,4.64-1.52,1.04-1.04,1.54-2.55,1.54-4.64v-2.77h-12.68M154.07,464.32c0,3.2,0,5.14,1.14,6.83,1.18,1.77,2.32,2.05,5.36,2.05h3.15l1.13-1.22c.85-.92,1.29-2.55,1.29-4.85v-2.86l-12.06.04M129.1,464.28v3.54c0,2.28.46,3.9,1.36,4.8.9.9,2.46,1.36,4.64,1.36h1.27c2.64,0,4.37-.72,5.27-2.21l.89-1.47c-.03-.13-.06-.26-.08-.4-.27-1.3-.44-2.52-.53-3.73-.07-.6-.1-1.2-.12-1.78v-.11h-12.7M202.96,475.92v-25.98h-86.67v26.93l.31.3,11.3,11.1.3.29h14.57l.3-.3,5.58-5.58c1.07.88,2.28,1.66,3.59,2.32.2.12.42.23.65.32.22.11.43.21.61.29h0s.02.01.02.01l.05.02c.44.18.88.35,1.29.51,2.69,1.01,5.78,1.55,9.19,1.63.55.02,1.07.02,1.61.02h25.41l.3-.3,11.3-11.3.3-.3h0ZM189.31,465.3v1.75c0,1.8-.41,3.09-1.24,3.92-.82.82-2.1,1.22-3.92,1.22h-5.48v-6.89h10.64ZM165.12,465.3v1.84c0,2.53-.55,3.65-1.02,4.15l-.83.89h-2.7c-2.9,0-3.61-.25-4.51-1.6-.86-1.28-.95-2.77-.97-5.25l10.02-.03h0ZM140.91,466.27c.09,1.24.27,2.5.54,3.83,0,0,0,0,0,0l-.68,1.12c-.7,1.16-2.14,1.72-4.4,1.72h-1.27c-1.87,0-3.23-.37-3.92-1.06-.69-.69-1.06-2.1-1.06-4.08v-2.52h10.7c.02.32.04.64.08.97h0Z"/>
      </g>
    </g>
    <line class="cls-1" x1="217.56" y1="311.03" x2="217.56" y2="502.18"/>
    <line class="cls-2" x1="178.68" y1="311.03" x2="178.68" y2="502.18"/>
    <line class="cls-2" x1="140.58" y1="311.03" x2="140.58" y2="502.18"/>
    <line class="cls-1" x1="101.69" y1="311.03" x2="101.69" y2="502.18"/>
    <line class="cls-1" x1="234.71" y1="324.25" x2="84.55" y2="324.25"/>
    <line class="cls-2" x1="234.71" y1="450.14" x2="84.55" y2="450.14"/>
    <line class="cls-2" x1="234.71" y1="363.07" x2="84.55" y2="363.07"/>
    <line class="cls-1" x1="234.71" y1="487.55" x2="84.55" y2="487.55"/>
  </g>
</svg>