<?xml version="1.0" encoding="UTF-8"?>
<svg id="Layer_2" data-name="Layer 2" xmlns="http://www.w3.org/2000/svg" xmlns:xlink="http://www.w3.org/1999/xlink" viewBox="0 0 740.97 470.67">
  <defs>
    <style>
      .cls-1, .cls-2 {
        fill: none;
        stroke: #2d2926;
        stroke-miterlimit: 10;
        stroke-width: .5px;
      }

      .cls-3 {
        fill: #2d2926;
      }

      .cls-4, .cls-5 {
        fill: #231f20;
        font-family: PPNeueMontreal-Medium, 'PP Neue Montreal';
        font-size: 6.41px;
        font-weight: 500;
      }

      .cls-2, .cls-6 {
        opacity: .3;
      }

      .cls-7 {
        fill: #fff;
      }

      .cls-8 {
        letter-spacing: 0em;
      }

      .cls-9 {
        letter-spacing: -.02em;
      }

      .cls-10, .cls-5 {
        letter-spacing: -.02em;
      }

      .cls-11 {
        fill: #ee3441;
      }

      .cls-12 {
        letter-spacing: 0em;
      }

      .cls-13 {
        letter-spacing: .01em;
      }
    </style>
    <symbol id="Derthona_Lion" data-name="Derthona Lion" viewBox="0 0 117.67 155.94">
      <g>
        <path class="cls-11" d="M30.27,6.82c2.16-3.26-.48-6.44-.48-6.44,0,0-3.84-1.52-6.27,1.54-2.43-3.06-6.27-1.54-6.27-1.54,0,0-2.63,3.18-.47,6.44-3.66,1.37-3.4,5.49-3.4,5.49,0,0,2.21,3.49,5.98,2.44.17,3.9,4.17,4.93,4.17,4.93,0,0,4-1.02,4.17-4.93,3.76,1.05,5.98-2.44,5.98-2.44,0,0,.26-4.12-3.4-5.49ZM25.46,11.75l-1.94-.98-1.94.98.33-2.15-1.53-1.55,2.15-.35.99-1.94,1,1.94,2.15.35-1.53,1.55.33,2.15Z"/>
        <path class="cls-3" d="M55.31,141.03s0,0,0,0"/>
        <path class="cls-3" d="M10.29,60.45c-.46-.15-.87-.29-1.28-.44l-.19-.07s.47-5.28.52-10.85.35-8.94.35-8.94h.23c.32-.03.64-.08.97-.16l.35-.08s-.26,3.03-.25,10.02c0,6.98-.37,10.63-.37,10.63l-.32-.1Z"/>
        <path class="cls-3" d="M0,90.8c.07-.06.14-.12.2-.18.17-.18.42-.45.57-.61.09-.12.22-.28.34-.44.13-.16.26-.33.36-.46l.15-.23.65-1c.1-.18.27-.51.44-.82.16-.29.31-.58.41-.75.11-.22.36-.8.55-1.22l.19-.43c.21-.43.44-1.09.65-1.67.08-.22.15-.43.22-.6.04-.1.08-.22.12-.34.1-.27.21-.57.27-.8.54-1.71,1.02-3.54,1.45-5.44l.05-.21h2.11l-.07.32c-.25,1.24-.51,2.39-.8,3.51l-.77,2.76c-.18.51-.39,1.13-.59,1.71l-.35,1.02c-.12.28-.24.57-.37.87-.31.73-.62,1.49-.96,2.11l-.6,1.14-.88,1.41c-.18.25-.27.36-.36.48-.07.09-.14.18-.25.33l-.2.27c-.05.07-.11.13-.16.19l-.08.08c-.2.22-.46.5-.75.77,0,0-.49-.14-.98-.71s-.57-1.03-.57-1.03Z"/>
        <path class="cls-3" d="M15.12,22.05c-.21-.09-.42-.17-.64-.24l-.3-.09.13-.28c.73-1.52,1.41-2.76,2.11-3.8.36-.54.79-1.19,1.33-1.83,0,0,.22.04.51.26s.38.47.38.47c-1.12,1.39-2.15,3.15-3.17,5.37l-.11.24-.24-.11Z"/>
        <g>
          <path class="cls-3" d="M57.29,12.12h-.24s0,0,0,0c.08,0,.15,0,.23,0h0Z"/>
          <path class="cls-3" d="M49.23,42.35c-.3.62-.62,1.22-.97,1.81-.14.25-.29.5-.44.74-.04.07-.09.15-.13.22-1.57,2.5-3.47,4.78-5.64,6.77-.71.65-1.44,1.27-2.2,1.85h-.01c-1.48-.43-2.21-.57-3.65-1.11-9-3.36-17.04-8.72-23.55-15.53-.73.89-1.84,1.46-3.08,1.46-2.18,0-3.95-1.77-3.95-3.96,0-1.23.56-2.34,1.45-3.06-.65-.59-1.06-1.43-1.06-2.38,0-.09,0-.18.02-.27.13-1.64,1.51-2.92,3.18-2.92.26,0,.52.03.77.09.17-1.6,1.53-2.85,3.17-2.85.98,0,1.86.44,2.45,1.14.05.07.11.15.17.23.01.01.02.02.03.04,6.64,8.62,16.28,14.8,27.37,16.97.23.05.46.09.7.13,1.69.31,3.61.52,5.37.63Z"/>
          <path class="cls-3" d="M48.23,28.95c3.56,0,6.18-1.71,8.63-1.71s4.24.77,4.24.77c0,0-.66-2.95-3.68-2.95-2.17,0-4.18.8-7.77.8-3.16,0-4.65-2.02-4.65-3.96s.51-2.8.51-2.8c0,0-3.15,1.14-3.15,5.06,0,2.45,2.32,4.79,5.88,4.79Z"/>
          <path class="cls-3" d="M104.84,82.02s0-.09,0-.14c-.09-.01-.17-.02-.26-.04.08.06.17.12.26.18Z"/>
          <path class="cls-3" d="M59.74,107.67c-.24-.5-.52-.98-.83-1.44.29.47.57.95.83,1.44Z"/>
          <g>
            <path class="cls-3" d="M74.18,67.95h0s0,.02,0,.03c0-.01,0-.02,0-.03Z"/>
            <polygon class="cls-3" points="74.17 67.99 74.17 67.99 74.17 67.99 74.17 67.99 74.17 67.99 74.17 67.99"/>
            <path class="cls-3" d="M116.61,71.9c-2.8-.96-4.82-4.35-4.82-7.8,0-5.59-5.11-10.36-9.83-10.36-4.47,0-6.77,1.22-9.33,3.26-1.6,1.27-2.93,2.87-3.9,4.69-1.12,2.1-1.75,4.49-1.75,7.03v.39c.14,9.59,5.66,17.89,9,27.36,1.37,3.87,2.37,7.93,2.5,12.36.01.32.02.65.02.98,0,3-.92,5.93-6.05,5.93-7,0-18.94-22.66-18.94-37.54,0-5.28.39-7.67.43-7.95-1.83,4.38-11.14,14.93-17.14,17.28-.66-.84-1.37-1.63-2.12-2.39-4.79-4.77-11.4-7.72-18.7-7.72-2.07,0-4.08.23-6.02.68,1.28,4.49,5.52,11.56,14.76,16.95,9.24,5.39,11.38,6.67,14.17,11.16-2.1-3.07-5.62-5.08-9.62-5.08h-.3c-.29.01-.58.03-.86.05-.01,0-.02.01-.03.01-4.46.52-7.91,4.31-7.91,8.91,0,2.3.87,4.41,2.3,6l-7.63-5.33c.36-1.2.56-2.47.56-3.79,0-2.36-.63-4.58-1.74-6.48-1.26-2.18-3.13-3.95-5.38-5.08-.2-.09-.4-.16-.61-.23-1.01-.34-2.09-.52-3.22-.52-1.3,0-2.56.25-3.71.7.84.53,1.55,1.25,2.08,2.09.12.18.23.36.33.56-.51,0-1.01.06-1.48.17-.98.22-1.88.64-2.64,1.23.16.13.31.26.46.39.7.64,1.27,1.43,1.65,2.31-1.33.5-2.46,1.42-3.24,2.58,1.27.29,2.42.95,3.31,1.86.08.07.15.15.22.23,1.09,1.22,1.75,2.81,1.75,4.57,0,.11-.01.22-.01.34-.06,1.13-.39,2.18-.93,3.1-.07.13-.14.25-.23.37-.4.6-.9,1.14-1.47,1.58l19.14,13.37,10.65,7.43c0-12.41,4.57-16.58,9.91-16.58s9.91,4.17,9.91,16.58c0,1.78-.17,4.88-1.07,7.96-1.44-.76-3-1.31-4.66-1.6h-.01c-.9-.16-1.82-.24-2.77-.24-1.2,0-2.37.13-3.5.39-4.48,1-8.25,3.89-10.43,7.79,1.35-.37,2.76-.57,4.22-.57.54,0,1.08.03,1.6.08-.85,1.4-1.49,2.94-1.87,4.58h23.85c.11-1.09.28-2.16.52-3.21.4-1.77.96-3.47,1.68-5.09,2.09-4.72,5.47-8.74,9.68-11.62-.27-1.56-.41-3.16-.41-4.79,0-2.07.22-4.08.66-6.02,1.07.24,2.19.37,3.34.37,3.71,0,7.1-1.34,9.72-3.57,3.23-2.75,5.27-6.84,5.27-11.41v-.39c-.02-1.77-.17-3.44-.44-5.04-1.39-8.58-5.84-14.88-8.73-22.37-1.48-3.84-3.78-7.74-3.78-13.66,0-7.43,3.75-9.9,6.08-9.9s3.52,1.93,3.52,3.72c0,.49-.09.95-.26,1.38-.55,1.44-1.94,2.46-3.57,2.46-1,0-1.91-.38-2.59-1-.25.52-.39,1.11-.39,1.73,0,2.24,1.81,4.05,4.05,4.05.12,0,.23,0,.34-.01-.07.51-.11,1.03-.11,1.56,0,3.59,1.77,6.77,4.49,8.71.08.01.17.03.25.04v-.2c0-2.38,1.16-4.48,2.94-5.77.98.51,2.09.79,3.27.79,1.56,0,3-.5,4.17-1.35.11-.08.21-.16.32-.25.94-.77,1.69-1.77,2.14-2.93-.37-.06-.72-.15-1.06-.27Z"/>
            <path class="cls-3" d="M57.73,83.36c5.55-3.46,15.11-15.59,16.25-20.99,2.46,2.26,4.3,5.6,4.95,10.26,1.74-1.96,5.95-7.95,8.87-15.07.76-1.68,1.34-3.47,1.69-5.33,0-.03.01-.05.02-.08.02-.1.03-.19.05-.28.15-.79.25-1.57.29-2.32,0,0,2.35.09,4.39,2.55,2.33-6.99-4.32-13.85-4.32-13.85,0,0,2.48-1.6,7.72.24-.58-7-5.08-12.91-9.19-15.02,3.77-2.96,5.59-5.92,6.52-11.34h-7.08c.86-2.02,1.56-4.12,2.07-6.3h-18.86c-.47,0-.93.03-1.38.1-.25.03-.5.08-.74.13-2.68.59-4.94,2.28-6.3,4.56.78.77,1.85,1.24,3.03,1.24.65,0,1.26-.14,1.81-.4.2-.09.39-.2.57-.31.01,0,.03-.02.04-.03.85-.57,1.88-.9,2.98-.9.23,0,.46.02.69.05.92.11,1.77.46,2.48.98-.33.32-.68.61-1.05.88-.61.44-1.26.81-1.96,1.11-1.18.5-2.49.78-3.86.78-.06,0-.12,0-.17,0-.42,0-.84-.04-1.24-.1-.73-.1-1.43-.28-2.09-.54-.05-.02-.1-.04-.15-.06-.64-.25-1.3-.46-1.98-.63-1.42-.36-2.91-.56-4.44-.56-.08,0-.16,0-.23,0-1.5.02-2.96.22-4.35.59.14.29.27.57.4.86.25.55.48,1.1.69,1.67.1.25.2.51.29.77.89,2.48,1.52,5.08,1.84,7.78,1.39-1,3.1-1.59,4.95-1.59.86,0,1.69.13,2.48.37.53.16,1.03.37,1.51.62.37.2.72.42,1.06.66,0,.03,0,.06-.01.08,0,.01,0,.02,0,.03-.23,1.89-1.09,3.59-2.35,4.89-.78.8-1.86,1.26-2.98,1.28-.04,0-.07,0-.11,0-1.57,0-3.04-.42-4.3-1.17-.02.78-.06,1.56-.14,2.33-.13,1.49-.36,2.95-.67,4.39-.09.41-.19.83-.29,1.24-.22.88-.48,1.75-.77,2.6,7.63-.57,15.28-1.74,21.03-6.21-6.97,9.78-22.16,9.11-22.16,9.11-.32.72-.66,1.43-1.02,2.12-.37.72-.78,1.43-1.2,2.11-.48.78-.98,1.54-1.52,2.27-1.6,2.22-3.46,4.24-5.52,6.03-.12.1-.24.2-.35.3-3.8,3.21-8.28,5.64-13.2,7.04-3.09.88-6.36,1.35-9.74,1.35-3.55,0-6.98-.52-10.21-1.49-2.49-.74-4.86-1.75-7.09-3-.75.75-1.21,1.79-1.21,2.93,0,.34.04.67.12.99-1.29.56-2.2,1.84-2.2,3.34,0,1.68,1.14,3.1,2.7,3.51-.08.28-.12.57-.12.87,0,1.77,1.43,3.2,3.2,3.2h30.18c8.56,0,16.29,3.6,21.74,9.37Z"/>
          </g>
        </g>
      </g>
    </symbol>
  </defs>
  <g id="Layer_1-2" data-name="Layer 1">
    <line class="cls-1" x1="715.37" y1="46.73" x2="600.6" y2="46.73"/>
    <line class="cls-1" x1="715.37" y1="116.46" x2="600.6" y2="116.46"/>
    <line class="cls-1" x1="370.38" y1="76.74" x2="319.3" y2="76.74"/>
    <line class="cls-1" x1="370.38" y1="123.22" x2="321.08" y2="123.22"/>
    <line class="cls-1" x1="370.38" y1="146.46" x2="239.93" y2="146.46"/>
    <line class="cls-1" x1="344.79" y1="26.01" x2="344.79" y2="153.37"/>
    <line class="cls-1" x1="370.38" y1="99.98" x2="319.3" y2="99.98"/>
    <line class="cls-1" x1="472.66" y1="58.35" x2="433.76" y2="58.35"/>
    <line class="cls-1" x1="472.66" y1="81.59" x2="433.76" y2="81.59"/>
    <line class="cls-1" x1="546.91" y1="160.03" x2="546.91" y2="121.13"/>
    <line class="cls-1" x1="535.29" y1="160.03" x2="535.29" y2="121.13"/>
    <line class="cls-1" x1="613.35" y1="160.03" x2="613.35" y2="121.13"/>
    <line class="cls-1" x1="601.73" y1="160.03" x2="601.73" y2="121.13"/>
    <line class="cls-1" x1="472.66" y1="104.83" x2="433.76" y2="104.83"/>
    <line class="cls-1" x1="370.38" y1="123.22" x2="239.93" y2="123.22"/>
    <line class="cls-1" x1="370.38" y1="53.5" x2="239.93" y2="53.5"/>
    <line class="cls-1" x1="370.38" y1="30.25" x2="239.93" y2="30.25"/>
    <g>
      <path class="cls-3" d="M111.55,221.33h18.34l8.54,8.39v21.85c0,5.18-1.41,9.18-4.23,12-2.82,2.82-6.84,4.23-12.06,4.23h-10.58v-46.48ZM128.27,259.17c1.18-1.22,1.76-3.27,1.76-6.14v-18.59c0-2.08-.56-3.68-1.69-4.79-1.13-1.11-2.75-1.66-4.87-1.66h-3.74v33.02h2.54c2.82,0,4.82-.61,6-1.84Z"/>
      <path class="cls-3" d="M144.57,221.33h22.86v6.8h-14.68v13.94c.99-.46,2.32-.81,3.99-1.04,1.67-.23,3.52-.35,5.54-.35,1.22,0,2.14.02,2.75.07v6.8c-1.69-.09-2.89-.14-3.6-.14-4,0-6.89.51-8.68,1.53v11.93h15.31v6.94h-23.49v-46.48Z"/>
      <path class="cls-3" d="M173,221.33h18.2l8.54,8.39v2.01c0,6.98-2.4,11.79-7.2,14.43,5.41,3.61,8.11,10.82,8.11,21.64h-8.26c0-6.43-.81-11.12-2.43-14.08-1.62-2.96-4.22-4.44-7.8-4.44h-.99v18.52h-8.18v-46.48ZM188.91,240.93c1.62-1.13,2.43-2.92,2.43-5.38v-1.66c0-1.85-.58-3.31-1.73-4.37-1.15-1.06-2.74-1.6-4.76-1.6h-3.67v14.78c3.53-.05,6.1-.63,7.73-1.77Z"/>
      <path class="cls-3" d="M212.87,227.85h-9.1v-6.52h26.39v6.52h-9.1v39.96h-8.18v-39.96Z"/>
      <path class="cls-3" d="M253.72,249.71c-.42-.83-1.14-1.49-2.15-1.98-1.01-.49-2.15-.73-3.42-.73-1.36,0-2.54.24-3.53.73-.99.49-1.67,1.17-2.05,2.05v18.04h-8.18v-46.48h8.18v20.53c1.88-1.06,3.76-1.6,5.64-1.6s3.64.51,5.57,1.53v-20.46h8.11v46.48h-8.18v-18.11Z"/>
      <path class="cls-3" d="M267.9,259.83v-30.52l8.68-8.39h11.43l8.68,8.39v30.52l-8.68,8.39h-11.43l-8.68-8.39ZM286.6,259.76c1.18-1.02,1.76-2.27,1.76-3.75v-23.03c0-1.48-.59-2.73-1.76-3.75-1.18-1.02-2.61-1.53-4.3-1.53s-3.13.51-4.3,1.53c-1.18,1.02-1.76,2.27-1.76,3.75v23.03c0,1.48.59,2.73,1.76,3.75,1.18,1.02,2.61,1.53,4.3,1.53s3.13-.51,4.3-1.53Z"/>
      <path class="cls-3" d="M302.68,221.33h8.89l10.23,28.16.42,2.01h.35v-30.18h7.9v46.48h-8.54l-10.44-27.96-.56-2.01h-.35l.07,1.32v28.65h-7.97v-46.48Z"/>
      <path class="cls-3" d="M343.25,221.33h11.15l9.24,46.48h-7.69c-.71-2.27-1.74-4.1-3.1-5.52-1.36-1.41-2.78-2.12-4.23-2.12s-2.94.71-4.3,2.12c-1.36,1.41-2.38,3.25-3.03,5.52h-7.2l9.17-46.48ZM348.61,253.52c1.6,0,3.25.62,4.94,1.87l-3.03-15.54-1.62-10.27h-.35l-1.62,10.27-3.1,15.4c1.69-1.16,3.29-1.73,4.8-1.73Z"/>
    </g>
    <g>
      <path class="cls-3" d="M441.7,221.31h18.34l8.54,8.4v.56c0,5.83-1.74,10.27-5.22,13.32l5.86,5.76v10.06l-8.4,8.4h-19.12v-46.5ZM457.79,239.57c1.65-1.2,2.47-3.1,2.47-5.69,0-2.08-.52-3.6-1.55-4.55-1.04-.95-2.71-1.42-5.01-1.42h-3.81v13.53c3.62-.05,6.26-.67,7.9-1.87ZM454.26,261.01c2.3,0,3.97-.51,5.01-1.53,1.03-1.02,1.55-2.61,1.55-4.79v-1.04c0-3.84-1.74-5.97-5.22-6.38-1.88.37-3.79.56-5.72.56v13.19h4.37Z"/>
      <path class="cls-3" d="M481.07,221.31h11.15l9.24,46.5h-7.69c-.71-2.27-1.74-4.11-3.1-5.52-1.36-1.41-2.78-2.12-4.23-2.12s-2.94.71-4.3,2.12c-1.36,1.41-2.38,3.25-3.03,5.52h-7.2l9.17-46.5ZM486.44,253.51c1.6,0,3.25.62,4.94,1.87l-3.03-15.55-1.62-10.27h-.35l-1.62,10.27-3.1,15.41c1.69-1.16,3.29-1.73,4.8-1.73Z"/>
      <path class="cls-3" d="M503.93,259.83v-8.54h8.18v4.79c0,1.71.46,3.02,1.38,3.92.92.9,2.25,1.35,3.99,1.35s3.07-.45,3.99-1.35c.92-.9,1.38-2.21,1.38-3.92,0-.83-.25-1.7-.74-2.6-.49-.9-1.19-1.72-2.08-2.46l-15.8-13.46v-8.26l8.54-8.4h9.31l8.54,8.4v6.73h-8.18v-3.12c0-1.71-.42-3.02-1.27-3.92-.85-.9-2.07-1.35-3.67-1.35s-2.85.38-3.74,1.14c-.89.76-1.34,1.84-1.34,3.23,0,.6.25,1.27.74,2.01.49.74,1.14,1.46,1.94,2.15l15.95,13.6v10.06l-8.54,8.4h-10.02l-8.54-8.4Z"/>
      <path class="cls-3" d="M535.96,221.31h8.18v19.57c1.03,0,2.09.12,3.18.35l7.97-19.92h8.18l-9.38,22.76c3.01,2.13,5.35,5.24,7.02,9.33,1.67,4.09,2.5,8.89,2.5,14.4h-8.26c0-6.34-.98-11.24-2.93-14.71-1.95-3.47-4.72-5.27-8.29-5.41v20.13h-8.18v-46.5Z"/>
      <path class="cls-3" d="M569.2,221.31h22.86v6.8h-14.68v13.95c.99-.46,2.32-.81,3.99-1.04,1.67-.23,3.52-.35,5.54-.35,1.22,0,2.14.02,2.75.07v6.8c-1.69-.09-2.89-.14-3.6-.14-4,0-6.89.51-8.68,1.53v11.94h15.31v6.94h-23.49v-46.5Z"/>
      <path class="cls-3" d="M604.61,227.84h-9.1v-6.52h26.39v6.52h-9.1v39.97h-8.18v-39.97Z"/>
    </g>
    <g>
      <path class="cls-3" d="M478.96,58.35h18.04l8.39,8.39v21.85c0,5.18-1.39,9.18-4.16,12-2.78,2.82-6.73,4.23-11.86,4.23h-10.41v-46.48ZM495.4,96.19c1.16-1.23,1.73-3.27,1.73-6.14v-18.59c0-2.08-.56-3.68-1.67-4.79-1.11-1.11-2.71-1.66-4.79-1.66h-3.68v33.02h2.5c2.77,0,4.74-.61,5.9-1.84Z"/>
      <path class="cls-3" d="M518.29,64.87h-8.95v-6.52h25.95v6.52h-8.95v39.96h-8.05v-39.96Z"/>
    </g>
    <g>
      <path class="cls-3" d="M613.35,58.33h18.04l8.4,8.4v.56c0,5.83-1.71,10.27-5.14,13.32l5.76,5.76v10.06l-8.26,8.4h-18.81v-46.5ZM629.18,76.58c1.62-1.2,2.43-3.1,2.43-5.69,0-2.08-.51-3.6-1.53-4.55-1.02-.95-2.66-1.42-4.93-1.42h-3.75v13.53c3.56-.05,6.15-.67,7.77-1.87ZM625.71,98.03c2.27,0,3.91-.51,4.93-1.53,1.02-1.02,1.53-2.61,1.53-4.79v-1.04c0-3.84-1.71-5.97-5.14-6.39-1.85.37-3.72.56-5.62.56v13.19h4.3Z"/>
      <path class="cls-3" d="M645.76,58.33h8.05v19.57c1.02,0,2.06.12,3.12.35l7.84-19.92h8.05l-9.23,22.76c2.96,2.13,5.26,5.24,6.91,9.33,1.64,4.09,2.46,8.9,2.46,14.4h-8.12c0-6.34-.96-11.24-2.88-14.71-1.92-3.47-4.64-5.27-8.15-5.41v20.13h-8.05v-46.5Z"/>
    </g>
    <text class="cls-5" transform="translate(451.29 72.27)"><tspan x="0" y="0">X</tspan></text>
    <text class="cls-5" transform="translate(355.68 67.41)"><tspan x="0" y="0">X</tspan></text>
    <text class="cls-5" transform="translate(355.68 44.17)"><tspan x="0" y="0">X</tspan></text>
    <text class="cls-5" transform="translate(331.24 44.17)"><tspan x="0" y="0">X</tspan></text>
    <text class="cls-5" transform="translate(253.35 44.17)"><tspan x="0" y="0">X</tspan></text>
    <text class="cls-5" transform="translate(292.3 44.17)"><tspan x="0" y="0">X</tspan></text>
    <text class="cls-5" transform="translate(355.68 90.65)"><tspan x="0" y="0">X</tspan></text>
    <text class="cls-5" transform="translate(355.68 113.89)"><tspan x="0" y="0">X</tspan></text>
    <text class="cls-5" transform="translate(355.68 137.13)"><tspan x="0" y="0">X</tspan></text>
    <text class="cls-5" transform="translate(330 137.13)"><tspan x="0" y="0">X</tspan></text>
    <text class="cls-5" transform="translate(292.3 137.13)"><tspan x="0" y="0">X</tspan></text>
    <text class="cls-5" transform="translate(254.41 137.13)"><tspan x="0" y="0">X</tspan></text>
    <text class="cls-5" transform="translate(123.45 173.12)"><tspan x="0" y="0">X</tspan></text>
    <text class="cls-4" transform="translate(143.44 87.7)"><tspan x="0" y="0">2</tspan><tspan class="cls-10" x="3.64" y="0">X</tspan></text>
    <text class="cls-4" transform="translate(19.89 87.7)"><tspan x="0" y="0">2</tspan><tspan class="cls-10" x="3.64" y="0">X</tspan></text>
    <text class="cls-4" transform="translate(82.8 25.93)"><tspan x="0" y="0">2</tspan><tspan class="cls-10" x="3.64" y="0">X</tspan></text>
    <text class="cls-4" transform="translate(82.8 149.48)"><tspan x="0" y="0">2</tspan><tspan class="cls-10" x="3.64" y="0">X</tspan></text>
    <text class="cls-5" transform="translate(254.41 90.65)"><tspan x="0" y="0">X</tspan></text>
    <text class="cls-5" transform="translate(451.29 95.51)"><tspan x="0" y="0">X</tspan></text>
    <line class="cls-1" x1="740.97" y1="46.73" x2="702.07" y2="46.73"/>
    <text class="cls-4" transform="translate(717.69 83.89)"><tspan class="cls-12" x="0" y="0">3</tspan><tspan class="cls-10" x="3.81" y="0">X</tspan></text>
    <line class="cls-1" x1="740.97" y1="116.46" x2="702.07" y2="116.46"/>
    <text class="cls-4" transform="translate(536.13 142.88)"><tspan class="cls-13" x="0" y="0">X</tspan><tspan class="cls-9" x="3.92" y="0">/</tspan><tspan class="cls-8" x="6.29" y="0">2</tspan></text>
    <text class="cls-4" transform="translate(602.57 142.88)"><tspan class="cls-13" x="0" y="0">X</tspan><tspan class="cls-9" x="3.92" y="0">/</tspan><tspan class="cls-8" x="6.29" y="0">2</tspan></text>
    <line class="cls-1" x1="633.51" y1="209.71" x2="428.95" y2="209.71"/>
    <line class="cls-1" x1="633.51" y1="279.43" x2="428.95" y2="279.43"/>
    <line class="cls-1" x1="99.94" y1="221.33" x2="61.04" y2="221.33"/>
    <line class="cls-1" x1="99.94" y1="244.57" x2="61.04" y2="244.57"/>
    <line class="cls-1" x1="375.26" y1="323.01" x2="375.26" y2="284.11"/>
    <line class="cls-1" x1="363.64" y1="323.01" x2="363.64" y2="284.11"/>
    <line class="cls-1" x1="441.7" y1="323.01" x2="441.7" y2="284.11"/>
    <line class="cls-1" x1="430.08" y1="323.01" x2="430.08" y2="284.11"/>
    <line class="cls-1" x1="99.94" y1="267.81" x2="61.04" y2="267.81"/>
    <text class="cls-5" transform="translate(78.56 235.25)"><tspan x="0" y="0">X</tspan></text>
    <text class="cls-5" transform="translate(78.56 258.49)"><tspan x="0" y="0">X</tspan></text>
    <line class="cls-1" x1="672.42" y1="209.71" x2="633.51" y2="209.71"/>
    <text class="cls-4" transform="translate(649.13 246.87)"><tspan class="cls-12" x="0" y="0">3</tspan><tspan class="cls-10" x="3.81" y="0">X</tspan></text>
    <line class="cls-1" x1="672.42" y1="279.44" x2="633.51" y2="279.44"/>
    <text class="cls-4" transform="translate(364.48 305.85)"><tspan class="cls-13" x="0" y="0">X</tspan><tspan class="cls-9" x="3.92" y="0">/</tspan><tspan class="cls-8" x="6.29" y="0">2</tspan></text>
    <text class="cls-4" transform="translate(430.92 305.85)"><tspan class="cls-13" x="0" y="0">X</tspan><tspan class="cls-9" x="3.92" y="0">/</tspan><tspan class="cls-8" x="6.29" y="0">2</tspan></text>
    <use width="117.67" height="155.94" transform="translate(266.9 50.79) scale(.46)" xlink:href="#Derthona_Lion"/>
    <use width="117.67" height="155.94" transform="translate(546.99 44.03) scale(.46)" xlink:href="#Derthona_Lion"/>
    <use width="117.67" height="155.94" transform="translate(375.44 207.01) scale(.46)" xlink:href="#Derthona_Lion"/>
    <g>
      <path class="cls-11" d="M577.52,400.69c4.07-6.14-.9-12.15-.9-12.15,0,0-7.24-2.87-11.83,2.9-4.58-5.77-11.83-2.9-11.83-2.9,0,0-4.97,6-.9,12.15-6.9,2.58-6.41,10.35-6.41,10.35,0,0,4.17,6.58,11.27,4.61.32,7.36,7.86,9.29,7.86,9.29,0,0,7.55-1.93,7.87-9.29,7.1,1.98,11.27-4.61,11.27-4.61,0,0,.49-7.78-6.41-10.35ZM568.46,409.99l-3.67-1.85-3.66,1.85.62-4.05-2.89-2.92,4.05-.65,1.87-3.65,1.88,3.65,4.05.65-2.89,2.92.62,4.05Z"/>
      <g class="cls-6">
        <path class="cls-11" d="M539.25,400.69c4.07-6.14-.9-12.15-.9-12.15,0,0-7.24-2.87-11.83,2.9-4.58-5.77-11.83-2.9-11.83-2.9,0,0-4.97,6-.9,12.15-6.9,2.58-6.41,10.35-6.41,10.35,0,0,4.17,6.58,11.27,4.61.32,7.36,7.86,9.29,7.86,9.29,0,0,7.55-1.93,7.87-9.29,7.1,1.98,11.27-4.61,11.27-4.61,0,0,.49-7.78-6.41-10.35ZM530.18,409.99l-3.67-1.85-3.66,1.85.62-4.05-2.89-2.92,4.05-.65,1.87-3.65,1.88,3.65,4.05.65-2.89,2.92.62,4.05Z"/>
      </g>
      <g class="cls-6">
        <path class="cls-11" d="M615.8,400.69c4.07-6.14-.9-12.15-.9-12.15,0,0-7.24-2.87-11.83,2.9-4.58-5.77-11.83-2.9-11.83-2.9,0,0-4.97,6-.9,12.15-6.9,2.58-6.41,10.35-6.41,10.35,0,0,4.17,6.58,11.27,4.61.32,7.36,7.86,9.29,7.86,9.29,0,0,7.55-1.93,7.87-9.29,7.1,1.98,11.27-4.61,11.27-4.61,0,0,.49-7.78-6.41-10.35ZM606.74,409.99l-3.67-1.85-3.66,1.85.62-4.05-2.89-2.92,4.05-.65,1.87-3.65,1.88,3.65,4.05.65-2.89,2.92.62,4.05Z"/>
      </g>
      <g class="cls-6">
        <path class="cls-11" d="M577.52,363.57c4.07-6.14-.9-12.15-.9-12.15,0,0-7.24-2.87-11.83,2.9-4.58-5.77-11.83-2.9-11.83-2.9,0,0-4.97,6-.9,12.15-6.9,2.58-6.41,10.35-6.41,10.35,0,0,4.17,6.58,11.27,4.61.32,7.36,7.86,9.29,7.86,9.29,0,0,7.55-1.93,7.87-9.29,7.1,1.98,11.27-4.61,11.27-4.61,0,0,.49-7.78-6.41-10.35ZM568.46,372.88l-3.67-1.85-3.66,1.85.62-4.05-2.89-2.92,4.05-.65,1.87-3.65,1.88,3.65,4.05.65-2.89,2.92.62,4.05Z"/>
      </g>
      <g class="cls-6">
        <path class="cls-11" d="M577.52,437.8c4.07-6.14-.9-12.15-.9-12.15,0,0-7.24-2.87-11.83,2.9-4.58-5.77-11.83-2.9-11.83-2.9,0,0-4.97,6-.9,12.15-6.9,2.58-6.41,10.35-6.41,10.35,0,0,4.17,6.58,11.27,4.61.32,7.36,7.86,9.29,7.86,9.29,0,0,7.55-1.93,7.87-9.29,7.1,1.98,11.27-4.61,11.27-4.61,0,0,.49-7.78-6.41-10.35ZM568.46,447.11l-3.67-1.85-3.66,1.85.62-4.05-2.89-2.92,4.05-.65,1.87-3.65,1.88,3.65,4.05.65-2.89,2.92.62,4.05Z"/>
      </g>
      <line class="cls-1" x1="622.22" y1="342.1" x2="622.22" y2="470.67"/>
      <line class="cls-2" x1="583.94" y1="342.1" x2="583.94" y2="470.67"/>
      <line class="cls-2" x1="545.67" y1="342.1" x2="545.67" y2="470.67"/>
      <line class="cls-1" x1="507.38" y1="342.1" x2="507.38" y2="470.67"/>
      <line class="cls-1" x1="632.86" y1="462.06" x2="496.73" y2="462.06"/>
      <line class="cls-1" x1="632.86" y1="350.71" x2="496.73" y2="350.71"/>
      <line class="cls-2" x1="632.86" y1="424.94" x2="496.73" y2="424.94"/>
      <line class="cls-2" x1="632.86" y1="387.83" x2="496.73" y2="387.83"/>
    </g>
    <g>
      <g>
        <path class="cls-7" d="M221.01,377.92l7.6,7.6v16.8c0,.36,0,.71-.02,1.06-.05,2.22-.4,4.22-1.05,5.95-.11.3-.23.58-.33.85v.03c-.07.13-.13.27-.21.41-.04.11-.11.25-.19.39-.53,1.05-1.17,1.98-1.9,2.78l4.2,4.2v9.24l-7.47,7.6h-17.14v-56.93h16.5"/>
        <g>
          <path class="cls-3" d="M227.44,386v16.32c0,.35,0,.69-.01,1.02-.05,2.08-.37,3.95-.98,5.58-.11.28-.21.55-.32.81-.06.14-.12.28-.2.41-.03.09-.08.2-.14.29-.64,1.28-1.48,2.43-2.54,3.35-1.58,1.44-3.64,2.46-6.24,3-.75.15-1.55.28-2.39.34-.37.05-.75.06-1.13.08v-5.92c2.26,0,3.81,0,5.25-.96,1.7-1.13,1.9-2.43,1.9-4.57v-15.86c0-1.71-.44-3.03-1.36-3.95-.92-.92-2.23-1.38-3.95-1.38h-3.03v9.67h-6.62v-15.14h14.85l6.91,6.91ZM224.15,414.7c-1.33,1.21-3.01,2.16-5.05,2.78,1.36.83,2.05,2.34,2.05,4.54v.86c0,1.79-.41,3.11-1.25,3.95-.84.84-2.19,1.25-4.05,1.25h-3.55v-27.24h3.09c1.87,0,3.21.4,4.05,1.18v-6.59h-13.77v38.26h15.48l6.79-6.91v-8.28l-3.79-3.79Z"/>
          <path class="cls-11" d="M221.01,377.92l7.6,7.6v16.8c0,.36,0,.71-.02,1.06-.05,2.22-.4,4.22-1.05,5.95-.11.3-.23.58-.33.85v.03c-.07.13-.13.27-.21.41-.04.11-.11.25-.19.39-.53,1.05-1.17,1.98-1.9,2.78l4.2,4.2v9.24l-7.47,7.6h-17.14v-56.93h16.5M213.46,394.26h6v-4.37c0-1.41-.33-2.44-1.02-3.12-.7-.7-1.72-1.03-3.12-1.03h-1.86v8.53M213.49,410.12c2.15,0,3.45,0,4.6-.77,1.19-.79,1.38-1.56,1.38-3.6v-2.12l-.82-.76c-.62-.57-1.72-.87-3.26-.87h-1.92l.03,8.11M213.46,426.91h2.38c1.54,0,2.62-.31,3.23-.91.61-.61.91-1.66.91-3.12v-.86c0-1.78-.49-2.94-1.49-3.55l-.99-.6c-.09.02-.18.04-.27.06-.88.18-1.7.29-2.51.36-.41.05-.81.07-1.2.08h-.07v8.54M221.29,377.23h-17.47v58.3h18.11l.2-.21,7.47-7.6.2-.2v-9.8l-.2-.2-3.75-3.75c.59-.72,1.11-1.53,1.56-2.42.08-.14.15-.28.21-.44.08-.15.14-.29.19-.41h0s0-.02,0-.02v-.03c.13-.29.25-.59.36-.87.68-1.81,1.05-3.89,1.1-6.18.02-.37.02-.72.02-1.09v-17.09l-.2-.2-7.6-7.6-.2-.2h0ZM214.15,386.42h1.18c1.21,0,2.08.27,2.64.83.55.55.82,1.41.82,2.64v3.68h-4.63v-7.15h0ZM214.15,402.69h1.23c1.7,0,2.46.37,2.79.68l.6.56v1.82c0,1.95-.17,2.43-1.07,3.03-.86.58-1.86.64-3.53.65l-.02-6.74h0ZM214.8,418.97c.84-.06,1.68-.18,2.58-.37,0,0,0,0,0,0l.76.46c.78.47,1.16,1.44,1.16,2.96v.86c0,1.26-.25,2.17-.71,2.64-.47.47-1.41.71-2.74.71h-1.7v-7.2c.21-.01.43-.03.65-.06h0Z"/>
        </g>
      </g>
      <g class="cls-6">
        <path class="cls-7" d="M186.63,434.85l-7.6-7.6v-16.8c0-.36,0-.71.02-1.06.05-2.22.4-4.22,1.05-5.95.11-.3.23-.58.33-.85v-.03c.07-.13.13-.27.21-.41.04-.11.11-.25.19-.39.53-1.05,1.17-1.98,1.9-2.78l-4.2-4.2v-9.24l7.47-7.6h17.14v56.93h-16.5"/>
        <g>
          <path class="cls-3" d="M180.2,426.77v-16.32c0-.35,0-.69.01-1.02.05-2.08.37-3.95.98-5.58.11-.28.21-.55.32-.81.06-.14.12-.28.2-.41.03-.09.08-.2.14-.29.64-1.28,1.48-2.43,2.54-3.35,1.58-1.44,3.64-2.46,6.24-3,.75-.15,1.55-.28,2.39-.34.37-.05.75-.06,1.13-.08v5.92c-2.26,0-3.81,0-5.25.96-1.7,1.13-1.9,2.43-1.9,4.57v15.86c0,1.71.44,3.03,1.36,3.95.92.92,2.23,1.38,3.95,1.38h3.03v-9.67h6.62v15.14h-14.85l-6.91-6.91ZM183.48,398.07c1.33-1.21,3.01-2.16,5.05-2.78-1.36-.83-2.05-2.34-2.05-4.54v-.86c0-1.79.41-3.11,1.25-3.95.84-.84,2.19-1.25,4.05-1.25h3.55v27.24h-3.09c-1.87,0-3.21-.4-4.05-1.18v6.59h13.77v-38.26h-15.48l-6.79,6.91v8.28l3.79,3.79Z"/>
          <path class="cls-11" d="M186.63,434.85l-7.6-7.6v-16.8c0-.36,0-.71.02-1.06.05-2.22.4-4.22,1.05-5.95.11-.3.23-.58.33-.85v-.03c.07-.13.13-.27.21-.41.04-.11.11-.25.19-.39.53-1.05,1.17-1.98,1.9-2.78l-4.2-4.2v-9.24l7.47-7.6h17.14v56.93h-16.5M194.17,418.51h-6v4.37c0,1.41.33,2.44,1.02,3.12.7.7,1.72,1.03,3.12,1.03h1.86v-8.53M194.15,402.65c-2.15,0-3.45,0-4.6.77-1.19.79-1.38,1.56-1.38,3.6v2.12l.82.76c.62.57,1.72.87,3.26.87h1.92l-.03-8.11M194.17,385.85h-2.38c-1.54,0-2.62.31-3.23.91-.61.61-.91,1.66-.91,3.12v.86c0,1.78.49,2.94,1.49,3.55l.99.6c.09-.02.18-.04.27-.06.88-.18,1.7-.29,2.51-.36.41-.05.81-.07,1.2-.08h.07v-8.54M186.34,435.53h17.47v-58.3h-18.11l-.2.21-7.47,7.6-.2.2v9.8l.2.2,3.75,3.75c-.59.72-1.11,1.53-1.56,2.42-.08.14-.15.28-.21.44-.08.15-.14.29-.19.41h0s0,.02,0,.02v.03c-.13.29-.25.59-.36.87-.68,1.81-1.05,3.89-1.1,6.18-.02.37-.02.72-.02,1.09v17.09l.2.2,7.6,7.6.2.2h0ZM193.49,426.35h-1.18c-1.21,0-2.08-.27-2.64-.83-.55-.55-.82-1.41-.82-2.64v-3.68h4.63v7.15h0ZM193.48,410.08h-1.23c-1.7,0-2.46-.37-2.79-.68l-.6-.56v-1.82c0-1.95.17-2.43,1.07-3.03.86-.58,1.86-.64,3.53-.65l.02,6.74h0ZM192.83,393.79c-.84.06-1.68.18-2.58.37,0,0,0,0,0,0l-.76-.46c-.78-.47-1.16-1.44-1.16-2.96v-.86c0-1.26.25-2.17.71-2.64.47-.47,1.41-.71,2.74-.71h1.7v7.2c-.21.01-.43.03-.65.06h0Z"/>
        </g>
      </g>
      <g class="cls-6">
        <path class="cls-7" d="M246.98,377.92l7.6,7.6v16.8c0,.36,0,.71-.02,1.06-.05,2.22-.4,4.22-1.05,5.95-.11.3-.23.58-.33.85v.03c-.07.13-.13.27-.21.41-.04.11-.11.25-.19.39-.53,1.05-1.17,1.98-1.9,2.78l4.2,4.2v9.24l-7.47,7.6h-17.14v-56.93h16.5"/>
        <g>
          <path class="cls-3" d="M253.41,386v16.32c0,.35,0,.69-.01,1.02-.05,2.08-.37,3.95-.98,5.58-.11.28-.21.55-.32.81-.06.14-.12.28-.2.41-.03.09-.08.2-.14.29-.64,1.28-1.48,2.43-2.54,3.35-1.58,1.44-3.64,2.46-6.24,3-.75.15-1.55.28-2.39.34-.37.05-.75.06-1.13.08v-5.92c2.26,0,3.81,0,5.25-.96,1.7-1.13,1.9-2.43,1.9-4.57v-15.86c0-1.71-.44-3.03-1.36-3.95-.92-.92-2.23-1.38-3.95-1.38h-3.03v9.67h-6.62v-15.14h14.85l6.91,6.91ZM250.13,414.7c-1.33,1.21-3.01,2.16-5.05,2.78,1.36.83,2.05,2.34,2.05,4.54v.86c0,1.79-.41,3.11-1.25,3.95-.84.84-2.19,1.25-4.05,1.25h-3.55v-27.24h3.09c1.87,0,3.21.4,4.05,1.18v-6.59h-13.77v38.26h15.48l6.79-6.91v-8.28l-3.79-3.79Z"/>
          <path class="cls-11" d="M246.98,377.92l7.6,7.6v16.8c0,.36,0,.71-.02,1.06-.05,2.22-.4,4.22-1.05,5.95-.11.3-.23.58-.33.85v.03c-.07.13-.13.27-.21.41-.04.11-.11.25-.19.39-.53,1.05-1.17,1.98-1.9,2.78l4.2,4.2v9.24l-7.47,7.6h-17.14v-56.93h16.5M239.44,394.26h6v-4.37c0-1.41-.33-2.44-1.02-3.12-.7-.7-1.72-1.03-3.12-1.03h-1.86v8.53M239.46,410.12c2.15,0,3.45,0,4.6-.77,1.19-.79,1.38-1.56,1.38-3.6v-2.12l-.82-.76c-.62-.57-1.72-.87-3.26-.87h-1.92l.03,8.11M239.44,426.91h2.38c1.54,0,2.62-.31,3.23-.91.61-.61.91-1.66.91-3.12v-.86c0-1.78-.49-2.94-1.49-3.55l-.99-.6c-.09.02-.18.04-.27.06-.88.18-1.7.29-2.51.36-.41.05-.81.07-1.2.08h-.07v8.54M247.27,377.23h-17.47v58.3h18.11l.2-.21,7.47-7.6.2-.2v-9.8l-.2-.2-3.75-3.75c.59-.72,1.11-1.53,1.56-2.42.08-.14.15-.28.21-.44.08-.15.14-.29.19-.41h0s0-.02,0-.02v-.03c.13-.29.25-.59.36-.87.68-1.81,1.05-3.89,1.1-6.18.02-.37.02-.72.02-1.09v-17.09l-.2-.2-7.6-7.6-.2-.2h0ZM240.12,386.42h1.18c1.21,0,2.08.27,2.64.83.55.55.82,1.41.82,2.64v3.68h-4.63v-7.15h0ZM240.13,402.69h1.23c1.7,0,2.46.37,2.79.68l.6.56v1.82c0,1.95-.17,2.43-1.07,3.03-.86.58-1.86.64-3.53.65l-.02-6.74h0ZM240.78,418.97c.84-.06,1.68-.18,2.58-.37,0,0,0,0,0,0l.76.46c.78.47,1.16,1.44,1.16,2.96v.86c0,1.26-.25,2.17-.71,2.64-.47.47-1.41.71-2.74.71h-1.7v-7.2c.21-.01.43-.03.65-.06h0Z"/>
        </g>
      </g>
      <g class="cls-6">
        <path class="cls-7" d="M188.34,359.91l7.6-7.6h16.8c.36,0,.71,0,1.06.02,2.22.05,4.22.4,5.95,1.05.3.11.58.23.85.33h.03c.13.07.27.13.41.21.11.04.25.11.39.19,1.05.53,1.98,1.17,2.78,1.9l4.2-4.2h9.24l7.6,7.47v17.14h-56.93v-16.5"/>
        <g>
          <path class="cls-3" d="M196.42,353.48h16.32c.35,0,.69,0,1.02.01,2.08.05,3.95.37,5.58.98.28.11.55.21.81.32.14.06.28.12.41.2.09.03.2.08.29.14,1.28.64,2.43,1.48,3.35,2.54,1.44,1.58,2.46,3.64,3,6.24.15.75.28,1.55.34,2.39.05.37.06.75.08,1.13h-5.92c0-2.26,0-3.81-.96-5.25-1.13-1.7-2.43-1.9-4.57-1.9h-15.86c-1.71,0-3.03.44-3.95,1.36-.92.92-1.38,2.23-1.38,3.95v3.03h9.67v6.62h-15.14v-14.85l6.91-6.91ZM225.12,356.77c1.21,1.33,2.16,3.01,2.78,5.05.83-1.36,2.34-2.05,4.54-2.05h.86c1.79,0,3.11.41,3.95,1.25.84.84,1.25,2.19,1.25,4.05v3.55h-27.24v-3.09c0-1.87.4-3.21,1.18-4.05h-6.59v13.77h38.26v-15.48l-6.91-6.79h-8.28l-3.79,3.79Z"/>
          <path class="cls-11" d="M188.34,359.91l7.6-7.6h16.8c.36,0,.71,0,1.06.02,2.22.05,4.22.4,5.95,1.05.3.11.58.23.85.33h.03c.13.07.27.13.41.21.11.04.25.11.39.19,1.05.53,1.98,1.17,2.78,1.9l4.2-4.2h9.24l7.6,7.47v17.14h-56.93v-16.5M204.68,367.46v-6h-4.37c-1.41,0-2.44.33-3.12,1.02-.7.7-1.03,1.72-1.03,3.12v1.86h8.53M220.54,367.43c0-2.15,0-3.45-.77-4.6-.79-1.19-1.56-1.38-3.6-1.38h-2.12l-.76.82c-.57.62-.87,1.72-.87,3.26v1.92l8.11-.03M237.34,367.46v-2.38c0-1.54-.31-2.62-.91-3.23-.61-.61-1.66-.91-3.12-.91h-.86c-1.78,0-2.94.49-3.55,1.49l-.6.99c.02.09.04.18.06.27.18.88.29,1.7.36,2.51.05.41.07.81.08,1.2v.07h8.54M187.66,359.63v17.47h58.3v-18.11l-.21-.2-7.6-7.47-.2-.2h-9.8l-.2.2-3.75,3.75c-.72-.59-1.53-1.11-2.42-1.56-.14-.08-.28-.15-.44-.21-.15-.08-.29-.14-.41-.19h0s-.01,0-.01,0h-.03c-.29-.13-.59-.25-.87-.36-1.81-.68-3.89-1.05-6.18-1.1-.37-.02-.72-.02-1.09-.02h-17.09l-.2.2-7.6,7.6-.2.2h0ZM196.84,366.77v-1.18c0-1.21.27-2.08.83-2.64.55-.55,1.41-.82,2.64-.82h3.68v4.63h-7.15ZM213.11,366.77v-1.23c0-1.7.37-2.46.68-2.79l.56-.6h1.82c1.95,0,2.43.17,3.03,1.07.58.86.64,1.86.65,3.53l-6.74.02h0ZM229.4,366.12c-.06-.84-.18-1.68-.37-2.58,0,0,0,0,0,0l.46-.76c.47-.78,1.44-1.16,2.96-1.16h.86c1.26,0,2.17.25,2.64.71.47.47.71,1.41.71,2.74v1.7h-7.2c-.01-.21-.03-.43-.06-.65h0Z"/>
        </g>
      </g>
      <g class="cls-6">
        <path class="cls-7" d="M245.27,452.72l-7.6,7.6h-16.8c-.36,0-.71,0-1.06-.02-2.22-.05-4.22-.4-5.95-1.05-.3-.11-.58-.23-.85-.33h-.03c-.13-.07-.27-.13-.41-.21-.11-.04-.25-.11-.39-.19-1.05-.53-1.98-1.17-2.78-1.9l-4.2,4.2h-9.24l-7.6-7.47v-17.14h56.93v16.5"/>
        <g>
          <path class="cls-3" d="M237.19,459.15h-16.32c-.35,0-.69,0-1.02-.01-2.08-.05-3.95-.37-5.58-.98-.28-.11-.55-.21-.81-.32-.14-.06-.28-.12-.41-.2-.09-.03-.2-.08-.29-.14-1.28-.64-2.43-1.48-3.35-2.54-1.44-1.58-2.46-3.64-3-6.24-.15-.75-.28-1.55-.34-2.39-.05-.37-.06-.75-.08-1.13h5.92c0,2.26,0,3.81.96,5.25,1.13,1.7,2.43,1.9,4.57,1.9h15.86c1.71,0,3.03-.44,3.95-1.36.92-.92,1.38-2.23,1.38-3.95v-3.03h-9.67v-6.62h15.14v14.85l-6.91,6.91ZM208.49,455.86c-1.21-1.33-2.16-3.01-2.78-5.05-.83,1.36-2.34,2.05-4.54,2.05h-.86c-1.79,0-3.11-.41-3.95-1.25-.84-.84-1.25-2.19-1.25-4.05v-3.55h27.24v3.09c0,1.87-.4,3.21-1.18,4.05h6.59v-13.77h-38.26v15.48l6.91,6.79h8.28l3.79-3.79Z"/>
          <path class="cls-11" d="M245.27,452.72l-7.6,7.6h-16.8c-.36,0-.71,0-1.06-.02-2.22-.05-4.22-.4-5.95-1.05-.3-.11-.58-.23-.85-.33h-.03c-.13-.07-.27-.13-.41-.21-.11-.04-.25-.11-.39-.19-1.05-.53-1.98-1.17-2.78-1.9l-4.2,4.2h-9.24l-7.6-7.47v-17.14h56.93v16.5M228.93,445.18v6h4.37c1.41,0,2.44-.33,3.12-1.02.7-.7,1.03-1.72,1.03-3.12v-1.86h-8.53M213.07,445.2c0,2.15,0,3.45.77,4.6.79,1.19,1.56,1.38,3.6,1.38h2.12l.76-.82c.57-.62.87-1.72.87-3.26v-1.92l-8.11.03M196.27,445.18v2.38c0,1.54.31,2.62.91,3.23.61.61,1.66.91,3.12.91h.86c1.78,0,2.94-.49,3.55-1.49l.6-.99c-.02-.09-.04-.18-.06-.27-.18-.88-.29-1.7-.36-2.51-.05-.41-.07-.81-.08-1.2v-.07h-8.54M245.95,453.01v-17.47h-58.3v18.11l.21.2,7.6,7.47.2.2h9.8l.2-.2,3.75-3.75c.72.59,1.53,1.11,2.42,1.56.14.08.28.15.44.21.15.08.29.14.41.19h0s.01,0,.01,0h.03c.29.13.59.25.87.36,1.81.68,3.89,1.05,6.18,1.1.37.02.72.02,1.09.02h17.09l.2-.2,7.6-7.6.2-.2h0ZM236.77,445.86v1.18c0,1.21-.27,2.08-.83,2.64-.55.55-1.41.82-2.64.82h-3.68v-4.63h7.15ZM220.5,445.86v1.23c0,1.7-.37,2.46-.68,2.79l-.56.6h-1.82c-1.95,0-2.43-.17-3.03-1.07-.58-.86-.64-1.86-.65-3.53l6.74-.02h0ZM204.21,446.51c.06.84.18,1.68.37,2.58,0,0,0,0,0,0l-.46.76c-.47.78-1.44,1.16-2.96,1.16h-.86c-1.26,0-2.17-.25-2.64-.71-.47-.47-.71-1.41-.71-2.74v-1.7h7.2c.01.21.03.43.06.65h0Z"/>
        </g>
      </g>
      <line class="cls-1" x1="255.77" y1="342.1" x2="255.77" y2="470.67"/>
      <line class="cls-2" x1="229.62" y1="342.1" x2="229.62" y2="470.67"/>
      <line class="cls-2" x1="203.99" y1="342.1" x2="203.99" y2="470.67"/>
      <line class="cls-1" x1="177.84" y1="342.1" x2="177.84" y2="470.67"/>
      <line class="cls-1" x1="267.31" y1="350.99" x2="166.31" y2="350.99"/>
      <line class="cls-2" x1="267.31" y1="435.67" x2="166.31" y2="435.67"/>
      <line class="cls-2" x1="267.31" y1="377.1" x2="166.31" y2="377.1"/>
      <line class="cls-1" x1="267.31" y1="460.82" x2="166.31" y2="460.82"/>
    </g>
    <g>
      <g>
        <circle class="cls-7" cx="85.41" cy="85.41" r="39.97"/>
        <path class="cls-3" d="M85.41,132.65c-26.05,0-47.24-21.19-47.24-47.24s21.19-47.24,47.24-47.24,47.24,21.19,47.24,47.24-21.19,47.24-47.24,47.24ZM85.41,52.71c-18.03,0-32.7,14.67-32.7,32.7s14.67,32.7,32.7,32.7,32.7-14.67,32.7-32.7-14.67-32.7-32.7-32.7Z"/>
      </g>
      <use width="117.67" height="155.94" transform="translate(64.1 58.12) scale(.36)" xlink:href="#Derthona_Lion"/>
      <g>
        <g>
          <path class="cls-7" d="M67.28,115.6l3.38,1.69.79,2.36-.05.1c-.55,1.09-1.31,1.77-2.21,2.01l.54,1.62-.94,1.88-2.33.8-3.52-1.76,4.36-8.71ZM65.88,124.19c.85.42,1.39.24,1.8-.58l.1-.2c.36-.71.23-1.28-.36-1.68-.36-.1-.73-.23-1.1-.42l-1.24,2.47.81.4ZM69.52,119.66c.39-.78.2-1.3-.65-1.72l-.7-.35-1.27,2.53c1.33.65,2.13.51,2.62-.46Z"/>
          <path class="cls-7" d="M74.92,118.94l2.2.61-.75,9.9-1.54-.43c-.03-.99-.46-1.78-1.03-1.94-.59-.16-1.37.3-1.88,1.14l-1.47-.41,4.47-8.87ZM74.17,125.73c.31.09.61.3.88.65l.27-3.3.25-2.16-.07-.02-.9,1.98-1.48,2.94c.38-.13.74-.17,1.05-.09Z"/>
          <path class="cls-7" d="M79.05,128.2l.15-1.78,1.68.14-.08,1c-.06.71.3,1.13,1.01,1.19.71.06,1.13-.3,1.19-1.01.03-.35-.16-.77-.49-1.11l-3.01-3.08.14-1.72,1.9-1.61,1.91.16,1.61,1.9-.12,1.4-1.68-.14.05-.65c.06-.71-.27-1.13-.92-1.18-.67-.06-1.07.25-1.12.83-.02.25.17.6.48.91l3.04,3.11-.17,2.1-1.9,1.61-2.06-.17-1.61-1.9Z"/>
          <path class="cls-7" d="M86.54,120.6l1.68-.18.45,4.08c.23-.03.45-.02.66,0l1.18-4.33,1.68-.18-1.4,4.95c1.32.75,2.24,2.42,2.49,4.73l-1.69.19c-.29-2.63-1.28-4.04-2.76-3.94l.46,4.19-1.68.18-1.06-9.68Z"/>
          <path class="cls-7" d="M93.57,119.63l4.5-1.39.42,1.36-2.89.89.82,2.65c.4-.37,1.33-.76,2.34-1.01l.42,1.36c-1.16.28-1.94.61-2.33,1.02l.78,2.53,3.02-.93.43,1.39-4.63,1.42-2.86-9.31Z"/>
          <path class="cls-7" d="M101.32,118.24l-1.67.86-.63-1.22,4.83-2.49.63,1.21-1.67.86,3.83,7.45-1.5.77-3.83-7.45Z"/>
        </g>
        <g>
          <path class="cls-7" d="M55.22,52.15l2.95-2.37,2.47.27,2.87,3.57c1.37,1.7,1.19,3.41-.49,4.75l-1.7,1.37-6.1-7.59ZM62.35,54.94l-2.44-3.04c-.55-.68-1.22-.75-1.9-.21l-.6.48,4.33,5.4.41-.33c.91-.73.96-1.36.2-2.3Z"/>
          <path class="cls-7" d="M62.36,46.88l4.16-2.21.67,1.26-2.67,1.42,1.31,2.45c.33-.44,1.16-1,2.1-1.43l.67,1.26c-1.09.5-1.79.97-2.1,1.45l1.24,2.34,2.78-1.48.68,1.28-4.27,2.28-4.58-8.6Z"/>
          <path class="cls-7" d="M69.5,43.39l3.58-1.11,2.2,1.16.12.4c.43,1.4.26,2.51-.52,3.33,1.29.39,2.27,1.67,2.94,3.84l-1.62.5c-.8-2.58-1.76-3.52-3.16-3.08l-.19.06,1.15,3.71-1.61.5-2.88-9.3ZM73.99,45.12l-.1-.33c-.23-.74-.86-1.04-1.65-.8l-.72.22.92,2.96c1.38-.44,1.86-1.06,1.56-2.05Z"/>
          <path class="cls-7" d="M79.64,42.31l-1.86.21-.15-1.36,5.4-.61.15,1.36-1.86.21.94,8.32-1.68.19-.94-8.32Z"/>
          <path class="cls-7" d="M89.52,46.57c-.15-.36-.58-.61-1.1-.65-.55-.04-1,.14-1.19.49l-.29,3.91-1.68-.13.73-9.71,1.68.13-.31,4.15c.39-.19.81-.27,1.18-.25.38.03.76.17,1.12.4l.31-4.13,1.67.12-.73,9.71-1.68-.13.29-3.93Z"/>
          <path class="cls-7" d="M92.77,49.25l1.77-6.15,2.21-1.2,2.26.65,1.23,2.19-1.77,6.15-2.21,1.2-2.26-.65-1.23-2.19ZM97.04,49.65l1.34-4.64c.17-.6-.22-1.21-.9-1.41-.67-.19-1.33.11-1.51.72l-1.34,4.64c-.17.6.23,1.21.9,1.41.67.19,1.33-.11,1.51-.72Z"/>
          <path class="cls-7" d="M103.87,44.44l1.62.86-.9,6.2-.12.41.06.03,2.96-5.59,1.44.76-4.57,8.6-1.55-.82.85-6.18.09-.43-.06-.03-.12.25-2.81,5.3-1.45-.77,4.57-8.6Z"/>
          <path class="cls-7" d="M112.81,49.9l1.77,1.44-4.66,8.77-1.24-1.01c.37-.92.3-1.82-.16-2.19-.47-.39-1.37-.27-2.18.29l-1.18-.96,7.66-6.32ZM109.4,55.82c.25.2.44.52.54.95l1.57-2.92,1.1-1.88-.06-.05-1.62,1.46-2.53,2.1c.41.03.75.14,1,.34Z"/>
        </g>
      </g>
      <g>
        <path class="cls-7" d="M43.37,89.36h-1.1v-5.6l.72-.73h.38v6.33Z"/>
        <path class="cls-7" d="M44.86,84.11l1.16-1.14h1.44l1.16,1.14v4.16l-1.16,1.14h-1.3l-1.16-1.14v-.89h1.08v.39c0,.44.27.72.72.72s.72-.27.72-.72v-1.29l-.47.51h-1.01l-1.16-1.14v-1.74ZM46.69,86.07c.45,0,.81-.32.81-.73v-.71c0-.41-.31-.72-.77-.72s-.77.31-.77.72v.71c0,.44.27.73.72.73Z"/>
      </g>
      <g>
        <path class="cls-7" d="M121.12,83.03h3.63v.96h-2.51v1.4l.43-.45h1.06l1.16,1.14v2.19l-1.16,1.14h-1.44l-1.16-1.14v-1.01h1.11v.49c0,.41.31.72.77.72s.77-.31.77-.72v-1.16c0-.44-.27-.73-.72-.73s-.81.31-.81.7v.03h-1.11v-3.56Z"/>
        <path class="cls-7" d="M126.22,83.03h3.63v.96h-2.51v1.4l.43-.45h1.06l1.16,1.14v2.19l-1.16,1.14h-1.44l-1.16-1.14v-1.01h1.12v.49c0,.41.31.72.77.72s.77-.31.77-.72v-1.16c0-.44-.27-.73-.72-.73s-.81.31-.81.7v.03h-1.12v-3.56Z"/>
      </g>
    </g>
    <line class="cls-1" x1="321.55" y1="153.89" x2="321.55" y2="25.49"/>
    <line class="cls-1" x1="266.9" y1="26.01" x2="266.89" y2="153.37"/>
    <line class="cls-1" x1="243.65" y1="153.89" x2="243.65" y2="25.49"/>
    <line class="cls-1" x1="118.11" y1="127.63" x2="118.11" y2="190.05"/>
    <line class="cls-1" x1="132.65" y1="190.05" x2="132.65" y2="0"/>
    <line class="cls-1" x1="161.72" y1="170.82" x2="161.72" y2="0"/>
    <line class="cls-1" x1="9.1" y1="170.82" x2="9.1" y2="0"/>
    <line class="cls-1" x1="38.18" y1="170.82" x2="38.18" y2="0"/>
    <line class="cls-1" x1="0" y1="132.65" x2="170.82" y2="132.65"/>
    <line class="cls-1" x1="0" y1="161.72" x2="170.82" y2="161.72"/>
    <line class="cls-1" x1="0" y1="9.1" x2="170.82" y2="9.1"/>
    <line class="cls-1" x1="0" y1="38.18" x2="170.82" y2="38.18"/>
  </g>
</svg>