<?xml version="1.0" encoding="UTF-8"?>
<svg id="Layer_2" data-name="Layer 2" xmlns="http://www.w3.org/2000/svg" viewBox="0 0 54.97 53.28">
  <defs>
    <style>
      .cls-1 {
        fill: #ee3441;
      }
    </style>
  </defs>
  <g id="Layer_1-2" data-name="Layer 1">
    <path class="cls-1" d="M45.75,18.46c5.85-8.82-1.29-17.44-1.29-17.44,0,0-10.4-4.12-16.98,4.16C20.91-3.1,10.5,1.03,10.5,1.03c0,0-7.13,8.62-1.29,17.44C-.7,22.16.01,33.32.01,33.32c0,0,5.99,9.45,16.18,6.61.45,10.57,11.29,13.34,11.29,13.34,0,0,10.84-2.77,11.3-13.34,10.19,2.84,16.18-6.61,16.18-6.61,0,0,.71-11.16-9.21-14.86ZM32.74,31.82l-5.26-2.66-5.25,2.66.9-5.82-4.15-4.19,5.82-.94,2.69-5.25,2.7,5.25,5.82.94-4.15,4.19.9,5.82Z"/>
  </g>
</svg>