<?xml version="1.0" encoding="UTF-8"?>
<svg id="Layer_2" data-name="Layer 2" xmlns="http://www.w3.org/2000/svg" viewBox="0 0 108.2 45.68">
  <defs>
    <style>
      .cls-1 {
        fill: #2d2926;
      }
    </style>
  </defs>
  <g id="Layer_1-2" data-name="Layer 1">
    <g>
      <g>
        <path class="cls-1" d="M0,.18h7.87l3.66,3.6v9.38c0,2.22-.61,3.94-1.82,5.15-1.21,1.21-2.94,1.82-5.18,1.82H0V.18ZM7.18,16.42c.5-.53.76-1.4.76-2.63v-7.98c0-.89-.24-1.58-.73-2.05s-1.18-.71-2.09-.71h-1.61v14.17h1.09c1.21,0,2.07-.26,2.57-.79Z"/>
        <path class="cls-1" d="M14.17.18h9.81v2.92h-6.3v5.98c.42-.2.99-.35,1.71-.45.72-.1,1.51-.15,2.38-.15.52,0,.92.01,1.18.03v2.92c-.73-.04-1.24-.06-1.54-.06-1.72,0-2.96.22-3.72.66v5.12h6.57v2.98h-10.08V.18Z"/>
        <path class="cls-1" d="M26.38.18h7.81l3.66,3.6v.86c0,3-1.03,5.06-3.09,6.19,2.32,1.55,3.48,4.64,3.48,9.29h-3.54c0-2.76-.35-4.77-1.04-6.04-.7-1.27-1.81-1.91-3.35-1.91h-.42v7.95h-3.51V.18ZM33.2,8.59c.7-.49,1.04-1.26,1.04-2.31v-.71c0-.79-.25-1.42-.74-1.88-.49-.46-1.18-.68-2.04-.68h-1.57v6.34c1.51-.02,2.62-.27,3.32-.76Z"/>
        <path class="cls-1" d="M43.49,2.98h-3.91V.18h11.33v2.8h-3.91v17.15h-3.51V2.98Z"/>
        <path class="cls-1" d="M61.02,12.36c-.18-.36-.49-.64-.92-.85-.43-.21-.92-.31-1.47-.31-.59,0-1.09.1-1.51.31-.42.21-.72.5-.88.88v7.74h-3.51V.18h3.51v8.81c.81-.46,1.61-.68,2.42-.68s1.56.22,2.39.66V.18h3.48v19.95h-3.51v-7.77Z"/>
        <path class="cls-1" d="M67.11,16.7V3.6l3.72-3.6h4.91l3.72,3.6v13.1l-3.72,3.6h-4.91l-3.72-3.6ZM75.13,16.67c.5-.44.76-.97.76-1.61V5.18c0-.63-.25-1.17-.76-1.61-.5-.44-1.12-.66-1.85-.66s-1.34.22-1.85.66c-.5.44-.76.97-.76,1.61v9.89c0,.64.25,1.17.76,1.61.5.44,1.12.66,1.85.66s1.34-.22,1.85-.66Z"/>
        <path class="cls-1" d="M82.04.18h3.82l4.39,12.09.18.86h.15V.18h3.39v19.95h-3.66l-4.48-12-.24-.86h-.15l.03.57v12.3h-3.42V.18Z"/>
        <path class="cls-1" d="M99.45.18h4.78l3.97,19.95h-3.3c-.3-.97-.75-1.76-1.33-2.37-.59-.61-1.19-.91-1.82-.91s-1.26.3-1.85.91c-.59.61-1.02,1.39-1.3,2.37h-3.09L99.45.18ZM101.75,13.99c.69,0,1.39.27,2.12.8l-1.3-6.67-.7-4.41h-.15l-.7,4.41-1.33,6.61c.73-.5,1.41-.74,2.06-.74Z"/>
      </g>
      <g>
        <path class="cls-1" d="M15.43,25.55h7.87l3.66,3.6v.24c0,2.5-.75,4.41-2.24,5.72l2.51,2.47v4.32l-3.6,3.6h-8.21v-19.96ZM22.33,33.38c.71-.52,1.06-1.33,1.06-2.44,0-.89-.22-1.54-.67-1.95-.44-.41-1.16-.61-2.15-.61h-1.64v5.81c1.55-.02,2.68-.29,3.39-.8ZM20.82,42.58c.99,0,1.71-.22,2.15-.66.44-.44.67-1.12.67-2.06v-.45c0-1.65-.75-2.56-2.24-2.74-.81.16-1.63.24-2.45.24v5.66h1.88Z"/>
        <path class="cls-1" d="M32.33,25.55h4.78l3.97,19.96h-3.3c-.3-.97-.75-1.76-1.33-2.37-.59-.61-1.19-.91-1.82-.91s-1.26.3-1.85.91c-.59.61-1.02,1.4-1.3,2.37h-3.09l3.94-19.96ZM34.63,39.37c.69,0,1.39.27,2.12.8l-1.3-6.67-.7-4.41h-.15l-.7,4.41-1.33,6.61c.73-.5,1.41-.74,2.06-.74Z"/>
        <path class="cls-1" d="M42.14,42.08v-3.66h3.51v2.06c0,.73.2,1.3.59,1.68.39.39.96.58,1.71.58s1.32-.19,1.71-.58c.39-.39.59-.95.59-1.68,0-.36-.11-.73-.32-1.12-.21-.39-.51-.74-.89-1.06l-6.78-5.78v-3.54l3.66-3.6h4l3.66,3.6v2.89h-3.51v-1.34c0-.73-.18-1.3-.54-1.68-.36-.39-.89-.58-1.57-.58s-1.22.16-1.6.49c-.38.33-.58.79-.58,1.39,0,.26.11.55.32.86.21.32.49.63.83.92l6.84,5.84v4.32l-3.66,3.6h-4.3l-3.66-3.6Z"/>
        <path class="cls-1" d="M55.89,25.55h3.51v8.4c.44,0,.9.05,1.36.15l3.42-8.55h3.51l-4.03,9.77c1.29.91,2.3,2.25,3.01,4.01.72,1.76,1.08,3.82,1.08,6.18h-3.54c0-2.72-.42-4.83-1.26-6.31-.84-1.49-2.02-2.26-3.56-2.32v8.64h-3.51v-19.96Z"/>
        <path class="cls-1" d="M70.15,25.55h9.81v2.92h-6.3v5.99c.42-.2.99-.35,1.71-.45.72-.1,1.51-.15,2.38-.15.52,0,.92.01,1.18.03v2.92c-.73-.04-1.24-.06-1.54-.06-1.72,0-2.96.22-3.72.66v5.12h6.57v2.98h-10.08v-19.96Z"/>
        <path class="cls-1" d="M85.35,28.35h-3.91v-2.8h11.33v2.8h-3.91v17.16h-3.51v-17.16Z"/>
      </g>
    </g>
  </g>
</svg>