<?xml version="1.0" encoding="UTF-8"?>
<svg id="Layer_2" data-name="Layer 2" xmlns="http://www.w3.org/2000/svg" viewBox="0 0 37.84 61.39">
  <defs>
    <style>
      .cls-1 {
        fill: #fff;
      }

      .cls-2 {
        fill: #ee3441;
      }
    </style>
  </defs>
  <g id="Layer_1-2" data-name="Layer 1">
    <g>
      <path class="cls-1" d="M2.77,2.77h22.05l10.26,10.09v26.26c0,6.23-1.7,11.03-5.09,14.42-3.39,3.39-8.22,5.09-14.5,5.09H2.77V2.77ZM22.86,48.24c1.41-1.47,2.12-3.93,2.12-7.38v-22.34c0-2.5-.68-4.42-2.03-5.75s-3.31-2-5.85-2h-4.49v39.68h3.05c3.39,0,5.79-.74,7.21-2.21Z"/>
      <path class="cls-2" d="M15.49,61.39H0V0h25.95l11.89,11.7v27.42c0,6.96-1.98,12.47-5.9,16.38-3.91,3.91-9.45,5.9-16.46,5.9ZM1,60.39h14.49c6.73,0,12.03-1.89,15.75-5.6,3.72-3.72,5.61-8.99,5.61-15.67V12.12L25.54,1H1v59.39ZM15.66,48.69h-1.28V12.54h2.73c2.08,0,3.59.49,4.61,1.49,1.01,1,1.51,2.47,1.51,4.49v22.34c0,2.92-.56,5.04-1.63,6.16-1.04,1.09-3.1,1.66-5.93,1.66ZM15.37,47.69h.28c2.52,0,4.37-.48,5.21-1.36.87-.91,1.35-2.85,1.35-5.46v-22.34c0-1.74-.4-2.98-1.21-3.78-.83-.81-2.1-1.21-3.91-1.21h-1.73v34.15Z"/>
    </g>
  </g>
</svg>