<?xml version="1.0" encoding="UTF-8"?>
<svg id="Layer_2" data-name="Layer 2" xmlns="http://www.w3.org/2000/svg" viewBox="0 0 81.12 61.42">
  <defs>
    <style>
      .cls-1 {
        fill: #fff;
      }

      .cls-2 {
        fill: #ee3441;
      }
    </style>
  </defs>
  <g id="Layer_1-2" data-name="Layer 1">
    <g>
      <g>
        <path class="cls-1" d="M2.77,2.77h22.05l10.26,10.09v26.26c0,6.23-1.7,11.03-5.09,14.42-3.39,3.39-8.22,5.09-14.5,5.09H2.77V2.77ZM22.86,48.24c1.41-1.47,2.12-3.93,2.12-7.38v-22.34c0-2.5-.68-4.42-2.03-5.75s-3.31-2-5.85-2h-4.49v39.68h3.05c3.39,0,5.79-.74,7.21-2.21Z"/>
        <path class="cls-2" d="M15.49,61.39H0V0h25.95l11.89,11.7v27.42c0,6.96-1.98,12.47-5.9,16.38-3.91,3.91-9.45,5.9-16.46,5.9ZM1,60.39h14.49c6.73,0,12.03-1.89,15.75-5.6,3.72-3.72,5.61-8.99,5.61-15.67V12.12L25.54,1H1v59.39ZM15.66,48.69h-1.28V12.54h2.73c2.08,0,3.59.49,4.61,1.49,1.01,1,1.51,2.47,1.51,4.49v22.34c0,2.92-.56,5.04-1.63,6.16-1.04,1.09-3.1,1.66-5.93,1.66ZM15.37,47.69h.28c2.52,0,4.37-.48,5.21-1.36.87-.91,1.35-2.85,1.35-5.46v-22.34c0-1.74-.4-2.98-1.21-3.78-.83-.81-2.1-1.21-3.91-1.21h-1.73v34.15Z"/>
      </g>
      <g>
        <path class="cls-1" d="M45.28,2.77h22.05l10.26,10.09v.67c0,7.01-2.09,12.34-6.28,16.01l7.04,6.92v12.09l-10.09,10.09h-22.98V2.77ZM64.62,24.7c1.98-1.45,2.97-3.73,2.97-6.84,0-2.5-.62-4.32-1.87-5.46-1.24-1.14-3.25-1.71-6.02-1.71h-4.58v16.26c4.35-.05,7.52-.81,9.5-2.25ZM60.38,50.47c2.77,0,4.78-.61,6.02-1.83,1.24-1.22,1.87-3.14,1.87-5.75v-1.25c0-4.61-2.09-7.17-6.27-7.67-2.26.45-4.55.67-6.87.67v15.85h5.26Z"/>
        <path class="cls-2" d="M69.41,61.42h-26.89V0h25.95l11.89,11.7v1.83c0,6.57-1.73,11.94-5.14,15.97l5.9,5.8v14.4l-11.71,11.71ZM43.52,60.42h25.48l11.12-11.13v-13.57l-6.27-6.17.32-.36c3.45-3.89,5.19-9.16,5.19-15.67v-1.41l-11.3-11.12h-24.54v59.42ZM60.38,48.71h-3.49v-12.35l.47-.03c1.54-.09,3.09-.28,4.6-.56l.08-.02h.08c2.03.32,4.37,1.26,4.37,5.88v1.25c0,2.11-.45,3.62-1.34,4.49-.88.87-2.53,1.33-4.78,1.33ZM57.89,47.71h2.49c1.95,0,3.4-.37,4.08-1.04.69-.68,1.04-1.95,1.04-3.78v-1.25c0-3.57-1.37-4.54-3.43-4.87-1.38.25-2.78.43-4.17.53v10.41ZM56.89,25.12v-12.67h2.81c2.3,0,3.92.42,4.82,1.24.86.79,1.29,2.19,1.29,4.16,0,2.54-.73,4.31-2.24,5.41-1.31.96-3.37,1.56-6.14,1.8l-.54.05ZM57.89,13.46v10.57c2.86-.31,4.35-1.01,5.1-1.56,1.23-.9,1.83-2.41,1.83-4.61,0-1.66-.33-2.84-.97-3.42-.69-.63-2.17-.98-4.15-.98h-1.81Z"/>
      </g>
    </g>
  </g>
</svg>