<?xml version="1.0" encoding="UTF-8"?>
<svg id="Layer_2" data-name="Layer 2" xmlns="http://www.w3.org/2000/svg" xmlns:xlink="http://www.w3.org/1999/xlink" viewBox="0 0 151.04 161.82">
  <defs>
    <style>
      .cls-1 {
        fill: #2d2926;
      }

      .cls-2 {
        fill: #fff;
      }

      .cls-3 {
        fill: #163758;
      }

      .cls-4 {
        fill: #ee3441;
      }

      .cls-5 {
        fill: none;
        stroke: #2d2926;
        stroke-miterlimit: 10;
      }
    </style>
    <symbol id="Derthona_Lion" data-name="Derthona Lion" viewBox="0 0 117.67 155.94">
      <g>
        <path class="cls-4" d="M30.27,6.82c2.16-3.26-.48-6.44-.48-6.44,0,0-3.84-1.52-6.27,1.54-2.43-3.06-6.27-1.54-6.27-1.54,0,0-2.63,3.18-.47,6.44-3.66,1.37-3.4,5.49-3.4,5.49,0,0,2.21,3.49,5.98,2.44.17,3.9,4.17,4.93,4.17,4.93,0,0,4-1.02,4.17-4.93,3.76,1.05,5.98-2.44,5.98-2.44,0,0,.26-4.12-3.4-5.49ZM25.46,11.75l-1.94-.98-1.94.98.33-2.15-1.53-1.55,2.15-.35.99-1.94,1,1.94,2.15.35-1.53,1.55.33,2.15Z"/>
        <path class="cls-1" d="M55.31,141.03s0,0,0,0"/>
        <path class="cls-1" d="M10.29,60.45c-.46-.15-.87-.29-1.28-.44l-.19-.07s.47-5.28.52-10.85.35-8.94.35-8.94h.23c.32-.03.64-.08.97-.16l.35-.08s-.26,3.03-.25,10.02c0,6.98-.37,10.63-.37,10.63l-.32-.1Z"/>
        <path class="cls-1" d="M0,90.8c.07-.06.14-.12.2-.18.17-.18.42-.45.57-.61.09-.12.22-.28.34-.44.13-.16.26-.33.36-.46l.15-.23.65-1c.1-.18.27-.51.44-.82.16-.29.31-.58.41-.75.11-.22.36-.8.55-1.22l.19-.43c.21-.43.44-1.09.65-1.67.08-.22.15-.43.22-.6.04-.1.08-.22.12-.34.1-.27.21-.57.27-.8.54-1.71,1.02-3.54,1.45-5.44l.05-.21h2.11l-.07.32c-.25,1.24-.51,2.39-.8,3.51l-.77,2.76c-.18.51-.39,1.13-.59,1.71l-.35,1.02c-.12.28-.24.57-.37.87-.31.73-.62,1.49-.96,2.11l-.6,1.14-.88,1.41c-.18.25-.27.36-.36.48-.07.09-.14.18-.25.33l-.2.27c-.05.07-.11.13-.16.19l-.08.08c-.2.22-.46.5-.75.77,0,0-.49-.14-.98-.71s-.57-1.03-.57-1.03Z"/>
        <path class="cls-1" d="M15.12,22.05c-.21-.09-.42-.17-.64-.24l-.3-.09.13-.28c.73-1.52,1.41-2.76,2.11-3.8.36-.54.79-1.19,1.33-1.83,0,0,.22.04.51.26s.38.47.38.47c-1.12,1.39-2.15,3.15-3.17,5.37l-.11.24-.24-.11Z"/>
        <g>
          <path class="cls-1" d="M57.29,12.12h-.24s0,0,0,0c.08,0,.15,0,.23,0h0Z"/>
          <path class="cls-1" d="M49.23,42.35c-.3.62-.62,1.22-.97,1.81-.14.25-.29.5-.44.74-.04.07-.09.15-.13.22-1.57,2.5-3.47,4.78-5.64,6.77-.71.65-1.44,1.27-2.2,1.85h-.01c-1.48-.43-2.21-.57-3.65-1.11-9-3.36-17.04-8.72-23.55-15.53-.73.89-1.84,1.46-3.08,1.46-2.18,0-3.95-1.77-3.95-3.96,0-1.23.56-2.34,1.45-3.06-.65-.59-1.06-1.43-1.06-2.38,0-.09,0-.18.02-.27.13-1.64,1.51-2.92,3.18-2.92.26,0,.52.03.77.09.17-1.6,1.53-2.85,3.17-2.85.98,0,1.86.44,2.45,1.14.05.07.11.15.17.23.01.01.02.02.03.04,6.64,8.62,16.28,14.8,27.37,16.97.23.05.46.09.7.13,1.69.31,3.61.52,5.37.63Z"/>
          <path class="cls-1" d="M48.23,28.95c3.56,0,6.18-1.71,8.63-1.71s4.24.77,4.24.77c0,0-.66-2.95-3.68-2.95-2.17,0-4.18.8-7.77.8-3.16,0-4.65-2.02-4.65-3.96s.51-2.8.51-2.8c0,0-3.15,1.14-3.15,5.06,0,2.45,2.32,4.79,5.88,4.79Z"/>
          <path class="cls-1" d="M104.84,82.02s0-.09,0-.14c-.09-.01-.17-.02-.26-.04.08.06.17.12.26.18Z"/>
          <path class="cls-1" d="M59.74,107.67c-.24-.5-.52-.98-.83-1.44.29.47.57.95.83,1.44Z"/>
          <g>
            <path class="cls-1" d="M74.18,67.95h0s0,.02,0,.03c0-.01,0-.02,0-.03Z"/>
            <polygon class="cls-1" points="74.17 67.99 74.17 67.99 74.17 67.99 74.17 67.99 74.17 67.99 74.17 67.99"/>
            <path class="cls-1" d="M116.61,71.9c-2.8-.96-4.82-4.35-4.82-7.8,0-5.59-5.11-10.36-9.83-10.36-4.47,0-6.77,1.22-9.33,3.26-1.6,1.27-2.93,2.87-3.9,4.69-1.12,2.1-1.75,4.49-1.75,7.03v.39c.14,9.59,5.66,17.89,9,27.36,1.37,3.87,2.37,7.93,2.5,12.36.01.32.02.65.02.98,0,3-.92,5.93-6.05,5.93-7,0-18.94-22.66-18.94-37.54,0-5.28.39-7.67.43-7.95-1.83,4.38-11.14,14.93-17.14,17.28-.66-.84-1.37-1.63-2.12-2.39-4.79-4.77-11.4-7.72-18.7-7.72-2.07,0-4.08.23-6.02.68,1.28,4.49,5.52,11.56,14.76,16.95,9.24,5.39,11.38,6.67,14.17,11.16-2.1-3.07-5.62-5.08-9.62-5.08h-.3c-.29.01-.58.03-.86.05-.01,0-.02.01-.03.01-4.46.52-7.91,4.31-7.91,8.91,0,2.3.87,4.41,2.3,6l-7.63-5.33c.36-1.2.56-2.47.56-3.79,0-2.36-.63-4.58-1.74-6.48-1.26-2.18-3.13-3.95-5.38-5.08-.2-.09-.4-.16-.61-.23-1.01-.34-2.09-.52-3.22-.52-1.3,0-2.56.25-3.71.7.84.53,1.55,1.25,2.08,2.09.12.18.23.36.33.56-.51,0-1.01.06-1.48.17-.98.22-1.88.64-2.64,1.23.16.13.31.26.46.39.7.64,1.27,1.43,1.65,2.31-1.33.5-2.46,1.42-3.24,2.58,1.27.29,2.42.95,3.31,1.86.08.07.15.15.22.23,1.09,1.22,1.75,2.81,1.75,4.57,0,.11-.01.22-.01.34-.06,1.13-.39,2.18-.93,3.1-.07.13-.14.25-.23.37-.4.6-.9,1.14-1.47,1.58l19.14,13.37,10.65,7.43c0-12.41,4.57-16.58,9.91-16.58s9.91,4.17,9.91,16.58c0,1.78-.17,4.88-1.07,7.96-1.44-.76-3-1.31-4.66-1.6h-.01c-.9-.16-1.82-.24-2.77-.24-1.2,0-2.37.13-3.5.39-4.48,1-8.25,3.89-10.43,7.79,1.35-.37,2.76-.57,4.22-.57.54,0,1.08.03,1.6.08-.85,1.4-1.49,2.94-1.87,4.58h23.85c.11-1.09.28-2.16.52-3.21.4-1.77.96-3.47,1.68-5.09,2.09-4.72,5.47-8.74,9.68-11.62-.27-1.56-.41-3.16-.41-4.79,0-2.07.22-4.08.66-6.02,1.07.24,2.19.37,3.34.37,3.71,0,7.1-1.34,9.72-3.57,3.23-2.75,5.27-6.84,5.27-11.41v-.39c-.02-1.77-.17-3.44-.44-5.04-1.39-8.58-5.84-14.88-8.73-22.37-1.48-3.84-3.78-7.74-3.78-13.66,0-7.43,3.75-9.9,6.08-9.9s3.52,1.93,3.52,3.72c0,.49-.09.95-.26,1.38-.55,1.44-1.94,2.46-3.57,2.46-1,0-1.91-.38-2.59-1-.25.52-.39,1.11-.39,1.73,0,2.24,1.81,4.05,4.05,4.05.12,0,.23,0,.34-.01-.07.51-.11,1.03-.11,1.56,0,3.59,1.77,6.77,4.49,8.71.08.01.17.03.25.04v-.2c0-2.38,1.16-4.48,2.94-5.77.98.51,2.09.79,3.27.79,1.56,0,3-.5,4.17-1.35.11-.08.21-.16.32-.25.94-.77,1.69-1.77,2.14-2.93-.37-.06-.72-.15-1.06-.27Z"/>
            <path class="cls-1" d="M57.73,83.36c5.55-3.46,15.11-15.59,16.25-20.99,2.46,2.26,4.3,5.6,4.95,10.26,1.74-1.96,5.95-7.95,8.87-15.07.76-1.68,1.34-3.47,1.69-5.33,0-.03.01-.05.02-.08.02-.1.03-.19.05-.28.15-.79.25-1.57.29-2.32,0,0,2.35.09,4.39,2.55,2.33-6.99-4.32-13.85-4.32-13.85,0,0,2.48-1.6,7.72.24-.58-7-5.08-12.91-9.19-15.02,3.77-2.96,5.59-5.92,6.52-11.34h-7.08c.86-2.02,1.56-4.12,2.07-6.3h-18.86c-.47,0-.93.03-1.38.1-.25.03-.5.08-.74.13-2.68.59-4.94,2.28-6.3,4.56.78.77,1.85,1.24,3.03,1.24.65,0,1.26-.14,1.81-.4.2-.09.39-.2.57-.31.01,0,.03-.02.04-.03.85-.57,1.88-.9,2.98-.9.23,0,.46.02.69.05.92.11,1.77.46,2.48.98-.33.32-.68.61-1.05.88-.61.44-1.26.81-1.96,1.11-1.18.5-2.49.78-3.86.78-.06,0-.12,0-.17,0-.42,0-.84-.04-1.24-.1-.73-.1-1.43-.28-2.09-.54-.05-.02-.1-.04-.15-.06-.64-.25-1.3-.46-1.98-.63-1.42-.36-2.91-.56-4.44-.56-.08,0-.16,0-.23,0-1.5.02-2.96.22-4.35.59.14.29.27.57.4.86.25.55.48,1.1.69,1.67.1.25.2.51.29.77.89,2.48,1.52,5.08,1.84,7.78,1.39-1,3.1-1.59,4.95-1.59.86,0,1.69.13,2.48.37.53.16,1.03.37,1.51.62.37.2.72.42,1.06.66,0,.03,0,.06-.01.08,0,.01,0,.02,0,.03-.23,1.89-1.09,3.59-2.35,4.89-.78.8-1.86,1.26-2.98,1.28-.04,0-.07,0-.11,0-1.57,0-3.04-.42-4.3-1.17-.02.78-.06,1.56-.14,2.33-.13,1.49-.36,2.95-.67,4.39-.09.41-.19.83-.29,1.24-.22.88-.48,1.75-.77,2.6,7.63-.57,15.28-1.74,21.03-6.21-6.97,9.78-22.16,9.11-22.16,9.11-.32.72-.66,1.43-1.02,2.12-.37.72-.78,1.43-1.2,2.11-.48.78-.98,1.54-1.52,2.27-1.6,2.22-3.46,4.24-5.52,6.03-.12.1-.24.2-.35.3-3.8,3.21-8.28,5.64-13.2,7.04-3.09.88-6.36,1.35-9.74,1.35-3.55,0-6.98-.52-10.21-1.49-2.49-.74-4.86-1.75-7.09-3-.75.75-1.21,1.79-1.21,2.93,0,.34.04.67.12.99-1.29.56-2.2,1.84-2.2,3.34,0,1.68,1.14,3.1,2.7,3.51-.08.28-.12.57-.12.87,0,1.77,1.43,3.2,3.2,3.2h30.18c8.56,0,16.29,3.6,21.74,9.37Z"/>
          </g>
        </g>
      </g>
    </symbol>
  </defs>
  <g id="Layer_1-2" data-name="Layer 1">
    <g>
      <g>
        <rect class="cls-3" x="74.03" y="148.14" width="2.25" height="9.1"/>
        <polygon class="cls-3" points="64.32 155.53 64.32 148.14 62.07 148.14 62.07 157.23 64.32 157.23 72.1 157.23 72.1 155.53 64.32 155.53"/>
        <polygon class="cls-3" points="107.17 148.14 101.25 148.14 99 148.14 93.08 148.14 93.08 149.84 99 149.84 99 157.24 101.25 157.24 101.25 149.84 107.17 149.84 107.17 148.14"/>
        <polygon class="cls-3" points="122.47 148.14 116.55 148.14 114.3 148.14 108.38 148.14 108.38 149.84 114.3 149.84 114.3 157.24 116.55 157.24 116.55 149.84 122.47 149.84 122.47 148.14"/>
        <polygon class="cls-3" points="91.45 149.84 91.45 148.14 81.55 148.14 79.31 148.14 79.31 149.84 79.31 149.84 79.31 151.87 79.31 153.5 79.31 153.5 79.31 155.53 79.31 157.23 79.31 157.23 81.55 157.23 91.45 157.23 91.45 155.53 81.55 155.53 81.55 153.5 91.45 153.5 91.45 151.87 81.55 151.87 81.55 149.84 91.45 149.84"/>
        <path class="cls-3" d="M27.6,151c0-1.58-1.28-2.86-2.86-2.86h0s-10.44,0-10.44,0h-1.71v9.1h12.15c1.58,0,2.86-1.28,2.86-2.86,0-.63-.21-1.21-.55-1.69.35-.47.55-1.06.55-1.69M14.3,149.84h10.44s.04,0,.06,0c.56,0,1.02.46,1.02,1.02,0,.3-.13.57-.34.76-.18.16-.41.26-.67.26-.02,0-.04,0-.06,0h0s-10.44,0-10.44,0v-2.03ZM24.8,155.53s-.04,0-.06,0h-10.44v-2.03h10.44s.04,0,.06,0c.26,0,.49.1.67.26.21.19.34.45.34.76,0,.56-.45,1.02-1.02,1.02"/>
        <path class="cls-3" d="M42.03,157.23h2.7l-7.28-9.09h-2.19l-7.28,9.09h2.7l1.64-2.21h8.06l1.64,2.21ZM33.23,153.41l3.13-3.79,3.13,3.79h-6.25Z"/>
        <g>
          <path class="cls-3" d="M58.33,152.3h-5.6v1.62h5.42c-.2.61-.53,1.16-.97,1.6h-9.81c-.72-.73-1.16-1.73-1.16-2.84s.45-2.12,1.17-2.85h9.81c.3.31.55.66.74,1.05h1.75c-.37-1.11-1.07-2.06-1.99-2.75h-10.8c-1.39,1.03-2.29,2.69-2.29,4.55s.9,3.51,2.28,4.55h10.81c1.39-1.04,2.28-2.69,2.28-4.55,0-.13,0-.25-.01-.38h-1.62Z"/>
          <path class="cls-3" d="M136.16,148.14h-10.72c-1.39,1.03-2.29,2.69-2.29,4.55s.9,3.51,2.28,4.55h10.72c1.39-1.03,2.29-2.69,2.29-4.55s-.9-3.51-2.28-4.55M135.66,155.53h-9.73c-.72-.73-1.16-1.73-1.16-2.84s.45-2.12,1.17-2.85h9.73c.72.73,1.16,1.73,1.16,2.84s-.45,2.11-1.17,2.85"/>
          <path class="cls-3" d="M75.19,146.46c-5.68,0-10.3-4.62-10.3-10.3s4.62-10.3,10.3-10.3,10.3,4.62,10.3,10.3-4.62,10.3-10.3,10.3M75.19,126.22c-5.48,0-9.94,4.46-9.94,9.94s4.46,9.94,9.94,9.94,9.94-4.46,9.94-9.94-4.46-9.94-9.94-9.94"/>
        </g>
        <polygon class="cls-3" points="123.76 161.8 123.76 159.39 123.13 159.39 123.13 159.1 124.19 158.92 124.19 161.8 123.76 161.8"/>
        <g>
          <path class="cls-3" d="M126.53,161.77c-.25,0-.42-.04-.51-.13-.1-.09-.14-.25-.14-.48v-.3c0-.17.04-.3.12-.39.08-.09.21-.15.4-.18-.16-.02-.28-.08-.35-.17-.07-.09-.11-.22-.11-.39v-.26c0-.22.04-.36.13-.44.08-.08.25-.12.49-.12h1.67c.24,0,.41.04.49.12.08.08.13.23.13.44v.26c0,.17-.04.3-.11.39-.07.09-.19.14-.36.17.19.03.32.09.4.18.08.09.12.22.12.39v.3c0,.23-.05.39-.14.48-.1.09-.27.13-.52.13h-1.71ZM126.34,160.78v.31c0,.12.02.2.06.24.04.04.11.06.23.06h1.53c.11,0,.19-.02.23-.06.04-.04.06-.12.06-.24v-.31c0-.12-.02-.2-.06-.23-.04-.04-.11-.06-.23-.06h-1.53c-.11,0-.19.02-.23.06-.04.04-.06.12-.06.23M126.39,159.6v.22c0,.12.02.2.06.24.04.04.12.06.23.06h1.42c.12,0,.19-.02.23-.06.04-.04.06-.12.06-.24v-.22c0-.12-.02-.2-.06-.24-.04-.04-.12-.06-.23-.06h-1.42c-.11,0-.19.02-.23.06-.04.04-.06.12-.06.24"/>
          <path class="cls-3" d="M130.59,161.23c.26.06.51.11.76.14.25.03.47.05.69.05.35,0,.6-.04.75-.13.15-.09.23-.23.23-.43s-.08-.35-.24-.45c-.16-.09-.41-.14-.77-.14-.22,0-.44.01-.67.04-.23.03-.48.07-.74.13l.15-1.52h2.32l-.03.38h-1.92l-.1.69c.18-.04.36-.07.53-.09.18-.02.35-.03.53-.03.49,0,.85.08,1.08.24.23.16.35.41.35.74s-.12.59-.36.74c-.24.15-.64.23-1.19.23-.18,0-.36-.01-.56-.03-.19-.02-.42-.06-.67-.1l-.14-.46Z"/>
        </g>
        <path class="cls-3" d="M137.35,161.81v-.68h-2.16v-.35l2.06-1.86h.54v1.86h.65v.35h-.65v.68h-.44ZM137.35,160.77v-1.51l-1.66,1.51h1.66Z"/>
        <polygon class="cls-3" points="75.22 145.53 73.39 135.03 70.82 133.77 66.61 140.09 68.54 129.23 73.58 130.87 75.22 126.52 76.83 130.87 81.87 129.23 83.8 140.09 79.59 133.77 77.02 135.03 75.22 145.53"/>
      </g>
      <line class="cls-5" x1="151.04" y1="101.88" y2="101.88"/>
      <g>
        <g>
          <circle class="cls-2" cx="75.52" cy="38.95" r="32.96"/>
          <path class="cls-1" d="M75.52,77.9c-21.48,0-38.95-17.47-38.95-38.95S54.04,0,75.52,0s38.95,17.47,38.95,38.95-17.47,38.95-38.95,38.95ZM75.52,11.99c-14.87,0-26.96,12.1-26.96,26.96s12.1,26.96,26.96,26.96,26.96-12.1,26.96-26.96-12.1-26.96-26.96-26.96Z"/>
        </g>
        <use width="117.67" height="155.94" transform="translate(57.95 16.44) scale(.3)" xlink:href="#Derthona_Lion"/>
        <g>
          <g>
            <path class="cls-2" d="M60.57,63.84l2.79,1.39.65,1.95-.04.09c-.45.9-1.08,1.46-1.82,1.66l.44,1.33-.78,1.55-1.92.66-2.9-1.45,3.59-7.18ZM59.41,70.93c.7.35,1.15.2,1.49-.48l.08-.16c.3-.59.19-1.06-.3-1.38-.29-.08-.6-.19-.91-.35l-1.02,2.04.66.33ZM62.42,67.19c.32-.64.16-1.07-.54-1.42l-.58-.29-1.05,2.09c1.1.54,1.76.42,2.16-.38Z"/>
            <path class="cls-2" d="M66.87,66.6l1.81.5-.62,8.16-1.27-.35c-.02-.81-.38-1.47-.85-1.6-.49-.13-1.13.25-1.55.94l-1.21-.34,3.69-7.31ZM66.25,72.2c.25.07.5.25.72.54l.22-2.73.21-1.78-.06-.02-.74,1.64-1.22,2.42c.32-.11.61-.14.87-.07Z"/>
            <path class="cls-2" d="M70.27,74.24l.12-1.47,1.39.11-.07.82c-.05.59.25.93.83.98.59.05.93-.25.98-.83.02-.29-.13-.64-.41-.91l-2.48-2.54.12-1.42,1.56-1.33,1.58.13,1.33,1.56-.1,1.16-1.39-.11.04-.54c.05-.59-.22-.93-.76-.98-.55-.05-.88.2-.92.68-.02.2.14.49.39.75l2.51,2.56-.14,1.73-1.56,1.33-1.7-.14-1.33-1.56Z"/>
            <path class="cls-2" d="M76.45,67.97l1.38-.15.37,3.36c.19-.02.37-.02.54,0l.97-3.57,1.38-.15-1.16,4.08c1.09.62,1.85,1.99,2.06,3.9l-1.39.15c-.24-2.17-1.05-3.33-2.27-3.25l.38,3.46-1.38.15-.88-7.98Z"/>
            <path class="cls-2" d="M82.25,67.17l3.71-1.14.35,1.12-2.38.73.67,2.19c.33-.3,1.1-.63,1.93-.83l.35,1.12c-.96.23-1.6.51-1.92.84l.64,2.09,2.49-.77.35,1.15-3.82,1.17-2.36-7.68Z"/>
            <path class="cls-2" d="M88.64,66.02l-1.38.71-.52-1,3.99-2.05.52,1-1.37.71,3.16,6.14-1.24.64-3.16-6.14Z"/>
          </g>
          <g>
            <path class="cls-2" d="M50.62,11.52l2.43-1.95,2.04.22,2.36,2.94c1.13,1.4.98,2.81-.4,3.92l-1.4,1.13-5.03-6.26ZM56.5,13.83l-2.01-2.51c-.45-.56-1.01-.62-1.57-.17l-.5.4,3.57,4.45.34-.27c.75-.6.79-1.12.17-1.9Z"/>
            <path class="cls-2" d="M56.51,7.18l3.43-1.83.55,1.04-2.2,1.17,1.08,2.02c.27-.36.96-.82,1.73-1.18l.55,1.04c-.9.41-1.48.8-1.73,1.19l1.03,1.93,2.3-1.22.56,1.06-3.52,1.88-3.77-7.09Z"/>
            <path class="cls-2" d="M62.4,4.3l2.95-.91,1.81.96.1.33c.36,1.16.21,2.07-.43,2.74,1.07.32,1.87,1.38,2.42,3.16l-1.34.41c-.66-2.13-1.45-2.9-2.61-2.54l-.16.05.95,3.06-1.33.41-2.37-7.67ZM66.1,5.73l-.09-.27c-.19-.61-.71-.86-1.36-.66l-.6.18.76,2.44c1.14-.37,1.54-.88,1.28-1.69Z"/>
            <path class="cls-2" d="M70.76,3.41l-1.54.17-.13-1.12,4.46-.5.13,1.12-1.54.17.78,6.86-1.38.16-.78-6.86Z"/>
            <path class="cls-2" d="M78.91,6.92c-.12-.3-.48-.5-.91-.54-.45-.03-.83.12-.98.41l-.24,3.23-1.39-.1.6-8.01,1.39.1-.26,3.42c.32-.16.67-.23.98-.2.31.02.63.14.92.33l.26-3.41,1.37.1-.6,8.01-1.39-.1.24-3.24Z"/>
            <path class="cls-2" d="M81.58,9.14l1.46-5.07,1.82-.99,1.87.54,1.02,1.8-1.46,5.07-1.82.99-1.87-.54-1.02-1.8ZM85.11,9.47l1.1-3.82c.14-.5-.19-1-.74-1.16-.55-.16-1.1.09-1.24.59l-1.1,3.82c-.14.5.19,1,.74,1.16.55.16,1.1-.09,1.24-.59Z"/>
            <path class="cls-2" d="M90.74,5.16l1.33.71-.75,5.12-.1.34.05.03,2.44-4.61,1.19.63-3.77,7.1-1.28-.68.7-5.1.08-.35-.05-.03-.1.21-2.32,4.37-1.2-.64,3.77-7.1Z"/>
            <path class="cls-2" d="M98.11,9.67l1.46,1.19-3.84,7.23-1.02-.83c.31-.76.25-1.5-.13-1.81-.39-.32-1.13-.23-1.8.24l-.98-.79,6.32-5.21ZM95.3,14.55c.2.17.36.43.45.78l1.3-2.41.91-1.55-.05-.04-1.33,1.2-2.09,1.73c.33.03.62.12.82.28Z"/>
          </g>
        </g>
        <g>
          <path class="cls-2" d="M40.85,42.2h-.9v-4.62l.59-.6h.31v5.22Z"/>
          <path class="cls-2" d="M42.08,37.88l.96-.94h1.18l.96.94v3.43l-.96.94h-1.08l-.96-.94v-.73h.89v.32c0,.37.23.59.59.59s.59-.23.59-.59v-1.06l-.39.42h-.83l-.96-.94v-1.43ZM43.59,39.49c.37,0,.67-.26.67-.6v-.58c0-.34-.26-.59-.63-.59s-.63.26-.63.59v.58c0,.37.23.6.59.6Z"/>
        </g>
        <g>
          <path class="cls-2" d="M104.96,36.98h2.99v.79h-2.07v1.15l.35-.37h.87l.96.94v1.81l-.96.94h-1.18l-.96-.94v-.83h.92v.41c0,.34.26.59.63.59s.63-.26.63-.59v-.96c0-.37-.23-.6-.59-.6s-.67.26-.67.58v.02h-.92v-2.94Z"/>
          <path class="cls-2" d="M109.17,36.98h2.99v.79h-2.07v1.15l.35-.37h.87l.96.94v1.81l-.96.94h-1.18l-.96-.94v-.83h.92v.41c0,.34.26.59.63.59s.63-.26.63-.59v-.96c0-.37-.23-.6-.59-.6s-.67.26-.67.58v.02h-.92v-2.94Z"/>
        </g>
      </g>
    </g>
  </g>
</svg>