<?xml version="1.0" encoding="UTF-8"?>
<svg id="Layer_2" data-name="Layer 2" xmlns="http://www.w3.org/2000/svg" xmlns:xlink="http://www.w3.org/1999/xlink" viewBox="0 0 204.03 50.16">
  <defs>
    <style>
      .cls-1 {
        fill: #2d2926;
      }

      .cls-2 {
        fill: none;
        stroke: #fff;
        stroke-miterlimit: 10;
      }

      .cls-3 {
        fill: #fff;
      }

      .cls-4 {
        fill: #ee3441;
      }
    </style>
    <symbol id="Derthona_Lion_White" data-name="Derthona Lion White" viewBox="0 0 117.67 155.94">
      <g>
        <path class="cls-4" d="M30.27,6.82c2.16-3.26-.48-6.44-.48-6.44,0,0-3.84-1.52-6.27,1.54-2.43-3.06-6.27-1.54-6.27-1.54,0,0-2.63,3.18-.47,6.44-3.66,1.37-3.4,5.49-3.4,5.49,0,0,2.21,3.49,5.98,2.44.17,3.9,4.17,4.93,4.17,4.93,0,0,4-1.02,4.17-4.93,3.76,1.05,5.98-2.44,5.98-2.44,0,0,.26-4.12-3.4-5.49ZM25.46,11.75l-1.94-.98-1.94.98.33-2.15-1.53-1.55,2.15-.35.99-1.94,1,1.94,2.15.35-1.53,1.55.33,2.15Z"/>
        <path class="cls-3" d="M55.31,141.03s0,0,0,0"/>
        <path class="cls-3" d="M10.29,60.45c-.46-.15-.87-.29-1.28-.44l-.19-.07s.47-5.28.52-10.85.35-8.94.35-8.94h.23c.32-.03.64-.08.97-.16l.35-.08s-.26,3.03-.25,10.02c0,6.98-.37,10.63-.37,10.63l-.32-.1Z"/>
        <path class="cls-3" d="M0,90.8c.07-.06.14-.12.2-.18.17-.18.42-.45.57-.61.09-.12.22-.28.34-.44.13-.16.26-.33.36-.46l.15-.23.65-1c.1-.18.27-.51.44-.82.16-.29.31-.58.41-.75.11-.22.36-.8.55-1.22l.19-.43c.21-.43.44-1.09.65-1.67.08-.22.15-.43.22-.6.04-.1.08-.22.12-.34.1-.27.21-.57.27-.8.54-1.71,1.02-3.54,1.45-5.44l.05-.21h2.11l-.07.32c-.25,1.24-.51,2.39-.8,3.51l-.77,2.76c-.18.51-.39,1.13-.59,1.71l-.35,1.02c-.12.28-.24.57-.37.87-.31.73-.62,1.49-.96,2.11l-.6,1.14-.88,1.41c-.18.25-.27.36-.36.48-.07.09-.14.18-.25.33l-.2.27c-.05.07-.11.13-.16.19l-.08.08c-.2.22-.46.5-.75.77,0,0-.49-.14-.98-.71s-.57-1.03-.57-1.03Z"/>
        <path class="cls-3" d="M15.12,22.05c-.21-.09-.42-.17-.64-.24l-.3-.09.13-.28c.73-1.52,1.41-2.76,2.11-3.8.36-.54.79-1.19,1.33-1.83,0,0,.22.04.51.26s.38.47.38.47c-1.12,1.39-2.15,3.15-3.17,5.37l-.11.24-.24-.11Z"/>
        <g>
          <path class="cls-3" d="M57.29,12.12h-.24s0,0,0,0c.08,0,.15,0,.23,0h0Z"/>
          <path class="cls-3" d="M49.23,42.35c-.3.62-.62,1.22-.97,1.81-.14.25-.29.5-.44.74-.04.07-.09.15-.13.22-1.57,2.5-3.47,4.78-5.64,6.77-.71.65-1.44,1.27-2.2,1.85h-.01c-1.48-.43-2.21-.57-3.65-1.11-9-3.36-17.04-8.72-23.55-15.53-.73.89-1.84,1.46-3.08,1.46-2.18,0-3.95-1.77-3.95-3.96,0-1.23.56-2.34,1.45-3.06-.65-.59-1.06-1.43-1.06-2.38,0-.09,0-.18.02-.27.13-1.64,1.51-2.92,3.18-2.92.26,0,.52.03.77.09.17-1.6,1.53-2.85,3.17-2.85.98,0,1.86.44,2.45,1.14.05.07.11.15.17.23.01.01.02.02.03.04,6.64,8.62,16.28,14.8,27.37,16.97.23.05.46.09.7.13,1.69.31,3.61.52,5.37.63Z"/>
          <path class="cls-3" d="M48.23,28.95c3.56,0,6.18-1.71,8.63-1.71s4.24.77,4.24.77c0,0-.66-2.95-3.68-2.95-2.17,0-4.18.8-7.77.8-3.16,0-4.65-2.02-4.65-3.96s.51-2.8.51-2.8c0,0-3.15,1.14-3.15,5.06,0,2.45,2.32,4.79,5.88,4.79Z"/>
          <path class="cls-3" d="M104.84,82.02s0-.09,0-.14c-.09-.01-.17-.02-.26-.04.08.06.17.12.26.18Z"/>
          <path class="cls-3" d="M59.74,107.67c-.24-.5-.52-.98-.83-1.44.29.47.57.95.83,1.44Z"/>
          <g>
            <path class="cls-3" d="M74.18,67.95h0s0,.02,0,.03c0-.01,0-.02,0-.03Z"/>
            <polygon class="cls-3" points="74.17 67.99 74.17 67.99 74.17 67.99 74.17 67.99 74.17 67.99 74.17 67.99"/>
            <path class="cls-3" d="M116.61,71.9c-2.8-.96-4.82-4.35-4.82-7.8,0-5.59-5.11-10.36-9.83-10.36-4.47,0-6.77,1.22-9.33,3.26-1.6,1.27-2.93,2.87-3.9,4.69-1.12,2.1-1.75,4.49-1.75,7.03v.39c.14,9.59,5.66,17.89,9,27.36,1.37,3.87,2.37,7.93,2.5,12.36.01.32.02.65.02.98,0,3-.92,5.93-6.05,5.93-7,0-18.94-22.66-18.94-37.54,0-5.28.39-7.67.43-7.95-1.83,4.38-11.14,14.93-17.14,17.28-.66-.84-1.37-1.63-2.12-2.39-4.79-4.77-11.4-7.72-18.7-7.72-2.07,0-4.08.23-6.02.68,1.28,4.49,5.52,11.56,14.76,16.95,9.24,5.39,11.38,6.67,14.17,11.16-2.1-3.07-5.62-5.08-9.62-5.08h-.3c-.29.01-.58.03-.86.05-.01,0-.02.01-.03.01-4.46.52-7.91,4.31-7.91,8.91,0,2.3.87,4.41,2.3,6l-7.63-5.33c.36-1.2.56-2.47.56-3.79,0-2.36-.63-4.58-1.74-6.48-1.26-2.18-3.13-3.95-5.38-5.08-.2-.09-.4-.16-.61-.23-1.01-.34-2.09-.52-3.22-.52-1.3,0-2.56.25-3.71.7.84.53,1.55,1.25,2.08,2.09.12.18.23.36.33.56-.51,0-1.01.06-1.48.17-.98.22-1.88.64-2.64,1.23.16.13.31.26.46.39.7.64,1.27,1.43,1.65,2.31-1.33.5-2.46,1.42-3.24,2.58,1.27.29,2.42.95,3.31,1.86.08.07.15.15.22.23,1.09,1.22,1.75,2.81,1.75,4.57,0,.11-.01.22-.01.34-.06,1.13-.39,2.18-.93,3.1-.07.13-.14.25-.23.37-.4.6-.9,1.14-1.47,1.58l19.14,13.37,10.65,7.43c0-12.41,4.57-16.58,9.91-16.58s9.91,4.17,9.91,16.58c0,1.78-.17,4.88-1.07,7.96-1.44-.76-3-1.31-4.66-1.6h-.01c-.9-.16-1.82-.24-2.77-.24-1.2,0-2.37.13-3.5.39-4.48,1-8.25,3.89-10.43,7.79,1.35-.37,2.76-.57,4.22-.57.54,0,1.08.03,1.6.08-.85,1.4-1.49,2.94-1.87,4.58h23.85c.11-1.09.28-2.16.52-3.21.4-1.77.96-3.47,1.68-5.09,2.09-4.72,5.47-8.74,9.68-11.62-.27-1.56-.41-3.16-.41-4.79,0-2.07.22-4.08.66-6.02,1.07.24,2.19.37,3.34.37,3.71,0,7.1-1.34,9.72-3.57,3.23-2.75,5.27-6.84,5.27-11.41v-.39c-.02-1.77-.17-3.44-.44-5.04-1.39-8.58-5.84-14.88-8.73-22.37-1.48-3.84-3.78-7.74-3.78-13.66,0-7.43,3.75-9.9,6.08-9.9s3.52,1.93,3.52,3.72c0,.49-.09.95-.26,1.38-.55,1.44-1.94,2.46-3.57,2.46-1,0-1.91-.38-2.59-1-.25.52-.39,1.11-.39,1.73,0,2.24,1.81,4.05,4.05,4.05.12,0,.23,0,.34-.01-.07.51-.11,1.03-.11,1.56,0,3.59,1.77,6.77,4.49,8.71.08.01.17.03.25.04v-.2c0-2.38,1.16-4.48,2.94-5.77.98.51,2.09.79,3.27.79,1.56,0,3-.5,4.17-1.35.11-.08.21-.16.32-.25.94-.77,1.69-1.77,2.14-2.93-.37-.06-.72-.15-1.06-.27Z"/>
            <path class="cls-3" d="M57.73,83.36c5.55-3.46,15.11-15.59,16.25-20.99,2.46,2.26,4.3,5.6,4.95,10.26,1.74-1.96,5.95-7.95,8.87-15.07.76-1.68,1.34-3.47,1.69-5.33,0-.03.01-.05.02-.08.02-.1.03-.19.05-.28.15-.79.25-1.57.29-2.32,0,0,2.35.09,4.39,2.55,2.33-6.99-4.32-13.85-4.32-13.85,0,0,2.48-1.6,7.72.24-.58-7-5.08-12.91-9.19-15.02,3.77-2.96,5.59-5.92,6.52-11.34h-7.08c.86-2.02,1.56-4.12,2.07-6.3h-18.86c-.47,0-.93.03-1.38.1-.25.03-.5.08-.74.13-2.68.59-4.94,2.28-6.3,4.56.78.77,1.85,1.24,3.03,1.24.65,0,1.26-.14,1.81-.4.2-.09.39-.2.57-.31.01,0,.03-.02.04-.03.85-.57,1.88-.9,2.98-.9.23,0,.46.02.69.05.92.11,1.77.46,2.48.98-.33.32-.68.61-1.05.88-.61.44-1.26.81-1.96,1.11-1.18.5-2.49.78-3.86.78-.06,0-.12,0-.17,0-.42,0-.84-.04-1.24-.1-.73-.1-1.43-.28-2.09-.54-.05-.02-.1-.04-.15-.06-.64-.25-1.3-.46-1.98-.63-1.42-.36-2.91-.56-4.44-.56-.08,0-.16,0-.23,0-1.5.02-2.96.22-4.35.59.14.29.27.57.4.86.25.55.48,1.1.69,1.67.1.25.2.51.29.77.89,2.48,1.52,5.08,1.84,7.78,1.39-1,3.1-1.59,4.95-1.59.86,0,1.69.13,2.48.37.53.16,1.03.37,1.51.62.37.2.72.42,1.06.66,0,.03,0,.06-.01.08,0,.01,0,.02,0,.03-.23,1.89-1.09,3.59-2.35,4.89-.78.8-1.86,1.26-2.98,1.28-.04,0-.07,0-.11,0-1.57,0-3.04-.42-4.3-1.17-.02.78-.06,1.56-.14,2.33-.13,1.49-.36,2.95-.67,4.39-.09.41-.19.83-.29,1.24-.22.88-.48,1.75-.77,2.6,7.63-.57,15.28-1.74,21.03-6.21-6.97,9.78-22.16,9.11-22.16,9.11-.32.72-.66,1.43-1.02,2.12-.37.72-.78,1.43-1.2,2.11-.48.78-.98,1.54-1.52,2.27-1.6,2.22-3.46,4.24-5.52,6.03-.12.1-.24.2-.35.3-3.8,3.21-8.28,5.64-13.2,7.04-3.09.88-6.36,1.35-9.74,1.35-3.55,0-6.98-.52-10.21-1.49-2.49-.74-4.86-1.75-7.09-3-.75.75-1.21,1.79-1.21,2.93,0,.34.04.67.12.99-1.29.56-2.2,1.84-2.2,3.34,0,1.68,1.14,3.1,2.7,3.51-.08.28-.12.57-.12.87,0,1.77,1.43,3.2,3.2,3.2h30.18c8.56,0,16.29,3.6,21.74,9.37Z"/>
          </g>
        </g>
      </g>
    </symbol>
  </defs>
  <g id="Layer_1-2" data-name="Layer 1">
    <g>
      <g>
        <rect class="cls-3" x="141.08" y="29.28" width="2.2" height="8.89"/>
        <polygon class="cls-3" points="131.59 36.51 131.59 29.28 129.4 29.28 129.4 38.18 131.59 38.18 139.19 38.18 139.19 36.51 131.59 36.51"/>
        <polygon class="cls-3" points="173.47 29.28 167.68 29.28 165.48 29.28 159.7 29.28 159.7 30.95 165.48 30.95 165.48 38.18 167.68 38.18 167.68 30.95 173.47 30.95 173.47 29.28"/>
        <polygon class="cls-3" points="188.42 29.28 182.64 29.28 180.44 29.28 174.65 29.28 174.65 30.95 180.44 30.95 180.44 38.18 182.64 38.18 182.64 30.95 188.42 30.95 188.42 29.28"/>
        <polygon class="cls-3" points="158.11 30.95 158.11 29.28 148.43 29.28 146.24 29.28 146.24 30.95 146.24 30.95 146.24 32.94 146.24 34.52 146.24 34.52 146.24 36.51 146.24 38.18 146.24 38.18 148.43 38.18 158.11 38.18 158.11 36.51 148.43 36.51 148.43 34.52 158.11 34.52 158.11 32.94 148.43 32.94 148.43 30.95 158.11 30.95"/>
        <path class="cls-3" d="M95.71,32.08c0-1.54-1.25-2.79-2.79-2.79h0s-10.21,0-10.21,0h-1.67v8.89h11.87c1.54,0,2.79-1.25,2.79-2.8,0-.62-.2-1.19-.54-1.65.34-.46.54-1.03.54-1.65M82.71,30.95h10.21s.04,0,.06,0c.55,0,.99.45.99.99,0,.3-.13.56-.33.74-.18.16-.4.25-.66.25-.02,0-.04,0-.06,0h0s-10.21,0-10.21,0v-1.99ZM92.97,36.51s-.04,0-.06,0h-10.21v-1.99h10.21s.04,0,.06,0c.25,0,.48.1.66.25.2.18.33.44.33.74,0,.55-.44.99-.99.99"/>
        <path class="cls-3" d="M109.81,38.18h2.64l-7.11-8.89h-2.14l-7.11,8.89h2.64l1.61-2.16h7.88l1.61,2.16ZM101.21,34.43l3.06-3.71,3.06,3.71h-6.11Z"/>
        <g>
          <path class="cls-3" d="M125.74,33.36h-5.47v1.59h5.3c-.19.6-.52,1.13-.95,1.57h-9.59c-.7-.71-1.14-1.69-1.14-2.78s.44-2.07,1.14-2.78h9.59c.29.3.54.64.72,1.02h1.71c-.36-1.08-1.05-2.02-1.95-2.69h-10.56c-1.36,1.01-2.24,2.63-2.24,4.45s.88,3.43,2.23,4.44h10.56c1.35-1.02,2.23-2.63,2.23-4.45,0-.13,0-.25-.01-.37h-1.58Z"/>
          <path class="cls-3" d="M201.8,29.28h-10.48c-1.36,1.01-2.24,2.63-2.24,4.45s.88,3.43,2.23,4.44h10.48c1.36-1.01,2.24-2.63,2.24-4.45s-.88-3.43-2.23-4.44M201.31,36.51h-9.51c-.7-.71-1.14-1.69-1.14-2.78s.44-2.07,1.14-2.78h9.51c.7.71,1.14,1.69,1.14,2.78s-.44,2.07-1.14,2.78"/>
          <path class="cls-3" d="M142.21,27.64c-5.55,0-10.07-4.52-10.07-10.07s4.52-10.07,10.07-10.07,10.07,4.52,10.07,10.07-4.52,10.07-10.07,10.07M142.21,7.86c-5.36,0-9.71,4.36-9.71,9.71s4.36,9.71,9.71,9.71,9.71-4.36,9.71-9.71-4.36-9.71-9.71-9.71"/>
        </g>
        <polygon class="cls-3" points="189.68 42.64 189.68 40.28 189.07 40.28 189.07 40 190.11 39.82 190.11 42.64 189.68 42.64"/>
        <g>
          <path class="cls-3" d="M192.39,42.61c-.24,0-.41-.04-.5-.13-.09-.09-.14-.24-.14-.47v-.29c0-.17.04-.3.12-.39.08-.09.21-.15.39-.17-.16-.02-.27-.07-.34-.16-.07-.09-.11-.21-.11-.38v-.25c0-.21.04-.35.12-.43.08-.08.24-.12.48-.12h1.63c.24,0,.4.04.48.12.08.08.12.22.12.43v.25c0,.17-.04.29-.11.38-.07.09-.19.14-.35.16.18.03.31.08.39.17.08.09.12.22.12.39v.29c0,.23-.05.38-.14.47-.09.09-.26.13-.5.13h-1.67ZM192.2,41.64v.3c0,.11.02.19.06.23.04.04.11.06.22.06h1.5c.11,0,.19-.02.22-.06.04-.04.06-.12.06-.23v-.3c0-.11-.02-.19-.06-.23-.04-.04-.11-.06-.22-.06h-1.5c-.11,0-.18.02-.22.06-.04.04-.06.11-.06.23M192.26,40.48v.22c0,.12.02.2.06.24.04.04.11.06.23.06h1.39c.11,0,.19-.02.23-.06.04-.04.06-.12.06-.24v-.22c0-.12-.02-.2-.06-.24-.04-.04-.11-.06-.22-.06h-1.39c-.11,0-.18.02-.22.06-.04.04-.06.12-.06.23"/>
          <path class="cls-3" d="M196.36,42.08c.25.06.5.1.74.13.24.03.46.04.67.04.34,0,.58-.04.73-.13.15-.09.22-.23.22-.42s-.08-.35-.23-.44c-.16-.09-.4-.14-.75-.14-.21,0-.43.01-.66.04-.23.03-.47.07-.72.13l.15-1.49h2.26l-.03.38h-1.88l-.1.68c.17-.04.35-.07.52-.09.17-.02.34-.03.52-.03.48,0,.83.08,1.06.23.23.16.34.4.34.72s-.12.57-.35.72c-.23.15-.62.22-1.16.22-.17,0-.35-.01-.54-.03-.19-.02-.41-.05-.65-.1l-.14-.45Z"/>
        </g>
        <path class="cls-3" d="M202.96,42.65v-.67h-2.12v-.35l2.02-1.81h.53v1.81h.64v.35h-.64v.67h-.43ZM202.96,41.63v-1.48l-1.62,1.48h1.62Z"/>
        <polygon class="cls-3" points="142.24 26.73 140.46 16.48 137.94 15.25 133.83 21.42 135.72 10.81 140.64 12.41 142.24 8.15 143.82 12.41 148.74 10.81 150.63 21.42 146.51 15.25 144 16.48 142.24 26.73"/>
      </g>
      <line class="cls-2" x1="65.6" x2="65.6" y2="50.16"/>
      <g>
        <g>
          <circle class="cls-1" cx="25.08" cy="25.08" r="21.22"/>
          <path class="cls-3" d="M25.08,50.16C11.25,50.16,0,38.91,0,25.08S11.25,0,25.08,0s25.08,11.25,25.08,25.08-11.25,25.08-25.08,25.08ZM25.08,7.72c-9.57,0-17.36,7.79-17.36,17.36s7.79,17.36,17.36,17.36,17.36-7.79,17.36-17.36S34.66,7.72,25.08,7.72Z"/>
        </g>
        <g>
          <g>
            <path class="cls-1" d="M15.45,41.11l1.79.9.42,1.25-.03.06c-.29.58-.69.94-1.17,1.07l.29.86-.5,1-1.24.42-1.87-.94,2.31-4.62ZM14.71,45.67c.45.22.74.13.96-.31l.05-.1c.19-.38.12-.68-.19-.89-.19-.05-.39-.12-.59-.22l-.66,1.31.43.21ZM16.64,43.27c.21-.41.1-.69-.35-.91l-.37-.19-.67,1.35c.71.35,1.13.27,1.39-.25Z"/>
            <path class="cls-1" d="M19.51,42.88l1.17.32-.4,5.25-.82-.23c-.01-.52-.24-.95-.55-1.03-.31-.09-.72.16-1,.6l-.78-.22,2.38-4.71ZM19.11,46.49c.16.05.32.16.47.34l.14-1.75.13-1.15h-.04s-.48,1.04-.48,1.04l-.78,1.56c.2-.07.39-.09.56-.05Z"/>
            <path class="cls-1" d="M21.7,47.8l.08-.95.89.07-.04.53c-.03.38.16.6.54.63.38.03.6-.16.63-.54.02-.18-.08-.41-.26-.59l-1.6-1.63.08-.92,1.01-.85,1.02.08.85,1.01-.06.75-.89-.07.03-.35c.03-.38-.14-.6-.49-.63-.35-.03-.57.13-.59.44-.01.13.09.32.25.49l1.61,1.65-.09,1.12-1.01.85-1.09-.09-.85-1.01Z"/>
            <path class="cls-1" d="M25.68,43.77l.89-.1.24,2.16c.12-.01.24-.01.35,0l.63-2.3.89-.1-.74,2.63c.7.4,1.19,1.28,1.32,2.51l-.9.1c-.15-1.4-.68-2.15-1.46-2.09l.24,2.23-.89.1-.56-5.14Z"/>
            <path class="cls-1" d="M29.41,43.25l2.39-.74.22.72-1.53.47.43,1.41c.21-.2.71-.4,1.24-.54l.22.72c-.62.15-1.03.33-1.24.54l.41,1.34,1.6-.49.23.74-2.46.76-1.52-4.94Z"/>
            <path class="cls-1" d="M33.54,42.51l-.89.46-.33-.65,2.57-1.32.33.65-.89.46,2.04,3.95-.8.41-2.04-3.95Z"/>
          </g>
          <g>
            <path class="cls-1" d="M9.03,7.43l1.56-1.26,1.31.14,1.52,1.9c.73.9.63,1.81-.26,2.53l-.9.73-3.24-4.03ZM12.82,8.92l-1.3-1.61c-.29-.36-.65-.4-1.01-.11l-.32.26,2.3,2.86.22-.17c.48-.39.51-.72.11-1.22Z"/>
            <path class="cls-1" d="M12.82,4.63l2.21-1.18.36.67-1.42.76.69,1.3c.17-.23.62-.53,1.12-.76l.36.67c-.58.26-.95.52-1.11.77l.66,1.24,1.48-.79.36.68-2.27,1.21-2.43-4.56Z"/>
            <path class="cls-1" d="M16.62,2.77l1.9-.59,1.17.62.07.21c.23.74.14,1.33-.28,1.77.69.21,1.2.89,1.56,2.04l-.86.27c-.43-1.37-.93-1.87-1.68-1.64l-.1.03.61,1.97-.86.27-1.53-4.94ZM19,3.69l-.05-.18c-.12-.39-.45-.55-.88-.42l-.38.12.49,1.57c.74-.24.99-.57.83-1.09Z"/>
            <path class="cls-1" d="M22,2.2l-.99.11-.08-.72,2.87-.33.08.72-.99.11.5,4.42-.89.1-.5-4.42Z"/>
            <path class="cls-1" d="M27.24,4.46c-.08-.19-.31-.32-.59-.35-.29-.02-.53.08-.63.26l-.15,2.08-.89-.07.38-5.16.89.07-.16,2.2c.21-.1.43-.15.63-.13.2.01.4.09.6.21l.16-2.19.89.07-.38,5.16-.89-.07.15-2.09Z"/>
            <path class="cls-1" d="M28.97,5.88l.94-3.26,1.17-.64,1.2.35.65,1.16-.94,3.26-1.17.64-1.2-.35-.65-1.16ZM31.24,6.09l.71-2.46c.09-.32-.12-.64-.48-.75s-.71.06-.8.38l-.71,2.46c-.09.32.12.64.48.75.36.1.71-.06.8-.38Z"/>
            <path class="cls-1" d="M34.87,3.32l.86.46-.48,3.29-.06.22.03.02,1.57-2.97.76.4-2.42,4.57-.83-.44.45-3.28.05-.23-.03-.02-.06.13-1.49,2.82-.77-.41,2.42-4.57Z"/>
            <path class="cls-1" d="M39.61,6.21l.94.76-2.47,4.66-.66-.54c.2-.49.16-.97-.09-1.17-.25-.2-.73-.14-1.16.15l-.63-.51,4.06-3.36ZM37.8,9.36c.13.11.23.28.29.5l.83-1.55.58-1-.03-.02-.86.77-1.34,1.12c.22.02.4.07.53.18Z"/>
          </g>
        </g>
        <g>
          <path class="cls-1" d="M2.76,27.18h-.58v-2.97l.38-.39h.2v3.36Z"/>
          <path class="cls-1" d="M3.55,24.39l.62-.61h.76l.62.61v2.21l-.62.61h-.69l-.62-.61v-.47h.57v.21c0,.24.15.38.38.38s.38-.15.38-.38v-.68l-.25.27h-.54l-.62-.61v-.92ZM4.52,25.43c.24,0,.43-.17.43-.39v-.38c0-.22-.17-.38-.41-.38s-.41.17-.41.38v.38c0,.24.15.39.38.39Z"/>
        </g>
        <g>
          <path class="cls-1" d="M44.04,23.82h1.93v.51h-1.33v.74l.23-.24h.56l.62.61v1.16l-.62.61h-.76l-.62-.61v-.54h.59v.26c0,.22.17.38.41.38s.41-.17.41-.38v-.62c0-.24-.15-.39-.38-.39s-.43.17-.43.37v.02h-.59v-1.89Z"/>
          <path class="cls-1" d="M46.75,23.82h1.93v.51h-1.33v.74l.23-.24h.56l.62.61v1.16l-.62.61h-.76l-.62-.61v-.54h.59v.26c0,.22.17.38.41.38s.41-.17.41-.38v-.62c0-.24-.15-.39-.38-.39s-.43.17-.43.37v.02h-.59v-1.89Z"/>
        </g>
        <use width="117.67" height="155.94" transform="translate(13.77 10.59) scale(.19)" xlink:href="#Derthona_Lion_White"/>
      </g>
    </g>
  </g>
</svg>