<?xml version="1.0" encoding="UTF-8"?>
<svg id="Layer_2" data-name="Layer 2" xmlns="http://www.w3.org/2000/svg" viewBox="0 0 204.03 50.16">
  <defs>
    <style>
      .cls-1 {
        fill: #2d2926;
      }

      .cls-2 {
        fill: none;
        stroke: #2d2926;
        stroke-miterlimit: 10;
      }
    </style>
  </defs>
  <g id="Layer_1-2" data-name="Layer 1">
    <g>
      <g>
        <rect class="cls-1" x="141.08" y="29.28" width="2.2" height="8.89"/>
        <polygon class="cls-1" points="131.59 36.51 131.59 29.28 129.4 29.28 129.4 38.18 131.59 38.18 139.19 38.18 139.19 36.51 131.59 36.51"/>
        <polygon class="cls-1" points="173.47 29.28 167.68 29.28 165.48 29.28 159.7 29.28 159.7 30.95 165.48 30.95 165.48 38.18 167.68 38.18 167.68 30.95 173.47 30.95 173.47 29.28"/>
        <polygon class="cls-1" points="188.42 29.28 182.64 29.28 180.44 29.28 174.65 29.28 174.65 30.95 180.44 30.95 180.44 38.18 182.64 38.18 182.64 30.95 188.42 30.95 188.42 29.28"/>
        <polygon class="cls-1" points="158.11 30.95 158.11 29.28 148.43 29.28 146.24 29.28 146.24 30.95 146.24 30.95 146.24 32.94 146.24 34.52 146.24 34.52 146.24 36.51 146.24 38.18 146.24 38.18 148.43 38.18 158.11 38.18 158.11 36.51 148.43 36.51 148.43 34.52 158.11 34.52 158.11 32.94 148.43 32.94 148.43 30.95 158.11 30.95"/>
        <path class="cls-1" d="M95.71,32.08c0-1.54-1.25-2.79-2.79-2.79h0s-10.21,0-10.21,0h-1.67v8.89h11.87c1.54,0,2.79-1.25,2.79-2.8,0-.62-.2-1.19-.54-1.65.34-.46.54-1.03.54-1.65M82.71,30.95h10.21s.04,0,.06,0c.55,0,.99.45.99.99,0,.3-.13.56-.33.74-.18.16-.4.25-.66.25-.02,0-.04,0-.06,0h0s-10.21,0-10.21,0v-1.99ZM92.97,36.51s-.04,0-.06,0h-10.21v-1.99h10.21s.04,0,.06,0c.25,0,.48.1.66.25.2.18.33.44.33.74,0,.55-.44.99-.99.99"/>
        <path class="cls-1" d="M109.81,38.18h2.64l-7.11-8.89h-2.14l-7.11,8.89h2.64l1.61-2.16h7.88l1.61,2.16ZM101.21,34.43l3.06-3.71,3.06,3.71h-6.11Z"/>
        <g>
          <path class="cls-1" d="M125.74,33.36h-5.47v1.59h5.3c-.19.6-.52,1.13-.95,1.57h-9.59c-.7-.71-1.14-1.69-1.14-2.78s.44-2.07,1.14-2.78h9.59c.29.3.54.64.72,1.02h1.71c-.36-1.08-1.05-2.02-1.95-2.69h-10.56c-1.36,1.01-2.24,2.63-2.24,4.45s.88,3.43,2.23,4.44h10.56c1.35-1.02,2.23-2.63,2.23-4.45,0-.13,0-.25-.01-.37h-1.58Z"/>
          <path class="cls-1" d="M201.8,29.28h-10.48c-1.36,1.01-2.24,2.63-2.24,4.45s.88,3.43,2.23,4.44h10.48c1.36-1.01,2.24-2.63,2.24-4.45s-.88-3.43-2.23-4.44M201.31,36.51h-9.51c-.7-.71-1.14-1.69-1.14-2.78s.44-2.07,1.14-2.78h9.51c.7.71,1.14,1.69,1.14,2.78s-.44,2.07-1.14,2.78"/>
          <path class="cls-1" d="M142.21,27.64c-5.55,0-10.07-4.52-10.07-10.07s4.52-10.07,10.07-10.07,10.07,4.52,10.07,10.07-4.52,10.07-10.07,10.07M142.21,7.86c-5.36,0-9.71,4.36-9.71,9.71s4.36,9.71,9.71,9.71,9.71-4.36,9.71-9.71-4.36-9.71-9.71-9.71"/>
        </g>
        <polygon class="cls-1" points="189.68 42.64 189.68 40.28 189.07 40.28 189.07 40 190.11 39.82 190.11 42.64 189.68 42.64"/>
        <g>
          <path class="cls-1" d="M192.39,42.61c-.24,0-.41-.04-.5-.13-.09-.09-.14-.24-.14-.47v-.29c0-.17.04-.3.12-.39.08-.09.21-.15.39-.17-.16-.02-.27-.07-.34-.16-.07-.09-.11-.21-.11-.38v-.25c0-.21.04-.35.12-.43.08-.08.24-.12.48-.12h1.63c.24,0,.4.04.48.12.08.08.12.22.12.43v.25c0,.17-.04.29-.11.38-.07.09-.19.14-.35.16.18.03.31.08.39.17.08.09.12.22.12.39v.29c0,.23-.05.38-.14.47-.09.09-.26.13-.5.13h-1.67ZM192.2,41.64v.3c0,.11.02.19.06.23.04.04.11.06.22.06h1.5c.11,0,.19-.02.22-.06.04-.04.06-.12.06-.23v-.3c0-.11-.02-.19-.06-.23-.04-.04-.11-.06-.22-.06h-1.5c-.11,0-.18.02-.22.06-.04.04-.06.11-.06.23M192.26,40.48v.22c0,.12.02.2.06.24.04.04.11.06.23.06h1.39c.11,0,.19-.02.23-.06.04-.04.06-.12.06-.24v-.22c0-.12-.02-.2-.06-.24-.04-.04-.11-.06-.22-.06h-1.39c-.11,0-.18.02-.22.06-.04.04-.06.12-.06.23"/>
          <path class="cls-1" d="M196.36,42.08c.25.06.5.1.74.13.24.03.46.04.67.04.34,0,.58-.04.73-.13.15-.09.22-.23.22-.42s-.08-.35-.23-.44c-.16-.09-.4-.14-.75-.14-.21,0-.43.01-.66.04-.23.03-.47.07-.72.13l.15-1.49h2.26l-.03.38h-1.88l-.1.68c.17-.04.35-.07.52-.09.17-.02.34-.03.52-.03.48,0,.83.08,1.06.23.23.16.34.4.34.72s-.12.57-.35.72c-.23.15-.62.22-1.16.22-.17,0-.35-.01-.54-.03-.19-.02-.41-.05-.65-.1l-.14-.45Z"/>
        </g>
        <path class="cls-1" d="M202.96,42.65v-.67h-2.12v-.35l2.02-1.81h.53v1.81h.64v.35h-.64v.67h-.43ZM202.96,41.63v-1.48l-1.62,1.48h1.62Z"/>
        <polygon class="cls-1" points="142.24 26.73 140.46 16.48 137.94 15.25 133.83 21.42 135.72 10.81 140.64 12.41 142.24 8.15 143.82 12.41 148.74 10.81 150.63 21.42 146.51 15.25 144 16.48 142.24 26.73"/>
      </g>
      <line class="cls-2" x1="65.6" x2="65.6" y2="50.16"/>
      <path class="cls-1" d="M18.18,4.78l-.49-1.57.38-.12c.42-.13.75.03.88.42l.05.18c.16.52-.09.85-.83,1.09ZM16.3,42.35l-.37-.19-.67,1.35c.71.35,1.13.27,1.39-.25.21-.41.1-.69-.35-.91ZM12.72,10.14c.48-.39.51-.72.11-1.22l-1.3-1.61c-.29-.36-.65-.4-1.01-.11l-.32.26,2.3,2.86.22-.17ZM30.44,6.47c.36.1.71-.06.8-.38l.71-2.46c.09-.32-.12-.64-.48-.75s-.71.06-.8.38l-.71,2.46c-.09.32.12.64.48.75ZM15.52,44.37c-.19-.05-.39-.12-.59-.22l-.66,1.31.43.21c.45.22.74.13.96-.31l.05-.1c.19-.38.12-.68-.19-.89ZM18.56,46.53c.2-.07.39-.09.56-.05.16.05.32.16.47.34l.14-1.75.13-1.15h-.04s-.48,1.04-.48,1.04l-.78,1.56ZM50.16,25.08c0,13.83-11.25,25.08-25.08,25.08S0,38.91,0,25.08,11.25,0,25.08,0s25.08,11.25,25.08,25.08ZM2.76,23.82h-.2l-.38.39v2.97h.58v-3.36ZM5.54,24.39l-.62-.61h-.76l-.62.61v.92l.62.61h.54l.25-.27v.68c0,.24-.15.38-.38.38s-.38-.15-.38-.38v-.21h-.57v.47l.62.61h.69l.62-.61v-2.21ZM39.61,6.21l-4.06,3.36.63.51c.43-.3.91-.36,1.16-.15.25.2.28.68.09,1.17l.66.54,2.47-4.66-.94-.76ZM34.87,3.32l-2.42,4.57.77.41,1.49-2.82.06-.13.03.02-.05.23-.45,3.28.83.44,2.42-4.57-.76-.4-1.57,2.97-.03-.02.06-.22.48-3.29-.86-.46ZM28.97,5.88l.65,1.16,1.2.35,1.17-.64.94-3.26-.65-1.16-1.2-.35-1.17.64-.94,3.26ZM24.98,6.39l.89.07.15-2.08c.1-.19.34-.28.63-.26.28.02.51.15.59.35l-.15,2.09.89.07.38-5.16-.89-.07-.16,2.19c-.19-.12-.4-.2-.6-.21-.2-.01-.42.03-.63.13l.16-2.2-.89-.07-.38,5.16ZM20.92,1.59l.08.72.99-.11.5,4.42.89-.1-.5-4.42.99-.11-.08-.72-2.87.33ZM16.62,2.77l1.53,4.94.86-.27-.61-1.97.1-.03c.74-.23,1.25.27,1.68,1.64l.86-.27c-.36-1.15-.87-1.83-1.56-2.04.41-.44.51-1.02.28-1.77l-.07-.21-1.17-.62-1.9.59ZM12.82,4.63l2.43,4.56,2.27-1.21-.36-.68-1.48.79-.66-1.24c.16-.25.54-.5,1.11-.77l-.36-.67c-.5.23-.94.53-1.12.76l-.69-1.3,1.42-.76-.36-.67-2.21,1.18ZM9.04,7.43l3.24,4.03.9-.73c.89-.72.98-1.62.26-2.53l-1.52-1.9-1.31-.14-1.56,1.26ZM16.46,44.38c.48-.13.88-.49,1.17-1.07l.03-.06-.42-1.25-1.79-.9-2.31,4.62,1.87.94,1.24-.42.5-1-.29-.86ZM20.68,43.21l-1.17-.32-2.38,4.71.78.22c.28-.44.69-.69,1-.6.3.08.53.51.55,1.03l.82.23.4-5.25ZM24.89,44.66l-.85-1.01-1.02-.08-1.01.85-.08.92,1.6,1.63c.18.18.28.4.26.59-.03.38-.26.57-.63.54-.38-.03-.57-.26-.54-.63l.04-.53-.89-.07-.08.95.85,1.01,1.09.09,1.01-.85.09-1.12-1.61-1.65c-.16-.17-.26-.35-.25-.49.03-.31.24-.47.59-.44.35.03.52.25.49.63l-.03.35.89.07.06-.75ZM29.26,48.58c-.13-1.23-.62-2.11-1.32-2.51l.74-2.63-.89.1-.63,2.3c-.11-.01-.23-.01-.35,0l-.24-2.16-.89.1.56,5.14.89-.1-.24-2.23c.79-.06,1.31.69,1.46,2.09l.9-.1ZM33.39,47.44l-.23-.74-1.6.49-.41-1.34c.21-.22.62-.39,1.24-.54l-.22-.72c-.53.13-1.03.34-1.24.54l-.43-1.41,1.53-.47-.22-.72-2.39.74,1.52,4.94,2.46-.76ZM36.37,46.05l-2.04-3.95.89-.46-.33-.65-2.57,1.32.33.65.89-.46,2.04,3.95.8-.41ZM42.44,25.08c0-9.57-7.79-17.36-17.36-17.36S7.72,15.51,7.72,25.08s7.79,17.36,17.36,17.36,17.36-7.79,17.36-17.36ZM46.04,25.44l-.62-.61h-.56l-.23.24v-.74h1.33v-.51h-1.93v1.89h.59v-.02c0-.21.19-.37.43-.37s.38.15.38.39v.62c0,.22-.17.38-.41.38s-.41-.17-.41-.38v-.26h-.59v.54l.62.61h.76l.62-.61v-1.16ZM48.75,26.6v-1.16l-.62-.61h-.56l-.23.24v-.74h1.33v-.51h-1.93v1.89h.59v-.02c0-.21.19-.37.43-.37s.38.15.38.39v.62c0,.22-.17.38-.41.38s-.41-.17-.41-.38v-.26h-.59v.54l.62.61h.76l.62-.61ZM38.09,9.86l.83-1.55.58-1-.03-.02-.86.77-1.34,1.12c.22.02.4.07.53.18.13.11.23.28.29.5ZM4.55,24.29c-.24,0-.41.17-.41.38v.38c0,.24.15.39.38.39s.43-.17.43-.39v-.38c0-.22-.17-.38-.41-.38ZM20.26,12.96s-.43.67-1.15.47c-.03.75-.81.95-.81.95,0,0-.77-.2-.8-.95-.73.2-1.15-.47-1.15-.47,0,0-.05-.8.66-1.06-.42-.63.09-1.24.09-1.24,0,0,.74-.29,1.21.3.47-.59,1.21-.3,1.21-.3,0,0,.51.61.09,1.24.71.26.66,1.06.66,1.06ZM18.62,12.44l.3-.3-.41-.07-.19-.37-.19.37-.41.07.3.3-.06.41.37-.19.38.19-.06-.41ZM24.44,37.8s0,0,0,0M15.81,22.27s.07-.7.07-2.05.05-1.93.05-1.93l-.07.02c-.06.02-.13.02-.19.03h-.04s-.06.65-.07,1.73-.1,2.09-.1,2.09h.04c.08.04.16.07.25.1l.06.02ZM13.88,28.31c.09.11.19.14.19.14.05-.05.11-.11.14-.15v-.02s.04-.02.05-.04l.04-.05s.04-.05.05-.06c.02-.02.04-.05.07-.09l.17-.27.11-.22c.07-.12.13-.27.19-.41.02-.06.05-.11.07-.17l.07-.2c.04-.11.08-.23.11-.33l.15-.53c.05-.22.11-.44.15-.68v-.06s-.39,0-.39,0v.04c-.09.37-.19.72-.29,1.05-.01.04-.03.1-.05.15,0,.02-.02.05-.02.06-.01.03-.03.07-.04.12-.04.11-.09.24-.13.32l-.04.08c-.04.08-.09.19-.11.24-.02.03-.05.09-.08.15-.03.06-.07.12-.09.16l-.13.19-.03.05s-.04.06-.07.09c-.02.03-.05.06-.07.09-.03.03-.08.08-.11.12-.01.01-.03.02-.04.04,0,0,.02.09.11.2ZM16.73,14.86l.02-.05c.2-.43.4-.77.61-1.04,0,0-.02-.05-.07-.09s-.1-.05-.1-.05c-.1.12-.19.25-.26.35-.13.2-.27.44-.41.73l-.03.05.06.02s.08.03.12.05l.05.02ZM24.82,12.93h-.05s0,0,0,0c.01,0,.03,0,.05,0h0ZM22.23,18.64s-.09-.02-.14-.03c-2.14-.42-4-1.61-5.28-3.27,0,0,0,0,0,0-.01-.02-.02-.03-.03-.04-.11-.14-.28-.22-.47-.22-.32,0-.58.24-.61.55-.05-.01-.1-.02-.15-.02-.32,0-.59.25-.61.56,0,.02,0,.03,0,.05,0,.18.08.35.2.46-.17.14-.28.35-.28.59,0,.42.34.76.76.76.24,0,.45-.11.59-.28,1.26,1.31,2.81,2.35,4.54,3,.28.1.42.13.7.21h0c.15-.11.29-.23.42-.36.42-.38.79-.82,1.09-1.31,0-.01.02-.03.03-.04.03-.05.06-.09.08-.14.07-.11.13-.23.19-.35-.34-.02-.71-.06-1.04-.12ZM23.07,16.17c.69,0,1.19-.33,1.67-.33s.82.15.82.15c0,0-.13-.57-.71-.57-.42,0-.81.15-1.5.15-.61,0-.9-.39-.9-.76s.1-.54.1-.54c0,0-.61.22-.61.98,0,.47.45.92,1.13.92ZM34,26.42s0-.02,0-.03c-.02,0-.03,0-.05,0,.02.01.03.02.05.03ZM25.29,31.37c-.05-.1-.1-.19-.16-.28.06.09.11.18.16.28ZM28.08,23.7h0s0,0,0,0c0,0,0,0,0,0ZM28.08,23.71s0,0,0,0h0s0,0,0,0h0ZM36.47,24.52c-.09.22-.23.42-.41.57-.02.02-.04.03-.06.05-.23.16-.5.26-.8.26-.23,0-.44-.05-.63-.15-.34.25-.57.65-.57,1.11v.04s-.03,0-.05,0c-.52-.37-.87-.99-.87-1.68,0-.1,0-.2.02-.3-.02,0-.04,0-.07,0-.43,0-.78-.35-.78-.78,0-.12.03-.23.08-.33.13.12.31.19.5.19.31,0,.58-.2.69-.47.03-.08.05-.17.05-.27,0-.35-.23-.72-.68-.72s-1.17.48-1.17,1.91c0,1.14.44,1.9.73,2.64.56,1.45,1.42,2.66,1.68,4.32.05.31.08.63.08.97v.08c0,.88-.39,1.67-1.02,2.2-.51.43-1.16.69-1.88.69-.22,0-.44-.03-.64-.07-.08.37-.13.76-.13,1.16,0,.31.03.62.08.92-.81.56-1.46,1.33-1.87,2.24-.14.31-.25.64-.32.98-.05.2-.08.41-.1.62h-4.6c.07-.32.2-.61.36-.88-.1,0-.2-.02-.31-.02-.28,0-.55.04-.81.11.42-.75,1.15-1.31,2.01-1.5.22-.05.44-.08.68-.08.18,0,.36.02.53.05h0c.32.06.62.16.9.31.17-.59.21-1.19.21-1.54,0-2.39-.88-3.2-1.91-3.2s-1.91.8-1.91,3.2l-2.06-1.43-3.69-2.58c.11-.08.21-.19.28-.3.02-.02.03-.05.04-.07.1-.18.17-.38.18-.6,0-.02,0-.04,0-.07,0-.34-.13-.65-.34-.88-.01-.02-.03-.03-.04-.04-.17-.18-.39-.3-.64-.36.15-.22.37-.4.63-.5-.07-.17-.18-.32-.32-.45-.03-.03-.06-.05-.09-.08.15-.11.32-.19.51-.24.09-.02.19-.03.29-.03-.02-.04-.04-.07-.06-.11-.1-.16-.24-.3-.4-.4.22-.09.47-.14.72-.14.22,0,.43.03.62.1.04.01.08.03.12.04.43.22.8.56,1.04.98.21.37.34.8.34,1.25,0,.25-.04.5-.11.73l1.47,1.03c-.28-.31-.44-.71-.44-1.16,0-.89.67-1.62,1.53-1.72,0,0,0,0,0,0,.05,0,.11,0,.17,0h.06c.77,0,1.45.39,1.86.98-.54-.87-.95-1.11-2.73-2.15-1.78-1.04-2.6-2.4-2.85-3.27.37-.09.76-.13,1.16-.13,1.41,0,2.68.57,3.61,1.49.14.15.28.3.41.46,1.16-.45,2.95-2.49,3.31-3.33,0,.05-.08.52-.08,1.53,0,2.87,2.3,7.24,3.66,7.24.99,0,1.17-.57,1.17-1.14,0-.06,0-.13,0-.19-.03-.85-.22-1.64-.48-2.39-.64-1.83-1.71-3.43-1.74-5.28v-.08c0-.49.12-.95.34-1.36.19-.35.44-.66.75-.91.49-.39.94-.63,1.8-.63.91,0,1.9.92,1.9,2,0,.66.39,1.32.93,1.5.07.02.13.04.2.05ZM20.71,24.87h-5.82c-.34,0-.62-.28-.62-.62,0-.06,0-.11.02-.17-.3-.08-.52-.35-.52-.68,0-.29.17-.54.42-.64-.02-.06-.02-.12-.02-.19,0-.22.09-.42.23-.56.43.24.89.43,1.37.58.62.19,1.29.29,1.97.29s1.28-.09,1.88-.26c.95-.27,1.81-.74,2.55-1.36.02-.02.05-.04.07-.06.4-.35.76-.74,1.07-1.16.1-.14.2-.29.29-.44.08-.13.16-.27.23-.41.07-.13.14-.27.2-.41,0,0,2.93.13,4.28-1.76-1.11.86-2.59,1.09-4.06,1.2.06-.16.11-.33.15-.5.02-.08.04-.16.06-.24.06-.28.1-.56.13-.85.01-.15.02-.3.03-.45.24.14.53.23.83.23,0,0,.01,0,.02,0,.22,0,.42-.09.58-.25.24-.25.41-.58.45-.94,0,0,0,0,0,0,0,0,0-.01,0-.02-.06-.05-.13-.09-.2-.13-.09-.05-.19-.09-.29-.12-.15-.05-.31-.07-.48-.07-.36,0-.69.11-.95.31-.06-.52-.18-1.02-.36-1.5-.02-.05-.04-.1-.06-.15-.04-.11-.09-.22-.13-.32-.02-.06-.05-.11-.08-.17.27-.07.55-.11.84-.11.01,0,.03,0,.05,0,.3,0,.58.04.86.11.13.03.26.07.38.12,0,0,.02,0,.03.01.13.05.26.08.4.1.08.01.16.02.24.02.01,0,.02,0,.03,0,.26,0,.52-.05.75-.15.13-.06.26-.13.38-.21.07-.05.14-.11.2-.17-.14-.1-.3-.17-.48-.19-.04,0-.09,0-.13,0-.21,0-.41.06-.57.17,0,0,0,0,0,0-.03.02-.07.04-.11.06-.11.05-.23.08-.35.08-.23,0-.43-.09-.58-.24.26-.44.7-.77,1.22-.88.05-.01.09-.02.14-.03.09-.01.18-.02.27-.02h3.64c-.1.42-.23.83-.4,1.22h1.37c-.18,1.05-.53,1.62-1.26,2.19.79.41,1.66,1.55,1.77,2.9-1.01-.35-1.49-.05-1.49-.05,0,0,1.28,1.32.83,2.67-.39-.47-.85-.49-.85-.49,0,.14-.03.3-.06.45,0,.02,0,.04,0,.05,0,0,0,.01,0,.02-.07.36-.18.7-.33,1.03-.56,1.37-1.37,2.53-1.71,2.91-.13-.9-.48-1.54-.95-1.98-.22,1.04-2.06,3.38-3.14,4.05-1.05-1.11-2.54-1.81-4.2-1.81Z"/>
    </g>
  </g>
</svg>