<?xml version="1.0" encoding="UTF-8"?>
<svg id="Layer_2" data-name="Layer 2" xmlns="http://www.w3.org/2000/svg" viewBox="0 0 97.26 104.2">
  <defs>
    <style>
      .cls-1 {
        fill: none;
        stroke: #fff;
        stroke-miterlimit: 10;
      }

      .cls-2 {
        fill: #fff;
      }
    </style>
  </defs>
  <g id="Layer_1-2" data-name="Layer 1">
    <g>
      <g>
        <rect class="cls-2" x="47.67" y="95.39" width="1.45" height="5.86"/>
        <polygon class="cls-2" points="41.42 100.15 41.42 95.39 39.97 95.39 39.97 101.25 41.42 101.25 46.43 101.25 46.43 100.15 41.42 100.15"/>
        <polygon class="cls-2" points="69.01 95.39 65.19 95.39 63.75 95.39 59.93 95.39 59.93 96.48 63.75 96.48 63.75 101.25 65.19 101.25 65.19 96.48 69.01 96.48 69.01 95.39"/>
        <polygon class="cls-2" points="78.86 95.39 75.05 95.39 73.6 95.39 69.79 95.39 69.79 96.48 73.6 96.48 73.6 101.25 75.05 101.25 75.05 96.48 78.86 96.48 78.86 95.39"/>
        <polygon class="cls-2" points="58.89 96.49 58.89 95.39 52.51 95.39 51.07 95.39 51.07 96.49 51.07 96.49 51.07 97.79 51.07 98.84 51.07 98.84 51.07 100.15 51.07 101.25 51.07 101.25 52.51 101.25 58.89 101.25 58.89 100.15 52.51 100.15 52.51 98.84 58.89 98.84 58.89 97.79 52.51 97.79 52.51 96.49 58.89 96.49"/>
        <path class="cls-2" d="M17.77,97.23c0-1.02-.82-1.84-1.84-1.84h0s-6.72,0-6.72,0h-1.1v5.86h7.82c1.02,0,1.84-.83,1.84-1.84,0-.41-.13-.78-.36-1.09.22-.3.36-.68.36-1.09M9.21,96.48h6.72s.03,0,.04,0c.36,0,.65.29.65.65,0,.19-.09.37-.22.49-.12.1-.27.17-.43.17-.01,0-.03,0-.04,0h0s-6.72,0-6.72,0v-1.31ZM15.97,100.15s-.03,0-.04,0h-6.72v-1.31h6.72s.03,0,.04,0c.17,0,.32.06.43.17.13.12.22.29.22.49,0,.36-.29.65-.65.65"/>
        <path class="cls-2" d="M27.07,101.25h1.74l-4.69-5.85h-1.41l-4.69,5.85h1.74l1.06-1.42h5.19l1.06,1.42ZM21.4,98.78l2.01-2.44,2.01,2.44h-4.03Z"/>
        <g>
          <path class="cls-2" d="M37.56,98.07h-3.61v1.04h3.49c-.13.39-.34.75-.63,1.03h-6.32c-.46-.47-.75-1.12-.75-1.83s.29-1.36.75-1.83h6.32c.19.2.35.42.48.67h1.12c-.24-.71-.69-1.33-1.28-1.77h-6.96c-.89.67-1.47,1.73-1.47,2.93s.58,2.26,1.47,2.93h6.96c.89-.67,1.47-1.73,1.47-2.93,0-.08,0-.16,0-.25h-1.04Z"/>
          <path class="cls-2" d="M87.68,95.39h-6.9c-.89.67-1.47,1.73-1.47,2.93s.58,2.26,1.47,2.93h6.9c.9-.67,1.47-1.73,1.47-2.93s-.58-2.26-1.47-2.93M87.36,100.15h-6.27c-.46-.47-.75-1.12-.75-1.83s.29-1.36.75-1.83h6.27c.46.47.75,1.12.75,1.83s-.29,1.36-.75,1.83"/>
          <path class="cls-2" d="M48.41,94.31c-3.66,0-6.63-2.98-6.63-6.63s2.98-6.63,6.63-6.63,6.63,2.98,6.63,6.63-2.98,6.63-6.63,6.63M48.41,81.27c-3.53,0-6.4,2.87-6.4,6.4s2.87,6.4,6.4,6.4,6.4-2.87,6.4-6.4-2.87-6.4-6.4-6.4"/>
        </g>
        <polygon class="cls-2" points="79.69 104.19 79.69 102.63 79.29 102.63 79.29 102.45 79.97 102.33 79.97 104.19 79.69 104.19"/>
        <g>
          <path class="cls-2" d="M81.48,104.17c-.16,0-.27-.03-.33-.08-.06-.06-.09-.16-.09-.31v-.19c0-.11.03-.2.08-.25.05-.06.14-.1.26-.11-.1-.01-.18-.05-.23-.11-.05-.06-.07-.14-.07-.25v-.17c0-.14.03-.23.08-.28.05-.05.16-.08.32-.08h1.08c.16,0,.26.03.32.08.05.05.08.15.08.28v.17c0,.11-.02.19-.07.25-.05.06-.12.09-.23.11.12.02.21.06.26.11.05.06.08.14.08.25v.19c0,.15-.03.25-.09.31-.06.06-.17.09-.33.09h-1.1ZM81.35,103.53v.2c0,.08.01.13.04.15.02.03.07.04.15.04h.99c.07,0,.12-.01.15-.04.02-.03.04-.08.04-.15v-.2c0-.08-.01-.13-.04-.15-.03-.03-.07-.04-.15-.04h-.99c-.07,0-.12.01-.15.04-.03.03-.04.08-.04.15M81.39,102.77v.14c0,.08.01.13.04.16.03.02.08.04.15.04h.91c.07,0,.12-.01.15-.04.03-.03.04-.08.04-.15v-.14c0-.08-.01-.13-.04-.15-.03-.02-.08-.04-.15-.04h-.91c-.07,0-.12.01-.15.04-.03.02-.04.08-.04.15"/>
          <path class="cls-2" d="M84.09,103.82c.17.04.33.07.49.09.16.02.31.03.44.03.22,0,.38-.03.48-.08.1-.06.15-.15.15-.28s-.05-.23-.15-.29c-.1-.06-.27-.09-.49-.09-.14,0-.28,0-.43.03-.15.02-.31.05-.47.09l.1-.98h1.49l-.02.25h-1.24l-.06.45c.12-.03.23-.04.34-.06.11-.01.23-.02.34-.02.31,0,.55.05.7.15.15.1.23.26.23.48s-.08.38-.23.48c-.15.1-.41.15-.76.15-.11,0-.23,0-.36-.02-.13-.01-.27-.04-.43-.07l-.09-.3Z"/>
        </g>
        <path class="cls-2" d="M88.44,104.19v-.44h-1.39v-.23l1.33-1.2h.35v1.2h.42v.23h-.42v.44h-.28ZM88.44,103.52v-.97l-1.07.97h1.07Z"/>
        <polygon class="cls-2" points="48.43 93.71 47.26 86.95 45.6 86.14 42.89 90.21 44.13 83.21 47.38 84.27 48.43 81.47 49.47 84.27 52.72 83.21 53.96 90.21 51.25 86.14 49.59 86.95 48.43 93.71"/>
      </g>
      <line class="cls-1" x1="97.26" y1="65.6" y2="65.6"/>
      <path class="cls-2" d="M41.72,4.78l-.49-1.57.38-.12c.42-.13.75.03.88.42l.05.18c.16.52-.09.85-.83,1.09ZM39.85,42.35l-.37-.19-.67,1.35c.71.35,1.13.27,1.39-.25.21-.41.1-.69-.35-.91ZM36.26,10.14c.48-.39.51-.72.11-1.22l-1.3-1.61c-.29-.36-.65-.4-1.01-.11l-.32.26,2.3,2.86.22-.17ZM53.99,6.47c.36.1.71-.06.8-.38l.71-2.46c.09-.32-.12-.64-.48-.75s-.71.06-.8.38l-.71,2.46c-.09.32.12.64.48.75ZM39.07,44.37c-.19-.05-.39-.12-.59-.22l-.66,1.31.43.21c.45.22.74.13.96-.31l.05-.1c.19-.38.12-.68-.19-.89ZM42.1,46.53c.2-.07.39-.09.56-.05.16.05.32.16.47.34l.14-1.75.13-1.15h-.04s-.48,1.04-.48,1.04l-.78,1.56ZM73.71,25.08c0,13.83-11.25,25.08-25.08,25.08s-25.08-11.25-25.08-25.08S34.8,0,48.63,0s25.08,11.25,25.08,25.08ZM26.31,23.82h-.2l-.38.39v2.97h.58v-3.36ZM29.09,24.39l-.62-.61h-.76l-.62.61v.92l.62.61h.54l.25-.27v.68c0,.24-.15.38-.38.38s-.38-.15-.38-.38v-.21h-.57v.47l.62.61h.69l.62-.61v-2.21ZM63.16,6.21l-4.06,3.36.63.51c.43-.3.91-.36,1.16-.15.25.2.28.68.09,1.17l.66.54,2.47-4.66-.94-.76ZM58.41,3.32l-2.42,4.57.77.41,1.49-2.82.06-.13.03.02-.05.23-.45,3.28.83.44,2.42-4.57-.76-.4-1.57,2.97-.03-.02.06-.22.48-3.29-.86-.46ZM52.52,5.88l.65,1.16,1.2.35,1.17-.64.94-3.26-.65-1.16-1.2-.35-1.17.64-.94,3.26ZM48.53,6.39l.89.07.15-2.08c.1-.19.34-.28.63-.26.28.02.51.15.59.35l-.15,2.09.89.07.38-5.16-.89-.07-.16,2.19c-.19-.12-.4-.2-.6-.21-.2-.01-.42.03-.63.13l.16-2.2-.89-.07-.38,5.16ZM44.47,1.59l.08.72.99-.11.5,4.42.89-.1-.5-4.42.99-.11-.08-.72-2.87.33ZM40.16,2.77l1.53,4.94.86-.27-.61-1.97.1-.03c.74-.23,1.25.27,1.68,1.64l.86-.27c-.36-1.15-.87-1.83-1.56-2.04.41-.44.51-1.02.28-1.77l-.07-.21-1.17-.62-1.9.59ZM36.37,4.63l2.43,4.56,2.27-1.21-.36-.68-1.48.79-.66-1.24c.16-.25.54-.5,1.11-.77l-.36-.67c-.5.23-.94.53-1.12.76l-.69-1.3,1.42-.76-.36-.67-2.21,1.18ZM32.58,7.43l3.24,4.03.9-.73c.89-.72.98-1.62.26-2.53l-1.52-1.9-1.31-.14-1.56,1.26ZM40.01,44.38c.48-.13.88-.49,1.17-1.07l.03-.06-.42-1.25-1.79-.9-2.31,4.62,1.87.94,1.24-.42.5-1-.29-.86ZM44.23,43.21l-1.17-.32-2.38,4.71.78.22c.28-.44.69-.69,1-.6.3.08.53.51.55,1.03l.82.23.4-5.25ZM48.44,44.66l-.85-1.01-1.02-.08-1.01.85-.08.92,1.6,1.63c.18.18.28.4.26.59-.03.38-.26.57-.63.54-.38-.03-.57-.26-.54-.63l.04-.53-.89-.07-.08.95.85,1.01,1.09.09,1.01-.85.09-1.12-1.61-1.65c-.16-.17-.26-.35-.25-.49.03-.31.24-.47.59-.44.35.03.52.25.49.63l-.03.35.89.07.06-.75ZM52.8,48.58c-.13-1.23-.62-2.11-1.32-2.51l.74-2.63-.89.1-.63,2.3c-.11-.01-.23-.01-.35,0l-.24-2.16-.89.1.56,5.14.89-.1-.24-2.23c.79-.06,1.31.69,1.46,2.09l.9-.1ZM56.94,47.44l-.23-.74-1.6.49-.41-1.34c.21-.22.62-.39,1.24-.54l-.22-.72c-.53.13-1.03.34-1.24.54l-.43-1.41,1.53-.47-.22-.72-2.39.74,1.52,4.94,2.46-.76ZM59.91,46.05l-2.04-3.95.89-.46-.33-.65-2.57,1.32.33.65.89-.46,2.04,3.95.8-.41ZM65.99,25.08c0-9.57-7.79-17.36-17.36-17.36s-17.36,7.79-17.36,17.36,7.79,17.36,17.36,17.36,17.36-7.79,17.36-17.36ZM69.58,25.44l-.62-.61h-.56l-.23.24v-.74h1.33v-.51h-1.93v1.89h.59v-.02c0-.21.19-.37.43-.37s.38.15.38.39v.62c0,.22-.17.38-.41.38s-.41-.17-.41-.38v-.26h-.59v.54l.62.61h.76l.62-.61v-1.16ZM72.29,26.6v-1.16l-.62-.61h-.56l-.23.24v-.74h1.33v-.51h-1.93v1.89h.59v-.02c0-.21.19-.37.43-.37s.38.15.38.39v.62c0,.22-.17.38-.41.38s-.41-.17-.41-.38v-.26h-.59v.54l.62.61h.76l.62-.61ZM61.64,9.86l.83-1.55.58-1-.03-.02-.86.77-1.34,1.12c.22.02.4.07.53.18.13.11.23.28.29.5ZM28.09,24.29c-.24,0-.41.17-.41.38v.38c0,.24.15.39.38.39s.43-.17.43-.39v-.38c0-.22-.17-.38-.41-.38ZM43.81,12.96s-.43.67-1.15.47c-.03.75-.81.95-.81.95,0,0-.77-.2-.8-.95-.73.2-1.15-.47-1.15-.47,0,0-.05-.8.66-1.06-.42-.63.09-1.24.09-1.24,0,0,.74-.29,1.21.3.47-.59,1.21-.3,1.21-.3,0,0,.51.61.09,1.24.71.26.66,1.06.66,1.06ZM42.16,12.44l.3-.3-.41-.07-.19-.37-.19.37-.41.07.3.3-.06.41.37-.19.38.19-.06-.41ZM47.99,37.8s0,0,0,0M39.36,22.27s.07-.7.07-2.05.05-1.93.05-1.93l-.07.02c-.06.02-.13.02-.19.03h-.04s-.06.65-.07,1.73-.1,2.09-.1,2.09h.04c.08.04.16.07.25.1l.06.02ZM37.42,28.31c.09.11.19.14.19.14.05-.05.11-.11.14-.15v-.02s.04-.02.05-.04l.04-.05s.04-.05.05-.06c.02-.02.04-.05.07-.09l.17-.27.11-.22c.07-.12.13-.27.19-.41.02-.06.05-.11.07-.17l.07-.2c.04-.11.08-.23.11-.33l.15-.53c.05-.22.11-.44.15-.68v-.06s-.39,0-.39,0v.04c-.09.37-.19.72-.29,1.05-.01.04-.03.1-.05.15,0,.02-.02.05-.02.06-.01.03-.03.07-.04.12-.04.11-.09.24-.13.32l-.04.08c-.04.08-.09.19-.11.24-.02.03-.05.09-.08.15-.03.06-.07.12-.09.16l-.13.19-.03.05s-.04.06-.07.09c-.02.03-.05.06-.07.09-.03.03-.08.08-.11.12-.01.01-.03.02-.04.04,0,0,.02.09.11.2ZM40.28,14.86l.02-.05c.2-.43.4-.77.61-1.04,0,0-.02-.05-.07-.09s-.1-.05-.1-.05c-.1.12-.19.25-.26.35-.13.2-.27.44-.41.73l-.03.05.06.02s.08.03.12.05l.05.02ZM48.37,12.93h-.05s0,0,0,0c.01,0,.03,0,.05,0h0ZM45.78,18.64s-.09-.02-.14-.03c-2.14-.42-4-1.61-5.28-3.27,0,0,0,0,0,0-.01-.02-.02-.03-.03-.04-.11-.14-.28-.22-.47-.22-.32,0-.58.24-.61.55-.05-.01-.1-.02-.15-.02-.32,0-.59.25-.61.56,0,.02,0,.03,0,.05,0,.18.08.35.2.46-.17.14-.28.35-.28.59,0,.42.34.76.76.76.24,0,.45-.11.59-.28,1.26,1.31,2.81,2.35,4.54,3,.28.1.42.13.7.21h0c.15-.11.29-.23.42-.36.42-.38.79-.82,1.09-1.31,0-.01.02-.03.03-.04.03-.05.06-.09.08-.14.07-.11.13-.23.19-.35-.34-.02-.71-.06-1.04-.12ZM46.62,16.17c.69,0,1.19-.33,1.67-.33s.82.15.82.15c0,0-.13-.57-.71-.57-.42,0-.81.15-1.5.15-.61,0-.9-.39-.9-.76s.1-.54.1-.54c0,0-.61.22-.61.98,0,.47.45.92,1.13.92ZM57.54,26.42s0-.02,0-.03c-.02,0-.03,0-.05,0,.02.01.03.02.05.03ZM48.84,31.37c-.05-.1-.1-.19-.16-.28.06.09.11.18.16.28ZM51.63,23.7h0s0,0,0,0c0,0,0,0,0,0ZM51.63,23.71s0,0,0,0h0s0,0,0,0h0ZM60.02,24.52c-.09.22-.23.42-.41.57-.02.02-.04.03-.06.05-.23.16-.5.26-.8.26-.23,0-.44-.05-.63-.15-.34.25-.57.65-.57,1.11v.04s-.03,0-.05,0c-.52-.37-.87-.99-.87-1.68,0-.1,0-.2.02-.3-.02,0-.04,0-.07,0-.43,0-.78-.35-.78-.78,0-.12.03-.23.08-.33.13.12.31.19.5.19.31,0,.58-.2.69-.47.03-.08.05-.17.05-.27,0-.35-.23-.72-.68-.72s-1.17.48-1.17,1.91c0,1.14.44,1.9.73,2.64.56,1.45,1.42,2.66,1.68,4.32.05.31.08.63.08.97v.08c0,.88-.39,1.67-1.02,2.2-.51.43-1.16.69-1.88.69-.22,0-.44-.03-.64-.07-.08.37-.13.76-.13,1.16,0,.31.03.62.08.92-.81.56-1.46,1.33-1.87,2.24-.14.31-.25.64-.32.98-.05.2-.08.41-.1.62h-4.6c.07-.32.2-.61.36-.88-.1,0-.2-.02-.31-.02-.28,0-.55.04-.81.11.42-.75,1.15-1.31,2.01-1.5.22-.05.44-.08.68-.08.18,0,.36.02.53.05h0c.32.06.62.16.9.31.17-.59.21-1.19.21-1.54,0-2.39-.88-3.2-1.91-3.2s-1.91.8-1.91,3.2l-2.06-1.43-3.69-2.58c.11-.08.21-.19.28-.3.02-.02.03-.05.04-.07.1-.18.17-.38.18-.6,0-.02,0-.04,0-.07,0-.34-.13-.65-.34-.88-.01-.02-.03-.03-.04-.04-.17-.18-.39-.3-.64-.36.15-.22.37-.4.63-.5-.07-.17-.18-.32-.32-.45-.03-.03-.06-.05-.09-.08.15-.11.32-.19.51-.24.09-.02.19-.03.29-.03-.02-.04-.04-.07-.06-.11-.1-.16-.24-.3-.4-.4.22-.09.47-.14.72-.14.22,0,.43.03.62.1.04.01.08.03.12.04.43.22.8.56,1.04.98.21.37.34.8.34,1.25,0,.25-.04.5-.11.73l1.47,1.03c-.28-.31-.44-.71-.44-1.16,0-.89.67-1.62,1.53-1.72,0,0,0,0,0,0,.05,0,.11,0,.17,0h.06c.77,0,1.45.39,1.86.98-.54-.87-.95-1.11-2.73-2.15-1.78-1.04-2.6-2.4-2.85-3.27.37-.09.76-.13,1.16-.13,1.41,0,2.68.57,3.61,1.49.14.15.28.3.41.46,1.16-.45,2.95-2.49,3.31-3.33,0,.05-.08.52-.08,1.53,0,2.87,2.3,7.24,3.66,7.24.99,0,1.17-.57,1.17-1.14,0-.06,0-.13,0-.19-.03-.85-.22-1.64-.48-2.39-.64-1.83-1.71-3.43-1.74-5.28v-.08c0-.49.12-.95.34-1.36.19-.35.44-.66.75-.91.49-.39.94-.63,1.8-.63.91,0,1.9.92,1.9,2,0,.66.39,1.32.93,1.5.07.02.13.04.2.05ZM44.26,24.87h-5.82c-.34,0-.62-.28-.62-.62,0-.06,0-.11.02-.17-.3-.08-.52-.35-.52-.68,0-.29.17-.54.42-.64-.02-.06-.02-.12-.02-.19,0-.22.09-.42.23-.56.43.24.89.43,1.37.58.62.19,1.29.29,1.97.29s1.28-.09,1.88-.26c.95-.27,1.81-.74,2.55-1.36.02-.02.05-.04.07-.06.4-.35.76-.74,1.07-1.16.1-.14.2-.29.29-.44.08-.13.16-.27.23-.41.07-.13.14-.27.2-.41,0,0,2.93.13,4.28-1.76-1.11.86-2.59,1.09-4.06,1.2.06-.16.11-.33.15-.5.02-.08.04-.16.06-.24.06-.28.1-.56.13-.85.01-.15.02-.3.03-.45.24.14.53.23.83.23,0,0,.01,0,.02,0,.22,0,.42-.09.58-.25.24-.25.41-.58.45-.94,0,0,0,0,0,0,0,0,0-.01,0-.02-.06-.05-.13-.09-.2-.13-.09-.05-.19-.09-.29-.12-.15-.05-.31-.07-.48-.07-.36,0-.69.11-.95.31-.06-.52-.18-1.02-.36-1.5-.02-.05-.04-.1-.06-.15-.04-.11-.09-.22-.13-.32-.02-.06-.05-.11-.08-.17.27-.07.55-.11.84-.11.01,0,.03,0,.05,0,.3,0,.58.04.86.11.13.03.26.07.38.12,0,0,.02,0,.03.01.13.05.26.08.4.1.08.01.16.02.24.02.01,0,.02,0,.03,0,.26,0,.52-.05.75-.15.13-.06.26-.13.38-.21.07-.05.14-.11.2-.17-.14-.1-.3-.17-.48-.19-.04,0-.09,0-.13,0-.21,0-.41.06-.57.17,0,0,0,0,0,0-.03.02-.07.04-.11.06-.11.05-.23.08-.35.08-.23,0-.43-.09-.58-.24.26-.44.7-.77,1.22-.88.05-.01.09-.02.14-.03.09-.01.18-.02.27-.02h3.64c-.1.42-.23.83-.4,1.22h1.37c-.18,1.05-.53,1.62-1.26,2.19.79.41,1.66,1.55,1.77,2.9-1.01-.35-1.49-.05-1.49-.05,0,0,1.28,1.32.83,2.67-.39-.47-.85-.49-.85-.49,0,.14-.03.3-.06.45,0,.02,0,.04,0,.05,0,0,0,.01,0,.02-.07.36-.18.7-.33,1.03-.56,1.37-1.37,2.53-1.71,2.91-.13-.9-.48-1.54-.95-1.98-.22,1.04-2.06,3.38-3.14,4.05-1.05-1.11-2.54-1.81-4.2-1.81Z"/>
    </g>
  </g>
</svg>