<?xml version="1.0" encoding="UTF-8"?>
<svg id="Layer_2" data-name="Layer 2" xmlns="http://www.w3.org/2000/svg" xmlns:xlink="http://www.w3.org/1999/xlink" viewBox="0 0 151.04 169.01">
  <defs>
    <style>
      .cls-1 {
        fill: #2d2926;
      }

      .cls-2 {
        fill: #fff;
      }

      .cls-3 {
        fill: #163758;
      }

      .cls-4 {
        fill: #ee3441;
      }

      .cls-5 {
        fill: none;
        stroke: #2d2926;
        stroke-miterlimit: 10;
      }
    </style>
    <symbol id="Derthona_Lion" data-name="Derthona Lion" viewBox="0 0 117.67 155.94">
      <g>
        <path class="cls-4" d="M30.27,6.82c2.16-3.26-.48-6.44-.48-6.44,0,0-3.84-1.52-6.27,1.54-2.43-3.06-6.27-1.54-6.27-1.54,0,0-2.63,3.18-.47,6.44-3.66,1.37-3.4,5.49-3.4,5.49,0,0,2.21,3.49,5.98,2.44.17,3.9,4.17,4.93,4.17,4.93,0,0,4-1.02,4.17-4.93,3.76,1.05,5.98-2.44,5.98-2.44,0,0,.26-4.12-3.4-5.49ZM25.46,11.75l-1.94-.98-1.94.98.33-2.15-1.53-1.55,2.15-.35.99-1.94,1,1.94,2.15.35-1.53,1.55.33,2.15Z"/>
        <path class="cls-1" d="M55.31,141.03s0,0,0,0"/>
        <path class="cls-1" d="M10.29,60.45c-.46-.15-.87-.29-1.28-.44l-.19-.07s.47-5.28.52-10.85.35-8.94.35-8.94h.23c.32-.03.64-.08.97-.16l.35-.08s-.26,3.03-.25,10.02c0,6.98-.37,10.63-.37,10.63l-.32-.1Z"/>
        <path class="cls-1" d="M0,90.8c.07-.06.14-.12.2-.18.17-.18.42-.45.57-.61.09-.12.22-.28.34-.44.13-.16.26-.33.36-.46l.15-.23.65-1c.1-.18.27-.51.44-.82.16-.29.31-.58.41-.75.11-.22.36-.8.55-1.22l.19-.43c.21-.43.44-1.09.65-1.67.08-.22.15-.43.22-.6.04-.1.08-.22.12-.34.1-.27.21-.57.27-.8.54-1.71,1.02-3.54,1.45-5.44l.05-.21h2.11l-.07.32c-.25,1.24-.51,2.39-.8,3.51l-.77,2.76c-.18.51-.39,1.13-.59,1.71l-.35,1.02c-.12.28-.24.57-.37.87-.31.73-.62,1.49-.96,2.11l-.6,1.14-.88,1.41c-.18.25-.27.36-.36.48-.07.09-.14.18-.25.33l-.2.27c-.05.07-.11.13-.16.19l-.08.08c-.2.22-.46.5-.75.77,0,0-.49-.14-.98-.71s-.57-1.03-.57-1.03Z"/>
        <path class="cls-1" d="M15.12,22.05c-.21-.09-.42-.17-.64-.24l-.3-.09.13-.28c.73-1.52,1.41-2.76,2.11-3.8.36-.54.79-1.19,1.33-1.83,0,0,.22.04.51.26s.38.47.38.47c-1.12,1.39-2.15,3.15-3.17,5.37l-.11.24-.24-.11Z"/>
        <g>
          <path class="cls-1" d="M57.29,12.12h-.24s0,0,0,0c.08,0,.15,0,.23,0h0Z"/>
          <path class="cls-1" d="M49.23,42.35c-.3.62-.62,1.22-.97,1.81-.14.25-.29.5-.44.74-.04.07-.09.15-.13.22-1.57,2.5-3.47,4.78-5.64,6.77-.71.65-1.44,1.27-2.2,1.85h-.01c-1.48-.43-2.21-.57-3.65-1.11-9-3.36-17.04-8.72-23.55-15.53-.73.89-1.84,1.46-3.08,1.46-2.18,0-3.95-1.77-3.95-3.96,0-1.23.56-2.34,1.45-3.06-.65-.59-1.06-1.43-1.06-2.38,0-.09,0-.18.02-.27.13-1.64,1.51-2.92,3.18-2.92.26,0,.52.03.77.09.17-1.6,1.53-2.85,3.17-2.85.98,0,1.86.44,2.45,1.14.05.07.11.15.17.23.01.01.02.02.03.04,6.64,8.62,16.28,14.8,27.37,16.97.23.05.46.09.7.13,1.69.31,3.61.52,5.37.63Z"/>
          <path class="cls-1" d="M48.23,28.95c3.56,0,6.18-1.71,8.63-1.71s4.24.77,4.24.77c0,0-.66-2.95-3.68-2.95-2.17,0-4.18.8-7.77.8-3.16,0-4.65-2.02-4.65-3.96s.51-2.8.51-2.8c0,0-3.15,1.14-3.15,5.06,0,2.45,2.32,4.79,5.88,4.79Z"/>
          <path class="cls-1" d="M104.84,82.02s0-.09,0-.14c-.09-.01-.17-.02-.26-.04.08.06.17.12.26.18Z"/>
          <path class="cls-1" d="M59.74,107.67c-.24-.5-.52-.98-.83-1.44.29.47.57.95.83,1.44Z"/>
          <g>
            <path class="cls-1" d="M74.18,67.95h0s0,.02,0,.03c0-.01,0-.02,0-.03Z"/>
            <polygon class="cls-1" points="74.17 67.99 74.17 67.99 74.17 67.99 74.17 67.99 74.17 67.99 74.17 67.99"/>
            <path class="cls-1" d="M116.61,71.9c-2.8-.96-4.82-4.35-4.82-7.8,0-5.59-5.11-10.36-9.83-10.36-4.47,0-6.77,1.22-9.33,3.26-1.6,1.27-2.93,2.87-3.9,4.69-1.12,2.1-1.75,4.49-1.75,7.03v.39c.14,9.59,5.66,17.89,9,27.36,1.37,3.87,2.37,7.93,2.5,12.36.01.32.02.65.02.98,0,3-.92,5.93-6.05,5.93-7,0-18.94-22.66-18.94-37.54,0-5.28.39-7.67.43-7.95-1.83,4.38-11.14,14.93-17.14,17.28-.66-.84-1.37-1.63-2.12-2.39-4.79-4.77-11.4-7.72-18.7-7.72-2.07,0-4.08.23-6.02.68,1.28,4.49,5.52,11.56,14.76,16.95,9.24,5.39,11.38,6.67,14.17,11.16-2.1-3.07-5.62-5.08-9.62-5.08h-.3c-.29.01-.58.03-.86.05-.01,0-.02.01-.03.01-4.46.52-7.91,4.31-7.91,8.91,0,2.3.87,4.41,2.3,6l-7.63-5.33c.36-1.2.56-2.47.56-3.79,0-2.36-.63-4.58-1.74-6.48-1.26-2.18-3.13-3.95-5.38-5.08-.2-.09-.4-.16-.61-.23-1.01-.34-2.09-.52-3.22-.52-1.3,0-2.56.25-3.71.7.84.53,1.55,1.25,2.08,2.09.12.18.23.36.33.56-.51,0-1.01.06-1.48.17-.98.22-1.88.64-2.64,1.23.16.13.31.26.46.39.7.64,1.27,1.43,1.65,2.31-1.33.5-2.46,1.42-3.24,2.58,1.27.29,2.42.95,3.31,1.86.08.07.15.15.22.23,1.09,1.22,1.75,2.81,1.75,4.57,0,.11-.01.22-.01.34-.06,1.13-.39,2.18-.93,3.1-.07.13-.14.25-.23.37-.4.6-.9,1.14-1.47,1.58l19.14,13.37,10.65,7.43c0-12.41,4.57-16.58,9.91-16.58s9.91,4.17,9.91,16.58c0,1.78-.17,4.88-1.07,7.96-1.44-.76-3-1.31-4.66-1.6h-.01c-.9-.16-1.82-.24-2.77-.24-1.2,0-2.37.13-3.5.39-4.48,1-8.25,3.89-10.43,7.79,1.35-.37,2.76-.57,4.22-.57.54,0,1.08.03,1.6.08-.85,1.4-1.49,2.94-1.87,4.58h23.85c.11-1.09.28-2.16.52-3.21.4-1.77.96-3.47,1.68-5.09,2.09-4.72,5.47-8.74,9.68-11.62-.27-1.56-.41-3.16-.41-4.79,0-2.07.22-4.08.66-6.02,1.07.24,2.19.37,3.34.37,3.71,0,7.1-1.34,9.72-3.57,3.23-2.75,5.27-6.84,5.27-11.41v-.39c-.02-1.77-.17-3.44-.44-5.04-1.39-8.58-5.84-14.88-8.73-22.37-1.48-3.84-3.78-7.74-3.78-13.66,0-7.43,3.75-9.9,6.08-9.9s3.52,1.93,3.52,3.72c0,.49-.09.95-.26,1.38-.55,1.44-1.94,2.46-3.57,2.46-1,0-1.91-.38-2.59-1-.25.52-.39,1.11-.39,1.73,0,2.24,1.81,4.05,4.05,4.05.12,0,.23,0,.34-.01-.07.51-.11,1.03-.11,1.56,0,3.59,1.77,6.77,4.49,8.71.08.01.17.03.25.04v-.2c0-2.38,1.16-4.48,2.94-5.77.98.51,2.09.79,3.27.79,1.56,0,3-.5,4.17-1.35.11-.08.21-.16.32-.25.94-.77,1.69-1.77,2.14-2.93-.37-.06-.72-.15-1.06-.27Z"/>
            <path class="cls-1" d="M57.73,83.36c5.55-3.46,15.11-15.59,16.25-20.99,2.46,2.26,4.3,5.6,4.95,10.26,1.74-1.96,5.95-7.95,8.87-15.07.76-1.68,1.34-3.47,1.69-5.33,0-.03.01-.05.02-.08.02-.1.03-.19.05-.28.15-.79.25-1.57.29-2.32,0,0,2.35.09,4.39,2.55,2.33-6.99-4.32-13.85-4.32-13.85,0,0,2.48-1.6,7.72.24-.58-7-5.08-12.91-9.19-15.02,3.77-2.96,5.59-5.92,6.52-11.34h-7.08c.86-2.02,1.56-4.12,2.07-6.3h-18.86c-.47,0-.93.03-1.38.1-.25.03-.5.08-.74.13-2.68.59-4.94,2.28-6.3,4.56.78.77,1.85,1.24,3.03,1.24.65,0,1.26-.14,1.81-.4.2-.09.39-.2.57-.31.01,0,.03-.02.04-.03.85-.57,1.88-.9,2.98-.9.23,0,.46.02.69.05.92.11,1.77.46,2.48.98-.33.32-.68.61-1.05.88-.61.44-1.26.81-1.96,1.11-1.18.5-2.49.78-3.86.78-.06,0-.12,0-.17,0-.42,0-.84-.04-1.24-.1-.73-.1-1.43-.28-2.09-.54-.05-.02-.1-.04-.15-.06-.64-.25-1.3-.46-1.98-.63-1.42-.36-2.91-.56-4.44-.56-.08,0-.16,0-.23,0-1.5.02-2.96.22-4.35.59.14.29.27.57.4.86.25.55.48,1.1.69,1.67.1.25.2.51.29.77.89,2.48,1.52,5.08,1.84,7.78,1.39-1,3.1-1.59,4.95-1.59.86,0,1.69.13,2.48.37.53.16,1.03.37,1.51.62.37.2.72.42,1.06.66,0,.03,0,.06-.01.08,0,.01,0,.02,0,.03-.23,1.89-1.09,3.59-2.35,4.89-.78.8-1.86,1.26-2.98,1.28-.04,0-.07,0-.11,0-1.57,0-3.04-.42-4.3-1.17-.02.78-.06,1.56-.14,2.33-.13,1.49-.36,2.95-.67,4.39-.09.41-.19.83-.29,1.24-.22.88-.48,1.75-.77,2.6,7.63-.57,15.28-1.74,21.03-6.21-6.97,9.78-22.16,9.11-22.16,9.11-.32.72-.66,1.43-1.02,2.12-.37.72-.78,1.43-1.2,2.11-.48.78-.98,1.54-1.52,2.27-1.6,2.22-3.46,4.24-5.52,6.03-.12.1-.24.2-.35.3-3.8,3.21-8.28,5.64-13.2,7.04-3.09.88-6.36,1.35-9.74,1.35-3.55,0-6.98-.52-10.21-1.49-2.49-.74-4.86-1.75-7.09-3-.75.75-1.21,1.79-1.21,2.93,0,.34.04.67.12.99-1.29.56-2.2,1.84-2.2,3.34,0,1.68,1.14,3.1,2.7,3.51-.08.28-.12.57-.12.87,0,1.77,1.43,3.2,3.2,3.2h30.18c8.56,0,16.29,3.6,21.74,9.37Z"/>
          </g>
        </g>
      </g>
    </symbol>
  </defs>
  <g id="Layer_1-2" data-name="Layer 1">
    <g>
      <rect class="cls-3" x="73.73" y="152.59" width="2.7" height="10.92"/>
      <polygon class="cls-3" points="62.08 161.47 62.08 152.59 59.38 152.59 59.38 163.51 62.08 163.51 71.41 163.51 71.41 161.47 62.08 161.47"/>
      <polygon class="cls-3" points="113.5 152.59 106.39 152.59 103.7 152.59 96.59 152.59 96.59 154.64 103.7 154.64 103.7 163.51 106.39 163.51 106.39 154.64 113.5 154.64 113.5 152.59"/>
      <polygon class="cls-3" points="131.87 152.59 124.76 152.59 122.06 152.59 114.96 152.59 114.96 154.64 122.06 154.64 122.06 163.51 124.76 163.51 124.76 154.64 131.87 154.64 131.87 152.59"/>
      <polygon class="cls-3" points="94.64 154.64 94.64 152.59 82.76 152.59 80.06 152.59 80.06 154.64 80.06 154.64 80.06 157.08 80.06 159.03 80.06 159.03 80.06 161.47 80.06 163.51 80.06 163.51 82.76 163.51 94.64 163.51 94.64 161.47 82.76 161.47 82.76 159.03 94.64 159.03 94.64 157.08 82.76 157.08 82.76 154.64 94.64 154.64"/>
      <path class="cls-3" d="M18.01,156.03c0-1.9-1.54-3.43-3.43-3.43h0s-12.53,0-12.53,0H0v10.92h14.58c1.9,0,3.43-1.54,3.43-3.43,0-.76-.25-1.46-.66-2.02.42-.57.66-1.27.66-2.02M2.05,154.64h12.53s.05,0,.07,0c.67,0,1.22.55,1.22,1.22,0,.36-.16.68-.41.91-.22.19-.5.31-.81.31-.02,0-.05,0-.07,0h0s-12.53,0-12.53,0v-2.44ZM14.65,161.47s-.05,0-.07,0H2.05v-2.44h12.53s.05,0,.07,0c.31,0,.59.12.81.31.25.22.41.55.41.91,0,.67-.55,1.22-1.22,1.22"/>
      <path class="cls-3" d="M35.33,163.51h3.24l-8.73-10.91h-2.63l-8.73,10.91h3.24l1.97-2.65h9.67l1.97,2.65ZM24.77,158.92l3.75-4.55,3.75,4.55h-7.5Z"/>
      <g>
        <path class="cls-3" d="M54.9,157.59h-6.72v1.95h6.51c-.24.73-.64,1.39-1.17,1.93h-11.78c-.86-.88-1.4-2.08-1.4-3.41s.54-2.54,1.4-3.42h11.78c.36.37.66.79.89,1.25h2.09c-.44-1.33-1.29-2.48-2.39-3.3h-12.96c-1.67,1.24-2.75,3.22-2.75,5.46s1.08,4.22,2.74,5.46h12.97c1.66-1.25,2.74-3.23,2.74-5.46,0-.15,0-.31-.02-.46h-1.94Z"/>
        <path class="cls-3" d="M148.3,152.59h-12.87c-1.67,1.24-2.75,3.23-2.75,5.46s1.08,4.22,2.74,5.46h12.87c1.67-1.24,2.75-3.23,2.75-5.46s-1.08-4.22-2.74-5.46M147.7,161.47h-11.68c-.86-.88-1.4-2.08-1.4-3.41s.54-2.54,1.4-3.42h11.68c.86.88,1.4,2.08,1.4,3.41s-.54,2.54-1.4,3.42"/>
        <path class="cls-3" d="M75.12,150.58c-6.82,0-12.36-5.55-12.36-12.36s5.55-12.36,12.36-12.36,12.36,5.55,12.36,12.36-5.55,12.36-12.36,12.36M75.12,126.29c-6.58,0-11.93,5.35-11.93,11.93s5.35,11.93,11.93,11.93,11.93-5.35,11.93-11.93-5.35-11.93-11.93-11.93"/>
      </g>
      <polygon class="cls-3" points="133.41 169 133.41 166.1 132.66 166.1 132.66 165.76 133.93 165.54 133.93 169 133.41 169"/>
      <g>
        <path class="cls-3" d="M136.74,168.96c-.29,0-.5-.05-.61-.16-.11-.11-.17-.3-.17-.58v-.36c0-.21.05-.36.15-.47.1-.11.26-.18.48-.21-.19-.03-.33-.09-.42-.2-.09-.11-.13-.26-.13-.47v-.31c0-.26.05-.43.15-.53.1-.1.3-.14.59-.14h2.01c.29,0,.49.05.59.14.1.09.15.27.15.53v.31c0,.2-.05.36-.13.47-.09.11-.23.17-.43.2.22.03.38.1.48.21.1.11.15.27.15.47v.36c0,.28-.06.47-.17.58-.12.11-.32.16-.62.16h-2.05ZM136.51,167.77v.37c0,.14.02.23.07.28.05.05.14.07.27.07h1.84c.14,0,.23-.02.28-.07.05-.05.07-.14.07-.28v-.37c0-.14-.02-.23-.07-.28-.05-.05-.14-.07-.28-.07h-1.84c-.13,0-.22.02-.27.07-.05.05-.07.14-.07.28M136.57,166.35v.27c0,.15.02.24.07.29.05.05.14.07.28.07h1.7c.14,0,.23-.02.28-.07.05-.05.07-.14.07-.29v-.27c0-.15-.02-.24-.07-.29-.05-.05-.14-.07-.28-.07h-1.7c-.13,0-.22.02-.27.07-.05.05-.07.14-.07.29"/>
        <path class="cls-3" d="M141.61,168.3c.31.07.62.13.91.17.29.04.57.05.82.05.42,0,.71-.05.89-.16.18-.11.27-.28.27-.52s-.1-.43-.29-.54c-.19-.11-.5-.17-.92-.17-.26,0-.53.02-.81.05-.28.04-.57.09-.88.16l.18-1.83h2.78l-.04.46h-2.31l-.12.83c.21-.05.43-.08.64-.11.21-.02.42-.03.63-.03.58,0,1.02.1,1.3.29.28.19.42.49.42.89s-.14.7-.43.89c-.29.18-.76.27-1.42.27-.21,0-.43-.01-.67-.04-.23-.03-.5-.07-.8-.12l-.17-.55Z"/>
      </g>
      <path class="cls-3" d="M149.72,169v-.82h-2.6v-.43l2.47-2.23h.65v2.23h.79v.43h-.79v.82h-.53ZM149.72,167.76v-1.81l-1.99,1.81h1.99Z"/>
      <polygon class="cls-3" points="75.16 149.46 72.96 136.87 69.88 135.36 64.82 142.94 67.14 129.91 73.19 131.88 75.16 126.65 77.1 131.88 83.14 129.91 85.46 142.94 80.4 135.36 77.32 136.87 75.16 149.46"/>
    </g>
    <line class="cls-5" x1="151.04" y1="101.88" y2="101.88"/>
    <g>
      <g>
        <circle class="cls-2" cx="75.52" cy="38.95" r="32.96"/>
        <path class="cls-1" d="M75.52,77.9c-21.48,0-38.95-17.47-38.95-38.95S54.04,0,75.52,0s38.95,17.47,38.95,38.95-17.47,38.95-38.95,38.95ZM75.52,11.99c-14.87,0-26.96,12.1-26.96,26.96s12.1,26.96,26.96,26.96,26.96-12.1,26.96-26.96-12.1-26.96-26.96-26.96Z"/>
      </g>
      <use width="117.67" height="155.94" transform="translate(57.95 16.44) scale(.3)" xlink:href="#Derthona_Lion"/>
      <g>
        <g>
          <path class="cls-2" d="M60.57,63.84l2.79,1.39.65,1.95-.04.09c-.45.9-1.08,1.46-1.82,1.66l.44,1.33-.78,1.55-1.92.66-2.9-1.45,3.59-7.18ZM59.41,70.93c.7.35,1.15.2,1.49-.48l.08-.16c.3-.59.19-1.06-.3-1.38-.29-.08-.6-.19-.91-.35l-1.02,2.04.66.33ZM62.42,67.19c.32-.64.16-1.07-.54-1.42l-.58-.29-1.05,2.09c1.1.54,1.76.42,2.16-.38Z"/>
          <path class="cls-2" d="M66.87,66.6l1.81.5-.62,8.16-1.27-.35c-.02-.81-.38-1.47-.85-1.6-.49-.13-1.13.25-1.55.94l-1.21-.34,3.69-7.31ZM66.25,72.2c.25.07.5.25.72.54l.22-2.73.21-1.78-.06-.02-.74,1.64-1.22,2.42c.32-.11.61-.14.87-.07Z"/>
          <path class="cls-2" d="M70.27,74.24l.12-1.47,1.39.11-.07.82c-.05.59.25.93.83.98.59.05.93-.25.98-.83.02-.29-.13-.64-.41-.91l-2.48-2.54.12-1.42,1.56-1.33,1.58.13,1.33,1.56-.1,1.16-1.39-.11.04-.54c.05-.59-.22-.93-.76-.98-.55-.05-.88.2-.92.68-.02.2.14.49.39.75l2.51,2.56-.14,1.73-1.56,1.33-1.7-.14-1.33-1.56Z"/>
          <path class="cls-2" d="M76.45,67.97l1.38-.15.37,3.36c.19-.02.37-.02.54,0l.97-3.57,1.38-.15-1.16,4.08c1.09.62,1.85,1.99,2.06,3.9l-1.39.15c-.24-2.17-1.05-3.33-2.27-3.25l.38,3.46-1.38.15-.88-7.98Z"/>
          <path class="cls-2" d="M82.25,67.17l3.71-1.14.35,1.12-2.38.73.67,2.19c.33-.3,1.1-.63,1.93-.83l.35,1.12c-.96.23-1.6.51-1.92.84l.64,2.09,2.49-.77.35,1.15-3.82,1.17-2.36-7.68Z"/>
          <path class="cls-2" d="M88.64,66.02l-1.38.71-.52-1,3.99-2.05.52,1-1.37.71,3.16,6.14-1.24.64-3.16-6.14Z"/>
        </g>
        <g>
          <path class="cls-2" d="M50.62,11.52l2.43-1.95,2.04.22,2.36,2.94c1.13,1.4.98,2.81-.4,3.92l-1.4,1.13-5.03-6.26ZM56.5,13.83l-2.01-2.51c-.45-.56-1.01-.62-1.57-.17l-.5.4,3.57,4.45.34-.27c.75-.6.79-1.12.17-1.9Z"/>
          <path class="cls-2" d="M56.51,7.18l3.43-1.83.55,1.04-2.2,1.17,1.08,2.02c.27-.36.96-.82,1.73-1.18l.55,1.04c-.9.41-1.48.8-1.73,1.19l1.03,1.93,2.3-1.22.56,1.06-3.52,1.88-3.77-7.09Z"/>
          <path class="cls-2" d="M62.4,4.3l2.95-.91,1.81.96.1.33c.36,1.16.21,2.07-.43,2.74,1.07.32,1.87,1.38,2.42,3.16l-1.34.41c-.66-2.13-1.45-2.9-2.61-2.54l-.16.05.95,3.06-1.33.41-2.37-7.67ZM66.1,5.73l-.09-.27c-.19-.61-.71-.86-1.36-.66l-.6.18.76,2.44c1.14-.37,1.54-.88,1.28-1.69Z"/>
          <path class="cls-2" d="M70.76,3.41l-1.54.17-.13-1.12,4.46-.5.13,1.12-1.54.17.78,6.86-1.38.16-.78-6.86Z"/>
          <path class="cls-2" d="M78.91,6.92c-.12-.3-.48-.5-.91-.54-.45-.03-.83.12-.98.41l-.24,3.23-1.39-.1.6-8.01,1.39.1-.26,3.42c.32-.16.67-.23.98-.2.31.02.63.14.92.33l.26-3.41,1.37.1-.6,8.01-1.39-.1.24-3.24Z"/>
          <path class="cls-2" d="M81.58,9.14l1.46-5.07,1.82-.99,1.87.54,1.02,1.8-1.46,5.07-1.82.99-1.87-.54-1.02-1.8ZM85.11,9.47l1.1-3.82c.14-.5-.19-1-.74-1.16-.55-.16-1.1.09-1.24.59l-1.1,3.82c-.14.5.19,1,.74,1.16.55.16,1.1-.09,1.24-.59Z"/>
          <path class="cls-2" d="M90.74,5.16l1.33.71-.75,5.12-.1.34.05.03,2.44-4.61,1.19.63-3.77,7.1-1.28-.68.7-5.1.08-.35-.05-.03-.1.21-2.32,4.37-1.2-.64,3.77-7.1Z"/>
          <path class="cls-2" d="M98.11,9.67l1.46,1.19-3.84,7.23-1.02-.83c.31-.76.25-1.5-.13-1.81-.39-.32-1.13-.23-1.8.24l-.98-.79,6.32-5.21ZM95.3,14.55c.2.17.36.43.45.78l1.3-2.41.91-1.55-.05-.04-1.33,1.2-2.09,1.73c.33.03.62.12.82.28Z"/>
        </g>
      </g>
      <g>
        <path class="cls-2" d="M40.85,42.2h-.9v-4.62l.59-.6h.31v5.22Z"/>
        <path class="cls-2" d="M42.08,37.88l.96-.94h1.18l.96.94v3.43l-.96.94h-1.08l-.96-.94v-.73h.89v.32c0,.37.23.59.59.59s.59-.23.59-.59v-1.06l-.39.42h-.83l-.96-.94v-1.43ZM43.59,39.49c.37,0,.67-.26.67-.6v-.58c0-.34-.26-.59-.63-.59s-.63.26-.63.59v.58c0,.37.23.6.59.6Z"/>
      </g>
      <g>
        <path class="cls-2" d="M104.96,36.98h2.99v.79h-2.07v1.15l.35-.37h.87l.96.94v1.81l-.96.94h-1.18l-.96-.94v-.83h.92v.41c0,.34.26.59.63.59s.63-.26.63-.59v-.96c0-.37-.23-.6-.59-.6s-.67.26-.67.58v.02h-.92v-2.94Z"/>
        <path class="cls-2" d="M109.17,36.98h2.99v.79h-2.07v1.15l.35-.37h.87l.96.94v1.81l-.96.94h-1.18l-.96-.94v-.83h.92v.41c0,.34.26.59.63.59s.63-.26.63-.59v-.96c0-.37-.23-.6-.59-.6s-.67.26-.67.58v.02h-.92v-2.94Z"/>
      </g>
    </g>
  </g>
</svg>