<?xml version="1.0" encoding="UTF-8"?>
<svg id="Layer_2" data-name="Layer 2" xmlns="http://www.w3.org/2000/svg" xmlns:xlink="http://www.w3.org/1999/xlink" viewBox="0 0 256.81 77.9">
  <defs>
    <style>
      .cls-1 {
        fill: #2d2926;
      }

      .cls-2 {
        fill: #0b2948;
      }

      .cls-3 {
        fill: #fff;
      }

      .cls-4 {
        fill: #ee3441;
      }

      .cls-5 {
        fill: none;
        stroke: #2d2926;
        stroke-miterlimit: 10;
      }
    </style>
    <symbol id="Derthona_Lion" data-name="Derthona Lion" viewBox="0 0 117.67 155.94">
      <g>
        <path class="cls-4" d="M30.27,6.82c2.16-3.26-.48-6.44-.48-6.44,0,0-3.84-1.52-6.27,1.54-2.43-3.06-6.27-1.54-6.27-1.54,0,0-2.63,3.18-.47,6.44-3.66,1.37-3.4,5.49-3.4,5.49,0,0,2.21,3.49,5.98,2.44.17,3.9,4.17,4.93,4.17,4.93,0,0,4-1.02,4.17-4.93,3.76,1.05,5.98-2.44,5.98-2.44,0,0,.26-4.12-3.4-5.49ZM25.46,11.75l-1.94-.98-1.94.98.33-2.15-1.53-1.55,2.15-.35.99-1.94,1,1.94,2.15.35-1.53,1.55.33,2.15Z"/>
        <path class="cls-1" d="M55.31,141.03s0,0,0,0"/>
        <path class="cls-1" d="M10.29,60.45c-.46-.15-.87-.29-1.28-.44l-.19-.07s.47-5.28.52-10.85.35-8.94.35-8.94h.23c.32-.03.64-.08.97-.16l.35-.08s-.26,3.03-.25,10.02c0,6.98-.37,10.63-.37,10.63l-.32-.1Z"/>
        <path class="cls-1" d="M0,90.8c.07-.06.14-.12.2-.18.17-.18.42-.45.57-.61.09-.12.22-.28.34-.44.13-.16.26-.33.36-.46l.15-.23.65-1c.1-.18.27-.51.44-.82.16-.29.31-.58.41-.75.11-.22.36-.8.55-1.22l.19-.43c.21-.43.44-1.09.65-1.67.08-.22.15-.43.22-.6.04-.1.08-.22.12-.34.1-.27.21-.57.27-.8.54-1.71,1.02-3.54,1.45-5.44l.05-.21h2.11l-.07.32c-.25,1.24-.51,2.39-.8,3.51l-.77,2.76c-.18.51-.39,1.13-.59,1.71l-.35,1.02c-.12.28-.24.57-.37.87-.31.73-.62,1.49-.96,2.11l-.6,1.14-.88,1.41c-.18.25-.27.36-.36.48-.07.09-.14.18-.25.33l-.2.27c-.05.07-.11.13-.16.19l-.08.08c-.2.22-.46.5-.75.77,0,0-.49-.14-.98-.71s-.57-1.03-.57-1.03Z"/>
        <path class="cls-1" d="M15.12,22.05c-.21-.09-.42-.17-.64-.24l-.3-.09.13-.28c.73-1.52,1.41-2.76,2.11-3.8.36-.54.79-1.19,1.33-1.83,0,0,.22.04.51.26s.38.47.38.47c-1.12,1.39-2.15,3.15-3.17,5.37l-.11.24-.24-.11Z"/>
        <g>
          <path class="cls-1" d="M57.29,12.12h-.24s0,0,0,0c.08,0,.15,0,.23,0h0Z"/>
          <path class="cls-1" d="M49.23,42.35c-.3.62-.62,1.22-.97,1.81-.14.25-.29.5-.44.74-.04.07-.09.15-.13.22-1.57,2.5-3.47,4.78-5.64,6.77-.71.65-1.44,1.27-2.2,1.85h-.01c-1.48-.43-2.21-.57-3.65-1.11-9-3.36-17.04-8.72-23.55-15.53-.73.89-1.84,1.46-3.08,1.46-2.18,0-3.95-1.77-3.95-3.96,0-1.23.56-2.34,1.45-3.06-.65-.59-1.06-1.43-1.06-2.38,0-.09,0-.18.02-.27.13-1.64,1.51-2.92,3.18-2.92.26,0,.52.03.77.09.17-1.6,1.53-2.85,3.17-2.85.98,0,1.86.44,2.45,1.14.05.07.11.15.17.23.01.01.02.02.03.04,6.64,8.62,16.28,14.8,27.37,16.97.23.05.46.09.7.13,1.69.31,3.61.52,5.37.63Z"/>
          <path class="cls-1" d="M48.23,28.95c3.56,0,6.18-1.71,8.63-1.71s4.24.77,4.24.77c0,0-.66-2.95-3.68-2.95-2.17,0-4.18.8-7.77.8-3.16,0-4.65-2.02-4.65-3.96s.51-2.8.51-2.8c0,0-3.15,1.14-3.15,5.06,0,2.45,2.32,4.79,5.88,4.79Z"/>
          <path class="cls-1" d="M104.84,82.02s0-.09,0-.14c-.09-.01-.17-.02-.26-.04.08.06.17.12.26.18Z"/>
          <path class="cls-1" d="M59.74,107.67c-.24-.5-.52-.98-.83-1.44.29.47.57.95.83,1.44Z"/>
          <g>
            <path class="cls-1" d="M74.18,67.95h0s0,.02,0,.03c0-.01,0-.02,0-.03Z"/>
            <polygon class="cls-1" points="74.17 67.99 74.17 67.99 74.17 67.99 74.17 67.99 74.17 67.99 74.17 67.99"/>
            <path class="cls-1" d="M116.61,71.9c-2.8-.96-4.82-4.35-4.82-7.8,0-5.59-5.11-10.36-9.83-10.36-4.47,0-6.77,1.22-9.33,3.26-1.6,1.27-2.93,2.87-3.9,4.69-1.12,2.1-1.75,4.49-1.75,7.03v.39c.14,9.59,5.66,17.89,9,27.36,1.37,3.87,2.37,7.93,2.5,12.36.01.32.02.65.02.98,0,3-.92,5.93-6.05,5.93-7,0-18.94-22.66-18.94-37.54,0-5.28.39-7.67.43-7.95-1.83,4.38-11.14,14.93-17.14,17.28-.66-.84-1.37-1.63-2.12-2.39-4.79-4.77-11.4-7.72-18.7-7.72-2.07,0-4.08.23-6.02.68,1.28,4.49,5.52,11.56,14.76,16.95,9.24,5.39,11.38,6.67,14.17,11.16-2.1-3.07-5.62-5.08-9.62-5.08h-.3c-.29.01-.58.03-.86.05-.01,0-.02.01-.03.01-4.46.52-7.91,4.31-7.91,8.91,0,2.3.87,4.41,2.3,6l-7.63-5.33c.36-1.2.56-2.47.56-3.79,0-2.36-.63-4.58-1.74-6.48-1.26-2.18-3.13-3.95-5.38-5.08-.2-.09-.4-.16-.61-.23-1.01-.34-2.09-.52-3.22-.52-1.3,0-2.56.25-3.71.7.84.53,1.55,1.25,2.08,2.09.12.18.23.36.33.56-.51,0-1.01.06-1.48.17-.98.22-1.88.64-2.64,1.23.16.13.31.26.46.39.7.64,1.27,1.43,1.65,2.31-1.33.5-2.46,1.42-3.24,2.58,1.27.29,2.42.95,3.31,1.86.08.07.15.15.22.23,1.09,1.22,1.75,2.81,1.75,4.57,0,.11-.01.22-.01.34-.06,1.13-.39,2.18-.93,3.1-.07.13-.14.25-.23.37-.4.6-.9,1.14-1.47,1.58l19.14,13.37,10.65,7.43c0-12.41,4.57-16.58,9.91-16.58s9.91,4.17,9.91,16.58c0,1.78-.17,4.88-1.07,7.96-1.44-.76-3-1.31-4.66-1.6h-.01c-.9-.16-1.82-.24-2.77-.24-1.2,0-2.37.13-3.5.39-4.48,1-8.25,3.89-10.43,7.79,1.35-.37,2.76-.57,4.22-.57.54,0,1.08.03,1.6.08-.85,1.4-1.49,2.94-1.87,4.58h23.85c.11-1.09.28-2.16.52-3.21.4-1.77.96-3.47,1.68-5.09,2.09-4.72,5.47-8.74,9.68-11.62-.27-1.56-.41-3.16-.41-4.79,0-2.07.22-4.08.66-6.02,1.07.24,2.19.37,3.34.37,3.71,0,7.1-1.34,9.72-3.57,3.23-2.75,5.27-6.84,5.27-11.41v-.39c-.02-1.77-.17-3.44-.44-5.04-1.39-8.58-5.84-14.88-8.73-22.37-1.48-3.84-3.78-7.74-3.78-13.66,0-7.43,3.75-9.9,6.08-9.9s3.52,1.93,3.52,3.72c0,.49-.09.95-.26,1.38-.55,1.44-1.94,2.46-3.57,2.46-1,0-1.91-.38-2.59-1-.25.52-.39,1.11-.39,1.73,0,2.24,1.81,4.05,4.05,4.05.12,0,.23,0,.34-.01-.07.51-.11,1.03-.11,1.56,0,3.59,1.77,6.77,4.49,8.71.08.01.17.03.25.04v-.2c0-2.38,1.16-4.48,2.94-5.77.98.51,2.09.79,3.27.79,1.56,0,3-.5,4.17-1.35.11-.08.21-.16.32-.25.94-.77,1.69-1.77,2.14-2.93-.37-.06-.72-.15-1.06-.27Z"/>
            <path class="cls-1" d="M57.73,83.36c5.55-3.46,15.11-15.59,16.25-20.99,2.46,2.26,4.3,5.6,4.95,10.26,1.74-1.96,5.95-7.95,8.87-15.07.76-1.68,1.34-3.47,1.69-5.33,0-.03.01-.05.02-.08.02-.1.03-.19.05-.28.15-.79.25-1.57.29-2.32,0,0,2.35.09,4.39,2.55,2.33-6.99-4.32-13.85-4.32-13.85,0,0,2.48-1.6,7.72.24-.58-7-5.08-12.91-9.19-15.02,3.77-2.96,5.59-5.92,6.52-11.34h-7.08c.86-2.02,1.56-4.12,2.07-6.3h-18.86c-.47,0-.93.03-1.38.1-.25.03-.5.08-.74.13-2.68.59-4.94,2.28-6.3,4.56.78.77,1.85,1.24,3.03,1.24.65,0,1.26-.14,1.81-.4.2-.09.39-.2.57-.31.01,0,.03-.02.04-.03.85-.57,1.88-.9,2.98-.9.23,0,.46.02.69.05.92.11,1.77.46,2.48.98-.33.32-.68.61-1.05.88-.61.44-1.26.81-1.96,1.11-1.18.5-2.49.78-3.86.78-.06,0-.12,0-.17,0-.42,0-.84-.04-1.24-.1-.73-.1-1.43-.28-2.09-.54-.05-.02-.1-.04-.15-.06-.64-.25-1.3-.46-1.98-.63-1.42-.36-2.91-.56-4.44-.56-.08,0-.16,0-.23,0-1.5.02-2.96.22-4.35.59.14.29.27.57.4.86.25.55.48,1.1.69,1.67.1.25.2.51.29.77.89,2.48,1.52,5.08,1.84,7.78,1.39-1,3.1-1.59,4.95-1.59.86,0,1.69.13,2.48.37.53.16,1.03.37,1.51.62.37.2.72.42,1.06.66,0,.03,0,.06-.01.08,0,.01,0,.02,0,.03-.23,1.89-1.09,3.59-2.35,4.89-.78.8-1.86,1.26-2.98,1.28-.04,0-.07,0-.11,0-1.57,0-3.04-.42-4.3-1.17-.02.78-.06,1.56-.14,2.33-.13,1.49-.36,2.95-.67,4.39-.09.41-.19.83-.29,1.24-.22.88-.48,1.75-.77,2.6,7.63-.57,15.28-1.74,21.03-6.21-6.97,9.78-22.16,9.11-22.16,9.11-.32.72-.66,1.43-1.02,2.12-.37.72-.78,1.43-1.2,2.11-.48.78-.98,1.54-1.52,2.27-1.6,2.22-3.46,4.24-5.52,6.03-.12.1-.24.2-.35.3-3.8,3.21-8.28,5.64-13.2,7.04-3.09.88-6.36,1.35-9.74,1.35-3.55,0-6.98-.52-10.21-1.49-2.49-.74-4.86-1.75-7.09-3-.75.75-1.21,1.79-1.21,2.93,0,.34.04.67.12.99-1.29.56-2.2,1.84-2.2,3.34,0,1.68,1.14,3.1,2.7,3.51-.08.28-.12.57-.12.87,0,1.77,1.43,3.2,3.2,3.2h30.18c8.56,0,16.29,3.6,21.74,9.37Z"/>
          </g>
        </g>
      </g>
    </symbol>
  </defs>
  <g id="Layer_1-2" data-name="Layer 1">
    <g>
      <line class="cls-5" x1="101.88" x2="101.88" y2="77.9"/>
      <g>
        <g>
          <circle class="cls-3" cx="38.95" cy="38.95" r="32.96"/>
          <path class="cls-1" d="M38.95,77.9C17.47,77.9,0,60.43,0,38.95S17.47,0,38.95,0s38.95,17.47,38.95,38.95-17.47,38.95-38.95,38.95ZM38.95,11.99c-14.87,0-26.96,12.1-26.96,26.96s12.1,26.96,26.96,26.96,26.96-12.1,26.96-26.96-12.1-26.96-26.96-26.96Z"/>
        </g>
        <use width="117.67" height="155.94" transform="translate(21.38 16.44) scale(.3)" xlink:href="#Derthona_Lion"/>
        <g>
          <g>
            <path class="cls-3" d="M24,63.84l2.79,1.39.65,1.95-.04.09c-.45.9-1.08,1.46-1.82,1.66l.44,1.33-.78,1.55-1.92.66-2.9-1.45,3.59-7.18ZM22.84,70.93c.7.35,1.15.2,1.49-.48l.08-.16c.3-.59.19-1.06-.3-1.38-.29-.08-.6-.19-.91-.35l-1.02,2.04.66.33ZM25.85,67.19c.32-.64.16-1.07-.54-1.42l-.58-.29-1.05,2.09c1.1.54,1.76.42,2.16-.38Z"/>
            <path class="cls-3" d="M30.3,66.6l1.81.5-.62,8.16-1.27-.35c-.02-.81-.38-1.47-.85-1.6-.49-.13-1.13.25-1.55.94l-1.21-.34,3.69-7.31ZM29.68,72.2c.25.07.5.25.72.54l.22-2.73.21-1.78-.06-.02-.74,1.64-1.22,2.42c.32-.11.61-.14.87-.07Z"/>
            <path class="cls-3" d="M33.71,74.24l.12-1.47,1.39.11-.07.82c-.05.59.25.93.83.98.59.05.93-.25.98-.83.02-.29-.13-.64-.41-.91l-2.48-2.54.12-1.42,1.56-1.33,1.58.13,1.33,1.56-.1,1.16-1.39-.11.04-.54c.05-.59-.22-.93-.76-.98-.55-.05-.88.2-.92.68-.02.2.14.49.39.75l2.51,2.56-.14,1.73-1.56,1.33-1.7-.14-1.33-1.56Z"/>
            <path class="cls-3" d="M39.89,67.97l1.38-.15.37,3.36c.19-.02.37-.02.54,0l.97-3.57,1.38-.15-1.16,4.08c1.09.62,1.85,1.99,2.06,3.9l-1.39.15c-.24-2.17-1.05-3.33-2.27-3.25l.38,3.46-1.38.15-.88-7.98Z"/>
            <path class="cls-3" d="M45.68,67.17l3.71-1.14.35,1.12-2.38.73.67,2.19c.33-.3,1.1-.63,1.93-.83l.35,1.12c-.96.23-1.6.51-1.92.84l.64,2.09,2.49-.77.35,1.15-3.82,1.17-2.36-7.68Z"/>
            <path class="cls-3" d="M52.07,66.02l-1.38.71-.52-1,3.99-2.05.52,1-1.37.71,3.16,6.14-1.24.64-3.16-6.14Z"/>
          </g>
          <g>
            <path class="cls-3" d="M14.06,11.52l2.43-1.95,2.04.22,2.36,2.94c1.13,1.4.98,2.81-.4,3.92l-1.4,1.13-5.03-6.26ZM19.93,13.83l-2.01-2.51c-.45-.56-1.01-.62-1.57-.17l-.5.4,3.57,4.45.34-.27c.75-.6.79-1.12.17-1.9Z"/>
            <path class="cls-3" d="M19.94,7.18l3.43-1.83.55,1.04-2.2,1.17,1.08,2.02c.27-.36.96-.82,1.73-1.18l.55,1.04c-.9.41-1.48.8-1.73,1.19l1.03,1.93,2.3-1.22.56,1.06-3.52,1.88-3.77-7.09Z"/>
            <path class="cls-3" d="M25.83,4.3l2.95-.91,1.81.96.1.33c.36,1.16.21,2.07-.43,2.74,1.07.32,1.87,1.38,2.42,3.16l-1.34.41c-.66-2.13-1.45-2.9-2.61-2.54l-.16.05.95,3.06-1.33.41-2.37-7.67ZM29.53,5.73l-.09-.27c-.19-.61-.71-.86-1.36-.66l-.6.18.76,2.44c1.14-.37,1.54-.88,1.28-1.69Z"/>
            <path class="cls-3" d="M34.19,3.41l-1.54.17-.13-1.12,4.46-.5.13,1.12-1.54.17.78,6.86-1.38.16-.78-6.86Z"/>
            <path class="cls-3" d="M42.34,6.92c-.12-.3-.48-.5-.91-.54-.45-.03-.83.12-.98.41l-.24,3.23-1.39-.1.6-8.01,1.39.1-.26,3.42c.32-.16.67-.23.98-.2.31.02.63.14.92.33l.26-3.41,1.37.1-.6,8.01-1.39-.1.24-3.24Z"/>
            <path class="cls-3" d="M45.02,9.14l1.46-5.07,1.82-.99,1.87.54,1.02,1.8-1.46,5.07-1.82.99-1.87-.54-1.02-1.8ZM48.54,9.47l1.1-3.82c.14-.5-.19-1-.74-1.16-.55-.16-1.1.09-1.24.59l-1.1,3.82c-.14.5.19,1,.74,1.16.55.16,1.1-.09,1.24-.59Z"/>
            <path class="cls-3" d="M54.17,5.16l1.33.71-.75,5.12-.1.34.05.03,2.44-4.61,1.19.63-3.77,7.1-1.28-.68.7-5.1.08-.35-.05-.03-.1.21-2.32,4.37-1.2-.64,3.77-7.1Z"/>
            <path class="cls-3" d="M61.54,9.67l1.46,1.19-3.84,7.23-1.02-.83c.31-.76.25-1.5-.13-1.81-.39-.32-1.13-.23-1.8.24l-.98-.79,6.32-5.21ZM58.73,14.55c.2.17.36.43.45.78l1.3-2.41.91-1.55-.05-.04-1.33,1.2-2.09,1.73c.33.03.62.12.82.28Z"/>
          </g>
        </g>
        <g>
          <path class="cls-3" d="M4.29,42.2h-.9v-4.62l.59-.6h.31v5.22Z"/>
          <path class="cls-3" d="M5.51,37.88l.96-.94h1.18l.96.94v3.43l-.96.94h-1.08l-.96-.94v-.73h.89v.32c0,.37.23.59.59.59s.59-.23.59-.59v-1.06l-.39.42h-.83l-.96-.94v-1.43ZM7.02,39.49c.37,0,.67-.26.67-.6v-.58c0-.34-.26-.59-.63-.59s-.63.26-.63.59v.58c0,.37.23.6.59.6Z"/>
        </g>
        <g>
          <path class="cls-3" d="M68.4,36.98h2.99v.79h-2.07v1.15l.35-.37h.87l.96.94v1.81l-.96.94h-1.18l-.96-.94v-.83h.92v.41c0,.34.26.59.63.59s.63-.26.63-.59v-.96c0-.37-.23-.6-.59-.6s-.67.26-.67.58v.02h-.92v-2.94Z"/>
          <path class="cls-3" d="M72.6,36.98h2.99v.79h-2.07v1.15l.35-.37h.87l.96.94v1.81l-.96.94h-1.18l-.96-.94v-.83h.92v.41c0,.34.26.59.63.59s.63-.26.63-.59v-.96c0-.37-.23-.6-.59-.6s-.67.26-.67.58v.02h-.92v-2.94Z"/>
        </g>
      </g>
      <g>
        <path class="cls-2" d="M180.63,41.86l-54.82-22.24,54.57,22.82s-.21.52.57.85c.52.22,1.42,0,1.42,0l3.6,1.54c-.12.09-.22.2-.31.33-.46.67.12,1.53,1.01,2.2-.2-.42-.35-.86-.32-1.22.5-.27,1.12-.78,1.53-.57.63.15.72.78.93,1.24.07.39.1.84.07,1.32.18-.28.33-.57.45-.85.35-.07.42-1.06.73-.86.34.23.26.46.4.72-.08.34-.24.67-.47.96.61-.31.96-.67,1.14-1.06.02-.02.04-.03.07-.04v3.41l-65.38-30.78,65.37,35.05,65.63-35.05-65.63,34.48v-3.41l65.63-31.07-54.41,22.08h0c-.33-.66-.81-1.1-2.02-2-.24-.22-.24-.41,0-.57,1.02.91,2.23-.11,2.36-1.25.02-.21.01-.48,0-.75-.05-.82-.17-1.73.34-1.68.1.01.21.01.31.01,1.07-.02,1.9-.69,1.73-1.21-.06-.17-.22-.32-.51-.43-.09-.03-.18-.06-.29-.09,1.87.06,3.26-3.3.8-3.47,3.13-.78,3.15-2.38,2.57-3.1-.08-.1-.18-.19-.28-.25,2.72-1.55,2.87-3.03,1.69-5.05,2.6-1.75,2.15-4.13.78-5.43,1.7-2.35,1.96-4.41.72-5.88,2.05-3.61.27-5.19-1.76-5.05-.35.02-.47.2-.66.42-.39-.01-.31-.52-.13-.75,1.24-1.58,2.39-2.63,1.35-4.03-.29-.39-.96-.46-1.64-.1-.87.47-1.62,2.06-2.5,3.48-.27-.14-.07-.54.28-1.04.1-.14.21-.28.32-.44.81-1.07,1.91-2.38,1.16-2.88-.2-.13-.42-.19-.65-.17-1.41.12-3.44,2.9-5.62,7.21-.36.72-.73,1.48-1.1,2.28-.99,2.12-1.99,4.52-2.97,7.07-.06.13-.1.24-.03.5.31.31.34,1.3.16,2.45-.03.23-.08.46-.13.69-.36,1.64-1.09,3.4-1.99,3.95-1.32-.23-2.26-2.54-2.26-3.57,0-.95,1.94-2.62,2.45-3.3.56-.45.75-.25,1.11.21-.29-1.63-1-2.65-2.3-2.07l-1.37.66c.1-.57-1.34-.95-2.5-.12-1.63,1.17-2.04,1.37-3.12,1.73-.16.11-.25.28-.28.52.33,2.27.22,4.21-.35,4.3-1.85-1.06-.51-4.44.33-5.27.06-.26.02-.38-.03-.5-3.91-10.22-8.23-17.81-10.34-16.38-1.24.84,2.62,3.92,1.77,4.37-.88-1.42-1.63-3.01-2.5-3.48-.68-.37-1.36-.29-1.64.09-1.04,1.4.11,2.46,1.35,4.03.18.24.27.74-.13.75-.19-.23-.31-.4-.66-.42-2.03-.14-3.81,1.44-1.76,5.06-1.23,1.46-.98,3.53.72,5.88-1.37,1.31-1.83,3.69.78,5.44-1.17,2.02-1.02,3.5,1.69,5.05-.8.49-1.29,2.45,2.29,3.35-2.46.16-1.07,3.53.8,3.47-1.75.39-.44,1.88,1.23,1.71.68-.07.24,1.58.33,2.43.13,1.13,1.34,2.16,2.36,1.25.24.16.24.35,0,.57-1.21.89-1.69,1.34-2.02,1.98h0ZM200.63,40.66c.39.34.76.67.84.78.04.05.09.11.15.17.09.1.19.21.24.31.03.06.05.12.05.18,0,.07-.03.12-.09.17-.17.13-.34.2-.54.2-.18,0-.38-.05-.61-.15-.78-.34-1.45-1.31-1.48-1.35l-.57-1.19.22.1s.08.03.2.03c.07,0,.15-.01.23-.03l.33-.1.03.03s.53.45,1,.86h0ZM200.41,31.05l.02.08-.08.03s-.06.02-.08.03c-.05.02-.09.03-.14.03-.05,0-.12-.01-.24-.04-.55-.27-1.28-.4-1.81-.5-.52-.1-.69-.13-.73-.24-.02-.04,0-.08.01-.11.01-.03.08-.15.73-.15.72,0,2.12.18,2.32.87h0ZM199.92,29.56v-.05l.05-.02c.08-.04.17-.06.26-.06.29,0,.57.2.66.38l.04.07-.07.04c-.12.07-.29.11-.44.11-.16,0-.29-.05-.38-.14-.08-.08-.12-.2-.11-.33h0ZM199.39,32.01v.32h-.09c-.42,0-.65-.25-.85-.47-.15-.17-.3-.33-.52-.38l-.26-.06.24-.11c.12-.05.2-.06.32-.06.24,0,.4.1.57.21.05.03.1.06.16.09l.07.03c.17.09.35.19.35.42h0ZM197.59,32.21c.18.07.37.18.53.35.3.32.29.44.25.54,0,.08-.04.35-.21.42l-.06.02-.07-.08-.83-.93c-.05-.07-.16-.29-.17-.31l-.07-.15.16.02s.22.03.45.12h0ZM198.02,35.19l.05-.05.4.23.31.52s.38.75.59,1.27c0,0,0,0,0,.01.04.1.09.23.14.39.14.45.28,1.1.12,1.6-.11.35-.28.42-.4.42-.06,0-.11-.02-.14-.03l-.6-.11-.47-.39s-.35-.28-.45-1.92c-.09-1.42.42-1.91.44-1.94h0ZM198.05,40.72c0-.06.02-.11.05-.16.02-.03.04-.03.07-.02h0s.05.04.09.08c0,0,0,.01.01.02.03.04.07.1.1.16,0,0,.01.02.02.03.04.07.08.14.12.21.01.02.02.04.03.07,0,0,0,.01.01.02.03.07.07.13.11.2.02.04.05.08.07.12.02.04.05.08.07.12.03.05.05.08.08.12.02.03.03.06.05.08.04.06.09.1.13.14.02.11,0,.42-.01.48-.01.03-.03.03-.06.03h-.02s-.06-.03-.1-.06c0,0-.01-.01-.02-.02-.04-.03-.08-.07-.12-.12h-.01c-.05-.07-.1-.13-.15-.19,0-.01-.02-.03-.03-.04-.05-.07-.1-.14-.15-.22,0,0,0-.01-.01-.02-.05-.07-.09-.15-.13-.23,0,0-.01-.02-.01-.03-.04-.08-.08-.17-.11-.24,0-.01,0-.03-.01-.04-.03-.08-.05-.17-.07-.24-.01-.07-.01-.13,0-.19,0-.01,0-.03,0-.04h0ZM202.11,38.29c-.05.21-.35.55-.72.72-.08.04-.16.06-.24.06-.23,0-.39-.15-.54-.29-.03-.03-.06-.05-.08-.08-.18-.15-.41-.82-.64-1.49-.03-.1-.06-.17-.08-.23-.08-.22-.49-.93-.75-1.39-.13-.23-.24-.41-.27-.48-.12-.24-.07-.35,0-.52l.03-.06c.09-.22.69-.64.81-.72.03-.01.09-.04.19-.04.12,0,.33.04.45.32.07.14.49.63.65.81.13.14.77.99.85,1.13.09.15.35.86.39,1.09.04.24.02.98-.03,1.18h0ZM204.7,34.17l.03.03v.04c-.02.1-.16.23-.77.23-.22,0-.49-.02-.8-.05-.19-.02-.38-.03-.56-.03-.97,0-1.48.29-1.54.32h0l-.05-.08-.05-.07h0c.91-.56,1.73-.84,2.45-.84.88,0,1.27.44,1.29.45h0ZM204.92,31.32c-.14,0-.24,0-.32,0h-.24c-.27,0-.47.02-1.78.25-1.06.19-2.37.66-2.39.66l-.07-.17c2.59-1.13,2.63-1.11,2.95-1.09.04,0,.09,0,.15,0h.05c1.25-.03,1.66.14,1.67.15l-.03.17h0ZM205.24,28.93c0,.13-.2.34-1.53.36-1.36.02-2.02.52-2.05.55l-.06-.07-.06-.07h0c.96-.77,1.85-1.16,2.63-1.16.68,0,1.02.3,1.04.31l.03.03v.04h0ZM206.88,26.94c-.22-.03-.42-.04-.64-.04-.94,0-1.96.28-3.63.99l-.09-.16c1.72-1.2,3.14-1.51,4.4-.96l-.05.17h0ZM208.78,22.55c-.19-.13-.41-.19-.68-.19-.98,0-2.4.84-3.9,1.73-.36.21-.72.42-1.09.63l-.1-.15c2.5-1.98,4.12-3.13,5.06-3.13.52,0,.8.35.84,1.03v.18s-.14-.1-.14-.1h0ZM209.7,16.95c-.16-.14-.35-.21-.58-.21-.92,0-2.25,1.15-3.53,2.27-1.27,1.11-2.47,2.15-3.33,2.15-.05,0-.09,0-.14,0l-.21-.03.17-.13c1.04-.79,1.99-1.73,2.82-2.57,1.34-1.34,2.5-2.49,3.52-2.49.53,0,.99.3,1.41.9l-.13.12h0ZM210.04,10.49l.21.15h-.26c-.66.03-2.14,1.81-3.56,3.54-1.34,1.63-2.73,3.32-3.73,3.93l-.11-.14c1.47-1.6,2.69-3.11,3.67-4.33,1.59-1.98,2.65-3.29,3.4-3.29.14,0,.27.04.38.13h0ZM208.89,1.58c.19,0,.45.07.59.44l.07.19-.19-.07c-.06-.02-.13-.03-.2-.03-.7,0-1.77,1.1-3.15,2.76l-.15-.08c.35-1.23,2.06-3.19,3.02-3.19h0ZM204.35,7.12c0-.06.02-.16.03-.28.04-.42.1-1.04.21-1.34.26-.65.85-.9,1.03-.97l.22-.08-.11.21c-.5.91-.57,1.3-.66,1.9-.04.24-.08.52-.17.87-.12.54-1.29,2.11-1.92,2.95-.1.14-.19.25-.25.33l-.15-.1c.42-.64,1.65-2.65,1.77-3.49h0ZM204.21,11.33c2.02-3.03,3.76-5.64,4.83-5.64.15,0,.3.05.42.16l.15.13-.2.03c-1.07.15-2.95,2.94-4.76,5.64-1.59,2.36-3.09,4.59-4.09,5.14l-.11-.14c1.28-1.6,2.54-3.49,3.76-5.32h0ZM200.09,20.37c.03.06.03.14-.02.22-.17.29-.84.79-1.13.79-.1,0-.16-.06-.17-.09-.03-.06-.05-.15.03-.29.17-.29.78-.73,1.1-.73.12,0,.17.06.2.1h0ZM199.47,19.12c.07,0,.13.04.16.11.07.19.06.38-.05.53-.17.24-.5.35-.69.35h-.03c-.1,0-.16-.07-.15-.17,0-.24.5-.82.76-.82ZM198.51,22.25c.2-.31.94-.72,1.33-.72.16,0,.23.07.26.13.02.04.03.11-.03.2-.17.28-1,.77-1.37.77-.14,0-.2-.06-.22-.12-.03-.05-.04-.14.04-.27h0ZM200.07,22.47l-.13.21c-.12.2-.24.36-.5.43l-.18.05.08-.17c.12-.27.26-.36.49-.44l.24-.08h0ZM198.59,24.72c.46-.55,1.83-1.29,2.08-1.29.12,0,.14.22.14.26.01.3-.17,1.02-2.14,1.18l-.22.02.14-.17h0ZM198.17,26.13s1.02-.44,1.45-.66c.07-.03.14-.08.22-.12.32-.17.69-.38.95-.36h.07s.01.07.01.07c.07.4-.29.58-.63.75l-.09.04c-.36.18-1.37.45-1.79.45-.09,0-.15-.01-.19-.03l-.17-.09.17-.07h0ZM198.01,27.26s1.07-.34,1.52-.52c.08-.03.16-.07.24-.1.34-.14.74-.31.98-.25l.08.02v.08c-.06.43-.43.58-.79.72l-.09.03c-.33.13-1.12.26-1.57.26-.28,0-.36-.05-.4-.08l-.12-.1.15-.05h0ZM197.03,28.72c1.08-.26,1.92-.53,2.53-.72.59-.19.98-.31,1.22-.31.17,0,.27.06.31.19v.02s0,.02,0,.02c-.17.88-1.36.99-2.06,1.06-.15.01-.36.02-.6.02-.49,0-1.28-.04-1.42-.12l-.19-.11.22-.05h0ZM196.19,32.75l.1-.03c.15,0,.82.39.91.52.07.11.19.29.13.51-.01.04-.02.07-.02.08v.07s-.15.01-.15.01h0c-.06,0-.17.02-.27.02-.07,0-.13,0-.17-.03-.02,0-.03-.01-.05-.01-.08-.01-.12-.05-.18-.15-.06-.11-.14-.36-.21-.57l-.08-.25v-.18ZM197.51,41.45s.03-.07.04-.1l.14-.1c.14.14.42.62.87,1.01.21.17.7.4.7.67,0,.04-.12.13-.3.24l-2.52,1.19c-.06-.09-.14-.14-.22-.18-.02-.01-.04-.03-.07-.03h0s-.02-.01-.03-.02c0-.06-.01-.12-.02-.18l1.41-2.48h0ZM196.15,44.48s0,0,0,0c.02.03.05.04.06.07.1.19.14.52.02.9-.1.3-.3.64-.68.97.16-.19.3-.5.35-.84.09-.53-.03-1.11-.6-1.32.26-.17.63-.05.84.21h0ZM183.96,42.54c-.03-.06-.03-.36-.01-.47.34-.25.83-1.59.98-1.34.33.55-.84,2.09-.96,1.81ZM183.74,39.61c-.36,0-.66-.28-.66-.63,0-1.16,1.32-3.56,1.75-3.51.3.04.32,1.18.32,1.56,0,1.15-.26,2.58-1.4,2.58h0ZM186.01,46.28c.04.18.1.37.22.58-.21-.19-.35-.39-.44-.59-.15-.33-.15-.65-.02-.92.04-.09.09-.17.16-.25.07-.07.14-.13.22-.18.25-.17.55-.2.89-.09-.75.19-1.19.71-1.03,1.45h0ZM189.15,47.25c-.02.06-.04.11-.06.17.01-.07.01-.14.02-.21.1-.75-.03-1.25-.24-1.68-.24-.54-.66-.47-.57-.73.22-.56.55-.11.79.26.34.48.41,1.22.06,2.18h0ZM190.85,47.17c-.11.17-.26.34-.46.51.1-.11.18-.28.25-.46.22-.6.22-1.44-.5-1.7.28-.18.73-.04.91.29.14.26.17.79-.21,1.36h0ZM191.75,45.4c-.17.22-.33.45-.48.71-.03-.5-.24-.73-.47-.83h-.04c-.3-.32-.73-.61-1.29-.84.22-.52.6-.99,1.14-1.42h.28c.48.6.93.99,1.38,1.21-.16.1-.29.23-.4.39-.17.24-.19.51-.12.79h0ZM192.86,44.42c-.12.06-.23.14-.32.22-.4.37-.51.94-.09,1.67-.38-.36-.55-.74-.55-1.09,0-.25.08-.49.26-.68.1-.1.21-.18.32-.23.23-.11.49-.14.78-.04-.14.03-.27.09-.39.14h0ZM194.88,46.01c-.04.29-.12.6-.26.95.06-.34.07-.61.05-.86-.02-.34-.1-.62-.2-.87-.02-.05-.04-.1-.06-.15-.24-.54-.66-.47-.57-.73.18-.45.42-.24.63.04.05.07.1.14.15.22.24.35.35.82.26,1.41h0ZM194.46,36.81c.1.12-.42,1.02-.42,1.53,0,1.52-.71,2.8-.28,3.27.61.66,1.08,1.7.02,1.7-1.17,0-2.05-1.75-2.05-2.92,0-1.81.03-3.37.47-4.46,1.04.04,1.75.26,2.26.88h0ZM192.3,16.47c.15-.07.25-.1.42-.1.22,0,.27.1.38.29.46-.25.66-.62,1.19-.62.13,0,.51,0,.51.14,0,.2-.28.17-.46.27-.18.1-1.39.82-1.78,1.27-.51-.42-.38-1.15-.27-1.25h0ZM186.9,18.44c-.04-.15.02-.18.16-.36.95-.26,3.68-2.75,4.63-1.87l.04.44c-.26.43-2.33.45-1.96,1.6,1.17.1,1.73-.17,1.68-.82.11-.1.21-.09.3.06.08,3.23-3.51,1.37-3.78,1.39-.2.05-.25.14-.22.31.1.46,1.32.85,1.74,1.67.39.76.96.74,1.36,1.5.18.34.05,3.21.02,3.71-.06.95,1.69,1.03,1.67,1.59l.04,2.53c.08,2.5-1.31,3.75-3.25,5.14-.54.38.04.79-.5,3.31-.18.83-.71,2.87-.82,3.28-.1.38.8.56.63.99-.14.34-.57.94-1.12.8-.62-.95-1.41-2.91-1.35-5.54.04-1.98.53-3.38.47-5.15-.06-1.64-.54-3.58-.69-5.61-.09-1.19,1.82-5.84.95-8.96h0ZM187.02,44.27c-.1.01-.31.07-.44.25l-2.56-1.21c.64-.45,1.14-1.02,1.49-1.7l1.5,2.65h0ZM185.19,34.59s-.26-.97.29-.81c.53.16-.05.58-.29.81ZM185.41,24.45c0,.11-.12.03-.25-.08-.79-.68-1.11-2.07-.68-3.41-.25,1.54.11,2.42.93,3.5h0ZM184.5,19.39c-.04.89-.8,2.86-.88,4.19-.04.7.44,1.36.75,1.84-.36.26-.64-.59-1.05-.59-.17,0-.25.27-.25.44,0,.31.18.56.47.68.51.21,1.79.14,1.35.49-.25.2-1.23-.26-1.35-.29-.36-.07-.48.53-.07.79.23.14.42.12.69.15.06.02.08.18.02.2-.45.21-.73.16-.73.66,0,.35.24.5.53.66-.27.1-.73.32-.72.75.01.5.8.54,1.08.59-.31.18-.57.35-.57.77,0,.27.36.47.63.47-.31.51-.37.87.43.81-.48.98.5.94.67.54,0,.74-1.07,1.69-1.5,1.09-.33-.46.51-.9.22-1.26-.36-.44-.62.66-1.07.66-.23,0-.56-.26-.56-.49,0-.66,1.17-.49,1.17-1.15,0-.13-.05-.21-.18-.21-.44,0-.41.41-.85.41-.34,0-.58-.06-.59-.4-.01-.67,1.04-.44.96-1.08-.14-1.05-1.85-.94-1.85-2,0-.15.17-.22.32-.22.46,0,.57.59,1.03.59.12,0,.23-.09.23-.21,0-.8-1.39-.76-1.33-1.56.03-.41,1.24.88,1.32.1.03-.32-1.39-.76-1.29-1.47.03-.28,1.3.9,1.35.17-.11-.31-1.1-.92-.92-1.58.06-.23.79,1.01,1.08.76.07-.06-.99-1.33-.85-1.69.19-.46.57.6,1.01.72.06.02.21-.2.12-.38-.21-.42-.9-.98-.72-1.45.08-.21.74.82.84.49.1-.31-.91-1.13-.76-1.7.09-.34.44-.19.45.08.01.38.28.32.41.24.08-.06.14-.12.14-.22-.04-.37-.38-.51-.37-.88.02-.82.56-.56,1.01-.8.11-.06.2.14.2.27h0ZM181.99,30.22c-.27,0-.47-.65-.47-.68,0-.19.61.12.81.23.25.13-.18.45-.35.45h0ZM176.36,1.48c-.58-.99.32-1.1.87-.74.16.13.5.55.69.79-.52.29-.06.82,1.5,3.09-.36-.14-.45-.21-.68-.02l-2.36-3.12h0ZM176.67,6.28c0,.24-.04.43-.24.56-.14.09-.33.13-.33.3,0,.33,2.37,4.21,2.52,4.51.35.71,4.57,6.49,4.84,6.37.16-.07.09-1.95-1.45-5.16-.14-.29-2.49-4.49-2.99-5.31-.25-.41-.65-1.12-.65-1.6,0-.19.28-.85.72-.85.22,0,.47.07.47.29s-.28.24-.36.43c-.46,1.12,2.82,4.84,4.4,10.74.1.39.22,1.29.2,1.5-.02.23-.04.69-.22.83-.57-.58-4.82-5.8-6.39-8.58-.28-.5-1.69-2.8-1.69-3.37,0-.44.23-.88.67-.92.25-.02.5.18.5.26h0ZM174.97,4.63c-.79-.79-1.3-1.28-1.3-2.38,0-.45.23-.76.67-.76.51,0,.96.18.96.69,0,.42-.35.5-.35.92,0,.99,1.14,1.37,1.45,2.31-.18.06-.49-.11-.69.12-.03.03-.47-.63-.74-.9h0ZM172.72,6.68c.8-.79,2.06-.49,1.93.49-.39.37-.75,1.21.1,2.46l6.48,8.93-4.8-6.12c-1.05-1.66-2.14-2.16-2.81-1.71-1.42-1.65-1.72-3.22-.89-4.05h0ZM172.83,11.62c.19-.36,1.52-.53,1.67-.53.3,0,.89.25.83.55-.29,1.48-1.62.59-1.62,1.31,0,.14.73.84,1.39,2.05.26.48,4.82,5.18,5.14,5.76l-.07-.04c-.42-.38-2.33-2.01-2.63-2.35-1.22-1.35-1.75-2.37-2.7-1.8-.18.11-3.51-2.13-2.02-4.96h0ZM172.88,19.33c0-.62.12-1.56.55-2,.67-.67,1.48-.44,1.82-.57.33-.13.9.28.9.57,0,.24-.18.7-.36.86-.32.3-.88.31-.88.76,0,1.18,2.63,3.36,3.21,3.8.67.52.87.76,1.01,1.15-.05,0-.35-.18-.48-.27-.3-.21-.5-.32-.76-.58-.7-.7-2.11-1.73-2.99-1.15-1.3-.8-2.01-2.18-2.01-2.58h0ZM174.96,25.99c-.46-.55-1-1.29-1-2.01,0-.67.52-1.38,1.05-1.7.47-.29,1.01-.36,1.42,0,.12.11.27.17.27.34,0,.57-1.02.97-1.02,1.54,0,.62.57,1.21,1.05,1.61.88.73,1.73.5,2.6,1.26.29.25.52.34.67.71-.54-.05-.76-.34-1.22-.64-.59-.38-.94-.65-1.62-.5-.34.07-.45.2-.6.15-.63-.2-1.25-.33-1.61-.76h0ZM177.79,29.87c-.92-.64-2.15-.62-2.19-1.78-.03-.94,1.64-.83,1.64-.54l-.2.66c0,.79,1.02.73,1.63,1.25.3.25,1.27,1.12,1.66,1.3.26.11.56.17.8.31-.03.02-.37.04-.48.03-.57-.03-2.39-.9-2.87-1.23h0ZM177.39,31.55c.17-.25.87.6.87.6,0,0,.37.07,1.16.61.79.54,1.95.66,1.95.66,0,0-.88.52-2.36-.03-2.66-.99-1.78-1.6-1.62-1.85h0ZM180.41,35.23c-2.03-.04-1.92-.72-1.86-.92.06-.21.54,0,.54,0,0,0,.15.42.81.6.66.18,1.48-.01,1.48-.01,0,0,.18.36-.95.33h0ZM182.75,37.52c-.29.83-.56,1.45-1.23,1.45-.56,0-.88-.64-.82-1.16.04-.88.17-1.62,1.53-2.92.2-.17.61-.83.89-.9.38-.11.97.54,1.03.94.07.48-.87,1.11-1.39,2.6h0ZM183.22,40.16c.19.08.49.17.73.09-.28,1.02-.96,1.94-1.73,2.36-.71.28-1.06.14-.98-.17.21-.83,1.58-1.77,1.99-2.27Z"/>
        <path class="cls-2" d="M140.76,69.17c1.67-.59,2.73-2.03,2.73-3.8,0-2.66-2.08-4.38-5.3-4.38h-12.3v16.91h12.44c3.36,0,5.53-1.82,5.53-4.63,0-1.93-1.25-3.54-3.1-4.1ZM127.7,62.66h10.31c2.22,0,3.59,1.11,3.59,2.89s-1.38,2.86-3.59,2.86h-10.31v-5.75ZM138.14,76.21h-10.43v-6.15h10.43c2.48,0,3.84,1.1,3.84,3.09s-1.36,3.06-3.84,3.06h0Z"/>
        <polygon class="cls-2" points="148 70.08 154.91 70.08 154.91 68.39 148 68.39 148 62.66 161.72 62.66 161.72 60.99 146.18 60.99 146.18 77.9 162.04 77.9 162.04 76.21 148 76.21 148 70.08"/>
        <path class="cls-2" d="M181.31,66.02c0-3.15-2.21-5.03-5.9-5.03h-10.11v16.91h1.81v-6.82h6.52l5.73,6.77.04.05h2.38l-5.91-6.86c3.51-.25,5.44-2.02,5.44-5.01h0ZM167.11,69.38v-6.72h8.27c2.64,0,4.04,1.16,4.04,3.36s-1.4,3.36-4.04,3.36h-8.27Z"/>
        <polygon class="cls-2" points="182.79 62.69 190.3 62.69 190.3 77.9 192.11 77.9 192.11 62.69 199.9 62.69 199.9 60.99 182.79 60.99 182.79 62.69"/>
        <path class="cls-2" d="M217.78,66.02c0-3.15-2.21-5.03-5.9-5.03h-10.11v16.91h1.81v-6.82h6.52l5.73,6.77.04.05h2.38l-5.91-6.86c3.51-.25,5.44-2.02,5.44-5.01h0ZM203.59,69.38v-6.72h8.27c2.64,0,4.04,1.16,4.04,3.36s-1.4,3.36-4.04,3.36h-8.27Z"/>
        <path class="cls-2" d="M229.11,60.99h-1.98l-7.79,16.91h1.99l1.83-4.06h9.91l1.83,4.06h2.02l-7.78-16.82-.04-.09h0ZM223.91,72.2l4.2-9.29,4.2,9.29h-8.4Z"/>
        <polygon class="cls-2" points="247.93 74.73 241.53 60.99 239.13 60.99 239.13 77.9 240.89 77.9 240.89 63.62 247.53 77.9 248.32 77.9 254.96 63.62 254.96 77.9 256.72 77.9 256.72 60.99 254.32 60.99 247.93 74.73"/>
      </g>
    </g>
  </g>
</svg>