<?xml version="1.0" encoding="UTF-8"?>
<svg id="Layer_2" data-name="Layer 2" xmlns="http://www.w3.org/2000/svg" viewBox="0 0 165.36 50.17">
  <defs>
    <style>
      .cls-1 {
        fill: #2d2926;
      }

      .cls-2 {
        fill: none;
        stroke: #2d2926;
        stroke-miterlimit: 10;
      }
    </style>
  </defs>
  <g id="Layer_1-2" data-name="Layer 1">
    <g>
      <line class="cls-2" x1="65.6" x2="65.6" y2="50.16"/>
      <g>
        <path class="cls-1" d="M116.31,26.95l-35.3-14.32,35.14,14.69s-.13.34.37.55c.34.14.92,0,.92,0l2.32.99c-.08.06-.14.13-.2.21-.29.43.08.99.65,1.42-.13-.27-.22-.56-.21-.79.32-.17.72-.5.98-.37.4.1.46.5.6.8.05.25.07.54.04.85.12-.18.21-.36.29-.55.23-.05.27-.68.47-.55.22.15.17.3.26.46-.05.22-.16.43-.3.62.39-.2.62-.43.73-.68.02-.01.03-.02.05-.03v2.2l-42.1-19.82,42.09,22.57,42.26-22.57-42.26,22.2v-2.2l42.26-20-35.04,14.22h0c-.21-.42-.52-.71-1.3-1.29-.16-.14-.16-.26,0-.37.66.59,1.44-.07,1.52-.8.01-.14,0-.31,0-.48-.03-.53-.11-1.12.22-1.08.07,0,.13,0,.2,0,.69-.01,1.23-.44,1.11-.78-.04-.11-.14-.21-.33-.28-.06-.02-.12-.04-.19-.06,1.2.04,2.1-2.13.52-2.23,2.02-.5,2.03-1.53,1.66-2-.05-.07-.12-.12-.18-.16,1.75-1,1.85-1.95,1.09-3.25,1.68-1.12,1.38-2.66.5-3.5,1.1-1.51,1.26-2.84.46-3.79,1.32-2.33.18-3.34-1.13-3.25-.23.02-.3.13-.43.27-.25,0-.2-.33-.08-.48.8-1.02,1.54-1.7.87-2.6-.18-.25-.62-.3-1.06-.06-.56.3-1.04,1.32-1.61,2.24-.17-.09-.05-.35.18-.67.06-.09.13-.18.21-.28.52-.69,1.23-1.53.75-1.86-.13-.09-.27-.12-.42-.11-.91.08-2.21,1.87-3.62,4.64-.23.46-.47.95-.71,1.47-.64,1.37-1.28,2.91-1.91,4.55-.04.08-.06.16-.02.32.2.2.22.83.1,1.58-.02.15-.05.3-.08.45-.23,1.06-.7,2.19-1.28,2.54-.85-.15-1.45-1.64-1.45-2.3,0-.61,1.25-1.68,1.58-2.12.36-.29.48-.16.71.13-.18-1.05-.65-1.71-1.48-1.33l-.88.42c.06-.37-.86-.61-1.61-.08-1.05.75-1.31.88-2.01,1.11-.1.07-.16.18-.18.33.21,1.46.14,2.71-.23,2.77-1.19-.68-.33-2.86.21-3.39.04-.17.02-.24-.02-.32-2.51-6.58-5.3-11.47-6.66-10.55-.8.54,1.68,2.52,1.14,2.81-.57-.91-1.05-1.94-1.61-2.24-.44-.24-.87-.19-1.06.06-.67.9.07,1.58.87,2.6.12.15.17.48-.08.48-.12-.15-.2-.26-.43-.27-1.31-.09-2.46.93-1.13,3.26-.79.94-.63,2.27.46,3.78-.88.84-1.18,2.38.5,3.5-.76,1.3-.66,2.26,1.09,3.25-.52.32-.83,1.58,1.48,2.16-1.59.1-.69,2.27.52,2.23-1.12.25-.28,1.21.79,1.1.44-.05.16,1.02.21,1.57.09.73.86,1.39,1.52.8.16.1.16.23,0,.37-.78.58-1.09.86-1.3,1.27h0ZM129.19,26.18c.25.22.49.43.54.5.03.03.06.07.1.11.06.07.12.13.15.2.02.04.03.08.03.11,0,.04-.02.08-.06.11-.11.09-.22.13-.35.13-.12,0-.24-.03-.39-.1-.5-.22-.93-.84-.95-.87l-.37-.77.14.06s.05.02.13.02c.05,0,.1,0,.15-.02l.21-.06.02.02s.34.29.64.55h0ZM129.05,20l.02.05-.05.02s-.04.01-.05.02c-.03.01-.06.02-.09.02-.03,0-.08,0-.16-.03-.36-.17-.82-.26-1.16-.32-.34-.06-.45-.09-.47-.15-.01-.02,0-.05,0-.07,0-.02.05-.1.47-.1.46,0,1.37.12,1.49.56h0ZM128.73,19.03v-.03l.03-.02s.11-.04.17-.04c.18,0,.36.13.42.24l.03.05-.05.03c-.08.05-.18.07-.28.07-.11,0-.19-.03-.24-.09-.05-.05-.08-.13-.07-.21h0ZM128.39,20.61v.21h-.06c-.27,0-.42-.16-.55-.3-.1-.11-.19-.21-.33-.25l-.17-.04.15-.07c.08-.03.13-.04.21-.04.16,0,.26.06.37.13.03.02.06.04.1.06l.04.02c.11.06.23.12.23.27h0ZM127.23,20.74c.11.05.24.11.34.22.19.2.18.29.16.35,0,.05-.03.23-.13.27h-.04s-.04-.04-.04-.04l-.53-.6s-.1-.19-.11-.2l-.05-.09h.11s.14.03.29.09h0ZM127.51,22.66l.03-.03.26.15.2.33s.24.48.38.82c0,0,0,0,0,0,.03.06.06.15.09.25.09.29.18.71.08,1.03-.07.22-.18.27-.26.27-.04,0-.07-.01-.09-.02l-.38-.07-.3-.25s-.22-.18-.29-1.24c-.06-.91.27-1.23.28-1.25h0ZM127.53,26.22s.01-.07.03-.1c.01-.02.03-.02.04-.02h0s.03.03.06.05c0,0,0,0,0,.01.02.03.04.06.07.1,0,0,0,.01.01.02.02.04.05.09.08.14,0,.01.02.03.02.04,0,0,0,0,0,.01.02.04.05.09.07.13.02.03.03.05.05.08.02.03.03.05.05.08.02.03.03.05.05.08.01.02.02.04.03.05.03.04.06.07.08.09.01.07,0,.27,0,.31,0,.02-.02.02-.04.02h-.01s-.04-.02-.07-.04c0,0,0,0-.01-.01-.03-.02-.05-.05-.08-.08h0s-.06-.08-.09-.12c0,0-.01-.02-.02-.03-.03-.05-.06-.09-.1-.14,0,0,0,0,0-.01-.03-.05-.06-.1-.09-.15,0,0,0-.01,0-.02-.03-.05-.05-.11-.07-.16,0,0,0-.02,0-.03-.02-.05-.03-.11-.04-.16,0-.04,0-.08,0-.12,0,0,0-.02,0-.03h0ZM130.14,24.65c-.03.13-.23.35-.46.46-.05.02-.1.04-.15.04-.15,0-.25-.1-.35-.19-.02-.02-.04-.03-.05-.05-.11-.1-.27-.53-.41-.96-.02-.06-.04-.11-.05-.15-.05-.14-.31-.6-.48-.9-.09-.15-.15-.26-.18-.31-.08-.15-.05-.23,0-.33l.02-.04c.06-.14.45-.41.52-.47.02,0,.06-.02.12-.02.08,0,.21.03.29.2.04.09.31.41.42.52.08.09.49.64.55.73.06.1.22.56.25.7.03.16.01.63-.02.76h0ZM131.81,22l.02.02v.03c-.01.07-.1.15-.5.15-.14,0-.31-.01-.51-.03-.12-.01-.24-.02-.36-.02-.63,0-.95.18-.99.21h0l-.03-.05-.03-.05h0c.59-.36,1.12-.54,1.58-.54.57,0,.82.28.83.29h0ZM131.95,20.17c-.09,0-.15,0-.21,0h-.16c-.17,0-.3.01-1.15.16-.68.12-1.53.42-1.54.43l-.04-.11c1.67-.73,1.69-.71,1.9-.7.03,0,.06,0,.1,0h.03c.8-.02,1.07.09,1.08.1l-.02.11h0ZM132.16,18.63c0,.08-.13.22-.98.23-.88.02-1.3.34-1.32.35l-.04-.05-.04-.04h0c.62-.5,1.19-.74,1.69-.74.44,0,.66.2.67.2l.02.02v.03h0ZM133.21,17.35c-.14-.02-.27-.03-.41-.03-.61,0-1.26.18-2.33.64l-.06-.1c1.11-.77,2.02-.97,2.83-.62l-.03.11h0ZM134.44,14.52c-.12-.08-.26-.12-.44-.12-.63,0-1.54.54-2.51,1.11-.23.14-.46.27-.7.41l-.06-.1c1.61-1.28,2.65-2.01,3.26-2.01.33,0,.51.22.54.66v.12s-.09-.07-.09-.07h0ZM135.03,10.91c-.11-.09-.23-.14-.37-.14-.59,0-1.45.74-2.27,1.46-.82.71-1.59,1.38-2.14,1.38-.03,0-.06,0-.09,0l-.14-.02.11-.08c.67-.51,1.28-1.12,1.82-1.65.86-.86,1.61-1.6,2.27-1.6.34,0,.64.19.91.58l-.09.08h0ZM135.25,6.75l.14.1h-.17c-.43.02-1.38,1.17-2.29,2.28-.86,1.05-1.76,2.14-2.4,2.53l-.07-.09c.94-1.03,1.73-2,2.36-2.79,1.03-1.27,1.7-2.12,2.19-2.12.09,0,.17.03.24.08h0ZM134.51,1.01c.12,0,.29.05.38.28l.05.12-.12-.05s-.08-.02-.13-.02c-.45,0-1.14.71-2.03,1.77l-.1-.05c.22-.79,1.33-2.06,1.95-2.06h0ZM131.58,4.59s.01-.1.02-.18c.03-.27.06-.67.14-.86.17-.42.55-.58.66-.62l.14-.05-.07.13c-.32.58-.36.84-.42,1.22-.03.16-.05.33-.11.56-.08.35-.83,1.36-1.24,1.9-.07.09-.12.16-.16.21l-.09-.07c.27-.41,1.06-1.71,1.14-2.25h0ZM131.49,7.3c1.3-1.95,2.42-3.63,3.11-3.63.1,0,.19.03.27.1l.1.08-.13.02c-.69.09-1.9,1.89-3.07,3.63-1.02,1.52-1.99,2.96-2.63,3.31l-.07-.09c.83-1.03,1.64-2.25,2.42-3.42h0ZM128.84,13.11s.02.09-.01.14c-.11.19-.54.51-.73.51-.07,0-.1-.04-.11-.06-.02-.04-.03-.1.02-.19.11-.19.5-.47.71-.47.08,0,.11.04.13.06h0ZM128.44,12.31s.09.03.1.07c.05.12.04.24-.03.34-.11.15-.32.23-.44.23h-.02c-.06,0-.1-.05-.1-.11,0-.16.32-.53.49-.53ZM127.82,14.33c.13-.2.61-.46.85-.46.1,0,.15.05.17.08.01.03.02.07-.02.13-.11.18-.64.49-.88.49-.09,0-.13-.04-.14-.08-.02-.03-.03-.09.02-.17h0ZM128.83,14.47l-.08.14c-.08.13-.15.23-.32.28l-.12.03.05-.11c.08-.17.17-.23.32-.28l.15-.05h0ZM127.87,15.92c.3-.35,1.18-.83,1.34-.83.08,0,.09.14.09.17,0,.19-.11.65-1.38.76h-.14s.09-.09.09-.09h0ZM127.6,16.82s.66-.29.93-.42c.05-.02.09-.05.14-.08.21-.11.44-.25.61-.23h.05s0,.05,0,.05c.04.26-.19.37-.41.48l-.06.03c-.23.12-.88.29-1.15.29-.06,0-.1,0-.12-.02l-.11-.06.11-.05h0ZM127.5,17.55s.69-.22.98-.33c.05-.02.1-.04.16-.07.22-.09.48-.2.63-.16h.05s0,.06,0,.06c-.03.28-.27.37-.5.46l-.06.02c-.21.08-.72.17-1.01.17-.18,0-.23-.03-.26-.05l-.08-.07.1-.03h0ZM126.87,18.49c.7-.17,1.24-.34,1.63-.47.38-.12.63-.2.78-.2.11,0,.18.04.2.12v.02s0,.02,0,.02c-.11.57-.87.64-1.33.68-.1,0-.23.02-.39.02-.32,0-.82-.03-.92-.08l-.12-.07.14-.03h0ZM126.33,21.09l.06-.02c.1,0,.53.25.59.34.05.07.12.18.08.33,0,.03-.01.05-.01.05v.05s-.09,0-.09,0h0s-.11.01-.18.01c-.05,0-.08,0-.11-.02-.01,0-.02,0-.03,0-.05,0-.08-.03-.11-.1-.04-.07-.09-.23-.14-.37l-.05-.16v-.12ZM127.18,26.69s.02-.04.03-.06l.09-.06c.09.09.27.4.56.65.13.11.45.26.45.43,0,.03-.08.08-.2.15l-1.62.76c-.04-.06-.09-.09-.14-.11-.01,0-.03-.02-.04-.02h0s-.02,0-.02-.02c0-.04,0-.08-.02-.12l.91-1.6h0ZM126.31,28.64s0,0,0,0c.01.02.03.03.04.05.07.12.09.33.01.58-.06.2-.19.41-.44.62.1-.12.19-.32.23-.54.06-.34-.02-.72-.39-.85.17-.11.41-.03.54.13h0ZM118.46,27.39s-.02-.23,0-.3c.22-.16.53-1.03.63-.86.21.35-.54,1.35-.62,1.17ZM118.31,25.5c-.23,0-.43-.18-.43-.41,0-.74.85-2.29,1.13-2.26.19.03.2.76.2,1.01,0,.74-.17,1.66-.9,1.66h0ZM119.77,29.8c.03.12.07.24.14.37-.13-.12-.22-.25-.28-.38-.1-.21-.1-.42-.02-.59.03-.06.06-.11.1-.16.05-.05.09-.08.14-.12.16-.11.35-.13.57-.06-.48.12-.77.45-.66.94h0ZM121.8,30.42s-.03.07-.04.11c0-.05,0-.09.01-.13.06-.48-.02-.81-.15-1.08-.15-.35-.42-.3-.37-.47.14-.36.35-.07.51.17.22.31.26.78.04,1.4h0ZM122.89,30.37c-.07.11-.17.22-.29.33.06-.07.12-.18.16-.29.14-.39.14-.93-.32-1.1.18-.12.47-.03.59.18.09.17.11.51-.13.88h0ZM123.47,29.23c-.11.14-.21.29-.31.46-.02-.32-.15-.47-.3-.54h-.03c-.19-.21-.47-.39-.83-.54.14-.33.38-.64.73-.92h.18c.31.38.6.64.89.78-.1.06-.19.15-.26.25-.11.16-.12.33-.08.51h0ZM124.19,28.6c-.08.04-.15.09-.21.14-.26.24-.33.61-.06,1.08-.24-.23-.36-.47-.36-.7,0-.16.05-.31.17-.44.06-.07.13-.11.21-.15.15-.07.32-.09.5-.02-.09.02-.17.06-.25.09h0ZM125.48,29.63c-.03.19-.08.39-.17.61.04-.22.04-.39.03-.56-.02-.22-.06-.4-.13-.56-.01-.03-.03-.07-.04-.1-.15-.35-.42-.3-.37-.47.12-.29.27-.16.41.03.03.05.07.09.1.14.15.22.22.53.17.91h0ZM125.22,23.7c.06.08-.27.66-.27.98,0,.98-.46,1.8-.18,2.11.39.43.7,1.1.01,1.1-.75,0-1.32-1.13-1.32-1.88,0-1.17.02-2.17.3-2.87.67.03,1.12.17,1.45.57h0ZM123.83,10.61c.1-.05.16-.06.27-.06.14,0,.18.07.24.19.3-.16.43-.4.77-.4.09,0,.33,0,.33.09,0,.13-.18.11-.29.17-.12.06-.89.53-1.15.82-.33-.27-.24-.74-.17-.81h0ZM120.34,11.88c-.03-.1.01-.12.1-.23.61-.17,2.37-1.77,2.98-1.21l.03.28c-.17.27-1.5.29-1.26,1.03.75.07,1.11-.11,1.08-.53.07-.07.13-.06.19.04.05,2.08-2.26.88-2.43.89-.13.03-.16.09-.14.2.06.29.85.55,1.12,1.08.25.49.62.47.88.97.12.22.03,2.07.01,2.39-.04.61,1.09.67,1.07,1.02l.03,1.63c.05,1.61-.85,2.42-2.09,3.31-.35.25.02.51-.32,2.13-.12.54-.46,1.85-.53,2.11-.06.24.52.36.4.64-.09.22-.36.6-.72.51-.4-.61-.91-1.87-.87-3.57.03-1.27.34-2.18.3-3.32-.04-1.06-.35-2.3-.45-3.61-.06-.77,1.17-3.76.61-5.77h0ZM120.43,28.51c-.06,0-.2.04-.28.16l-1.65-.78c.41-.29.73-.66.96-1.09l.97,1.7h0ZM119.25,22.27s-.17-.63.18-.52c.34.1-.03.37-.18.52ZM119.39,15.74c0,.07-.08.02-.16-.05-.51-.44-.72-1.33-.44-2.2-.16.99.07,1.56.6,2.25h0ZM118.8,12.48c-.03.57-.52,1.84-.57,2.7-.03.45.29.88.48,1.19-.23.17-.41-.38-.68-.38-.11,0-.16.17-.16.28,0,.2.12.36.3.44.33.14,1.15.09.87.32-.16.13-.79-.17-.87-.18-.23-.05-.31.34-.05.51.15.09.27.08.45.1.04.01.05.11.01.13-.29.13-.47.11-.47.42,0,.23.15.32.34.42-.18.07-.47.21-.46.48,0,.32.52.35.69.38-.2.12-.37.23-.37.5,0,.18.23.3.41.3-.2.33-.24.56.28.52-.31.63.32.6.43.35,0,.48-.69,1.09-.96.7-.21-.3.33-.58.14-.81-.23-.29-.4.42-.69.42-.15,0-.36-.17-.36-.32,0-.43.76-.31.76-.74,0-.08-.03-.13-.12-.13-.28,0-.27.26-.55.26-.22,0-.38-.04-.38-.26,0-.43.67-.28.62-.69-.09-.68-1.19-.6-1.19-1.29,0-.1.11-.14.21-.14.29,0,.36.38.66.38.08,0,.15-.06.15-.14,0-.51-.9-.49-.86-1,.02-.26.8.57.85.07.02-.21-.89-.49-.83-.95.02-.18.84.58.87.11-.07-.2-.71-.59-.59-1.02.04-.15.51.65.69.49.05-.04-.64-.86-.55-1.09.12-.29.37.39.65.46.04.01.14-.13.08-.25-.14-.27-.58-.63-.46-.93.05-.14.47.53.54.32.06-.2-.59-.73-.49-1.09.06-.22.28-.12.29.05,0,.25.18.21.26.15.05-.04.09-.08.09-.14-.02-.24-.24-.33-.24-.56.01-.53.36-.36.65-.52.07-.04.13.09.13.17h0ZM117.19,19.46c-.17,0-.3-.42-.3-.44,0-.12.39.08.52.15.16.09-.12.29-.22.29h0ZM113.56.95c-.37-.64.21-.71.56-.47.11.08.32.35.44.51-.34.19-.04.53.97,1.99-.23-.09-.29-.13-.44-.01l-1.52-2.01h0ZM113.76,4.04c0,.15-.03.28-.16.36-.09.06-.21.08-.21.19,0,.21,1.53,2.71,1.62,2.9.23.45,2.95,4.18,3.12,4.1.1-.05.06-1.25-.93-3.33-.09-.18-1.61-2.89-1.93-3.42-.16-.26-.42-.72-.42-1.03,0-.12.18-.55.46-.55.14,0,.3.05.3.19s-.18.15-.23.28c-.3.72,1.82,3.11,2.84,6.92.07.25.14.83.13.97-.02.15-.03.45-.14.54-.37-.37-3.1-3.73-4.12-5.52-.18-.32-1.09-1.8-1.09-2.17,0-.29.15-.57.43-.59.16-.01.32.12.32.17h0ZM112.66,2.98c-.51-.51-.84-.83-.84-1.53,0-.29.15-.49.43-.49.33,0,.62.11.62.44,0,.27-.22.32-.22.59,0,.64.73.88.93,1.49-.12.04-.31-.07-.44.08-.02.02-.3-.41-.48-.58h0ZM111.21,4.3c.51-.51,1.33-.31,1.24.31-.25.24-.48.78.06,1.59l4.17,5.75-3.09-3.94c-.68-1.07-1.38-1.39-1.81-1.1-.91-1.06-1.11-2.08-.57-2.61h0ZM111.29,7.48c.12-.23.98-.34,1.08-.34.2,0,.57.16.54.35-.18.95-1.04.38-1.04.85,0,.09.47.54.89,1.32.17.31,3.11,3.34,3.31,3.71l-.05-.02c-.27-.24-1.5-1.29-1.69-1.51-.79-.87-1.13-1.52-1.74-1.16-.11.07-2.26-1.37-1.3-3.19h0ZM111.32,12.45c0-.4.08-1,.36-1.29.43-.43.95-.28,1.17-.37.21-.08.58.18.58.37,0,.16-.12.45-.23.56-.21.19-.57.2-.57.49,0,.76,1.7,2.16,2.06,2.45.43.34.56.49.65.74-.03,0-.22-.11-.31-.17-.2-.13-.32-.2-.49-.37-.45-.45-1.36-1.11-1.93-.74-.84-.51-1.29-1.4-1.29-1.66h0ZM112.66,16.74c-.3-.36-.64-.83-.64-1.3,0-.43.34-.89.67-1.09.3-.19.65-.23.91,0,.08.07.18.11.18.22,0,.37-.66.62-.66.99,0,.4.37.78.68,1.03.57.47,1.12.32,1.68.81.19.16.34.22.43.45-.35-.03-.49-.22-.78-.41-.38-.24-.61-.42-1.05-.32-.22.05-.29.13-.38.1-.4-.13-.81-.21-1.04-.49h0ZM114.48,19.23c-.59-.41-1.38-.4-1.41-1.15-.02-.6,1.05-.54,1.05-.35l-.13.42c0,.51.66.47,1.05.81.19.16.82.72,1.07.84.17.07.36.11.51.2-.02.01-.24.03-.31.02-.37-.02-1.54-.58-1.85-.79h0ZM114.23,20.32c.11-.16.56.39.56.39,0,0,.24.04.75.39.51.35,1.26.43,1.26.43,0,0-.57.34-1.52-.02-1.71-.64-1.15-1.03-1.04-1.19h0ZM116.17,22.68c-1.31-.03-1.23-.46-1.2-.59.04-.13.35,0,.35,0,0,0,.09.27.52.39.42.12.95,0,.95,0,0,0,.11.23-.61.21h0ZM117.68,24.16c-.19.54-.36.93-.79.93-.36,0-.56-.41-.53-.75.03-.57.11-1.04.98-1.88.13-.11.39-.53.57-.58.24-.07.63.35.66.61.04.31-.56.72-.89,1.67h0ZM117.98,25.86c.12.05.32.11.47.06-.18.66-.62,1.25-1.12,1.52-.45.18-.68.09-.63-.11.14-.54,1.02-1.14,1.28-1.46Z"/>
        <path class="cls-1" d="M90.64,44.54c1.08-.38,1.76-1.31,1.76-2.44,0-1.71-1.34-2.82-3.41-2.82h-7.92v10.89h8.01c2.16,0,3.56-1.17,3.56-2.98,0-1.24-.8-2.28-2-2.64ZM82.23,40.35h6.64c1.43,0,2.31.71,2.31,1.86s-.89,1.84-2.31,1.84h-6.64v-3.7ZM88.95,49.07h-6.72v-3.96h6.72c1.59,0,2.47.71,2.47,1.99s-.88,1.97-2.47,1.97h0Z"/>
        <polygon class="cls-1" points="95.3 45.13 99.75 45.13 99.75 44.04 95.3 44.04 95.3 40.35 104.13 40.35 104.13 39.28 94.13 39.28 94.13 50.16 104.34 50.16 104.34 49.07 95.3 49.07 95.3 45.13"/>
        <path class="cls-1" d="M116.75,42.51c0-2.03-1.42-3.24-3.8-3.24h-6.51v10.89h1.17v-4.39h4.2l3.69,4.36.03.03h1.53l-3.81-4.42c2.26-.16,3.5-1.3,3.5-3.23h0ZM107.6,44.68v-4.33h5.33c1.7,0,2.6.75,2.6,2.16s-.9,2.16-2.6,2.16h-5.33Z"/>
        <polygon class="cls-1" points="117.7 40.37 122.54 40.37 122.54 50.16 123.71 50.16 123.71 40.37 128.72 40.37 128.72 39.28 117.7 39.28 117.7 40.37"/>
        <path class="cls-1" d="M140.23,42.51c0-2.03-1.42-3.24-3.8-3.24h-6.51v10.89h1.17v-4.39h4.2l3.69,4.36.03.03h1.53l-3.81-4.42c2.26-.16,3.5-1.3,3.5-3.23h0ZM131.09,44.68v-4.33h5.33c1.7,0,2.6.75,2.6,2.16s-.9,2.16-2.6,2.16h-5.33Z"/>
        <path class="cls-1" d="M147.52,39.28h-1.27l-5.02,10.89h1.28l1.18-2.61h6.38l1.18,2.61h1.3l-5.01-10.83-.03-.06h0ZM144.18,46.49l2.71-5.98,2.71,5.98h-5.41Z"/>
        <polygon class="cls-1" points="159.64 48.12 155.53 39.28 153.98 39.28 153.98 50.16 155.11 50.16 155.11 40.96 159.39 50.16 159.9 50.16 164.17 40.96 164.17 50.16 165.31 50.16 165.31 39.28 163.76 39.28 159.64 48.12"/>
      </g>
      <path class="cls-1" d="M18.18,4.78l-.49-1.57.38-.12c.42-.13.75.03.88.42l.05.18c.16.52-.09.85-.83,1.09ZM16.3,42.35l-.37-.19-.67,1.35c.71.35,1.13.27,1.39-.25.21-.41.1-.69-.35-.91ZM12.72,10.14c.48-.39.51-.72.11-1.22l-1.3-1.61c-.29-.36-.65-.4-1.01-.11l-.32.26,2.3,2.86.22-.17ZM30.44,6.47c.36.1.71-.06.8-.38l.71-2.46c.09-.32-.12-.64-.48-.75s-.71.06-.8.38l-.71,2.46c-.09.32.12.64.48.75ZM15.52,44.37c-.19-.05-.39-.12-.59-.22l-.66,1.31.43.21c.45.22.74.13.96-.31l.05-.1c.19-.38.12-.68-.19-.89ZM18.56,46.54c.2-.07.39-.09.56-.05.16.05.32.16.47.34l.14-1.75.13-1.15h-.04s-.48,1.04-.48,1.04l-.78,1.56ZM50.16,25.08c0,13.83-11.25,25.08-25.08,25.08S0,38.91,0,25.08,11.25,0,25.08,0s25.08,11.25,25.08,25.08ZM2.76,23.82h-.2l-.38.39v2.97h.58v-3.36ZM5.54,24.4l-.62-.61h-.76l-.62.61v.92l.62.61h.54l.25-.27v.68c0,.24-.15.38-.38.38s-.38-.15-.38-.38v-.21h-.57v.47l.62.61h.69l.62-.61v-2.21ZM39.61,6.21l-4.06,3.36.63.51c.43-.3.91-.36,1.16-.15.25.2.28.68.09,1.17l.66.54,2.47-4.66-.94-.76ZM34.87,3.32l-2.42,4.57.77.41,1.49-2.82.06-.13.03.02-.05.23-.45,3.28.83.44,2.42-4.57-.76-.4-1.57,2.97-.03-.02.06-.22.48-3.29-.86-.46ZM28.97,5.88l.65,1.16,1.2.35,1.17-.64.94-3.26-.65-1.16-1.2-.35-1.17.64-.94,3.26ZM24.98,6.39l.89.07.15-2.08c.1-.19.34-.28.63-.26.28.02.51.15.59.35l-.15,2.09.89.07.38-5.16-.89-.07-.16,2.19c-.19-.12-.4-.2-.6-.21-.2-.01-.42.03-.63.13l.16-2.2-.89-.07-.38,5.16ZM20.92,1.59l.08.72.99-.11.5,4.42.89-.1-.5-4.42.99-.11-.08-.72-2.87.33ZM16.62,2.78l1.53,4.94.86-.27-.61-1.97.1-.03c.74-.23,1.25.27,1.68,1.64l.86-.27c-.36-1.15-.87-1.83-1.56-2.04.41-.44.51-1.02.28-1.77l-.07-.21-1.17-.62-1.9.59ZM12.82,4.63l2.43,4.56,2.27-1.21-.36-.68-1.48.79-.66-1.24c.16-.25.54-.5,1.11-.77l-.36-.67c-.5.23-.94.53-1.12.76l-.69-1.3,1.42-.76-.36-.67-2.21,1.18ZM9.04,7.44l3.24,4.03.9-.73c.89-.72.98-1.62.26-2.53l-1.52-1.9-1.31-.14-1.56,1.26ZM16.46,44.39c.48-.13.88-.49,1.17-1.07l.03-.06-.42-1.25-1.79-.9-2.31,4.62,1.87.94,1.24-.42.5-1-.29-.86ZM20.68,43.21l-1.17-.32-2.38,4.71.78.22c.28-.44.69-.69,1-.6.3.08.53.51.55,1.03l.82.23.4-5.25ZM24.89,44.66l-.85-1.01-1.02-.08-1.01.85-.08.92,1.6,1.63c.18.18.28.4.26.59-.03.38-.26.57-.63.54-.38-.03-.57-.26-.54-.63l.04-.53-.89-.07-.08.95.85,1.01,1.09.09,1.01-.85.09-1.12-1.61-1.65c-.16-.17-.26-.35-.25-.49.03-.31.24-.47.59-.44.35.03.52.25.49.63l-.03.35.89.07.06-.75ZM29.26,48.58c-.13-1.23-.62-2.11-1.32-2.51l.74-2.63-.89.1-.63,2.3c-.11-.01-.23-.01-.35,0l-.24-2.16-.89.1.56,5.14.89-.1-.24-2.23c.79-.06,1.31.69,1.46,2.09l.9-.1ZM33.39,47.44l-.23-.74-1.6.49-.41-1.34c.21-.22.62-.39,1.24-.54l-.22-.72c-.53.13-1.03.34-1.24.54l-.43-1.41,1.53-.47-.22-.72-2.39.74,1.52,4.94,2.46-.76ZM36.37,46.06l-2.04-3.95.89-.46-.33-.65-2.57,1.32.33.65.89-.46,2.04,3.95.8-.41ZM42.44,25.08c0-9.57-7.79-17.36-17.36-17.36S7.72,15.51,7.72,25.08s7.79,17.36,17.36,17.36,17.36-7.79,17.36-17.36ZM46.04,25.44l-.62-.61h-.56l-.23.24v-.74h1.33v-.51h-1.93v1.89h.59v-.02c0-.21.19-.37.43-.37s.38.15.38.39v.62c0,.22-.17.38-.41.38s-.41-.17-.41-.38v-.26h-.59v.54l.62.61h.76l.62-.61v-1.16ZM48.75,26.6v-1.16l-.62-.61h-.56l-.23.24v-.74h1.33v-.51h-1.93v1.89h.59v-.02c0-.21.19-.37.43-.37s.38.15.38.39v.62c0,.22-.17.38-.41.38s-.41-.17-.41-.38v-.26h-.59v.54l.62.61h.76l.62-.61ZM38.09,9.86l.83-1.55.58-1-.03-.02-.86.77-1.34,1.12c.22.02.4.07.53.18.13.11.23.28.29.5ZM4.55,24.29c-.24,0-.41.17-.41.38v.38c0,.24.15.39.38.39s.43-.17.43-.39v-.38c0-.22-.17-.38-.41-.38ZM20.26,12.97s-.43.67-1.15.47c-.03.75-.81.95-.81.95,0,0-.77-.2-.8-.95-.73.2-1.15-.47-1.15-.47,0,0-.05-.8.66-1.06-.42-.63.09-1.24.09-1.24,0,0,.74-.29,1.21.3.47-.59,1.21-.3,1.21-.3,0,0,.51.61.09,1.24.71.26.66,1.06.66,1.06ZM18.62,12.44l.3-.3-.41-.07-.19-.37-.19.37-.41.07.3.3-.06.41.37-.19.38.19-.06-.41ZM24.44,37.81s0,0,0,0M15.81,22.28s.07-.7.07-2.05.05-1.93.05-1.93l-.07.02c-.06.02-.13.02-.19.03h-.04s-.06.65-.07,1.73-.1,2.09-.1,2.09h.04c.08.04.16.07.25.1l.06.02ZM13.88,28.31c.09.11.19.14.19.14.05-.05.11-.11.14-.15v-.02s.04-.02.05-.04l.04-.05s.04-.05.05-.06c.02-.02.04-.05.07-.09l.17-.27.11-.22c.07-.12.13-.27.19-.41.02-.06.05-.11.07-.17l.07-.2c.04-.11.08-.23.11-.33l.15-.53c.05-.22.11-.44.15-.68v-.06s-.39,0-.39,0v.04c-.09.37-.19.72-.29,1.05-.01.04-.03.1-.05.15,0,.02-.02.05-.02.06-.01.03-.03.07-.04.12-.04.11-.09.24-.13.32l-.04.08c-.04.08-.09.19-.11.24-.02.03-.05.09-.08.15-.03.06-.07.12-.09.16l-.13.19-.03.05s-.04.06-.07.09c-.02.03-.05.06-.07.09-.03.03-.08.08-.11.12-.01.01-.03.02-.04.04,0,0,.02.09.11.2ZM16.73,14.87l.02-.05c.2-.43.4-.77.61-1.04,0,0-.02-.05-.07-.09s-.1-.05-.1-.05c-.1.12-.19.25-.26.35-.13.2-.27.44-.41.73l-.03.05.06.02s.08.03.12.05l.05.02ZM24.82,12.93h-.05s0,0,0,0c.01,0,.03,0,.05,0h0ZM22.23,18.64s-.09-.02-.14-.03c-2.14-.42-4-1.61-5.28-3.27,0,0,0,0,0,0-.01-.02-.02-.03-.03-.04-.11-.14-.28-.22-.47-.22-.32,0-.58.24-.61.55-.05-.01-.1-.02-.15-.02-.32,0-.59.25-.61.56,0,.02,0,.03,0,.05,0,.18.08.35.2.46-.17.14-.28.35-.28.59,0,.42.34.76.76.76.24,0,.45-.11.59-.28,1.26,1.31,2.81,2.35,4.54,3,.28.1.42.13.7.21h0c.15-.11.29-.23.42-.36.42-.38.79-.82,1.09-1.31,0-.01.02-.03.03-.04.03-.05.06-.09.08-.14.07-.11.13-.23.19-.35-.34-.02-.71-.06-1.04-.12ZM23.07,16.18c.69,0,1.19-.33,1.67-.33s.82.15.82.15c0,0-.13-.57-.71-.57-.42,0-.81.15-1.5.15-.61,0-.9-.39-.9-.76s.1-.54.1-.54c0,0-.61.22-.61.98,0,.47.45.92,1.13.92ZM34,26.42s0-.02,0-.03c-.02,0-.03,0-.05,0,.02.01.03.02.05.03ZM25.29,31.37c-.05-.1-.1-.19-.16-.28.06.09.11.18.16.28ZM28.08,23.7h0s0,0,0,0c0,0,0,0,0,0ZM28.08,23.71s0,0,0,0h0s0,0,0,0h0ZM36.47,24.52c-.09.22-.23.42-.41.57-.02.02-.04.03-.06.05-.23.16-.5.26-.8.26-.23,0-.44-.05-.63-.15-.34.25-.57.65-.57,1.11v.04s-.03,0-.05,0c-.52-.37-.87-.99-.87-1.68,0-.1,0-.2.02-.3-.02,0-.04,0-.07,0-.43,0-.78-.35-.78-.78,0-.12.03-.23.08-.33.13.12.31.19.5.19.31,0,.58-.2.69-.47.03-.08.05-.17.05-.27,0-.35-.23-.72-.68-.72s-1.17.48-1.17,1.91c0,1.14.44,1.9.73,2.64.56,1.45,1.42,2.66,1.68,4.32.05.31.08.63.08.97v.08c0,.88-.39,1.67-1.02,2.2-.51.43-1.16.69-1.88.69-.22,0-.44-.03-.64-.07-.08.37-.13.76-.13,1.16,0,.31.03.62.08.92-.81.56-1.46,1.33-1.87,2.24-.14.31-.25.64-.32.98-.05.2-.08.41-.1.62h-4.6c.07-.32.2-.61.36-.88-.1,0-.2-.02-.31-.02-.28,0-.55.04-.81.11.42-.75,1.15-1.31,2.01-1.5.22-.05.44-.08.68-.08.18,0,.36.02.53.05h0c.32.06.62.16.9.31.17-.59.21-1.19.21-1.54,0-2.39-.88-3.2-1.91-3.2s-1.91.8-1.91,3.2l-2.06-1.43-3.69-2.58c.11-.08.21-.19.28-.3.02-.02.03-.05.04-.07.1-.18.17-.38.18-.6,0-.02,0-.04,0-.07,0-.34-.13-.65-.34-.88-.01-.02-.03-.03-.04-.04-.17-.18-.39-.3-.64-.36.15-.22.37-.4.63-.5-.07-.17-.18-.32-.32-.45-.03-.03-.06-.05-.09-.08.15-.11.32-.19.51-.24.09-.02.19-.03.29-.03-.02-.04-.04-.07-.06-.11-.1-.16-.24-.3-.4-.4.22-.09.47-.14.72-.14.22,0,.43.03.62.1.04.01.08.03.12.04.43.22.8.56,1.04.98.21.37.34.8.34,1.25,0,.25-.04.5-.11.73l1.47,1.03c-.28-.31-.44-.71-.44-1.16,0-.89.67-1.62,1.53-1.72,0,0,0,0,0,0,.05,0,.11,0,.17,0h.06c.77,0,1.45.39,1.86.98-.54-.87-.95-1.11-2.73-2.15-1.78-1.04-2.6-2.4-2.85-3.27.37-.09.76-.13,1.16-.13,1.41,0,2.68.57,3.61,1.49.14.15.28.3.41.46,1.16-.45,2.95-2.49,3.31-3.33,0,.05-.08.52-.08,1.53,0,2.87,2.3,7.24,3.66,7.24.99,0,1.17-.57,1.17-1.14,0-.06,0-.13,0-.19-.03-.85-.22-1.64-.48-2.39-.64-1.83-1.71-3.43-1.74-5.28v-.08c0-.49.12-.95.34-1.36.19-.35.44-.66.75-.91.49-.39.94-.63,1.8-.63.91,0,1.9.92,1.9,2,0,.66.39,1.32.93,1.5.07.02.13.04.2.05ZM20.71,24.87h-5.82c-.34,0-.62-.28-.62-.62,0-.06,0-.11.02-.17-.3-.08-.52-.35-.52-.68,0-.29.17-.54.42-.64-.02-.06-.02-.12-.02-.19,0-.22.09-.42.23-.56.43.24.89.43,1.37.58.62.19,1.29.29,1.97.29s1.28-.09,1.88-.26c.95-.27,1.81-.74,2.55-1.36.02-.02.05-.04.07-.06.4-.35.76-.74,1.07-1.16.1-.14.2-.29.29-.44.08-.13.16-.27.23-.41.07-.13.14-.27.2-.41,0,0,2.93.13,4.28-1.76-1.11.86-2.59,1.09-4.06,1.2.06-.16.11-.33.15-.5.02-.08.04-.16.06-.24.06-.28.1-.56.13-.85.01-.15.02-.3.03-.45.24.14.53.23.83.23,0,0,.01,0,.02,0,.22,0,.42-.09.58-.25.24-.25.41-.58.45-.94,0,0,0,0,0,0,0,0,0-.01,0-.02-.06-.05-.13-.09-.2-.13-.09-.05-.19-.09-.29-.12-.15-.05-.31-.07-.48-.07-.36,0-.69.11-.95.31-.06-.52-.18-1.02-.36-1.5-.02-.05-.04-.1-.06-.15-.04-.11-.09-.22-.13-.32-.02-.06-.05-.11-.08-.17.27-.07.55-.11.84-.11.01,0,.03,0,.05,0,.3,0,.58.04.86.11.13.03.26.07.38.12,0,0,.02,0,.03.01.13.05.26.08.4.1.08.01.16.02.24.02.01,0,.02,0,.03,0,.26,0,.52-.05.75-.15.13-.06.26-.13.38-.21.07-.05.14-.11.2-.17-.14-.1-.3-.17-.48-.19-.04,0-.09,0-.13,0-.21,0-.41.06-.57.17,0,0,0,0,0,0-.03.02-.07.04-.11.06-.11.05-.23.08-.35.08-.23,0-.43-.09-.58-.24.26-.44.7-.77,1.22-.88.05-.01.09-.02.14-.03.09-.01.18-.02.27-.02h3.64c-.1.42-.23.83-.4,1.22h1.37c-.18,1.05-.53,1.62-1.26,2.19.79.41,1.66,1.55,1.77,2.9-1.01-.35-1.49-.05-1.49-.05,0,0,1.28,1.32.83,2.67-.39-.47-.85-.49-.85-.49,0,.14-.03.3-.06.45,0,.02,0,.04,0,.05,0,0,0,.01,0,.02-.07.36-.18.7-.33,1.03-.56,1.37-1.37,2.53-1.71,2.91-.13-.9-.48-1.54-.95-1.98-.22,1.04-2.06,3.38-3.14,4.05-1.05-1.11-2.54-1.81-4.2-1.81Z"/>
    </g>
  </g>
</svg>