<?xml version="1.0" encoding="UTF-8"?>
<svg id="Layer_2" data-name="Layer 2" xmlns="http://www.w3.org/2000/svg" viewBox="0 0 81.04 128.97">
  <defs>
    <style>
      .cls-1 {
        fill: #2d2926;
      }

      .cls-2 {
        fill: none;
        stroke: #2d2926;
        stroke-miterlimit: 10;
      }
    </style>
  </defs>
  <g id="Layer_1-2" data-name="Layer 1">
    <g>
      <line class="cls-2" y1="65.6" x2="81.04" y2="65.6"/>
      <g>
        <path class="cls-1" d="M33.91,106.67L0,92.91l33.76,14.12s-.13.32.35.53c.32.14.88,0,.88,0l2.23.95c-.07.06-.14.12-.19.2-.28.41.07.95.63,1.36-.12-.26-.21-.53-.2-.75.31-.17.7-.48.94-.35.39.1.45.48.57.77.04.24.06.52.04.82.11-.18.2-.35.28-.52.22-.04.26-.66.45-.53.21.14.16.29.25.44-.05.21-.15.42-.29.59.38-.19.59-.41.7-.66.01-.01.03-.02.04-.03v2.11L0,92.91l40.44,21.68,40.6-21.68-40.6,21.33v-2.11l40.6-19.22-33.66,13.66h0c-.2-.41-.5-.68-1.25-1.23-.15-.14-.15-.25,0-.35.63.56,1.38-.07,1.46-.77.01-.13,0-.29,0-.46-.03-.51-.11-1.07.21-1.04.06,0,.13,0,.19,0,.66-.01,1.18-.43,1.07-.75-.03-.1-.13-.2-.32-.27-.05-.02-.11-.04-.18-.05,1.16.04,2.02-2.04.49-2.15,1.94-.48,1.95-1.47,1.59-1.92-.05-.06-.11-.12-.17-.15,1.68-.96,1.77-1.88,1.05-3.13,1.61-1.08,1.33-2.55.48-3.36,1.05-1.45,1.21-2.73.45-3.64,1.27-2.23.17-3.21-1.09-3.13-.22.01-.29.12-.41.26-.24,0-.19-.32-.08-.46.77-.98,1.48-1.63.84-2.49-.18-.24-.6-.29-1.02-.06-.54.29-1,1.27-1.54,2.15-.16-.09-.04-.33.18-.64.06-.09.13-.18.2-.27.5-.66,1.18-1.47.72-1.78-.12-.08-.26-.12-.4-.1-.87.07-2.13,1.79-3.48,4.46-.23.44-.45.91-.68,1.41-.61,1.31-1.23,2.79-1.84,4.37-.04.08-.06.15-.02.31.19.19.21.8.1,1.51-.02.14-.05.28-.08.43-.22,1.02-.67,2.1-1.23,2.44-.82-.14-1.4-1.57-1.4-2.21,0-.59,1.2-1.62,1.51-2.04.35-.28.47-.16.69.13-.18-1.01-.62-1.64-1.43-1.28l-.85.41c.06-.35-.83-.59-1.54-.08-1.01.72-1.26.85-1.93,1.07-.1.07-.16.17-.17.32.21,1.41.14,2.6-.22,2.66-1.15-.66-.32-2.75.2-3.26.04-.16.01-.23-.02-.31-2.42-6.32-5.09-11.02-6.4-10.14-.77.52,1.62,2.42,1.09,2.7-.55-.88-1.01-1.86-1.55-2.15-.42-.23-.84-.18-1.02.06-.65.87.07,1.52.84,2.5.11.15.17.46-.08.46-.12-.14-.19-.25-.41-.26-1.26-.09-2.36.89-1.09,3.13-.76.91-.61,2.18.45,3.64-.85.81-1.13,2.28.48,3.36-.73,1.25-.63,2.17,1.05,3.13-.5.3-.8,1.52,1.42,2.07-1.52.1-.66,2.18.49,2.15-1.08.24-.27,1.17.76,1.06.42-.04.15.98.21,1.51.08.7.83,1.33,1.46.77.15.1.15.22,0,.35-.75.55-1.05.83-1.25,1.22h0ZM46.29,105.93c.24.21.47.42.52.48.03.03.06.07.09.11.06.06.12.13.15.19.02.04.03.07.03.11,0,.04-.02.08-.06.11-.1.08-.21.12-.33.12-.11,0-.23-.03-.38-.09-.48-.21-.9-.81-.91-.84l-.35-.74.14.06s.05.02.12.02c.05,0,.09,0,.14-.02l.21-.06.02.02s.33.28.62.53h0ZM46.15,99.98v.05s-.04.02-.04.02c-.02,0-.03.01-.05.02-.03.01-.05.02-.09.02-.03,0-.07,0-.15-.02-.34-.16-.79-.25-1.12-.31-.32-.06-.43-.08-.45-.15-.01-.02,0-.05,0-.07,0-.02.05-.1.45-.1.44,0,1.31.11,1.43.54h0ZM45.85,99.06v-.03h.03s.1-.05.16-.05c.18,0,.35.12.41.24l.02.05-.04.03c-.07.04-.18.07-.27.07-.1,0-.18-.03-.24-.08-.05-.05-.07-.12-.07-.21h0ZM45.52,100.58v.2h-.05c-.26,0-.4-.15-.52-.29-.09-.1-.18-.2-.32-.24l-.16-.04.15-.07c.07-.03.12-.04.2-.04.15,0,.25.06.35.13.03.02.06.04.1.06l.04.02c.1.05.22.12.22.26h0ZM44.41,100.7c.11.04.23.11.33.21.18.2.18.27.16.34,0,.05-.03.22-.13.26h-.04s-.04-.03-.04-.03l-.51-.58s-.1-.18-.1-.19l-.04-.09h.1s.13.03.28.09h0ZM44.68,102.54l.03-.03.25.14.19.32s.24.46.36.78c0,0,0,0,0,0,.02.06.06.14.09.24.09.28.18.68.08.99-.07.21-.17.26-.25.26-.04,0-.07-.01-.08-.02l-.37-.07-.29-.24s-.21-.18-.28-1.19c-.06-.88.26-1.18.27-1.2h0ZM44.69,105.96s.01-.07.03-.1c.01-.02.03-.02.04-.01h0s.03.03.05.05c0,0,0,0,0,.01.02.03.04.06.06.1,0,0,0,.01.01.02.02.04.05.09.08.13,0,.01.01.03.02.04,0,0,0,0,0,.01.02.04.04.08.07.12.01.03.03.05.04.08.01.02.03.05.04.07.02.03.03.05.05.08.01.02.02.03.03.05.03.04.05.06.08.08.01.07,0,.26,0,.29,0,.02-.02.02-.04.02h-.01s-.04-.02-.06-.03c0,0,0,0-.01-.01-.02-.02-.05-.04-.08-.07h0s-.06-.08-.09-.12c0,0-.01-.02-.02-.02-.03-.04-.06-.09-.09-.13,0,0,0,0,0-.01-.03-.05-.06-.1-.08-.14,0,0,0-.01,0-.02-.03-.05-.05-.1-.07-.15,0,0,0-.02,0-.02-.02-.05-.03-.1-.04-.15,0-.04,0-.08,0-.12,0,0,0-.02,0-.02h0ZM47.2,104.46c-.03.13-.22.34-.44.44-.05.02-.1.03-.15.03-.14,0-.24-.1-.34-.18-.02-.02-.03-.03-.05-.05-.11-.1-.26-.51-.4-.92-.02-.06-.04-.11-.05-.14-.05-.14-.3-.57-.47-.86-.08-.14-.15-.25-.17-.3-.07-.15-.04-.22,0-.32l.02-.04c.05-.13.43-.4.5-.45.02,0,.06-.02.12-.02.07,0,.2.03.28.2.04.09.3.39.4.5.08.09.47.61.53.7.06.09.21.53.24.67.03.15.01.61-.02.73h0ZM48.8,101.91l.02.02v.02c-.01.06-.1.14-.48.14-.14,0-.3-.01-.49-.03-.12-.01-.23-.02-.35-.02-.6,0-.92.18-.95.2h0l-.03-.05-.03-.05h0c.56-.35,1.07-.52,1.51-.52.55,0,.79.27.8.28h0ZM48.94,100.15c-.08,0-.15,0-.2,0h-.15c-.17,0-.29.01-1.1.16-.66.12-1.47.41-1.48.41l-.04-.1c1.6-.7,1.63-.69,1.83-.67.03,0,.06,0,.1,0h.03c.77-.02,1.02.09,1.03.09l-.02.11h0ZM49.14,98.67c0,.08-.12.21-.95.23-.84.01-1.25.32-1.27.34l-.04-.04-.04-.04h0c.6-.48,1.14-.72,1.62-.72.42,0,.63.19.64.19l.02.02v.02h0ZM50.15,97.44c-.13-.02-.26-.03-.39-.03-.58,0-1.21.17-2.24.61l-.05-.1c1.07-.74,1.94-.93,2.72-.59l-.03.11h0ZM51.33,94.72c-.12-.08-.25-.12-.42-.12-.61,0-1.48.52-2.41,1.07-.22.13-.45.26-.67.39l-.06-.09c1.54-1.23,2.55-1.94,3.13-1.94.32,0,.49.21.52.64v.11s-.09-.06-.09-.06h0ZM51.9,91.26c-.1-.09-.22-.13-.36-.13-.57,0-1.39.71-2.19,1.41-.79.68-1.53,1.33-2.06,1.33-.03,0-.06,0-.08,0l-.13-.02.11-.08c.64-.49,1.23-1.07,1.74-1.59.83-.83,1.54-1.54,2.18-1.54.33,0,.61.18.87.56l-.08.07h0ZM52.11,87.26l.13.1h-.16c-.41.02-1.32,1.12-2.2,2.19-.83,1.01-1.69,2.05-2.31,2.43l-.07-.09c.91-.99,1.66-1.93,2.27-2.68.99-1.22,1.64-2.03,2.1-2.03.09,0,.16.03.24.08h0ZM51.4,81.75c.12,0,.28.05.37.27l.05.12-.12-.04s-.08-.02-.12-.02c-.44,0-1.09.68-1.95,1.71l-.1-.05c.21-.76,1.27-1.97,1.87-1.97h0ZM48.59,85.18s.01-.1.02-.17c.02-.26.06-.65.13-.83.16-.4.53-.56.64-.6l.14-.05-.07.13c-.31.56-.35.8-.41,1.18-.02.15-.05.32-.1.54-.08.33-.8,1.3-1.19,1.82-.06.09-.12.16-.15.2l-.09-.06c.26-.4,1.02-1.64,1.09-2.16h0ZM48.5,87.78c1.25-1.87,2.33-3.49,2.99-3.49.1,0,.18.03.26.1l.1.08-.12.02c-.66.09-1.82,1.82-2.95,3.49-.98,1.46-1.91,2.84-2.53,3.18l-.07-.08c.79-.99,1.57-2.16,2.33-3.29h0ZM45.95,93.37s.02.08-.01.14c-.1.18-.52.49-.7.49-.06,0-.1-.03-.11-.06-.02-.03-.03-.09.02-.18.11-.18.48-.45.68-.45.07,0,.11.03.13.06h0ZM45.57,92.6s.08.03.1.07c.05.12.04.23-.03.33-.1.15-.31.22-.43.22h-.02c-.06,0-.1-.05-.1-.11,0-.15.31-.51.47-.51ZM44.97,94.54c.12-.19.58-.44.82-.44.1,0,.14.04.16.08.01.02.02.07-.02.12-.11.17-.62.47-.85.47-.09,0-.12-.04-.14-.07-.02-.03-.02-.09.02-.16h0ZM45.94,94.68l-.08.13c-.08.13-.15.22-.31.27l-.11.03.05-.11c.08-.17.16-.22.31-.27l.15-.05h0ZM45.02,96.06c.29-.34,1.13-.8,1.29-.8.07,0,.08.14.08.16,0,.19-.11.63-1.32.73h-.13s.09-.09.09-.09h0ZM44.77,96.93s.63-.27.9-.41c.04-.02.09-.05.14-.08.2-.11.43-.24.59-.22h.04s0,.05,0,.05c.04.25-.18.36-.39.47l-.05.03c-.22.11-.85.28-1.11.28-.05,0-.09,0-.12-.02l-.11-.05.11-.05h0ZM44.66,97.64s.66-.21.94-.32c.05-.02.1-.04.15-.06.21-.09.46-.19.6-.16h.05s0,.06,0,.06c-.03.27-.26.36-.48.44l-.05.02c-.2.08-.69.16-.97.16-.17,0-.22-.03-.25-.05l-.07-.06.09-.03h0ZM44.06,98.54c.67-.16,1.19-.33,1.56-.45.36-.12.6-.19.75-.19.1,0,.17.04.19.12h0s0,.03,0,.03c-.11.55-.84.61-1.28.66-.1,0-.23.01-.37.01-.3,0-.79-.02-.88-.07l-.12-.07.14-.03h0ZM43.54,101.03l.06-.02c.09,0,.51.24.56.32.05.07.12.18.08.32,0,.03-.01.04-.01.05v.04s-.09,0-.09,0h0s-.11.01-.17.01c-.04,0-.08,0-.11-.02-.01,0-.02,0-.03,0-.05,0-.08-.03-.11-.1-.04-.07-.09-.23-.13-.35l-.05-.16v-.11ZM44.36,106.42s.02-.04.03-.06l.09-.06c.09.09.26.38.54.62.13.11.43.25.43.42,0,.02-.07.08-.19.15l-1.56.73c-.04-.05-.09-.09-.14-.11-.01,0-.03-.02-.04-.02h0s-.01,0-.02-.01c0-.04,0-.07-.01-.11l.87-1.54h0ZM43.52,108.29s0,0,0,0c.01.02.03.03.04.04.06.12.09.32.01.56-.06.19-.19.4-.42.6.1-.12.18-.31.22-.52.06-.33-.02-.69-.37-.82.16-.1.39-.03.52.13h0ZM35.98,107.09s-.02-.22,0-.29c.21-.16.51-.99.6-.83.2.34-.52,1.29-.6,1.12ZM35.84,105.27c-.22,0-.41-.17-.41-.39,0-.72.81-2.2,1.08-2.17.18.02.2.73.2.97,0,.71-.16,1.6-.87,1.6h0ZM37.24,109.4c.02.11.06.23.14.36-.13-.12-.21-.24-.27-.37-.09-.2-.1-.4-.01-.57.03-.05.06-.11.1-.15.04-.04.09-.08.14-.11.16-.1.34-.13.55-.05-.47.12-.74.44-.64.9h0ZM39.19,110s-.02.07-.04.11c0-.05,0-.08.01-.13.06-.46-.02-.78-.15-1.04-.15-.33-.41-.29-.35-.45.14-.34.34-.07.49.16.21.3.25.75.04,1.35h0ZM40.24,109.95c-.07.11-.16.21-.28.32.06-.07.11-.17.16-.28.14-.37.14-.89-.31-1.05.18-.11.45-.02.56.18.09.16.11.49-.13.84h0ZM40.8,108.86c-.11.13-.2.28-.3.44-.02-.31-.15-.45-.29-.52h-.03c-.18-.2-.45-.38-.8-.52.13-.32.37-.61.7-.88h.18c.29.37.58.61.85.75-.1.06-.18.14-.25.24-.1.15-.12.32-.07.49h0ZM41.48,108.25c-.08.04-.14.08-.2.14-.25.23-.31.58-.06,1.03-.23-.22-.34-.46-.34-.67,0-.15.05-.3.16-.42.06-.06.13-.11.2-.14.14-.07.3-.09.48-.02-.09.02-.17.05-.24.09h0ZM42.73,109.24c-.03.18-.08.37-.16.59.04-.21.04-.38.03-.53-.01-.21-.06-.38-.12-.54-.01-.03-.02-.06-.04-.1-.15-.33-.41-.29-.35-.45.11-.28.26-.15.39.03.03.04.06.09.09.13.15.21.21.5.16.87h0ZM42.47,103.54c.06.08-.26.63-.26.94,0,.94-.44,1.73-.17,2.02.38.41.67,1.05.01,1.05-.72,0-1.27-1.08-1.27-1.81,0-1.12.02-2.08.29-2.76.64.03,1.08.16,1.4.54h0ZM41.14,90.96c.09-.05.16-.06.26-.06.14,0,.17.06.23.18.29-.16.41-.38.74-.38.08,0,.32,0,.32.08,0,.13-.17.1-.28.17-.11.06-.86.51-1.1.79-.32-.26-.24-.71-.17-.77h0ZM37.79,92.18c-.03-.09.01-.11.1-.22.59-.16,2.27-1.7,2.86-1.16l.02.27c-.16.26-1.44.28-1.21.99.72.06,1.07-.1,1.04-.5.07-.06.13-.05.18.04.05,2-2.17.85-2.34.86-.13.03-.16.09-.14.19.06.28.82.53,1.07,1.03.24.47.59.46.84.93.11.21.03,1.98.01,2.3-.04.59,1.05.64,1.03.98l.03,1.57c.05,1.54-.81,2.32-2.01,3.18-.33.24.02.49-.31,2.05-.11.52-.44,1.77-.51,2.03-.06.23.5.35.39.61-.09.21-.35.58-.69.49-.38-.59-.87-1.8-.83-3.43.03-1.22.33-2.09.29-3.19-.03-1.01-.33-2.21-.43-3.47-.06-.74,1.13-3.61.59-5.54h0ZM37.87,108.16c-.06,0-.19.04-.27.16l-1.58-.75c.4-.28.71-.63.92-1.05l.93,1.64h0ZM36.74,102.17s-.16-.6.18-.5c.33.1-.03.36-.18.5ZM36.87,95.9c0,.07-.07.02-.16-.05-.49-.42-.69-1.28-.42-2.11-.16.95.07,1.5.58,2.16h0ZM36.31,92.77c-.02.55-.5,1.77-.54,2.59-.02.43.27.84.47,1.14-.22.16-.4-.36-.65-.36-.1,0-.16.17-.16.27,0,.19.11.34.29.42.32.13,1.1.09.84.3-.15.12-.76-.16-.84-.18-.22-.04-.3.33-.05.49.14.09.26.08.43.09.03.01.05.11.01.12-.28.13-.45.1-.45.41,0,.22.15.31.33.41-.17.06-.45.2-.44.47,0,.31.5.33.67.37-.19.11-.35.22-.35.48,0,.17.22.29.39.29-.19.32-.23.54.27.5-.3.61.31.58.42.34,0,.46-.66,1.05-.93.67-.2-.29.32-.55.13-.78-.22-.27-.39.41-.66.41-.14,0-.35-.16-.35-.3,0-.41.73-.3.73-.71,0-.08-.03-.13-.11-.13-.27,0-.26.25-.53.25-.21,0-.36-.03-.36-.25,0-.41.64-.27.59-.67-.09-.65-1.15-.58-1.15-1.24,0-.1.1-.14.2-.14.28,0,.35.37.63.37.08,0,.14-.05.14-.13,0-.49-.86-.47-.83-.96.02-.25.77.55.82.06.02-.2-.86-.47-.8-.91.02-.17.81.56.84.1-.07-.19-.68-.57-.57-.98.04-.14.49.62.67.47.04-.04-.61-.82-.52-1.04.12-.28.35.37.63.44.04.01.13-.13.08-.24-.13-.26-.56-.61-.44-.9.05-.13.46.51.52.3.06-.19-.56-.7-.47-1.05.06-.21.27-.12.28.05,0,.24.18.2.25.15.05-.03.08-.08.08-.14-.02-.23-.24-.31-.23-.54.01-.5.35-.35.63-.5.07-.04.13.09.12.17h0ZM34.76,99.47c-.16,0-.29-.4-.29-.42,0-.12.38.07.5.14.16.08-.11.28-.21.28h0ZM31.28,81.69c-.36-.61.2-.68.54-.46.1.08.31.34.42.49-.32.18-.04.51.93,1.91-.22-.09-.28-.13-.42-.01l-1.46-1.93h0ZM31.46,84.66c0,.15-.02.27-.15.35-.09.06-.2.08-.2.18,0,.2,1.47,2.61,1.56,2.79.22.44,2.83,4.02,2.99,3.94.1-.04.05-1.2-.9-3.2-.09-.18-1.54-2.78-1.85-3.29-.15-.25-.4-.7-.4-.99,0-.12.17-.52.44-.52.13,0,.29.05.29.18s-.17.15-.22.27c-.29.69,1.74,2.99,2.72,6.64.06.24.14.8.12.93-.01.14-.03.43-.14.51-.35-.36-2.98-3.59-3.95-5.31-.17-.31-1.05-1.73-1.05-2.08,0-.27.14-.55.41-.57.15-.01.31.11.31.16h0ZM30.41,83.63c-.49-.49-.81-.79-.81-1.47,0-.28.14-.47.42-.47.32,0,.59.11.59.43,0,.26-.21.31-.21.57,0,.61.7.85.89,1.43-.11.04-.3-.07-.43.08-.02.02-.29-.39-.46-.56h0ZM29.02,84.91c.49-.49,1.28-.3,1.19.3-.24.23-.46.75.06,1.52l4.01,5.52-2.97-3.79c-.65-1.03-1.32-1.34-1.74-1.06-.88-1.02-1.06-1.99-.55-2.51h0ZM29.09,87.96c.12-.22.94-.33,1.04-.33.19,0,.55.15.51.34-.18.92-1,.36-1,.81,0,.09.45.52.86,1.27.16.3,2.98,3.21,3.18,3.57l-.04-.02c-.26-.23-1.44-1.24-1.63-1.45-.76-.84-1.08-1.46-1.67-1.12-.11.07-2.17-1.32-1.25-3.07h0ZM29.12,92.73c0-.39.07-.96.34-1.23.41-.41.91-.27,1.13-.35.2-.08.56.17.56.35,0,.15-.11.43-.22.53-.2.18-.55.19-.55.47,0,.73,1.63,2.08,1.98,2.35.41.32.54.47.62.71-.03,0-.21-.11-.3-.17-.19-.13-.31-.2-.47-.36-.43-.43-1.3-1.07-1.85-.71-.8-.49-1.24-1.35-1.24-1.6h0ZM30.41,96.85c-.28-.34-.62-.8-.62-1.24,0-.41.32-.85.65-1.05.29-.18.62-.22.88,0,.08.07.17.11.17.21,0,.35-.63.6-.63.95,0,.39.35.75.65.99.55.45,1.07.31,1.61.78.18.16.32.21.41.44-.34-.03-.47-.21-.75-.4-.36-.24-.58-.4-1-.31-.21.04-.28.12-.37.09-.39-.12-.77-.2-1-.47h0ZM32.16,99.25c-.57-.4-1.33-.39-1.35-1.1-.02-.58,1.01-.51,1.01-.34l-.12.41c0,.49.63.45,1.01.77.18.16.78.69,1.03.8.16.07.34.1.49.19-.02.01-.23.03-.29.02-.35-.02-1.48-.56-1.77-.76h0ZM31.91,100.29c.1-.15.54.37.54.37,0,0,.23.04.72.38.49.33,1.21.41,1.21.41,0,0-.55.32-1.46-.02-1.65-.61-1.1-.99-1-1.14h0ZM33.78,102.56c-1.25-.03-1.19-.44-1.15-.57.03-.13.33,0,.33,0,0,0,.09.26.5.37.41.11.91,0,.91,0,0,0,.11.22-.59.21h0ZM35.23,103.99c-.18.51-.35.9-.76.9-.35,0-.54-.4-.51-.72.03-.54.11-1,.94-1.81.13-.11.38-.51.55-.56.24-.07.6.33.64.58.04.3-.54.69-.86,1.61h0ZM35.52,105.62c.12.05.3.11.45.05-.17.63-.59,1.2-1.07,1.46-.44.18-.65.09-.61-.11.13-.51.98-1.09,1.23-1.41Z"/>
        <path class="cls-1" d="M9.25,123.56c1.04-.37,1.69-1.25,1.69-2.35,0-1.65-1.29-2.71-3.28-2.71H.05v10.46h7.7c2.08,0,3.42-1.13,3.42-2.86,0-1.19-.77-2.19-1.92-2.53ZM1.17,119.54h6.38c1.37,0,2.22.68,2.22,1.79s-.85,1.77-2.22,1.77H1.17v-3.56ZM7.63,127.92H1.17v-3.8h6.46c1.53,0,2.37.68,2.37,1.91s-.84,1.89-2.37,1.89h0Z"/>
        <polygon class="cls-1" points="13.73 124.13 18 124.13 18 123.08 13.73 123.08 13.73 119.54 22.22 119.54 22.22 118.51 12.61 118.51 12.61 128.96 22.41 128.96 22.41 127.92 13.73 127.92 13.73 124.13"/>
        <path class="cls-1" d="M34.33,121.62c0-1.95-1.36-3.11-3.65-3.11h-6.25v10.46h1.12v-4.22h4.03l3.54,4.19.03.03h1.47l-3.66-4.25c2.17-.16,3.36-1.25,3.36-3.1h0ZM25.55,123.7v-4.16h5.12c1.63,0,2.5.72,2.5,2.08s-.86,2.08-2.5,2.08h-5.12Z"/>
        <polygon class="cls-1" points="35.25 119.55 39.9 119.55 39.9 128.96 41.02 128.96 41.02 119.55 45.84 119.55 45.84 118.51 35.25 118.51 35.25 119.55"/>
        <path class="cls-1" d="M56.9,121.62c0-1.95-1.36-3.11-3.65-3.11h-6.25v10.46h1.12v-4.22h4.03l3.54,4.19.03.03h1.47l-3.66-4.25c2.17-.16,3.36-1.25,3.36-3.1h0ZM48.12,123.7v-4.16h5.12c1.63,0,2.5.72,2.5,2.08s-.86,2.08-2.5,2.08h-5.12Z"/>
        <path class="cls-1" d="M63.9,118.51h-1.22l-4.82,10.46h1.23l1.13-2.51h6.13l1.13,2.51h1.25l-4.81-10.4-.02-.05h0ZM60.69,125.44l2.6-5.75,2.6,5.75h-5.2Z"/>
        <polygon class="cls-1" points="75.55 127 71.59 118.51 70.11 118.51 70.11 128.96 71.2 128.96 71.2 120.13 75.3 128.96 75.79 128.96 79.9 120.13 79.9 128.96 80.99 128.96 80.99 118.51 79.5 118.51 75.55 127"/>
      </g>
      <path class="cls-1" d="M33.61,4.78l-.49-1.57.38-.12c.42-.13.75.03.88.42l.05.18c.16.52-.09.85-.83,1.09ZM31.74,42.35l-.37-.19-.67,1.35c.71.35,1.13.27,1.39-.25.21-.41.1-.69-.35-.91ZM28.16,10.14c.48-.39.51-.72.11-1.22l-1.3-1.61c-.29-.36-.65-.4-1.01-.11l-.32.26,2.3,2.86.22-.17ZM45.88,6.47c.36.1.71-.06.8-.38l.71-2.46c.09-.32-.12-.64-.48-.75s-.71.06-.8.38l-.71,2.46c-.09.32.12.64.48.75ZM30.96,44.37c-.19-.05-.39-.12-.59-.22l-.66,1.31.43.21c.45.22.74.13.96-.31l.05-.1c.19-.38.12-.68-.19-.89ZM33.99,46.53c.2-.07.39-.09.56-.05.16.05.32.16.47.34l.14-1.75.13-1.15h-.04s-.48,1.04-.48,1.04l-.78,1.56ZM65.6,25.08c0,13.83-11.25,25.08-25.08,25.08s-25.08-11.25-25.08-25.08S26.69,0,40.52,0s25.08,11.25,25.08,25.08ZM18.2,23.82h-.2l-.38.39v2.97h.58v-3.36ZM20.98,24.39l-.62-.61h-.76l-.62.61v.92l.62.61h.54l.25-.27v.68c0,.24-.15.38-.38.38s-.38-.15-.38-.38v-.21h-.57v.47l.62.61h.69l.62-.61v-2.21ZM55.05,6.21l-4.06,3.36.63.51c.43-.3.91-.36,1.16-.15.25.2.28.68.09,1.17l.66.54,2.47-4.66-.94-.76ZM50.31,3.32l-2.42,4.57.77.41,1.49-2.82.06-.13.03.02-.05.23-.45,3.28.83.44,2.42-4.57-.76-.4-1.57,2.97-.03-.02.06-.22.48-3.29-.86-.46ZM44.41,5.88l.65,1.16,1.2.35,1.17-.64.94-3.26-.65-1.16-1.2-.35-1.17.64-.94,3.26ZM40.42,6.39l.89.07.15-2.08c.1-.19.34-.28.63-.26.28.02.51.15.59.35l-.15,2.09.89.07.38-5.16-.89-.07-.16,2.19c-.19-.12-.4-.2-.6-.21-.2-.01-.42.03-.63.13l.16-2.2-.89-.07-.38,5.16ZM36.36,1.59l.08.72.99-.11.5,4.42.89-.1-.5-4.42.99-.11-.08-.72-2.87.33ZM32.05,2.77l1.53,4.94.86-.27-.61-1.97.1-.03c.74-.23,1.25.27,1.68,1.64l.86-.27c-.36-1.15-.87-1.83-1.56-2.04.41-.44.51-1.02.28-1.77l-.07-.21-1.17-.62-1.9.59ZM28.26,4.63l2.43,4.56,2.27-1.21-.36-.68-1.48.79-.66-1.24c.16-.25.54-.5,1.11-.77l-.36-.67c-.5.23-.94.53-1.12.76l-.69-1.3,1.42-.76-.36-.67-2.21,1.18ZM24.47,7.43l3.24,4.03.9-.73c.89-.72.98-1.62.26-2.53l-1.52-1.9-1.31-.14-1.56,1.26ZM31.9,44.38c.48-.13.88-.49,1.17-1.07l.03-.06-.42-1.25-1.79-.9-2.31,4.62,1.87.94,1.24-.42.5-1-.29-.86ZM36.12,43.21l-1.17-.32-2.38,4.71.78.22c.28-.44.69-.69,1-.6.3.08.53.51.55,1.03l.82.23.4-5.25ZM40.33,44.66l-.85-1.01-1.02-.08-1.01.85-.08.92,1.6,1.63c.18.18.28.4.26.59-.03.38-.26.57-.63.54-.38-.03-.57-.26-.54-.63l.04-.53-.89-.07-.08.95.85,1.01,1.09.09,1.01-.85.09-1.12-1.61-1.65c-.16-.17-.26-.35-.25-.49.03-.31.24-.47.59-.44.35.03.52.25.49.63l-.03.35.89.07.06-.75ZM44.69,48.58c-.13-1.23-.62-2.11-1.32-2.51l.74-2.63-.89.1-.63,2.3c-.11-.01-.23-.01-.35,0l-.24-2.16-.89.1.56,5.14.89-.1-.24-2.23c.79-.06,1.31.69,1.46,2.09l.9-.1ZM48.83,47.44l-.23-.74-1.6.49-.41-1.34c.21-.22.62-.39,1.24-.54l-.22-.72c-.53.13-1.03.34-1.24.54l-.43-1.41,1.53-.47-.22-.72-2.39.74,1.52,4.94,2.46-.76ZM51.81,46.05l-2.04-3.95.89-.46-.33-.65-2.57,1.32.33.65.89-.46,2.04,3.95.8-.41ZM57.88,25.08c0-9.57-7.79-17.36-17.36-17.36s-17.36,7.79-17.36,17.36,7.79,17.36,17.36,17.36,17.36-7.79,17.36-17.36ZM61.48,25.44l-.62-.61h-.56l-.23.24v-.74h1.33v-.51h-1.93v1.89h.59v-.02c0-.21.19-.37.43-.37s.38.15.38.39v.62c0,.22-.17.38-.41.38s-.41-.17-.41-.38v-.26h-.59v.54l.62.61h.76l.62-.61v-1.16ZM64.19,26.6v-1.16l-.62-.61h-.56l-.23.24v-.74h1.33v-.51h-1.93v1.89h.59v-.02c0-.21.19-.37.43-.37s.38.15.38.39v.62c0,.22-.17.38-.41.38s-.41-.17-.41-.38v-.26h-.59v.54l.62.61h.76l.62-.61ZM53.53,9.86l.83-1.55.58-1-.03-.02-.86.77-1.34,1.12c.22.02.4.07.53.18.13.11.23.28.29.5ZM19.98,24.29c-.24,0-.41.17-.41.38v.38c0,.24.15.39.38.39s.43-.17.43-.39v-.38c0-.22-.17-.38-.41-.38ZM35.7,12.96s-.43.67-1.15.47c-.03.75-.81.95-.81.95,0,0-.77-.2-.8-.95-.73.2-1.15-.47-1.15-.47,0,0-.05-.8.66-1.06-.42-.63.09-1.24.09-1.24,0,0,.74-.29,1.21.3.47-.59,1.21-.3,1.21-.3,0,0,.51.61.09,1.24.71.26.66,1.06.66,1.06ZM34.05,12.44l.3-.3-.41-.07-.19-.37-.19.37-.41.07.3.3-.06.41.37-.19.38.19-.06-.41ZM39.88,37.8s0,0,0,0M31.25,22.27s.07-.7.07-2.05.05-1.93.05-1.93l-.07.02c-.06.02-.13.02-.19.03h-.04s-.06.65-.07,1.73-.1,2.09-.1,2.09h.04c.08.04.16.07.25.1l.06.02ZM29.31,28.31c.09.11.19.14.19.14.05-.05.11-.11.14-.15v-.02s.04-.02.05-.04l.04-.05s.04-.05.05-.06c.02-.02.04-.05.07-.09l.17-.27.11-.22c.07-.12.13-.27.19-.41.02-.06.05-.11.07-.17l.07-.2c.04-.11.08-.23.11-.33l.15-.53c.05-.22.11-.44.15-.68v-.06s-.39,0-.39,0v.04c-.09.37-.19.72-.29,1.05-.01.04-.03.1-.05.15,0,.02-.02.05-.02.06-.01.03-.03.07-.04.12-.04.11-.09.24-.13.32l-.04.08c-.04.08-.09.19-.11.24-.02.03-.05.09-.08.15-.03.06-.07.12-.09.16l-.13.19-.03.05s-.04.06-.07.09c-.02.03-.05.06-.07.09-.03.03-.08.08-.11.12-.01.01-.03.02-.04.04,0,0,.02.09.11.2ZM32.17,14.86l.02-.05c.2-.43.4-.77.61-1.04,0,0-.02-.05-.07-.09s-.1-.05-.1-.05c-.1.12-.19.25-.26.35-.13.2-.27.44-.41.73l-.03.05.06.02s.08.03.12.05l.05.02ZM40.26,12.93h-.05s0,0,0,0c.01,0,.03,0,.05,0h0ZM37.67,18.64s-.09-.02-.14-.03c-2.14-.42-4-1.61-5.28-3.27,0,0,0,0,0,0-.01-.02-.02-.03-.03-.04-.11-.14-.28-.22-.47-.22-.32,0-.58.24-.61.55-.05-.01-.1-.02-.15-.02-.32,0-.59.25-.61.56,0,.02,0,.03,0,.05,0,.18.08.35.2.46-.17.14-.28.35-.28.59,0,.42.34.76.76.76.24,0,.45-.11.59-.28,1.26,1.31,2.81,2.35,4.54,3,.28.1.42.13.7.21h0c.15-.11.29-.23.42-.36.42-.38.79-.82,1.09-1.31,0-.01.02-.03.03-.04.03-.05.06-.09.08-.14.07-.11.13-.23.19-.35-.34-.02-.71-.06-1.04-.12ZM38.51,16.17c.69,0,1.19-.33,1.67-.33s.82.15.82.15c0,0-.13-.57-.71-.57-.42,0-.81.15-1.5.15-.61,0-.9-.39-.9-.76s.1-.54.1-.54c0,0-.61.22-.61.98,0,.47.45.92,1.13.92ZM49.44,26.42s0-.02,0-.03c-.02,0-.03,0-.05,0,.02.01.03.02.05.03ZM40.73,31.37c-.05-.1-.1-.19-.16-.28.06.09.11.18.16.28ZM43.52,23.7h0s0,0,0,0c0,0,0,0,0,0ZM43.52,23.71s0,0,0,0h0s0,0,0,0h0ZM51.91,24.52c-.09.22-.23.42-.41.57-.02.02-.04.03-.06.05-.23.16-.5.26-.8.26-.23,0-.44-.05-.63-.15-.34.25-.57.65-.57,1.11v.04s-.03,0-.05,0c-.52-.37-.87-.99-.87-1.68,0-.1,0-.2.02-.3-.02,0-.04,0-.07,0-.43,0-.78-.35-.78-.78,0-.12.03-.23.08-.33.13.12.31.19.5.19.31,0,.58-.2.69-.47.03-.08.05-.17.05-.27,0-.35-.23-.72-.68-.72s-1.17.48-1.17,1.91c0,1.14.44,1.9.73,2.64.56,1.45,1.42,2.66,1.68,4.32.05.31.08.63.08.97v.08c0,.88-.39,1.67-1.02,2.2-.51.43-1.16.69-1.88.69-.22,0-.44-.03-.64-.07-.08.37-.13.76-.13,1.16,0,.31.03.62.08.92-.81.56-1.46,1.33-1.87,2.24-.14.31-.25.64-.32.98-.05.2-.08.41-.1.62h-4.6c.07-.32.2-.61.36-.88-.1,0-.2-.02-.31-.02-.28,0-.55.04-.81.11.42-.75,1.15-1.31,2.01-1.5.22-.05.44-.08.68-.08.18,0,.36.02.53.05h0c.32.06.62.16.9.31.17-.59.21-1.19.21-1.54,0-2.39-.88-3.2-1.91-3.2s-1.91.8-1.91,3.2l-2.06-1.43-3.69-2.58c.11-.08.21-.19.28-.3.02-.02.03-.05.04-.07.1-.18.17-.38.18-.6,0-.02,0-.04,0-.07,0-.34-.13-.65-.34-.88-.01-.02-.03-.03-.04-.04-.17-.18-.39-.3-.64-.36.15-.22.37-.4.63-.5-.07-.17-.18-.32-.32-.45-.03-.03-.06-.05-.09-.08.15-.11.32-.19.51-.24.09-.02.19-.03.29-.03-.02-.04-.04-.07-.06-.11-.1-.16-.24-.3-.4-.4.22-.09.47-.14.72-.14.22,0,.43.03.62.1.04.01.08.03.12.04.43.22.8.56,1.04.98.21.37.34.8.34,1.25,0,.25-.04.5-.11.73l1.47,1.03c-.28-.31-.44-.71-.44-1.16,0-.89.67-1.62,1.53-1.72,0,0,0,0,0,0,.05,0,.11,0,.17,0h.06c.77,0,1.45.39,1.86.98-.54-.87-.95-1.11-2.73-2.15-1.78-1.04-2.6-2.4-2.85-3.27.37-.09.76-.13,1.16-.13,1.41,0,2.68.57,3.61,1.49.14.15.28.3.41.46,1.16-.45,2.95-2.49,3.31-3.33,0,.05-.08.52-.08,1.53,0,2.87,2.3,7.24,3.66,7.24.99,0,1.17-.57,1.17-1.14,0-.06,0-.13,0-.19-.03-.85-.22-1.64-.48-2.39-.64-1.83-1.71-3.43-1.74-5.28v-.08c0-.49.12-.95.34-1.36.19-.35.44-.66.75-.91.49-.39.94-.63,1.8-.63.91,0,1.9.92,1.9,2,0,.66.39,1.32.93,1.5.07.02.13.04.2.05ZM36.15,24.87h-5.82c-.34,0-.62-.28-.62-.62,0-.06,0-.11.02-.17-.3-.08-.52-.35-.52-.68,0-.29.17-.54.42-.64-.02-.06-.02-.12-.02-.19,0-.22.09-.42.23-.56.43.24.89.43,1.37.58.62.19,1.29.29,1.97.29s1.28-.09,1.88-.26c.95-.27,1.81-.74,2.55-1.36.02-.02.05-.04.07-.06.4-.35.76-.74,1.07-1.16.1-.14.2-.29.29-.44.08-.13.16-.27.23-.41.07-.13.14-.27.2-.41,0,0,2.93.13,4.28-1.76-1.11.86-2.59,1.09-4.06,1.2.06-.16.11-.33.15-.5.02-.08.04-.16.06-.24.06-.28.1-.56.13-.85.01-.15.02-.3.03-.45.24.14.53.23.83.23,0,0,.01,0,.02,0,.22,0,.42-.09.58-.25.24-.25.41-.58.45-.94,0,0,0,0,0,0,0,0,0-.01,0-.02-.06-.05-.13-.09-.2-.13-.09-.05-.19-.09-.29-.12-.15-.05-.31-.07-.48-.07-.36,0-.69.11-.95.31-.06-.52-.18-1.02-.36-1.5-.02-.05-.04-.1-.06-.15-.04-.11-.09-.22-.13-.32-.02-.06-.05-.11-.08-.17.27-.07.55-.11.84-.11.01,0,.03,0,.05,0,.3,0,.58.04.86.11.13.03.26.07.38.12,0,0,.02,0,.03.01.13.05.26.08.4.1.08.01.16.02.24.02.01,0,.02,0,.03,0,.26,0,.52-.05.75-.15.13-.06.26-.13.38-.21.07-.05.14-.11.2-.17-.14-.1-.3-.17-.48-.19-.04,0-.09,0-.13,0-.21,0-.41.06-.57.17,0,0,0,0,0,0-.03.02-.07.04-.11.06-.11.05-.23.08-.35.08-.23,0-.43-.09-.58-.24.26-.44.7-.77,1.22-.88.05-.01.09-.02.14-.03.09-.01.18-.02.27-.02h3.64c-.1.42-.23.83-.4,1.22h1.37c-.18,1.05-.53,1.62-1.26,2.19.79.41,1.66,1.55,1.77,2.9-1.01-.35-1.49-.05-1.49-.05,0,0,1.28,1.32.83,2.67-.39-.47-.85-.49-.85-.49,0,.14-.03.3-.06.45,0,.02,0,.04,0,.05,0,0,0,.01,0,.02-.07.36-.18.7-.33,1.03-.56,1.37-1.37,2.53-1.71,2.91-.13-.9-.48-1.54-.95-1.98-.22,1.04-2.06,3.38-3.14,4.05-1.05-1.11-2.54-1.81-4.2-1.81Z"/>
    </g>
  </g>
</svg>