<?xml version="1.0" encoding="UTF-8"?>
<svg id="Layer_2" data-name="Layer 2" xmlns="http://www.w3.org/2000/svg" xmlns:xlink="http://www.w3.org/1999/xlink" viewBox="0 0 81.04 128.97">
  <defs>
    <style>
      .cls-1 {
        fill: #2d2926;
      }

      .cls-2 {
        fill: none;
        stroke: #fff;
        stroke-miterlimit: 10;
      }

      .cls-3 {
        fill: #fff;
      }

      .cls-4 {
        fill: #ee3441;
      }
    </style>
    <symbol id="Derthona_Lion_White" data-name="Derthona Lion White" viewBox="0 0 117.67 155.94">
      <g>
        <path class="cls-4" d="M30.27,6.82c2.16-3.26-.48-6.44-.48-6.44,0,0-3.84-1.52-6.27,1.54-2.43-3.06-6.27-1.54-6.27-1.54,0,0-2.63,3.18-.47,6.44-3.66,1.37-3.4,5.49-3.4,5.49,0,0,2.21,3.49,5.98,2.44.17,3.9,4.17,4.93,4.17,4.93,0,0,4-1.02,4.17-4.93,3.76,1.05,5.98-2.44,5.98-2.44,0,0,.26-4.12-3.4-5.49ZM25.46,11.75l-1.94-.98-1.94.98.33-2.15-1.53-1.55,2.15-.35.99-1.94,1,1.94,2.15.35-1.53,1.55.33,2.15Z"/>
        <path class="cls-3" d="M55.31,141.03s0,0,0,0"/>
        <path class="cls-3" d="M10.29,60.45c-.46-.15-.87-.29-1.28-.44l-.19-.07s.47-5.28.52-10.85.35-8.94.35-8.94h.23c.32-.03.64-.08.97-.16l.35-.08s-.26,3.03-.25,10.02c0,6.98-.37,10.63-.37,10.63l-.32-.1Z"/>
        <path class="cls-3" d="M0,90.8c.07-.06.14-.12.2-.18.17-.18.42-.45.57-.61.09-.12.22-.28.34-.44.13-.16.26-.33.36-.46l.15-.23.65-1c.1-.18.27-.51.44-.82.16-.29.31-.58.41-.75.11-.22.36-.8.55-1.22l.19-.43c.21-.43.44-1.09.65-1.67.08-.22.15-.43.22-.6.04-.1.08-.22.12-.34.1-.27.21-.57.27-.8.54-1.71,1.02-3.54,1.45-5.44l.05-.21h2.11l-.07.32c-.25,1.24-.51,2.39-.8,3.51l-.77,2.76c-.18.51-.39,1.13-.59,1.71l-.35,1.02c-.12.28-.24.57-.37.87-.31.73-.62,1.49-.96,2.11l-.6,1.14-.88,1.41c-.18.25-.27.36-.36.48-.07.09-.14.18-.25.33l-.2.27c-.05.07-.11.13-.16.19l-.08.08c-.2.22-.46.5-.75.77,0,0-.49-.14-.98-.71s-.57-1.03-.57-1.03Z"/>
        <path class="cls-3" d="M15.12,22.05c-.21-.09-.42-.17-.64-.24l-.3-.09.13-.28c.73-1.52,1.41-2.76,2.11-3.8.36-.54.79-1.19,1.33-1.83,0,0,.22.04.51.26s.38.47.38.47c-1.12,1.39-2.15,3.15-3.17,5.37l-.11.24-.24-.11Z"/>
        <g>
          <path class="cls-3" d="M57.29,12.12h-.24s0,0,0,0c.08,0,.15,0,.23,0h0Z"/>
          <path class="cls-3" d="M49.23,42.35c-.3.62-.62,1.22-.97,1.81-.14.25-.29.5-.44.74-.04.07-.09.15-.13.22-1.57,2.5-3.47,4.78-5.64,6.77-.71.65-1.44,1.27-2.2,1.85h-.01c-1.48-.43-2.21-.57-3.65-1.11-9-3.36-17.04-8.72-23.55-15.53-.73.89-1.84,1.46-3.08,1.46-2.18,0-3.95-1.77-3.95-3.96,0-1.23.56-2.34,1.45-3.06-.65-.59-1.06-1.43-1.06-2.38,0-.09,0-.18.02-.27.13-1.64,1.51-2.92,3.18-2.92.26,0,.52.03.77.09.17-1.6,1.53-2.85,3.17-2.85.98,0,1.86.44,2.45,1.14.05.07.11.15.17.23.01.01.02.02.03.04,6.64,8.62,16.28,14.8,27.37,16.97.23.05.46.09.7.13,1.69.31,3.61.52,5.37.63Z"/>
          <path class="cls-3" d="M48.23,28.95c3.56,0,6.18-1.71,8.63-1.71s4.24.77,4.24.77c0,0-.66-2.95-3.68-2.95-2.17,0-4.18.8-7.77.8-3.16,0-4.65-2.02-4.65-3.96s.51-2.8.51-2.8c0,0-3.15,1.14-3.15,5.06,0,2.45,2.32,4.79,5.88,4.79Z"/>
          <path class="cls-3" d="M104.84,82.02s0-.09,0-.14c-.09-.01-.17-.02-.26-.04.08.06.17.12.26.18Z"/>
          <path class="cls-3" d="M59.74,107.67c-.24-.5-.52-.98-.83-1.44.29.47.57.95.83,1.44Z"/>
          <g>
            <path class="cls-3" d="M74.18,67.95h0s0,.02,0,.03c0-.01,0-.02,0-.03Z"/>
            <polygon class="cls-3" points="74.17 67.99 74.17 67.99 74.17 67.99 74.17 67.99 74.17 67.99 74.17 67.99"/>
            <path class="cls-3" d="M116.61,71.9c-2.8-.96-4.82-4.35-4.82-7.8,0-5.59-5.11-10.36-9.83-10.36-4.47,0-6.77,1.22-9.33,3.26-1.6,1.27-2.93,2.87-3.9,4.69-1.12,2.1-1.75,4.49-1.75,7.03v.39c.14,9.59,5.66,17.89,9,27.36,1.37,3.87,2.37,7.93,2.5,12.36.01.32.02.65.02.98,0,3-.92,5.93-6.05,5.93-7,0-18.94-22.66-18.94-37.54,0-5.28.39-7.67.43-7.95-1.83,4.38-11.14,14.93-17.14,17.28-.66-.84-1.37-1.63-2.12-2.39-4.79-4.77-11.4-7.72-18.7-7.72-2.07,0-4.08.23-6.02.68,1.28,4.49,5.52,11.56,14.76,16.95,9.24,5.39,11.38,6.67,14.17,11.16-2.1-3.07-5.62-5.08-9.62-5.08h-.3c-.29.01-.58.03-.86.05-.01,0-.02.01-.03.01-4.46.52-7.91,4.31-7.91,8.91,0,2.3.87,4.41,2.3,6l-7.63-5.33c.36-1.2.56-2.47.56-3.79,0-2.36-.63-4.58-1.74-6.48-1.26-2.18-3.13-3.95-5.38-5.08-.2-.09-.4-.16-.61-.23-1.01-.34-2.09-.52-3.22-.52-1.3,0-2.56.25-3.71.7.84.53,1.55,1.25,2.08,2.09.12.18.23.36.33.56-.51,0-1.01.06-1.48.17-.98.22-1.88.64-2.64,1.23.16.13.31.26.46.39.7.64,1.27,1.43,1.65,2.31-1.33.5-2.46,1.42-3.24,2.58,1.27.29,2.42.95,3.31,1.86.08.07.15.15.22.23,1.09,1.22,1.75,2.81,1.75,4.57,0,.11-.01.22-.01.34-.06,1.13-.39,2.18-.93,3.1-.07.13-.14.25-.23.37-.4.6-.9,1.14-1.47,1.58l19.14,13.37,10.65,7.43c0-12.41,4.57-16.58,9.91-16.58s9.91,4.17,9.91,16.58c0,1.78-.17,4.88-1.07,7.96-1.44-.76-3-1.31-4.66-1.6h-.01c-.9-.16-1.82-.24-2.77-.24-1.2,0-2.37.13-3.5.39-4.48,1-8.25,3.89-10.43,7.79,1.35-.37,2.76-.57,4.22-.57.54,0,1.08.03,1.6.08-.85,1.4-1.49,2.94-1.87,4.58h23.85c.11-1.09.28-2.16.52-3.21.4-1.77.96-3.47,1.68-5.09,2.09-4.72,5.47-8.74,9.68-11.62-.27-1.56-.41-3.16-.41-4.79,0-2.07.22-4.08.66-6.02,1.07.24,2.19.37,3.34.37,3.71,0,7.1-1.34,9.72-3.57,3.23-2.75,5.27-6.84,5.27-11.41v-.39c-.02-1.77-.17-3.44-.44-5.04-1.39-8.58-5.84-14.88-8.73-22.37-1.48-3.84-3.78-7.74-3.78-13.66,0-7.43,3.75-9.9,6.08-9.9s3.52,1.93,3.52,3.72c0,.49-.09.95-.26,1.38-.55,1.44-1.94,2.46-3.57,2.46-1,0-1.91-.38-2.59-1-.25.52-.39,1.11-.39,1.73,0,2.24,1.81,4.05,4.05,4.05.12,0,.23,0,.34-.01-.07.51-.11,1.03-.11,1.56,0,3.59,1.77,6.77,4.49,8.71.08.01.17.03.25.04v-.2c0-2.38,1.16-4.48,2.94-5.77.98.51,2.09.79,3.27.79,1.56,0,3-.5,4.17-1.35.11-.08.21-.16.32-.25.94-.77,1.69-1.77,2.14-2.93-.37-.06-.72-.15-1.06-.27Z"/>
            <path class="cls-3" d="M57.73,83.36c5.55-3.46,15.11-15.59,16.25-20.99,2.46,2.26,4.3,5.6,4.95,10.26,1.74-1.96,5.95-7.95,8.87-15.07.76-1.68,1.34-3.47,1.69-5.33,0-.03.01-.05.02-.08.02-.1.03-.19.05-.28.15-.79.25-1.57.29-2.32,0,0,2.35.09,4.39,2.55,2.33-6.99-4.32-13.85-4.32-13.85,0,0,2.48-1.6,7.72.24-.58-7-5.08-12.91-9.19-15.02,3.77-2.96,5.59-5.92,6.52-11.34h-7.08c.86-2.02,1.56-4.12,2.07-6.3h-18.86c-.47,0-.93.03-1.38.1-.25.03-.5.08-.74.13-2.68.59-4.94,2.28-6.3,4.56.78.77,1.85,1.24,3.03,1.24.65,0,1.26-.14,1.81-.4.2-.09.39-.2.57-.31.01,0,.03-.02.04-.03.85-.57,1.88-.9,2.98-.9.23,0,.46.02.69.05.92.11,1.77.46,2.48.98-.33.32-.68.61-1.05.88-.61.44-1.26.81-1.96,1.11-1.18.5-2.49.78-3.86.78-.06,0-.12,0-.17,0-.42,0-.84-.04-1.24-.1-.73-.1-1.43-.28-2.09-.54-.05-.02-.1-.04-.15-.06-.64-.25-1.3-.46-1.98-.63-1.42-.36-2.91-.56-4.44-.56-.08,0-.16,0-.23,0-1.5.02-2.96.22-4.35.59.14.29.27.57.4.86.25.55.48,1.1.69,1.67.1.25.2.51.29.77.89,2.48,1.52,5.08,1.84,7.78,1.39-1,3.1-1.59,4.95-1.59.86,0,1.69.13,2.48.37.53.16,1.03.37,1.51.62.37.2.72.42,1.06.66,0,.03,0,.06-.01.08,0,.01,0,.02,0,.03-.23,1.89-1.09,3.59-2.35,4.89-.78.8-1.86,1.26-2.98,1.28-.04,0-.07,0-.11,0-1.57,0-3.04-.42-4.3-1.17-.02.78-.06,1.56-.14,2.33-.13,1.49-.36,2.95-.67,4.39-.09.41-.19.83-.29,1.24-.22.88-.48,1.75-.77,2.6,7.63-.57,15.28-1.74,21.03-6.21-6.97,9.78-22.16,9.11-22.16,9.11-.32.72-.66,1.43-1.02,2.12-.37.72-.78,1.43-1.2,2.11-.48.78-.98,1.54-1.52,2.27-1.6,2.22-3.46,4.24-5.52,6.03-.12.1-.24.2-.35.3-3.8,3.21-8.28,5.64-13.2,7.04-3.09.88-6.36,1.35-9.74,1.35-3.55,0-6.98-.52-10.21-1.49-2.49-.74-4.86-1.75-7.09-3-.75.75-1.21,1.79-1.21,2.93,0,.34.04.67.12.99-1.29.56-2.2,1.84-2.2,3.34,0,1.68,1.14,3.1,2.7,3.51-.08.28-.12.57-.12.87,0,1.77,1.43,3.2,3.2,3.2h30.18c8.56,0,16.29,3.6,21.74,9.37Z"/>
          </g>
        </g>
      </g>
    </symbol>
  </defs>
  <g id="Layer_1-2" data-name="Layer 1">
    <g>
      <line class="cls-2" y1="65.6" x2="81.04" y2="65.6"/>
      <g>
        <path class="cls-3" d="M33.91,106.67L0,92.91l33.76,14.12s-.13.32.35.53c.32.14.88,0,.88,0l2.23.95c-.07.06-.14.12-.19.2-.28.41.07.95.63,1.36-.12-.26-.21-.53-.2-.75.31-.17.7-.48.94-.35.39.1.45.48.57.77.04.24.06.52.04.82.11-.18.2-.35.28-.52.22-.04.26-.66.45-.53.21.14.16.29.25.44-.05.21-.15.42-.29.59.38-.19.59-.41.7-.66.01-.01.03-.02.04-.03v2.11L0,92.91l40.44,21.68,40.6-21.68-40.6,21.33v-2.11l40.6-19.22-33.66,13.66h0c-.2-.41-.5-.68-1.25-1.23-.15-.14-.15-.25,0-.35.63.56,1.38-.07,1.46-.77.01-.13,0-.29,0-.46-.03-.51-.11-1.07.21-1.04.06,0,.13,0,.19,0,.66-.01,1.18-.43,1.07-.75-.03-.1-.13-.2-.32-.27-.05-.02-.11-.04-.18-.05,1.16.04,2.02-2.04.49-2.15,1.94-.48,1.95-1.47,1.59-1.92-.05-.06-.11-.12-.17-.15,1.68-.96,1.77-1.88,1.05-3.13,1.61-1.08,1.33-2.55.48-3.36,1.05-1.45,1.21-2.73.45-3.64,1.27-2.23.17-3.21-1.09-3.13-.22.01-.29.12-.41.26-.24,0-.19-.32-.08-.46.77-.98,1.48-1.63.84-2.49-.18-.24-.6-.29-1.02-.06-.54.29-1,1.27-1.54,2.15-.16-.09-.04-.33.18-.64.06-.09.13-.18.2-.27.5-.66,1.18-1.47.72-1.78-.12-.08-.26-.12-.4-.1-.87.07-2.13,1.79-3.48,4.46-.23.44-.45.91-.68,1.41-.61,1.31-1.23,2.79-1.84,4.37-.04.08-.06.15-.02.31.19.19.21.8.1,1.51-.02.14-.05.28-.08.43-.22,1.02-.67,2.1-1.23,2.44-.82-.14-1.4-1.57-1.4-2.21,0-.59,1.2-1.62,1.51-2.04.35-.28.47-.16.69.13-.18-1.01-.62-1.64-1.43-1.28l-.85.41c.06-.35-.83-.59-1.54-.08-1.01.72-1.26.85-1.93,1.07-.1.07-.16.17-.17.32.21,1.41.14,2.6-.22,2.66-1.15-.66-.32-2.75.2-3.26.04-.16.01-.23-.02-.31-2.42-6.32-5.09-11.02-6.4-10.14-.77.52,1.62,2.42,1.09,2.7-.55-.88-1.01-1.86-1.55-2.15-.42-.23-.84-.18-1.02.06-.65.87.07,1.52.84,2.5.11.15.17.46-.08.46-.12-.14-.19-.25-.41-.26-1.26-.09-2.36.89-1.09,3.13-.76.91-.61,2.18.45,3.64-.85.81-1.13,2.28.48,3.36-.73,1.25-.63,2.17,1.05,3.13-.5.3-.8,1.52,1.42,2.07-1.52.1-.66,2.18.49,2.15-1.08.24-.27,1.17.76,1.06.42-.04.15.98.21,1.51.08.7.83,1.33,1.46.77.15.1.15.22,0,.35-.75.55-1.05.83-1.25,1.22h0ZM46.29,105.93c.24.21.47.42.52.48.03.03.06.07.09.11.06.06.12.13.15.19.02.04.03.07.03.11,0,.04-.02.08-.06.11-.1.08-.21.12-.33.12-.11,0-.23-.03-.38-.09-.48-.21-.9-.81-.91-.84l-.35-.74.14.06s.05.02.12.02c.05,0,.09,0,.14-.02l.21-.06.02.02s.33.28.62.53h0ZM46.15,99.98v.05s-.04.02-.04.02c-.02,0-.03.01-.05.02-.03.01-.05.02-.09.02-.03,0-.07,0-.15-.02-.34-.16-.79-.25-1.12-.31-.32-.06-.43-.08-.45-.15-.01-.02,0-.05,0-.07,0-.02.05-.1.45-.1.44,0,1.31.11,1.43.54h0ZM45.85,99.06v-.03h.03s.1-.05.16-.05c.18,0,.35.12.41.24l.02.05-.04.03c-.07.04-.18.07-.27.07-.1,0-.18-.03-.24-.08-.05-.05-.07-.12-.07-.21h0ZM45.52,100.58v.2h-.05c-.26,0-.4-.15-.52-.29-.09-.1-.18-.2-.32-.24l-.16-.04.15-.07c.07-.03.12-.04.2-.04.15,0,.25.06.35.13.03.02.06.04.1.06l.04.02c.1.05.22.12.22.26h0ZM44.41,100.7c.11.04.23.11.33.21.18.2.18.27.16.34,0,.05-.03.22-.13.26h-.04s-.04-.03-.04-.03l-.51-.58s-.1-.18-.1-.19l-.04-.09h.1s.13.03.28.09h0ZM44.68,102.54l.03-.03.25.14.19.32s.24.46.36.78c0,0,0,0,0,0,.02.06.06.14.09.24.09.28.18.68.08.99-.07.21-.17.26-.25.26-.04,0-.07-.01-.08-.02l-.37-.07-.29-.24s-.21-.18-.28-1.19c-.06-.88.26-1.18.27-1.2h0ZM44.69,105.96s.01-.07.03-.1c.01-.02.03-.02.04-.01h0s.03.03.05.05c0,0,0,0,0,.01.02.03.04.06.06.1,0,0,0,.01.01.02.02.04.05.09.08.13,0,.01.01.03.02.04,0,0,0,0,0,.01.02.04.04.08.07.12.01.03.03.05.04.08.01.02.03.05.04.07.02.03.03.05.05.08.01.02.02.03.03.05.03.04.05.06.08.08.01.07,0,.26,0,.29,0,.02-.02.02-.04.02h-.01s-.04-.02-.06-.03c0,0,0,0-.01-.01-.02-.02-.05-.04-.08-.07h0s-.06-.08-.09-.12c0,0-.01-.02-.02-.02-.03-.04-.06-.09-.09-.13,0,0,0,0,0-.01-.03-.05-.06-.1-.08-.14,0,0,0-.01,0-.02-.03-.05-.05-.1-.07-.15,0,0,0-.02,0-.02-.02-.05-.03-.1-.04-.15,0-.04,0-.08,0-.12,0,0,0-.02,0-.02h0ZM47.2,104.46c-.03.13-.22.34-.44.44-.05.02-.1.03-.15.03-.14,0-.24-.1-.34-.18-.02-.02-.03-.03-.05-.05-.11-.1-.26-.51-.4-.92-.02-.06-.04-.11-.05-.14-.05-.14-.3-.57-.47-.86-.08-.14-.15-.25-.17-.3-.07-.15-.04-.22,0-.32l.02-.04c.05-.13.43-.4.5-.45.02,0,.06-.02.12-.02.07,0,.2.03.28.2.04.09.3.39.4.5.08.09.47.61.53.7.06.09.21.53.24.67.03.15.01.61-.02.73h0ZM48.8,101.91l.02.02v.02c-.01.06-.1.14-.48.14-.14,0-.3-.01-.49-.03-.12-.01-.23-.02-.35-.02-.6,0-.92.18-.95.2h0l-.03-.05-.03-.05h0c.56-.35,1.07-.52,1.51-.52.55,0,.79.27.8.28h0ZM48.94,100.15c-.08,0-.15,0-.2,0h-.15c-.17,0-.29.01-1.1.16-.66.12-1.47.41-1.48.41l-.04-.1c1.6-.7,1.63-.69,1.83-.67.03,0,.06,0,.1,0h.03c.77-.02,1.02.09,1.03.09l-.02.11h0ZM49.14,98.67c0,.08-.12.21-.95.23-.84.01-1.25.32-1.27.34l-.04-.04-.04-.04h0c.6-.48,1.14-.72,1.62-.72.42,0,.63.19.64.19l.02.02v.02h0ZM50.15,97.44c-.13-.02-.26-.03-.39-.03-.58,0-1.21.17-2.24.61l-.05-.1c1.07-.74,1.94-.93,2.72-.59l-.03.11h0ZM51.33,94.72c-.12-.08-.25-.12-.42-.12-.61,0-1.48.52-2.41,1.07-.22.13-.45.26-.67.39l-.06-.09c1.54-1.23,2.55-1.94,3.13-1.94.32,0,.49.21.52.64v.11s-.09-.06-.09-.06h0ZM51.9,91.26c-.1-.09-.22-.13-.36-.13-.57,0-1.39.71-2.19,1.41-.79.68-1.53,1.33-2.06,1.33-.03,0-.06,0-.08,0l-.13-.02.11-.08c.64-.49,1.23-1.07,1.74-1.59.83-.83,1.54-1.54,2.18-1.54.33,0,.61.18.87.56l-.08.07h0ZM52.11,87.26l.13.1h-.16c-.41.02-1.32,1.12-2.2,2.19-.83,1.01-1.69,2.05-2.31,2.43l-.07-.09c.91-.99,1.66-1.93,2.27-2.68.99-1.22,1.64-2.03,2.1-2.03.09,0,.16.03.24.08h0ZM51.4,81.75c.12,0,.28.05.37.27l.05.12-.12-.04s-.08-.02-.12-.02c-.44,0-1.09.68-1.95,1.71l-.1-.05c.21-.76,1.27-1.97,1.87-1.97h0ZM48.59,85.18s.01-.1.02-.17c.02-.26.06-.65.13-.83.16-.4.53-.56.64-.6l.14-.05-.07.13c-.31.56-.35.8-.41,1.18-.02.15-.05.32-.1.54-.08.33-.8,1.3-1.19,1.82-.06.09-.12.16-.15.2l-.09-.06c.26-.4,1.02-1.64,1.09-2.16h0ZM48.5,87.78c1.25-1.87,2.33-3.49,2.99-3.49.1,0,.18.03.26.1l.1.08-.12.02c-.66.09-1.82,1.82-2.95,3.49-.98,1.46-1.91,2.84-2.53,3.18l-.07-.08c.79-.99,1.57-2.16,2.33-3.29h0ZM45.95,93.37s.02.08-.01.14c-.1.18-.52.49-.7.49-.06,0-.1-.03-.11-.06-.02-.03-.03-.09.02-.18.11-.18.48-.45.68-.45.07,0,.11.03.13.06h0ZM45.57,92.6s.08.03.1.07c.05.12.04.23-.03.33-.1.15-.31.22-.43.22h-.02c-.06,0-.1-.05-.1-.11,0-.15.31-.51.47-.51ZM44.97,94.54c.12-.19.58-.44.82-.44.1,0,.14.04.16.08.01.02.02.07-.02.12-.11.17-.62.47-.85.47-.09,0-.12-.04-.14-.07-.02-.03-.02-.09.02-.16h0ZM45.94,94.68l-.08.13c-.08.13-.15.22-.31.27l-.11.03.05-.11c.08-.17.16-.22.31-.27l.15-.05h0ZM45.02,96.06c.29-.34,1.13-.8,1.29-.8.07,0,.08.14.08.16,0,.19-.11.63-1.32.73h-.13s.09-.09.09-.09h0ZM44.77,96.93s.63-.27.9-.41c.04-.02.09-.05.14-.08.2-.11.43-.24.59-.22h.04s0,.05,0,.05c.04.25-.18.36-.39.47l-.05.03c-.22.11-.85.28-1.11.28-.05,0-.09,0-.12-.02l-.11-.05.11-.05h0ZM44.66,97.64s.66-.21.94-.32c.05-.02.1-.04.15-.06.21-.09.46-.19.6-.16h.05s0,.06,0,.06c-.03.27-.26.36-.48.44l-.05.02c-.2.08-.69.16-.97.16-.17,0-.22-.03-.25-.05l-.07-.06.09-.03h0ZM44.06,98.54c.67-.16,1.19-.33,1.56-.45.36-.12.6-.19.75-.19.1,0,.17.04.19.12h0s0,.03,0,.03c-.11.55-.84.61-1.28.66-.1,0-.23.01-.37.01-.3,0-.79-.02-.88-.07l-.12-.07.14-.03h0ZM43.54,101.03l.06-.02c.09,0,.51.24.56.32.05.07.12.18.08.32,0,.03-.01.04-.01.05v.04s-.09,0-.09,0h0s-.11.01-.17.01c-.04,0-.08,0-.11-.02-.01,0-.02,0-.03,0-.05,0-.08-.03-.11-.1-.04-.07-.09-.23-.13-.35l-.05-.16v-.11ZM44.36,106.42s.02-.04.03-.06l.09-.06c.09.09.26.38.54.62.13.11.43.25.43.42,0,.02-.07.08-.19.15l-1.56.73c-.04-.05-.09-.09-.14-.11-.01,0-.03-.02-.04-.02h0s-.01,0-.02-.01c0-.04,0-.07-.01-.11l.87-1.54h0ZM43.52,108.29s0,0,0,0c.01.02.03.03.04.04.06.12.09.32.01.56-.06.19-.19.4-.42.6.1-.12.18-.31.22-.52.06-.33-.02-.69-.37-.82.16-.1.39-.03.52.13h0ZM35.98,107.09s-.02-.22,0-.29c.21-.16.51-.99.6-.83.2.34-.52,1.29-.6,1.12ZM35.84,105.27c-.22,0-.41-.17-.41-.39,0-.72.81-2.2,1.08-2.17.18.02.2.73.2.97,0,.71-.16,1.6-.87,1.6h0ZM37.24,109.4c.02.11.06.23.14.36-.13-.12-.21-.24-.27-.37-.09-.2-.1-.4-.01-.57.03-.05.06-.11.1-.15.04-.04.09-.08.14-.11.16-.1.34-.13.55-.05-.47.12-.74.44-.64.9h0ZM39.19,110s-.02.07-.04.11c0-.05,0-.08.01-.13.06-.46-.02-.78-.15-1.04-.15-.33-.41-.29-.35-.45.14-.34.34-.07.49.16.21.3.25.75.04,1.35h0ZM40.24,109.95c-.07.11-.16.21-.28.32.06-.07.11-.17.16-.28.14-.37.14-.89-.31-1.05.18-.11.45-.02.56.18.09.16.11.49-.13.84h0ZM40.8,108.86c-.11.13-.2.28-.3.44-.02-.31-.15-.45-.29-.52h-.03c-.18-.2-.45-.38-.8-.52.13-.32.37-.61.7-.88h.18c.29.37.58.61.85.75-.1.06-.18.14-.25.24-.1.15-.12.32-.07.49h0ZM41.48,108.25c-.08.04-.14.08-.2.14-.25.23-.31.58-.06,1.03-.23-.22-.34-.46-.34-.67,0-.15.05-.3.16-.42.06-.06.13-.11.2-.14.14-.07.3-.09.48-.02-.09.02-.17.05-.24.09h0ZM42.73,109.24c-.03.18-.08.37-.16.59.04-.21.04-.38.03-.53-.01-.21-.06-.38-.12-.54-.01-.03-.02-.06-.04-.1-.15-.33-.41-.29-.35-.45.11-.28.26-.15.39.03.03.04.06.09.09.13.15.21.21.5.16.87h0ZM42.47,103.54c.06.08-.26.63-.26.94,0,.94-.44,1.73-.17,2.02.38.41.67,1.05.01,1.05-.72,0-1.27-1.08-1.27-1.81,0-1.12.02-2.08.29-2.76.64.03,1.08.16,1.4.54h0ZM41.14,90.96c.09-.05.16-.06.26-.06.14,0,.17.06.23.18.29-.16.41-.38.74-.38.08,0,.32,0,.32.08,0,.13-.17.1-.28.17-.11.06-.86.51-1.1.79-.32-.26-.24-.71-.17-.77h0ZM37.79,92.18c-.03-.09.01-.11.1-.22.59-.16,2.27-1.7,2.86-1.16l.02.27c-.16.26-1.44.28-1.21.99.72.06,1.07-.1,1.04-.5.07-.06.13-.05.18.04.05,2-2.17.85-2.34.86-.13.03-.16.09-.14.19.06.28.82.53,1.07,1.03.24.47.59.46.84.93.11.21.03,1.98.01,2.3-.04.59,1.05.64,1.03.98l.03,1.57c.05,1.54-.81,2.32-2.01,3.18-.33.24.02.49-.31,2.05-.11.52-.44,1.77-.51,2.03-.06.23.5.35.39.61-.09.21-.35.58-.69.49-.38-.59-.87-1.8-.83-3.43.03-1.22.33-2.09.29-3.19-.03-1.01-.33-2.21-.43-3.47-.06-.74,1.13-3.61.59-5.54h0ZM37.87,108.16c-.06,0-.19.04-.27.16l-1.58-.75c.4-.28.71-.63.92-1.05l.93,1.64h0ZM36.74,102.17s-.16-.6.18-.5c.33.1-.03.36-.18.5ZM36.87,95.9c0,.07-.07.02-.16-.05-.49-.42-.69-1.28-.42-2.11-.16.95.07,1.5.58,2.16h0ZM36.31,92.77c-.02.55-.5,1.77-.54,2.59-.02.43.27.84.47,1.14-.22.16-.4-.36-.65-.36-.1,0-.16.17-.16.27,0,.19.11.34.29.42.32.13,1.1.09.84.3-.15.12-.76-.16-.84-.18-.22-.04-.3.33-.05.49.14.09.26.08.43.09.03.01.05.11.01.12-.28.13-.45.1-.45.41,0,.22.15.31.33.41-.17.06-.45.2-.44.47,0,.31.5.33.67.37-.19.11-.35.22-.35.48,0,.17.22.29.39.29-.19.32-.23.54.27.5-.3.61.31.58.42.34,0,.46-.66,1.05-.93.67-.2-.29.32-.55.13-.78-.22-.27-.39.41-.66.41-.14,0-.35-.16-.35-.3,0-.41.73-.3.73-.71,0-.08-.03-.13-.11-.13-.27,0-.26.25-.53.25-.21,0-.36-.03-.36-.25,0-.41.64-.27.59-.67-.09-.65-1.15-.58-1.15-1.24,0-.1.1-.14.2-.14.28,0,.35.37.63.37.08,0,.14-.05.14-.13,0-.49-.86-.47-.83-.96.02-.25.77.55.82.06.02-.2-.86-.47-.8-.91.02-.17.81.56.84.1-.07-.19-.68-.57-.57-.98.04-.14.49.62.67.47.04-.04-.61-.82-.52-1.04.12-.28.35.37.63.44.04.01.13-.13.08-.24-.13-.26-.56-.61-.44-.9.05-.13.46.51.52.3.06-.19-.56-.7-.47-1.05.06-.21.27-.12.28.05,0,.24.18.2.25.15.05-.03.08-.08.08-.14-.02-.23-.24-.31-.23-.54.01-.5.35-.35.63-.5.07-.04.13.09.12.17h0ZM34.76,99.47c-.16,0-.29-.4-.29-.42,0-.12.38.07.5.14.16.08-.11.28-.21.28h0ZM31.28,81.69c-.36-.61.2-.68.54-.46.1.08.31.34.42.49-.32.18-.04.51.93,1.91-.22-.09-.28-.13-.42-.01l-1.46-1.93h0ZM31.46,84.66c0,.15-.02.27-.15.35-.09.06-.2.08-.2.18,0,.2,1.47,2.61,1.56,2.79.22.44,2.83,4.02,2.99,3.94.1-.04.05-1.2-.9-3.2-.09-.18-1.54-2.78-1.85-3.29-.15-.25-.4-.7-.4-.99,0-.12.17-.52.44-.52.13,0,.29.05.29.18s-.17.15-.22.27c-.29.69,1.74,2.99,2.72,6.64.06.24.14.8.12.93-.01.14-.03.43-.14.51-.35-.36-2.98-3.59-3.95-5.31-.17-.31-1.05-1.73-1.05-2.08,0-.27.14-.55.41-.57.15-.01.31.11.31.16h0ZM30.41,83.64c-.49-.49-.81-.79-.81-1.47,0-.28.14-.47.42-.47.32,0,.59.11.59.43,0,.26-.21.31-.21.57,0,.61.7.85.89,1.43-.11.04-.3-.07-.43.08-.02.02-.29-.39-.46-.56h0ZM29.02,84.91c.49-.49,1.28-.3,1.19.3-.24.23-.46.75.06,1.52l4.01,5.52-2.97-3.79c-.65-1.03-1.32-1.34-1.74-1.06-.88-1.02-1.06-1.99-.55-2.51h0ZM29.09,87.96c.12-.22.94-.33,1.04-.33.19,0,.55.15.51.34-.18.92-1,.36-1,.81,0,.09.45.52.86,1.27.16.3,2.98,3.21,3.18,3.57l-.04-.02c-.26-.23-1.44-1.24-1.63-1.45-.76-.84-1.08-1.46-1.67-1.12-.11.07-2.17-1.32-1.25-3.07h0ZM29.12,92.73c0-.39.07-.96.34-1.23.41-.41.91-.27,1.13-.35.2-.08.56.17.56.35,0,.15-.11.43-.22.53-.2.18-.55.19-.55.47,0,.73,1.63,2.08,1.98,2.35.41.32.54.47.62.71-.03,0-.21-.11-.3-.17-.19-.13-.31-.2-.47-.36-.43-.43-1.3-1.07-1.85-.71-.8-.49-1.24-1.35-1.24-1.6h0ZM30.41,96.85c-.28-.34-.62-.8-.62-1.24,0-.41.32-.85.65-1.05.29-.18.62-.22.88,0,.08.07.17.11.17.21,0,.35-.63.6-.63.95,0,.39.35.75.65.99.55.45,1.07.31,1.61.78.18.16.32.21.41.44-.34-.03-.47-.21-.75-.4-.36-.24-.58-.4-1-.31-.21.04-.28.12-.37.09-.39-.12-.77-.2-1-.47h0ZM32.16,99.25c-.57-.4-1.33-.39-1.35-1.1-.02-.58,1.01-.51,1.01-.34l-.12.41c0,.49.63.45,1.01.77.18.16.78.69,1.03.8.16.07.34.1.49.19-.02.01-.23.03-.29.02-.35-.02-1.48-.56-1.77-.76h0ZM31.91,100.29c.1-.15.54.37.54.37,0,0,.23.04.72.38.49.33,1.21.41,1.21.41,0,0-.55.32-1.46-.02-1.65-.61-1.1-.99-1-1.14h0ZM33.78,102.57c-1.25-.03-1.19-.44-1.15-.57.03-.13.33,0,.33,0,0,0,.09.26.5.37.41.11.91,0,.91,0,0,0,.11.22-.59.21h0ZM35.23,103.99c-.18.51-.35.9-.76.9-.35,0-.54-.4-.51-.72.03-.54.11-1,.94-1.81.13-.11.38-.51.55-.56.24-.07.6.33.64.58.04.3-.54.69-.86,1.61h0ZM35.52,105.62c.12.05.3.11.45.05-.17.63-.59,1.2-1.07,1.46-.44.18-.65.09-.61-.11.13-.51.98-1.09,1.23-1.41Z"/>
        <path class="cls-3" d="M9.25,123.57c1.04-.37,1.69-1.25,1.69-2.35,0-1.65-1.29-2.71-3.28-2.71H.05v10.46h7.7c2.08,0,3.42-1.13,3.42-2.86,0-1.19-.77-2.19-1.92-2.53ZM1.17,119.54h6.38c1.37,0,2.22.68,2.22,1.79s-.85,1.77-2.22,1.77H1.17v-3.56ZM7.63,127.92H1.17v-3.8h6.46c1.53,0,2.37.68,2.37,1.91s-.84,1.89-2.37,1.89h0Z"/>
        <polygon class="cls-3" points="13.73 124.13 18 124.13 18 123.08 13.73 123.08 13.73 119.54 22.22 119.54 22.22 118.51 12.61 118.51 12.61 128.96 22.41 128.96 22.41 127.92 13.73 127.92 13.73 124.13"/>
        <path class="cls-3" d="M34.33,121.62c0-1.95-1.36-3.11-3.65-3.11h-6.25v10.46h1.12v-4.22h4.03l3.54,4.19.03.03h1.47l-3.66-4.25c2.17-.16,3.36-1.25,3.36-3.1h0ZM25.55,123.7v-4.16h5.12c1.63,0,2.5.72,2.5,2.08s-.86,2.08-2.5,2.08h-5.12Z"/>
        <polygon class="cls-3" points="35.25 119.55 39.9 119.55 39.9 128.96 41.02 128.96 41.02 119.55 45.84 119.55 45.84 118.51 35.25 118.51 35.25 119.55"/>
        <path class="cls-3" d="M56.9,121.62c0-1.95-1.36-3.11-3.65-3.11h-6.25v10.46h1.12v-4.22h4.03l3.54,4.19.03.03h1.47l-3.66-4.25c2.17-.16,3.36-1.25,3.36-3.1h0ZM48.12,123.7v-4.16h5.12c1.63,0,2.5.72,2.5,2.08s-.86,2.08-2.5,2.08h-5.12Z"/>
        <path class="cls-3" d="M63.9,118.51h-1.22l-4.82,10.46h1.23l1.13-2.51h6.13l1.13,2.51h1.25l-4.81-10.4-.02-.05h0ZM60.69,125.44l2.6-5.75,2.6,5.75h-5.2Z"/>
        <polygon class="cls-3" points="75.55 127 71.59 118.51 70.11 118.51 70.11 128.96 71.2 128.96 71.2 120.13 75.3 128.96 75.79 128.96 79.9 120.13 79.9 128.96 80.99 128.96 80.99 118.51 79.5 118.51 75.55 127"/>
      </g>
      <g>
        <g>
          <circle class="cls-1" cx="40.52" cy="25.08" r="21.22"/>
          <path class="cls-3" d="M40.52,50.16c-13.83,0-25.08-11.25-25.08-25.08S26.69,0,40.52,0s25.08,11.25,25.08,25.08-11.25,25.08-25.08,25.08ZM40.52,7.72c-9.57,0-17.36,7.79-17.36,17.36s7.79,17.36,17.36,17.36,17.36-7.79,17.36-17.36-7.79-17.36-17.36-17.36Z"/>
        </g>
        <g>
          <g>
            <path class="cls-1" d="M30.89,41.11l1.79.9.42,1.25-.03.06c-.29.58-.69.94-1.17,1.07l.29.86-.5,1-1.24.42-1.87-.94,2.31-4.62ZM30.15,45.67c.45.22.74.13.96-.31l.05-.1c.19-.38.12-.68-.19-.89-.19-.05-.39-.12-.59-.22l-.66,1.31.43.21ZM32.08,43.27c.21-.41.1-.69-.35-.91l-.37-.19-.67,1.35c.71.35,1.13.27,1.39-.25Z"/>
            <path class="cls-1" d="M34.95,42.88l1.17.32-.4,5.25-.82-.23c-.01-.52-.24-.95-.55-1.03-.31-.09-.72.16-1,.6l-.78-.22,2.38-4.71ZM34.55,46.49c.16.05.32.16.47.34l.14-1.75.13-1.15h-.04s-.48,1.04-.48,1.04l-.78,1.56c.2-.07.39-.09.56-.05Z"/>
            <path class="cls-1" d="M37.14,47.8l.08-.95.89.07-.04.53c-.03.38.16.6.54.63.38.03.6-.16.63-.54.02-.18-.08-.41-.26-.59l-1.6-1.63.08-.92,1.01-.85,1.02.08.85,1.01-.06.75-.89-.07.03-.35c.03-.38-.14-.6-.49-.63-.35-.03-.57.13-.59.44-.01.13.09.32.25.49l1.61,1.65-.09,1.12-1.01.85-1.09-.09-.85-1.01Z"/>
            <path class="cls-1" d="M41.12,43.77l.89-.1.24,2.16c.12-.01.24-.01.35,0l.63-2.3.89-.1-.74,2.63c.7.4,1.19,1.28,1.32,2.51l-.9.1c-.15-1.4-.68-2.15-1.46-2.09l.24,2.23-.89.1-.56-5.14Z"/>
            <path class="cls-1" d="M44.85,43.25l2.39-.74.22.72-1.53.47.43,1.41c.21-.2.71-.4,1.24-.54l.22.72c-.62.15-1.03.33-1.24.54l.41,1.34,1.6-.49.23.74-2.46.76-1.52-4.94Z"/>
            <path class="cls-1" d="M48.98,42.51l-.89.46-.33-.65,2.57-1.32.33.65-.89.46,2.04,3.95-.8.41-2.04-3.95Z"/>
          </g>
          <g>
            <path class="cls-1" d="M24.47,7.43l1.56-1.26,1.31.14,1.52,1.9c.73.9.63,1.81-.26,2.53l-.9.73-3.24-4.03ZM28.26,8.92l-1.3-1.61c-.29-.36-.65-.4-1.01-.11l-.32.26,2.3,2.86.22-.17c.48-.39.51-.72.11-1.22Z"/>
            <path class="cls-1" d="M28.26,4.63l2.21-1.18.36.67-1.42.76.69,1.3c.17-.23.62-.53,1.12-.76l.36.67c-.58.26-.95.52-1.11.77l.66,1.24,1.48-.79.36.68-2.27,1.21-2.43-4.56Z"/>
            <path class="cls-1" d="M32.05,2.77l1.9-.59,1.17.62.07.21c.23.74.14,1.33-.28,1.77.69.21,1.2.89,1.56,2.04l-.86.27c-.43-1.37-.93-1.87-1.68-1.64l-.1.03.61,1.97-.86.27-1.53-4.94ZM34.44,3.69l-.05-.18c-.12-.39-.45-.55-.88-.42l-.38.12.49,1.57c.74-.24.99-.57.83-1.09Z"/>
            <path class="cls-1" d="M37.43,2.2l-.99.11-.08-.72,2.87-.33.08.72-.99.11.5,4.42-.89.1-.5-4.42Z"/>
            <path class="cls-1" d="M42.68,4.46c-.08-.19-.31-.32-.59-.35-.29-.02-.53.08-.63.26l-.15,2.08-.89-.07.38-5.16.89.07-.16,2.2c.21-.1.43-.15.63-.13.2.01.4.09.6.21l.16-2.19.89.07-.38,5.16-.89-.07.15-2.09Z"/>
            <path class="cls-1" d="M44.41,5.88l.94-3.26,1.17-.64,1.2.35.65,1.16-.94,3.26-1.17.64-1.2-.35-.65-1.16ZM46.68,6.09l.71-2.46c.09-.32-.12-.64-.48-.75s-.71.06-.8.38l-.71,2.46c-.09.32.12.64.48.75.36.1.71-.06.8-.38Z"/>
            <path class="cls-1" d="M50.31,3.32l.86.46-.48,3.29-.06.22.03.02,1.57-2.97.76.4-2.42,4.57-.83-.44.45-3.28.05-.23-.03-.02-.06.13-1.49,2.82-.77-.41,2.42-4.57Z"/>
            <path class="cls-1" d="M55.05,6.21l.94.76-2.47,4.66-.66-.54c.2-.49.16-.97-.09-1.17-.25-.2-.73-.14-1.16.15l-.63-.51,4.06-3.36ZM53.24,9.36c.13.11.23.28.29.5l.83-1.55.58-1-.03-.02-.86.77-1.34,1.12c.22.02.4.07.53.18Z"/>
          </g>
        </g>
        <g>
          <path class="cls-1" d="M18.2,27.18h-.58v-2.97l.38-.39h.2v3.36Z"/>
          <path class="cls-1" d="M18.99,24.39l.62-.61h.76l.62.61v2.21l-.62.61h-.69l-.62-.61v-.47h.57v.21c0,.24.15.38.38.38s.38-.15.38-.38v-.68l-.25.27h-.54l-.62-.61v-.92ZM19.96,25.43c.24,0,.43-.17.43-.39v-.38c0-.22-.17-.38-.41-.38s-.41.17-.41.38v.38c0,.24.15.39.38.39Z"/>
        </g>
        <g>
          <path class="cls-1" d="M59.48,23.82h1.93v.51h-1.33v.74l.23-.24h.56l.62.61v1.16l-.62.61h-.76l-.62-.61v-.54h.59v.26c0,.22.17.38.41.38s.41-.17.41-.38v-.62c0-.24-.15-.39-.38-.39s-.43.17-.43.37v.02h-.59v-1.89Z"/>
          <path class="cls-1" d="M62.19,23.82h1.93v.51h-1.33v.74l.23-.24h.56l.62.61v1.16l-.62.61h-.76l-.62-.61v-.54h.59v.26c0,.22.17.38.41.38s.41-.17.41-.38v-.62c0-.24-.15-.39-.38-.39s-.43.17-.43.37v.02h-.59v-1.89Z"/>
        </g>
        <use width="117.67" height="155.94" transform="translate(29.2 10.59) scale(.19)" xlink:href="#Derthona_Lion_White"/>
      </g>
    </g>
  </g>
</svg>