<?xml version="1.0" encoding="UTF-8"?>
<svg id="Layer_2" data-name="Layer 2" xmlns="http://www.w3.org/2000/svg" xmlns:xlink="http://www.w3.org/1999/xlink" viewBox="0 0 165.36 50.17">
  <defs>
    <style>
      .cls-1 {
        fill: #2d2926;
      }

      .cls-2 {
        fill: none;
        stroke: #fff;
        stroke-miterlimit: 10;
      }

      .cls-3 {
        fill: #fff;
      }

      .cls-4 {
        fill: #ee3441;
      }
    </style>
    <symbol id="Derthona_Lion_White" data-name="Derthona Lion White" viewBox="0 0 117.67 155.94">
      <g>
        <path class="cls-4" d="M30.27,6.82c2.16-3.26-.48-6.44-.48-6.44,0,0-3.84-1.52-6.27,1.54-2.43-3.06-6.27-1.54-6.27-1.54,0,0-2.63,3.18-.47,6.44-3.66,1.37-3.4,5.49-3.4,5.49,0,0,2.21,3.49,5.98,2.44.17,3.9,4.17,4.93,4.17,4.93,0,0,4-1.02,4.17-4.93,3.76,1.05,5.98-2.44,5.98-2.44,0,0,.26-4.12-3.4-5.49ZM25.46,11.75l-1.94-.98-1.94.98.33-2.15-1.53-1.55,2.15-.35.99-1.94,1,1.94,2.15.35-1.53,1.55.33,2.15Z"/>
        <path class="cls-3" d="M55.31,141.03s0,0,0,0"/>
        <path class="cls-3" d="M10.29,60.45c-.46-.15-.87-.29-1.28-.44l-.19-.07s.47-5.28.52-10.85.35-8.94.35-8.94h.23c.32-.03.64-.08.97-.16l.35-.08s-.26,3.03-.25,10.02c0,6.98-.37,10.63-.37,10.63l-.32-.1Z"/>
        <path class="cls-3" d="M0,90.8c.07-.06.14-.12.2-.18.17-.18.42-.45.57-.61.09-.12.22-.28.34-.44.13-.16.26-.33.36-.46l.15-.23.65-1c.1-.18.27-.51.44-.82.16-.29.31-.58.41-.75.11-.22.36-.8.55-1.22l.19-.43c.21-.43.44-1.09.65-1.67.08-.22.15-.43.22-.6.04-.1.08-.22.12-.34.1-.27.21-.57.27-.8.54-1.71,1.02-3.54,1.45-5.44l.05-.21h2.11l-.07.32c-.25,1.24-.51,2.39-.8,3.51l-.77,2.76c-.18.51-.39,1.13-.59,1.71l-.35,1.02c-.12.28-.24.57-.37.87-.31.73-.62,1.49-.96,2.11l-.6,1.14-.88,1.41c-.18.25-.27.36-.36.48-.07.09-.14.18-.25.33l-.2.27c-.05.07-.11.13-.16.19l-.08.08c-.2.22-.46.5-.75.77,0,0-.49-.14-.98-.71s-.57-1.03-.57-1.03Z"/>
        <path class="cls-3" d="M15.12,22.05c-.21-.09-.42-.17-.64-.24l-.3-.09.13-.28c.73-1.52,1.41-2.76,2.11-3.8.36-.54.79-1.19,1.33-1.83,0,0,.22.04.51.26s.38.47.38.47c-1.12,1.39-2.15,3.15-3.17,5.37l-.11.24-.24-.11Z"/>
        <g>
          <path class="cls-3" d="M57.29,12.12h-.24s0,0,0,0c.08,0,.15,0,.23,0h0Z"/>
          <path class="cls-3" d="M49.23,42.35c-.3.62-.62,1.22-.97,1.81-.14.25-.29.5-.44.74-.04.07-.09.15-.13.22-1.57,2.5-3.47,4.78-5.64,6.77-.71.65-1.44,1.27-2.2,1.85h-.01c-1.48-.43-2.21-.57-3.65-1.11-9-3.36-17.04-8.72-23.55-15.53-.73.89-1.84,1.46-3.08,1.46-2.18,0-3.95-1.77-3.95-3.96,0-1.23.56-2.34,1.45-3.06-.65-.59-1.06-1.43-1.06-2.38,0-.09,0-.18.02-.27.13-1.64,1.51-2.92,3.18-2.92.26,0,.52.03.77.09.17-1.6,1.53-2.85,3.17-2.85.98,0,1.86.44,2.45,1.14.05.07.11.15.17.23.01.01.02.02.03.04,6.64,8.62,16.28,14.8,27.37,16.97.23.05.46.09.7.13,1.69.31,3.61.52,5.37.63Z"/>
          <path class="cls-3" d="M48.23,28.95c3.56,0,6.18-1.71,8.63-1.71s4.24.77,4.24.77c0,0-.66-2.95-3.68-2.95-2.17,0-4.18.8-7.77.8-3.16,0-4.65-2.02-4.65-3.96s.51-2.8.51-2.8c0,0-3.15,1.14-3.15,5.06,0,2.45,2.32,4.79,5.88,4.79Z"/>
          <path class="cls-3" d="M104.84,82.02s0-.09,0-.14c-.09-.01-.17-.02-.26-.04.08.06.17.12.26.18Z"/>
          <path class="cls-3" d="M59.74,107.67c-.24-.5-.52-.98-.83-1.44.29.47.57.95.83,1.44Z"/>
          <g>
            <path class="cls-3" d="M74.18,67.95h0s0,.02,0,.03c0-.01,0-.02,0-.03Z"/>
            <polygon class="cls-3" points="74.17 67.99 74.17 67.99 74.17 67.99 74.17 67.99 74.17 67.99 74.17 67.99"/>
            <path class="cls-3" d="M116.61,71.9c-2.8-.96-4.82-4.35-4.82-7.8,0-5.59-5.11-10.36-9.83-10.36-4.47,0-6.77,1.22-9.33,3.26-1.6,1.27-2.93,2.87-3.9,4.69-1.12,2.1-1.75,4.49-1.75,7.03v.39c.14,9.59,5.66,17.89,9,27.36,1.37,3.87,2.37,7.93,2.5,12.36.01.32.02.65.02.98,0,3-.92,5.93-6.05,5.93-7,0-18.94-22.66-18.94-37.54,0-5.28.39-7.67.43-7.95-1.83,4.38-11.14,14.93-17.14,17.28-.66-.84-1.37-1.63-2.12-2.39-4.79-4.77-11.4-7.72-18.7-7.72-2.07,0-4.08.23-6.02.68,1.28,4.49,5.52,11.56,14.76,16.95,9.24,5.39,11.38,6.67,14.17,11.16-2.1-3.07-5.62-5.08-9.62-5.08h-.3c-.29.01-.58.03-.86.05-.01,0-.02.01-.03.01-4.46.52-7.91,4.31-7.91,8.91,0,2.3.87,4.41,2.3,6l-7.63-5.33c.36-1.2.56-2.47.56-3.79,0-2.36-.63-4.58-1.74-6.48-1.26-2.18-3.13-3.95-5.38-5.08-.2-.09-.4-.16-.61-.23-1.01-.34-2.09-.52-3.22-.52-1.3,0-2.56.25-3.71.7.84.53,1.55,1.25,2.08,2.09.12.18.23.36.33.56-.51,0-1.01.06-1.48.17-.98.22-1.88.64-2.64,1.23.16.13.31.26.46.39.7.64,1.27,1.43,1.65,2.31-1.33.5-2.46,1.42-3.24,2.58,1.27.29,2.42.95,3.31,1.86.08.07.15.15.22.23,1.09,1.22,1.75,2.81,1.75,4.57,0,.11-.01.22-.01.34-.06,1.13-.39,2.18-.93,3.1-.07.13-.14.25-.23.37-.4.6-.9,1.14-1.47,1.58l19.14,13.37,10.65,7.43c0-12.41,4.57-16.58,9.91-16.58s9.91,4.17,9.91,16.58c0,1.78-.17,4.88-1.07,7.96-1.44-.76-3-1.31-4.66-1.6h-.01c-.9-.16-1.82-.24-2.77-.24-1.2,0-2.37.13-3.5.39-4.48,1-8.25,3.89-10.43,7.79,1.35-.37,2.76-.57,4.22-.57.54,0,1.08.03,1.6.08-.85,1.4-1.49,2.94-1.87,4.58h23.85c.11-1.09.28-2.16.52-3.21.4-1.77.96-3.47,1.68-5.09,2.09-4.72,5.47-8.74,9.68-11.62-.27-1.56-.41-3.16-.41-4.79,0-2.07.22-4.08.66-6.02,1.07.24,2.19.37,3.34.37,3.71,0,7.1-1.34,9.72-3.57,3.23-2.75,5.27-6.84,5.27-11.41v-.39c-.02-1.77-.17-3.44-.44-5.04-1.39-8.58-5.84-14.88-8.73-22.37-1.48-3.84-3.78-7.74-3.78-13.66,0-7.43,3.75-9.9,6.08-9.9s3.52,1.93,3.52,3.72c0,.49-.09.95-.26,1.38-.55,1.44-1.94,2.46-3.57,2.46-1,0-1.91-.38-2.59-1-.25.52-.39,1.11-.39,1.73,0,2.24,1.81,4.05,4.05,4.05.12,0,.23,0,.34-.01-.07.51-.11,1.03-.11,1.56,0,3.59,1.77,6.77,4.49,8.71.08.01.17.03.25.04v-.2c0-2.38,1.16-4.48,2.94-5.77.98.51,2.09.79,3.27.79,1.56,0,3-.5,4.17-1.35.11-.08.21-.16.32-.25.94-.77,1.69-1.77,2.14-2.93-.37-.06-.72-.15-1.06-.27Z"/>
            <path class="cls-3" d="M57.73,83.36c5.55-3.46,15.11-15.59,16.25-20.99,2.46,2.26,4.3,5.6,4.95,10.26,1.74-1.96,5.95-7.95,8.87-15.07.76-1.68,1.34-3.47,1.69-5.33,0-.03.01-.05.02-.08.02-.1.03-.19.05-.28.15-.79.25-1.57.29-2.32,0,0,2.35.09,4.39,2.55,2.33-6.99-4.32-13.85-4.32-13.85,0,0,2.48-1.6,7.72.24-.58-7-5.08-12.91-9.19-15.02,3.77-2.96,5.59-5.92,6.52-11.34h-7.08c.86-2.02,1.56-4.12,2.07-6.3h-18.86c-.47,0-.93.03-1.38.1-.25.03-.5.08-.74.13-2.68.59-4.94,2.28-6.3,4.56.78.77,1.85,1.24,3.03,1.24.65,0,1.26-.14,1.81-.4.2-.09.39-.2.57-.31.01,0,.03-.02.04-.03.85-.57,1.88-.9,2.98-.9.23,0,.46.02.69.05.92.11,1.77.46,2.48.98-.33.32-.68.61-1.05.88-.61.44-1.26.81-1.96,1.11-1.18.5-2.49.78-3.86.78-.06,0-.12,0-.17,0-.42,0-.84-.04-1.24-.1-.73-.1-1.43-.28-2.09-.54-.05-.02-.1-.04-.15-.06-.64-.25-1.3-.46-1.98-.63-1.42-.36-2.91-.56-4.44-.56-.08,0-.16,0-.23,0-1.5.02-2.96.22-4.35.59.14.29.27.57.4.86.25.55.48,1.1.69,1.67.1.25.2.51.29.77.89,2.48,1.52,5.08,1.84,7.78,1.39-1,3.1-1.59,4.95-1.59.86,0,1.69.13,2.48.37.53.16,1.03.37,1.51.62.37.2.72.42,1.06.66,0,.03,0,.06-.01.08,0,.01,0,.02,0,.03-.23,1.89-1.09,3.59-2.35,4.89-.78.8-1.86,1.26-2.98,1.28-.04,0-.07,0-.11,0-1.57,0-3.04-.42-4.3-1.17-.02.78-.06,1.56-.14,2.33-.13,1.49-.36,2.95-.67,4.39-.09.41-.19.83-.29,1.24-.22.88-.48,1.75-.77,2.6,7.63-.57,15.28-1.74,21.03-6.21-6.97,9.78-22.16,9.11-22.16,9.11-.32.72-.66,1.43-1.02,2.12-.37.72-.78,1.43-1.2,2.11-.48.78-.98,1.54-1.52,2.27-1.6,2.22-3.46,4.24-5.52,6.03-.12.1-.24.2-.35.3-3.8,3.21-8.28,5.64-13.2,7.04-3.09.88-6.36,1.35-9.74,1.35-3.55,0-6.98-.52-10.21-1.49-2.49-.74-4.86-1.75-7.09-3-.75.75-1.21,1.79-1.21,2.93,0,.34.04.67.12.99-1.29.56-2.2,1.84-2.2,3.34,0,1.68,1.14,3.1,2.7,3.51-.08.28-.12.57-.12.87,0,1.77,1.43,3.2,3.2,3.2h30.18c8.56,0,16.29,3.6,21.74,9.37Z"/>
          </g>
        </g>
      </g>
    </symbol>
  </defs>
  <g id="Layer_1-2" data-name="Layer 1">
    <g>
      <line class="cls-2" x1="65.6" x2="65.6" y2="50.16"/>
      <g>
        <path class="cls-3" d="M116.31,26.95l-35.3-14.32,35.14,14.69s-.13.34.37.55c.34.14.92,0,.92,0l2.32.99c-.08.06-.14.13-.2.21-.29.43.08.99.65,1.42-.13-.27-.22-.56-.21-.79.32-.17.72-.5.98-.37.4.1.46.5.6.8.05.25.07.54.04.85.12-.18.21-.36.29-.55.23-.05.27-.68.47-.55.22.15.17.3.26.46-.05.22-.16.43-.3.62.39-.2.62-.43.73-.68.02-.01.03-.02.05-.03v2.2l-42.1-19.82,42.09,22.57,42.26-22.57-42.26,22.2v-2.2l42.26-20-35.04,14.22h0c-.21-.42-.52-.71-1.3-1.29-.16-.14-.16-.26,0-.37.66.59,1.44-.07,1.52-.8.01-.14,0-.31,0-.48-.03-.53-.11-1.12.22-1.08.07,0,.13,0,.2,0,.69-.01,1.23-.44,1.11-.78-.04-.11-.14-.21-.33-.28-.06-.02-.12-.04-.19-.06,1.2.04,2.1-2.13.52-2.23,2.02-.5,2.03-1.53,1.66-2-.05-.07-.12-.12-.18-.16,1.75-1,1.85-1.95,1.09-3.25,1.68-1.12,1.38-2.66.5-3.5,1.1-1.51,1.26-2.84.46-3.79,1.32-2.33.18-3.34-1.13-3.25-.23.02-.3.13-.43.27-.25,0-.2-.33-.08-.48.8-1.02,1.54-1.7.87-2.6-.18-.25-.62-.3-1.06-.06-.56.3-1.04,1.32-1.61,2.24-.17-.09-.05-.35.18-.67.06-.09.13-.18.21-.28.52-.69,1.23-1.53.75-1.86-.13-.09-.27-.12-.42-.11-.91.08-2.21,1.87-3.62,4.64-.23.46-.47.95-.71,1.47-.64,1.37-1.28,2.91-1.91,4.55-.04.08-.06.16-.02.32.2.2.22.83.1,1.58-.02.15-.05.3-.08.45-.23,1.06-.7,2.19-1.28,2.54-.85-.15-1.45-1.64-1.45-2.3,0-.61,1.25-1.68,1.58-2.12.36-.29.48-.16.71.13-.18-1.05-.65-1.71-1.48-1.33l-.88.42c.06-.37-.86-.61-1.61-.08-1.05.75-1.31.88-2.01,1.11-.1.07-.16.18-.18.33.21,1.46.14,2.71-.23,2.77-1.19-.68-.33-2.86.21-3.39.04-.17.02-.24-.02-.32-2.51-6.58-5.3-11.47-6.66-10.55-.8.54,1.68,2.52,1.14,2.81-.57-.91-1.05-1.94-1.61-2.24-.44-.24-.87-.19-1.06.06-.67.9.07,1.58.87,2.6.12.15.17.48-.08.48-.12-.15-.2-.26-.43-.27-1.31-.09-2.46.93-1.13,3.26-.79.94-.63,2.27.46,3.78-.88.84-1.18,2.38.5,3.5-.76,1.3-.66,2.26,1.09,3.25-.52.32-.83,1.58,1.48,2.16-1.59.1-.69,2.27.52,2.23-1.12.25-.28,1.21.79,1.1.44-.05.16,1.02.21,1.57.09.73.86,1.39,1.52.8.16.1.16.23,0,.37-.78.58-1.09.86-1.3,1.27h0ZM129.19,26.18c.25.22.49.43.54.5.03.03.06.07.1.11.06.07.12.13.15.2.02.04.03.08.03.11,0,.04-.02.08-.06.11-.11.09-.22.13-.35.13-.12,0-.24-.03-.39-.1-.5-.22-.93-.84-.95-.87l-.37-.77.14.06s.05.02.13.02c.05,0,.1,0,.15-.02l.21-.06.02.02s.34.29.64.55h0ZM129.05,20l.02.05-.05.02s-.04.01-.05.02c-.03.01-.06.02-.09.02-.03,0-.08,0-.16-.03-.36-.17-.82-.26-1.16-.32-.34-.06-.45-.09-.47-.15-.01-.02,0-.05,0-.07,0-.02.05-.1.47-.1.46,0,1.37.12,1.49.56h0ZM128.73,19.03v-.03l.03-.02s.11-.04.17-.04c.18,0,.36.13.42.24l.03.05-.05.03c-.08.05-.18.07-.28.07-.11,0-.19-.03-.24-.09-.05-.05-.08-.13-.07-.21h0ZM128.39,20.61v.21h-.06c-.27,0-.42-.16-.55-.3-.1-.11-.19-.21-.33-.25l-.17-.04.15-.07c.08-.03.13-.04.21-.04.16,0,.26.06.37.13.03.02.06.04.1.06l.04.02c.11.06.23.12.23.27h0ZM127.23,20.74c.11.05.24.11.34.22.19.2.18.29.16.35,0,.05-.03.23-.13.27h-.04s-.04-.04-.04-.04l-.53-.6s-.1-.19-.11-.2l-.05-.09h.11s.14.03.29.09h0ZM127.51,22.66l.03-.03.26.15.2.33s.24.48.38.82c0,0,0,0,0,0,.03.06.06.15.09.25.09.29.18.71.08,1.03-.07.22-.18.27-.26.27-.04,0-.07-.01-.09-.02l-.38-.07-.3-.25s-.22-.18-.29-1.24c-.06-.91.27-1.23.28-1.25h0ZM127.53,26.22s.01-.07.03-.1c.01-.02.03-.02.04-.02h0s.03.03.06.05c0,0,0,0,0,.01.02.03.04.06.07.1,0,0,0,.01.01.02.02.04.05.09.08.14,0,.01.02.03.02.04,0,0,0,0,0,.01.02.04.05.09.07.13.02.03.03.05.05.08.02.03.03.05.05.08.02.03.03.05.05.08.01.02.02.04.03.05.03.04.06.07.08.09.01.07,0,.27,0,.31,0,.02-.02.02-.04.02h-.01s-.04-.02-.07-.04c0,0,0,0-.01-.01-.03-.02-.05-.05-.08-.08h0s-.06-.08-.09-.12c0,0-.01-.02-.02-.03-.03-.05-.06-.09-.1-.14,0,0,0,0,0-.01-.03-.05-.06-.1-.09-.15,0,0,0-.01,0-.02-.03-.05-.05-.11-.07-.16,0,0,0-.02,0-.03-.02-.05-.03-.11-.04-.16,0-.04,0-.08,0-.12,0,0,0-.02,0-.03h0ZM130.14,24.65c-.03.13-.23.35-.46.46-.05.02-.1.04-.15.04-.15,0-.25-.1-.35-.19-.02-.02-.04-.03-.05-.05-.11-.1-.27-.53-.41-.96-.02-.06-.04-.11-.05-.15-.05-.14-.31-.6-.48-.9-.09-.15-.15-.26-.18-.31-.08-.15-.05-.23,0-.33l.02-.04c.06-.14.45-.41.52-.47.02,0,.06-.02.12-.02.08,0,.21.03.29.2.04.09.31.41.42.52.08.09.49.64.55.73.06.1.22.56.25.7.03.16.01.63-.02.76h0ZM131.81,22l.02.02v.03c-.01.07-.1.15-.5.15-.14,0-.31-.01-.51-.03-.12-.01-.24-.02-.36-.02-.63,0-.95.18-.99.21h0l-.03-.05-.03-.05h0c.59-.36,1.12-.54,1.58-.54.57,0,.82.28.83.29h0ZM131.95,20.17c-.09,0-.15,0-.21,0h-.16c-.17,0-.3.01-1.15.16-.68.12-1.53.42-1.54.43l-.04-.11c1.67-.73,1.69-.71,1.9-.7.03,0,.06,0,.1,0h.03c.8-.02,1.07.09,1.08.1l-.02.11h0ZM132.16,18.63c0,.08-.13.22-.98.23-.88.02-1.3.34-1.32.35l-.04-.05-.04-.04h0c.62-.5,1.19-.74,1.69-.74.44,0,.66.2.67.2l.02.02v.03h0ZM133.21,17.35c-.14-.02-.27-.03-.41-.03-.61,0-1.26.18-2.33.64l-.06-.1c1.11-.77,2.02-.97,2.83-.62l-.03.11h0ZM134.44,14.52c-.12-.08-.26-.12-.44-.12-.63,0-1.54.54-2.51,1.11-.23.14-.46.27-.7.41l-.06-.1c1.61-1.28,2.65-2.01,3.26-2.01.33,0,.51.22.54.66v.12s-.09-.07-.09-.07h0ZM135.03,10.91c-.11-.09-.23-.14-.37-.14-.59,0-1.45.74-2.27,1.46-.82.71-1.59,1.38-2.14,1.38-.03,0-.06,0-.09,0l-.14-.02.11-.08c.67-.51,1.28-1.12,1.82-1.65.86-.86,1.61-1.6,2.27-1.6.34,0,.64.19.91.58l-.09.08h0ZM135.25,6.75l.14.1h-.17c-.43.02-1.38,1.17-2.29,2.28-.86,1.05-1.76,2.14-2.4,2.53l-.07-.09c.94-1.03,1.73-2,2.36-2.79,1.03-1.27,1.7-2.12,2.19-2.12.09,0,.17.03.24.08h0ZM134.51,1.01c.12,0,.29.05.38.28l.05.12-.12-.05s-.08-.02-.13-.02c-.45,0-1.14.71-2.03,1.77l-.1-.05c.22-.79,1.33-2.06,1.95-2.06h0ZM131.58,4.59s.01-.1.02-.18c.03-.27.06-.67.14-.86.17-.42.55-.58.66-.62l.14-.05-.07.13c-.32.58-.36.84-.42,1.22-.03.16-.05.33-.11.56-.08.35-.83,1.36-1.24,1.9-.07.09-.12.16-.16.21l-.09-.07c.27-.41,1.06-1.71,1.14-2.25h0ZM131.49,7.3c1.3-1.95,2.42-3.63,3.11-3.63.1,0,.19.03.27.1l.1.08-.13.02c-.69.09-1.9,1.89-3.07,3.63-1.02,1.52-1.99,2.96-2.63,3.31l-.07-.09c.83-1.03,1.64-2.25,2.42-3.42h0ZM128.84,13.11s.02.09-.01.14c-.11.19-.54.51-.73.51-.07,0-.1-.04-.11-.06-.02-.04-.03-.1.02-.19.11-.19.5-.47.71-.47.08,0,.11.04.13.06h0ZM128.44,12.31s.09.03.1.07c.05.12.04.24-.03.34-.11.15-.32.23-.44.23h-.02c-.06,0-.1-.05-.1-.11,0-.16.32-.53.49-.53ZM127.82,14.33c.13-.2.61-.46.85-.46.1,0,.15.05.17.08.01.03.02.07-.02.13-.11.18-.64.49-.88.49-.09,0-.13-.04-.14-.08-.02-.03-.03-.09.02-.17h0ZM128.83,14.47l-.08.14c-.08.13-.15.23-.32.28l-.12.03.05-.11c.08-.17.17-.23.32-.28l.15-.05h0ZM127.87,15.92c.3-.35,1.18-.83,1.34-.83.08,0,.09.14.09.17,0,.19-.11.65-1.38.76h-.14s.09-.09.09-.09h0ZM127.6,16.82s.66-.29.93-.42c.05-.02.09-.05.14-.08.21-.11.44-.25.61-.23h.05s0,.05,0,.05c.04.26-.19.37-.41.48l-.06.03c-.23.12-.88.29-1.15.29-.06,0-.1,0-.12-.02l-.11-.06.11-.05h0ZM127.5,17.55s.69-.22.98-.33c.05-.02.1-.04.16-.07.22-.09.48-.2.63-.16h.05s0,.06,0,.06c-.03.28-.27.37-.5.46l-.06.02c-.21.08-.72.17-1.01.17-.18,0-.23-.03-.26-.05l-.08-.07.1-.03h0ZM126.87,18.49c.7-.17,1.24-.34,1.63-.47.38-.12.63-.2.78-.2.11,0,.18.04.2.12v.02s0,.02,0,.02c-.11.57-.87.64-1.33.68-.1,0-.23.02-.39.02-.32,0-.82-.03-.92-.08l-.12-.07.14-.03h0ZM126.33,21.09l.06-.02c.1,0,.53.25.59.34.05.07.12.18.08.33,0,.03-.01.05-.01.05v.05s-.09,0-.09,0h0s-.11.01-.18.01c-.05,0-.08,0-.11-.02-.01,0-.02,0-.03,0-.05,0-.08-.03-.11-.1-.04-.07-.09-.23-.14-.37l-.05-.16v-.12ZM127.18,26.69s.02-.04.03-.06l.09-.06c.09.09.27.4.56.65.13.11.45.26.45.43,0,.03-.08.08-.2.15l-1.62.76c-.04-.06-.09-.09-.14-.11-.01,0-.03-.02-.04-.02h0s-.02,0-.02-.02c0-.04,0-.08-.02-.12l.91-1.6h0ZM126.31,28.64s0,0,0,0c.01.02.03.03.04.05.07.12.09.33.01.58-.06.2-.19.41-.44.62.1-.12.19-.32.23-.54.06-.34-.02-.72-.39-.85.17-.11.41-.03.54.13h0ZM118.46,27.39s-.02-.23,0-.3c.22-.16.53-1.03.63-.86.21.35-.54,1.35-.62,1.17ZM118.31,25.5c-.23,0-.43-.18-.43-.41,0-.74.85-2.29,1.13-2.26.19.03.2.76.2,1.01,0,.74-.17,1.66-.9,1.66h0ZM119.77,29.8c.03.12.07.24.14.37-.13-.12-.22-.25-.28-.38-.1-.21-.1-.42-.02-.59.03-.06.06-.11.1-.16.05-.05.09-.08.14-.12.16-.11.35-.13.57-.06-.48.12-.77.45-.66.94h0ZM121.8,30.42s-.03.07-.04.11c0-.05,0-.09.01-.13.06-.48-.02-.81-.15-1.08-.15-.35-.42-.3-.37-.47.14-.36.35-.07.51.17.22.31.26.78.04,1.4h0ZM122.89,30.37c-.07.11-.17.22-.29.33.06-.07.12-.18.16-.29.14-.39.14-.93-.32-1.1.18-.12.47-.03.59.18.09.17.11.51-.13.88h0ZM123.47,29.23c-.11.14-.21.29-.31.46-.02-.32-.15-.47-.3-.54h-.03c-.19-.21-.47-.39-.83-.54.14-.33.38-.64.73-.92h.18c.31.38.6.64.89.78-.1.06-.19.15-.26.25-.11.16-.12.33-.08.51h0ZM124.19,28.6c-.08.04-.15.09-.21.14-.26.24-.33.61-.06,1.08-.24-.23-.36-.47-.36-.7,0-.16.05-.31.17-.44.06-.07.13-.11.21-.15.15-.07.32-.09.5-.02-.09.02-.17.06-.25.09h0ZM125.48,29.63c-.03.19-.08.39-.17.61.04-.22.04-.39.03-.56-.02-.22-.06-.4-.13-.56-.01-.03-.03-.07-.04-.1-.15-.35-.42-.3-.37-.47.12-.29.27-.16.41.03.03.05.07.09.1.14.15.22.22.53.17.91h0ZM125.22,23.7c.06.08-.27.66-.27.98,0,.98-.46,1.8-.18,2.11.39.43.7,1.1.01,1.1-.75,0-1.32-1.13-1.32-1.88,0-1.17.02-2.17.3-2.87.67.03,1.12.17,1.45.57h0ZM123.83,10.61c.1-.05.16-.06.27-.06.14,0,.18.07.24.19.3-.16.43-.4.77-.4.09,0,.33,0,.33.09,0,.13-.18.11-.29.17-.12.06-.89.53-1.15.82-.33-.27-.24-.74-.17-.81h0ZM120.34,11.88c-.03-.1.01-.12.1-.23.61-.17,2.37-1.77,2.98-1.21l.03.28c-.17.27-1.5.29-1.26,1.03.75.07,1.11-.11,1.08-.53.07-.07.13-.06.19.04.05,2.08-2.26.88-2.43.89-.13.03-.16.09-.14.2.06.29.85.55,1.12,1.08.25.49.62.47.88.97.12.22.03,2.07.01,2.39-.04.61,1.09.67,1.07,1.02l.03,1.63c.05,1.61-.85,2.42-2.09,3.31-.35.25.02.51-.32,2.13-.12.54-.46,1.85-.53,2.11-.06.24.52.36.4.64-.09.22-.36.6-.72.51-.4-.61-.91-1.87-.87-3.57.03-1.27.34-2.18.3-3.32-.04-1.06-.35-2.3-.45-3.61-.06-.77,1.17-3.76.61-5.77h0ZM120.43,28.51c-.06,0-.2.04-.28.16l-1.65-.78c.41-.29.73-.66.96-1.09l.97,1.7h0ZM119.25,22.27s-.17-.63.18-.52c.34.1-.03.37-.18.52ZM119.39,15.74c0,.07-.08.02-.16-.05-.51-.44-.72-1.33-.44-2.2-.16.99.07,1.56.6,2.25h0ZM118.8,12.48c-.03.57-.52,1.84-.57,2.7-.03.45.29.88.48,1.19-.23.17-.41-.38-.68-.38-.11,0-.16.17-.16.28,0,.2.12.36.3.44.33.14,1.15.09.87.32-.16.13-.79-.17-.87-.18-.23-.05-.31.34-.05.51.15.09.27.08.45.1.04.01.05.11.01.13-.29.13-.47.11-.47.42,0,.23.15.32.34.42-.18.07-.47.21-.46.48,0,.32.52.35.69.38-.2.12-.37.23-.37.5,0,.18.23.3.41.3-.2.33-.24.56.28.52-.31.63.32.6.43.35,0,.48-.69,1.09-.96.7-.21-.3.33-.58.14-.81-.23-.29-.4.42-.69.42-.15,0-.36-.17-.36-.32,0-.43.76-.31.76-.74,0-.08-.03-.13-.12-.13-.28,0-.27.26-.55.26-.22,0-.38-.04-.38-.26,0-.43.67-.28.62-.69-.09-.68-1.19-.6-1.19-1.29,0-.1.11-.14.21-.14.29,0,.36.38.66.38.08,0,.15-.06.15-.14,0-.51-.9-.49-.86-1,.02-.26.8.57.85.07.02-.21-.89-.49-.83-.95.02-.18.84.58.87.11-.07-.2-.71-.59-.59-1.02.04-.15.51.65.69.49.05-.04-.64-.86-.55-1.09.12-.29.37.39.65.46.04.01.14-.13.08-.25-.14-.27-.58-.63-.46-.93.05-.14.47.53.54.32.06-.2-.59-.73-.49-1.09.06-.22.28-.12.29.05,0,.25.18.21.26.15.05-.04.09-.08.09-.14-.02-.24-.24-.33-.24-.56.01-.53.36-.36.65-.52.07-.04.13.09.13.17h0ZM117.19,19.46c-.17,0-.3-.42-.3-.44,0-.12.39.08.52.15.16.09-.12.29-.22.29h0ZM113.56.95c-.37-.64.21-.71.56-.47.11.08.32.35.44.51-.34.19-.04.53.97,1.99-.23-.09-.29-.13-.44-.01l-1.52-2.01h0ZM113.76,4.04c0,.15-.03.28-.16.36-.09.06-.21.08-.21.19,0,.21,1.53,2.71,1.62,2.9.23.45,2.95,4.18,3.12,4.1.1-.05.06-1.25-.93-3.33-.09-.18-1.61-2.89-1.93-3.42-.16-.26-.42-.72-.42-1.03,0-.12.18-.55.46-.55.14,0,.3.05.3.19s-.18.15-.23.28c-.3.72,1.82,3.11,2.84,6.92.07.25.14.83.13.97-.02.15-.03.45-.14.54-.37-.37-3.1-3.73-4.12-5.52-.18-.32-1.09-1.8-1.09-2.17,0-.29.15-.57.43-.59.16-.01.32.12.32.17h0ZM112.66,2.98c-.51-.51-.84-.83-.84-1.53,0-.29.15-.49.43-.49.33,0,.62.11.62.44,0,.27-.22.32-.22.59,0,.64.73.88.93,1.49-.12.04-.31-.07-.44.08-.02.02-.3-.41-.48-.58h0ZM111.21,4.3c.51-.51,1.33-.31,1.24.31-.25.24-.48.78.06,1.59l4.17,5.75-3.09-3.94c-.68-1.07-1.38-1.39-1.81-1.1-.91-1.06-1.11-2.08-.57-2.61h0ZM111.29,7.48c.12-.23.98-.34,1.08-.34.2,0,.57.16.54.35-.18.95-1.04.38-1.04.85,0,.09.47.54.89,1.32.17.31,3.11,3.34,3.31,3.71l-.05-.02c-.27-.24-1.5-1.29-1.69-1.51-.79-.87-1.13-1.52-1.74-1.16-.11.07-2.26-1.37-1.3-3.19h0ZM111.32,12.45c0-.4.08-1,.36-1.29.43-.43.95-.28,1.17-.37.21-.08.58.18.58.37,0,.16-.12.45-.23.56-.21.19-.57.2-.57.49,0,.76,1.7,2.16,2.06,2.45.43.34.56.49.65.74-.03,0-.22-.11-.31-.17-.2-.13-.32-.2-.49-.37-.45-.45-1.36-1.11-1.93-.74-.84-.51-1.29-1.4-1.29-1.66h0ZM112.66,16.74c-.3-.36-.64-.83-.64-1.3,0-.43.34-.89.67-1.09.3-.19.65-.23.91,0,.08.07.18.11.18.22,0,.37-.66.62-.66.99,0,.4.37.78.68,1.03.57.47,1.12.32,1.68.81.19.16.34.22.43.45-.35-.03-.49-.22-.78-.41-.38-.24-.61-.42-1.05-.32-.22.05-.29.13-.38.1-.4-.13-.81-.21-1.04-.49h0ZM114.48,19.23c-.59-.41-1.38-.4-1.41-1.15-.02-.6,1.05-.54,1.05-.35l-.13.42c0,.51.66.47,1.05.81.19.16.82.72,1.07.84.17.07.36.11.51.2-.02.01-.24.03-.31.02-.37-.02-1.54-.58-1.85-.79h0ZM114.23,20.32c.11-.16.56.39.56.39,0,0,.24.04.75.39.51.35,1.26.43,1.26.43,0,0-.57.34-1.52-.02-1.71-.64-1.15-1.03-1.04-1.19h0ZM116.17,22.68c-1.31-.03-1.23-.46-1.2-.59.04-.13.35,0,.35,0,0,0,.09.27.52.39.42.12.95,0,.95,0,0,0,.11.23-.61.21h0ZM117.68,24.16c-.19.54-.36.93-.79.93-.36,0-.56-.41-.53-.75.03-.57.11-1.04.98-1.88.13-.11.39-.53.57-.58.24-.07.63.35.66.61.04.31-.56.72-.89,1.67h0ZM117.98,25.86c.12.05.32.11.47.06-.18.66-.62,1.25-1.12,1.52-.45.18-.68.09-.63-.11.14-.54,1.02-1.14,1.28-1.46Z"/>
        <path class="cls-3" d="M90.64,44.54c1.08-.38,1.76-1.31,1.76-2.44,0-1.71-1.34-2.82-3.41-2.82h-7.92v10.89h8.01c2.16,0,3.56-1.17,3.56-2.98,0-1.24-.8-2.28-2-2.64ZM82.23,40.35h6.64c1.43,0,2.31.71,2.31,1.86s-.89,1.84-2.31,1.84h-6.64v-3.7ZM88.95,49.07h-6.72v-3.96h6.72c1.59,0,2.47.71,2.47,1.99s-.88,1.97-2.47,1.97h0Z"/>
        <polygon class="cls-3" points="95.3 45.13 99.75 45.13 99.75 44.04 95.3 44.04 95.3 40.35 104.13 40.35 104.13 39.28 94.13 39.28 94.13 50.16 104.34 50.16 104.34 49.07 95.3 49.07 95.3 45.13"/>
        <path class="cls-3" d="M116.75,42.51c0-2.03-1.42-3.24-3.8-3.24h-6.51v10.89h1.17v-4.39h4.2l3.69,4.36.03.03h1.53l-3.81-4.42c2.26-.16,3.5-1.3,3.5-3.23h0ZM107.6,44.68v-4.33h5.33c1.7,0,2.6.75,2.6,2.16s-.9,2.16-2.6,2.16h-5.33Z"/>
        <polygon class="cls-3" points="117.7 40.37 122.54 40.37 122.54 50.16 123.71 50.16 123.71 40.37 128.72 40.37 128.72 39.28 117.7 39.28 117.7 40.37"/>
        <path class="cls-3" d="M140.23,42.51c0-2.03-1.42-3.24-3.8-3.24h-6.51v10.89h1.17v-4.39h4.2l3.69,4.36.03.03h1.53l-3.81-4.42c2.26-.16,3.5-1.3,3.5-3.23h0ZM131.09,44.68v-4.33h5.33c1.7,0,2.6.75,2.6,2.16s-.9,2.16-2.6,2.16h-5.33Z"/>
        <path class="cls-3" d="M147.52,39.28h-1.27l-5.02,10.89h1.28l1.18-2.61h6.38l1.18,2.61h1.3l-5.01-10.83-.03-.06h0ZM144.18,46.49l2.71-5.98,2.71,5.98h-5.41Z"/>
        <polygon class="cls-3" points="159.64 48.12 155.53 39.28 153.98 39.28 153.98 50.16 155.11 50.16 155.11 40.96 159.39 50.16 159.9 50.16 164.17 40.96 164.17 50.16 165.31 50.16 165.31 39.28 163.76 39.28 159.64 48.12"/>
      </g>
      <g>
        <g>
          <circle class="cls-1" cx="25.08" cy="25.08" r="21.22"/>
          <path class="cls-3" d="M25.08,50.17C11.25,50.17,0,38.91,0,25.08S11.25,0,25.08,0s25.08,11.25,25.08,25.08-11.25,25.08-25.08,25.08ZM25.08,7.72c-9.57,0-17.36,7.79-17.36,17.36s7.79,17.36,17.36,17.36,17.36-7.79,17.36-17.36S34.66,7.72,25.08,7.72Z"/>
        </g>
        <g>
          <g>
            <path class="cls-1" d="M15.45,41.11l1.79.9.42,1.25-.03.06c-.29.58-.69.94-1.17,1.07l.29.86-.5,1-1.24.42-1.87-.94,2.31-4.62ZM14.71,45.68c.45.22.74.13.96-.31l.05-.1c.19-.38.12-.68-.19-.89-.19-.05-.39-.12-.59-.22l-.66,1.31.43.21ZM16.64,43.27c.21-.41.1-.69-.35-.91l-.37-.19-.67,1.35c.71.35,1.13.27,1.39-.25Z"/>
            <path class="cls-1" d="M19.51,42.89l1.17.32-.4,5.25-.82-.23c-.01-.52-.24-.95-.55-1.03-.31-.09-.72.16-1,.6l-.78-.22,2.38-4.71ZM19.11,46.49c.16.05.32.16.47.34l.14-1.75.13-1.15h-.04s-.48,1.04-.48,1.04l-.78,1.56c.2-.07.39-.09.56-.05Z"/>
            <path class="cls-1" d="M21.7,47.8l.08-.95.89.07-.04.53c-.03.38.16.6.54.63.38.03.6-.16.63-.54.02-.18-.08-.41-.26-.59l-1.6-1.63.08-.92,1.01-.85,1.02.08.85,1.01-.06.75-.89-.07.03-.35c.03-.38-.14-.6-.49-.63-.35-.03-.57.13-.59.44-.01.13.09.32.25.49l1.61,1.65-.09,1.12-1.01.85-1.09-.09-.85-1.01Z"/>
            <path class="cls-1" d="M25.68,43.77l.89-.1.24,2.16c.12-.01.24-.01.35,0l.63-2.3.89-.1-.74,2.63c.7.4,1.19,1.28,1.32,2.51l-.9.1c-.15-1.4-.68-2.15-1.46-2.09l.24,2.23-.89.1-.56-5.14Z"/>
            <path class="cls-1" d="M29.41,43.25l2.39-.74.22.72-1.53.47.43,1.41c.21-.2.71-.4,1.24-.54l.22.72c-.62.15-1.03.33-1.24.54l.41,1.34,1.6-.49.23.74-2.46.76-1.52-4.94Z"/>
            <path class="cls-1" d="M33.54,42.51l-.89.46-.33-.65,2.57-1.32.33.65-.89.46,2.04,3.95-.8.41-2.04-3.95Z"/>
          </g>
          <g>
            <path class="cls-1" d="M9.03,7.44l1.56-1.26,1.31.14,1.52,1.9c.73.9.63,1.81-.26,2.53l-.9.73-3.24-4.03ZM12.82,8.92l-1.3-1.61c-.29-.36-.65-.4-1.01-.11l-.32.26,2.3,2.86.22-.17c.48-.39.51-.72.11-1.22Z"/>
            <path class="cls-1" d="M12.82,4.63l2.21-1.18.36.67-1.42.76.69,1.3c.17-.23.62-.53,1.12-.76l.36.67c-.58.26-.95.52-1.11.77l.66,1.24,1.48-.79.36.68-2.27,1.21-2.43-4.56Z"/>
            <path class="cls-1" d="M16.62,2.78l1.9-.59,1.17.62.07.21c.23.74.14,1.33-.28,1.77.69.21,1.2.89,1.56,2.04l-.86.27c-.43-1.37-.93-1.87-1.68-1.64l-.1.03.61,1.97-.86.27-1.53-4.94ZM19,3.69l-.05-.18c-.12-.39-.45-.55-.88-.42l-.38.12.49,1.57c.74-.24.99-.57.83-1.09Z"/>
            <path class="cls-1" d="M22,2.2l-.99.11-.08-.72,2.87-.33.08.72-.99.11.5,4.42-.89.1-.5-4.42Z"/>
            <path class="cls-1" d="M27.24,4.46c-.08-.19-.31-.32-.59-.35-.29-.02-.53.08-.63.26l-.15,2.08-.89-.07.38-5.16.89.07-.16,2.2c.21-.1.43-.15.63-.13.2.01.4.09.6.21l.16-2.19.89.07-.38,5.16-.89-.07.15-2.09Z"/>
            <path class="cls-1" d="M28.97,5.88l.94-3.26,1.17-.64,1.2.35.65,1.16-.94,3.26-1.17.64-1.2-.35-.65-1.16ZM31.24,6.09l.71-2.46c.09-.32-.12-.64-.48-.75s-.71.06-.8.38l-.71,2.46c-.09.32.12.64.48.75.36.1.71-.06.8-.38Z"/>
            <path class="cls-1" d="M34.87,3.32l.86.46-.48,3.29-.06.22.03.02,1.57-2.97.76.4-2.42,4.57-.83-.44.45-3.28.05-.23-.03-.02-.06.13-1.49,2.82-.77-.41,2.42-4.57Z"/>
            <path class="cls-1" d="M39.61,6.21l.94.76-2.47,4.66-.66-.54c.2-.49.16-.97-.09-1.17-.25-.2-.73-.14-1.16.15l-.63-.51,4.06-3.36ZM37.8,9.36c.13.11.23.28.29.5l.83-1.55.58-1-.03-.02-.86.77-1.34,1.12c.22.02.4.07.53.18Z"/>
          </g>
        </g>
        <g>
          <path class="cls-1" d="M2.76,27.18h-.58v-2.97l.38-.39h.2v3.36Z"/>
          <path class="cls-1" d="M3.55,24.4l.62-.61h.76l.62.61v2.21l-.62.61h-.69l-.62-.61v-.47h.57v.21c0,.24.15.38.38.38s.38-.15.38-.38v-.68l-.25.27h-.54l-.62-.61v-.92ZM4.52,25.43c.24,0,.43-.17.43-.39v-.38c0-.22-.17-.38-.41-.38s-.41.17-.41.38v.38c0,.24.15.39.38.39Z"/>
        </g>
        <g>
          <path class="cls-1" d="M44.04,23.82h1.93v.51h-1.33v.74l.23-.24h.56l.62.61v1.16l-.62.61h-.76l-.62-.61v-.54h.59v.26c0,.22.17.38.41.38s.41-.17.41-.38v-.62c0-.24-.15-.39-.38-.39s-.43.17-.43.37v.02h-.59v-1.89Z"/>
          <path class="cls-1" d="M46.75,23.82h1.93v.51h-1.33v.74l.23-.24h.56l.62.61v1.16l-.62.61h-.76l-.62-.61v-.54h.59v.26c0,.22.17.38.41.38s.41-.17.41-.38v-.62c0-.24-.15-.39-.38-.39s-.43.17-.43.37v.02h-.59v-1.89Z"/>
        </g>
        <use width="117.67" height="155.94" transform="translate(13.77 10.59) scale(.19)" xlink:href="#Derthona_Lion_White"/>
      </g>
    </g>
  </g>
</svg>