<?xml version="1.0" encoding="UTF-8"?>
<svg id="Layer_1" data-name="Layer 1" xmlns="http://www.w3.org/2000/svg" viewBox="0 0 595.28 841.89">
  <defs>
    <style>
      .cls-1 {
        fill: #2d2926;
      }

      .cls-2 {
        fill: none;
        stroke: #ee3441;
        stroke-width: 10px;
      }
    </style>
  </defs>
  <rect class="cls-1" width="595.28" height="841.89"/>
  <g>
    <path class="cls-2" d="M441.03,988.22c-13.79-48.54-34.02-87.92-60.66-118.17-26.67-30.21-54.25-45.33-82.73-45.33s-57.46,15.12-84.11,45.33c-26.67,30.24-46.43,69.63-59.29,118.17"/>
    <path class="cls-2" d="M457.63,977.99c-15.38-54.39-37.96-98.52-67.69-132.4-29.76-33.85-60.53-50.79-92.3-50.79s-64.11,16.94-93.84,50.79c-29.76,33.89-51.8,78.02-66.16,132.4"/>
    <path class="cls-2" d="M474.23,967.77c-16.98-60.23-41.89-109.11-74.71-146.64-32.85-37.49-66.81-56.25-101.88-56.25s-70.76,18.76-103.58,56.25c-32.85,37.53-57.17,86.41-73.02,146.64"/>
    <path class="cls-2" d="M490.83,957.54c-18.58-66.08-45.83-119.7-81.73-160.88-35.94-41.13-73.09-61.71-111.46-61.71s-77.42,20.58-113.32,61.71c-35.94,41.17-62.55,94.8-79.88,160.88"/>
    <path class="cls-2" d="M507.43,947.31c-20.17-71.93-49.77-130.3-88.76-175.11-39.02-44.77-79.37-67.18-121.03-67.18s-84.07,22.4-123.05,67.18c-39.02,44.82-67.92,103.18-86.75,175.11"/>
    <path class="cls-2" d="M524.03,937.08c-21.77-77.78-53.71-140.89-95.78-189.35-42.11-48.41-85.65-72.64-130.61-72.64s-90.72,24.22-132.79,72.64c-42.11,48.46-73.3,111.57-93.61,189.35"/>
    <path class="cls-2" d="M540.63,926.85c-23.36-83.63-57.65-151.48-102.8-203.59-45.2-52.05-91.93-78.1-140.19-78.1s-97.37,26.05-142.53,78.1c-45.2,52.1-78.67,119.96-100.47,203.59"/>
    <path class="cls-2" d="M557.23,916.63c-24.96-89.47-61.59-162.08-109.83-217.83-48.29-55.69-98.21-83.56-149.76-83.56s-104.02,27.87-152.26,83.56c-48.29,55.75-84.05,128.35-107.34,217.83"/>
    <path class="cls-2" d="M573.83,906.4c-26.56-95.32-65.52-172.67-116.85-232.06-51.38-59.33-104.49-89.02-159.34-89.02s-110.68,29.69-162,89.02c-51.38,59.39-89.42,136.74-114.2,232.06"/>
    <path class="cls-2" d="M590.43,896.17c-28.15-101.17-69.46-183.27-123.87-246.3-54.46-62.97-110.77-94.48-168.92-94.48s-117.33,31.51-171.74,94.48c-54.46,63.03-94.8,145.13-121.07,246.3"/>
    <path class="cls-2" d="M607.03,885.94c-29.75-107.02-73.4-193.86-130.89-260.54-57.55-66.61-117.05-99.95-178.5-99.95s-123.98,33.33-181.47,99.95c-57.55,66.68-100.17,153.52-127.93,260.54"/>
    <path class="cls-2" d="M623.63,875.71c-31.35-112.87-77.34-204.45-137.92-274.77-60.64-70.25-123.33-105.41-188.07-105.41s-130.63,35.15-191.21,105.41C45.8,671.26.89,762.85-28.36,875.71"/>
    <path class="cls-2" d="M640.23,865.49c-32.94-118.71-81.28-215.05-144.94-289.01-63.73-73.89-129.61-110.87-197.65-110.87s-137.28,36.97-200.95,110.87c-63.73,73.97-110.92,170.3-141.66,289.01"/>
    <path class="cls-2" d="M656.84,855.26c-34.54-124.56-85.21-225.64-151.96-303.25-66.82-77.53-135.89-116.33-207.23-116.33s-143.94,38.8-210.68,116.33c-66.82,77.61-116.3,178.69-148.52,303.25"/>
    <path class="cls-2" d="M673.44,845.03c-36.13-130.41-89.15-236.23-158.99-317.49-69.9-81.18-142.17-121.79-216.8-121.79s-150.59,40.62-220.42,121.79c-69.9,81.25-121.67,187.08-155.39,317.49"/>
    <path class="cls-2" d="M690.04,834.8c-37.73-136.26-93.09-246.83-166.01-331.72-72.99-84.82-148.45-127.25-226.38-127.25s-157.24,42.44-230.16,127.25c-72.99,84.9-127.04,195.46-162.25,331.72"/>
    <path class="cls-2" d="M706.64,824.58c-39.33-142.11-97.03-257.42-173.03-345.96-76.08-88.46-154.73-132.71-235.96-132.71s-163.89,44.26-239.89,132.71c-76.08,88.54-132.42,203.85-169.11,345.96"/>
    <path class="cls-2" d="M723.24,814.35c-40.92-147.95-100.97-268.01-180.05-360.2-79.17-92.1-161.01-138.18-245.53-138.18s-170.54,46.08-249.63,138.18c-79.17,92.18-137.79,212.24-175.98,360.2"/>
    <path class="cls-2" d="M739.84,804.12c-42.52-153.8-104.91-278.61-187.08-374.43-82.26-95.74-167.29-143.64-255.11-143.64s-177.2,47.9-259.37,143.64c-82.26,95.83-143.17,220.63-182.84,374.43"/>
    <path class="cls-2" d="M756.44,793.89c-44.11-159.65-108.84-289.2-194.1-388.67-85.34-99.38-173.57-149.1-264.69-149.1S113.8,305.84,28.54,405.22c-85.34,99.47-148.54,229.02-189.71,388.67"/>
    <path class="cls-2" d="M773.04,783.66c-45.71-165.5-112.78-299.79-201.12-402.91-88.43-103.02-179.85-154.56-274.26-154.56S107.15,277.74,18.81,380.76c-88.43,103.12-153.92,237.41-196.57,402.91"/>
    <path class="cls-2" d="M789.64,773.44c-47.31-171.35-116.72-310.39-208.15-417.15-91.52-106.66-186.13-160.02-283.84-160.02S100.5,249.63,9.07,356.29c-91.52,106.76-159.29,245.8-203.43,417.15"/>
    <path class="cls-2" d="M806.24,763.21c-48.9-177.19-120.66-320.98-215.17-431.38-94.61-110.3-192.41-165.48-293.42-165.48S93.85,221.53-.66,331.83c-94.61,110.4-164.67,254.19-210.3,431.38"/>
    <path class="cls-2" d="M822.84,752.98c-50.5-183.04-124.6-331.57-222.19-445.62-97.69-113.94-198.69-170.95-303-170.95S87.2,193.42-10.4,307.36c-97.69,114.05-170.04,262.58-217.16,445.62"/>
    <path class="cls-2" d="M839.44,742.75c-52.1-188.89-128.53-342.17-229.21-459.86-100.78-117.58-204.97-176.41-312.57-176.41S80.54,165.32-20.14,282.9c-100.78,117.69-175.42,270.97-224.03,459.86"/>
    <path class="cls-2" d="M856.04,732.52c-53.69-194.74-132.47-352.76-236.24-474.09-103.87-121.22-211.25-181.87-322.15-181.87S73.89,137.21-29.87,258.43c-103.87,121.33-180.79,279.35-230.89,474.09"/>
    <path class="cls-2" d="M872.64,722.3c-55.29-200.59-136.41-363.35-243.26-488.33-106.96-124.86-217.53-187.33-331.73-187.33S67.24,109.11-39.61,233.97c-106.96,124.98-186.16,287.74-237.75,488.33"/>
    <path class="cls-2" d="M889.24,712.07c-56.88-206.44-140.35-373.95-250.28-502.57C528.91,81,415.14,16.71,297.65,16.71S60.59,81-49.35,209.5c-110.05,128.62-191.54,296.13-244.62,502.57"/>
    <path class="cls-2" d="M905.84,701.84c-58.48-212.28-144.29-384.54-257.31-516.81C535.4,52.9,418.44-13.22,297.65-13.22S53.94,52.9-59.08,185.04c-113.13,132.26-196.91,304.52-251.48,516.81"/>
    <path class="cls-2" d="M922.44,691.61c-60.08-218.13-148.23-395.13-264.33-531.04C541.89,24.79,421.74-43.14,297.65-43.14S47.29,24.79-68.82,160.57c-116.22,135.91-202.29,312.91-258.35,531.04"/>
    <path class="cls-2" d="M939.04,681.39c-61.67-223.98-152.16-405.73-271.35-545.28C548.38-3.31,425.03-73.07,297.65-73.07S40.63-3.31-78.55,136.11c-119.31,139.55-207.66,321.3-265.21,545.28"/>
    <path class="cls-2" d="M955.64,671.16c-63.27-229.83-156.1-416.32-278.38-559.52C554.87-31.42,428.33-103,297.65-103S33.98-31.42-88.29,111.64c-122.4,143.2-213.04,329.69-272.07,559.52"/>
  </g>
</svg>