<?xml version="1.0" encoding="UTF-8"?>
<svg id="Layer_1" data-name="Layer 1" xmlns="http://www.w3.org/2000/svg" viewBox="0 0 595.28 841.89">
  <defs>
    <style>
      .cls-1 {
        fill: #2d2926;
      }

      .cls-2 {
        stroke-width: 40px;
      }

      .cls-2, .cls-3, .cls-4, .cls-5, .cls-6, .cls-7, .cls-8, .cls-9, .cls-10, .cls-11, .cls-12, .cls-13, .cls-14, .cls-15, .cls-16, .cls-17, .cls-18, .cls-19, .cls-20, .cls-21, .cls-22, .cls-23 {
        fill: none;
        stroke: #ee3441;
      }

      .cls-3 {
        stroke-width: 36.57px;
      }

      .cls-4 {
        stroke-width: 29.71px;
      }

      .cls-5 {
        stroke-width: 28px;
      }

      .cls-6 {
        stroke-width: 38.29px;
      }

      .cls-7 {
        stroke-width: 33.14px;
      }

      .cls-8 {
        stroke-width: 34.86px;
      }

      .cls-9 {
        stroke-width: 31.43px;
      }

      .cls-10 {
        stroke-width: 4px;
      }

      .cls-11 {
        stroke-width: 10.86px;
      }

      .cls-12 {
        stroke-width: 12.57px;
      }

      .cls-13 {
        stroke-width: 7.43px;
      }

      .cls-14 {
        stroke-width: 9.14px;
      }

      .cls-15 {
        stroke-width: 5.71px;
      }

      .cls-16 {
        stroke-width: 21.14px;
      }

      .cls-17 {
        stroke-width: 26.29px;
      }

      .cls-18 {
        stroke-width: 19.43px;
      }

      .cls-19 {
        stroke-width: 24.57px;
      }

      .cls-20 {
        stroke-width: 22.86px;
      }

      .cls-21 {
        stroke-width: 14.29px;
      }

      .cls-22 {
        stroke-width: 17.71px;
      }

      .cls-23 {
        stroke-width: 16px;
      }
    </style>
  </defs>
  <rect class="cls-1" width="595.28" height="841.89"/>
  <g>
    <path class="cls-2" d="M955.64,671.16S765.66-103,297.65-103-360.36,671.16-360.36,671.16"/>
    <path class="cls-6" d="M955.64,679.29S759.73-58,297.65-58-360.36,679.29-360.36,679.29"/>
    <path class="cls-3" d="M955.64,687.42S753.79-13.01,297.65-13.01-360.36,687.42-360.36,687.42"/>
    <path class="cls-8" d="M955.64,695.55S747.86,31.99,297.65,31.99-360.36,695.55-360.36,695.55"/>
    <path class="cls-7" d="M955.64,703.68S741.93,76.98,297.65,76.98-360.36,703.68-360.36,703.68"/>
    <path class="cls-9" d="M955.64,711.81S736,121.98,297.65,121.98-360.36,711.81-360.36,711.81"/>
    <path class="cls-4" d="M955.64,719.94S730.07,166.97,297.65,166.97-360.36,719.94-360.36,719.94"/>
    <path class="cls-5" d="M955.64,728.07S724.13,211.96,297.65,211.96-360.36,728.07-360.36,728.07"/>
    <path class="cls-17" d="M955.64,736.2s-237.44-479.24-657.99-479.24-658.01,479.24-658.01,479.24"/>
    <path class="cls-19" d="M955.64,744.33s-243.37-442.37-657.99-442.37-658.01,442.37-658.01,442.37"/>
    <path class="cls-20" d="M955.64,752.46s-249.3-405.51-657.99-405.51-658.01,405.51-658.01,405.51"/>
    <path class="cls-16" d="M955.64,760.59s-255.24-368.65-657.99-368.65-658.01,368.65-658.01,368.65"/>
    <path class="cls-18" d="M955.64,768.72s-261.17-331.78-658-331.78-658.01,331.78-658.01,331.78"/>
    <path class="cls-22" d="M955.64,776.85s-267.1-294.92-658-294.92-658.01,294.92-658.01,294.92"/>
    <path class="cls-23" d="M955.64,784.98s-273.03-258.05-658-258.05-658.01,258.05-658.01,258.05"/>
    <path class="cls-21" d="M955.64,793.11s-278.96-221.19-658-221.19-658.01,221.19-658.01,221.19"/>
    <path class="cls-12" d="M955.64,801.24s-284.9-184.32-658-184.32-658.01,184.32-658.01,184.32"/>
    <path class="cls-11" d="M955.64,809.37s-290.83-147.46-658-147.46-658,147.46-658,147.46"/>
    <path class="cls-14" d="M955.64,817.5s-296.76-110.59-658-110.59-658,110.59-658,110.59"/>
    <path class="cls-13" d="M955.64,825.63s-302.69-73.73-658-73.73-658,73.73-658,73.73"/>
    <path class="cls-15" d="M955.64,833.76s-308.63-36.86-658-36.86-658,36.86-658,36.86"/>
    <path class="cls-10" d="M955.64,841.89H-360.36"/>
  </g>
</svg>