<?xml version="1.0" encoding="UTF-8"?>
<svg id="Layer_1" data-name="Layer 1" xmlns="http://www.w3.org/2000/svg" viewBox="0 0 595.28 841.89">
  <defs>
    <style>
      .cls-1 {
        fill: #2d2926;
      }

      .cls-2 {
        fill: none;
        stroke: #ee3441;
        stroke-width: 10px;
      }
    </style>
  </defs>
  <rect class="cls-1" width="595.28" height="841.89"/>
  <g>
    <path class="cls-2" d="M719.48,841.89c-202.21-5.58-447.89,13.4-565.23,146.33"/>
    <path class="cls-2" d="M715.47,811.66c-225.06-4.98-459.9,29.62-569.5,172.84"/>
    <path class="cls-2" d="M711.46,781.43c-247.91-4.37-471.92,45.83-573.78,199.36"/>
    <path class="cls-2" d="M707.46,751.21c-270.75-3.76-483.93,62.05-578.05,225.87"/>
    <path class="cls-2" d="M703.45,720.98c-293.6-3.15-495.95,78.27-582.32,252.38"/>
    <path class="cls-2" d="M699.44,690.75c-316.45-2.54-507.96,94.48-586.59,278.89"/>
    <path class="cls-2" d="M695.44,660.52c-339.3-1.93-519.98,110.7-590.87,305.4"/>
    <path class="cls-2" d="M691.43,630.29c-362.15-1.32-531.99,126.92-595.14,331.92"/>
    <path class="cls-2" d="M687.42,600.06c-385-.71-544.01,143.13-599.41,358.43"/>
    <path class="cls-2" d="M683.42,569.84c-407.85-.1-556.02,159.35-603.68,384.94"/>
    <path class="cls-2" d="M679.41,539.61c-430.7.51-568.04,175.57-607.95,411.45"/>
    <path class="cls-2" d="M675.4,509.38c-453.55,1.12-580.06,191.79-612.23,437.97"/>
    <path class="cls-2" d="M671.4,479.15c-476.4,1.73-592.07,208-616.5,464.48"/>
    <path class="cls-2" d="M667.39,448.92c-499.24,2.34-604.09,224.22-620.77,490.99"/>
    <path class="cls-2" d="M663.39,418.7C141.29,421.64,47.29,659.13,38.34,936.2"/>
    <path class="cls-2" d="M659.38,388.47C114.44,392.02,31.26,645.12,30.06,932.48"/>
    <path class="cls-2" d="M655.37,358.24C87.58,362.4,15.24,631.11,21.79,928.77"/>
    <path class="cls-2" d="M651.37,328.01C60.73,332.79-.78,617.1,13.51,925.05"/>
    <path class="cls-2" d="M647.36,297.78C33.87,303.17-16.8,603.09,5.23,921.33"/>
    <path class="cls-2" d="M643.35,267.56C7.01,273.55-32.82,589.08-3.05,917.62"/>
    <path class="cls-2" d="M639.35,237.33C-19.84,243.93-48.84,575.07-11.33,913.9"/>
    <path class="cls-2" d="M635.34,207.1C-46.7,214.31-64.87,561.06-19.61,910.19"/>
    <path class="cls-2" d="M631.33,176.87C-73.55,184.69-80.89,547.04-27.89,906.47"/>
    <path class="cls-2" d="M627.33,146.64C-100.41,155.07-96.91,533.03-36.16,902.75"/>
    <path class="cls-2" d="M623.32,116.41C-127.26,125.45-112.93,519.02-44.44,899.04"/>
    <path class="cls-2" d="M619.31,86.19C-154.12,95.83-128.95,505.01-52.72,895.32"/>
    <path class="cls-2" d="M615.31,55.96C-180.97,66.22-144.97,491-61,891.61"/>
    <path class="cls-2" d="M611.3,25.73C-207.83,36.6-161,476.99-69.28,887.89"/>
    <path class="cls-2" d="M607.29-4.5C-234.68,6.98-177.02,462.98-77.56,884.17"/>
    <path class="cls-2" d="M603.29-34.73C-261.54-22.64-193.04,448.97-85.84,880.46"/>
    <path class="cls-2" d="M599.28-64.95C-288.4-52.26-209.06,434.96-94.11,876.74"/>
    <path class="cls-2" d="M595.28-95.18C-315.25-81.88-225.08,420.94-102.39,873.03"/>
  </g>
</svg>