<?xml version="1.0" encoding="UTF-8"?>
<svg xmlns="http://www.w3.org/2000/svg" xmlns:xlink="http://www.w3.org/1999/xlink" viewBox="0 0 595.28 841.89">
  <defs>
    <style>
      .cls-1 {
        fill: #2d2926;
      }

      .cls-2 {
        font-family: PPFragment-GlareRegular, 'PP Fragment';
        font-size: 12px;
      }

      .cls-2, .cls-3 {
        fill: #fff;
      }

      .cls-4 {
        letter-spacing: -.02em;
      }

      .cls-5 {
        letter-spacing: -.02em;
      }

      .cls-6 {
        letter-spacing: -.02em;
      }

      .cls-7 {
        letter-spacing: -.02em;
      }

      .cls-8 {
        letter-spacing: -.02em;
      }

      .cls-9 {
        letter-spacing: -.01em;
      }

      .cls-10 {
        letter-spacing: -.02em;
      }

      .cls-11 {
        letter-spacing: -.01em;
      }

      .cls-12 {
        letter-spacing: -.03em;
      }

      .cls-13 {
        letter-spacing: -.03em;
      }

      .cls-14 {
        letter-spacing: -.03em;
      }

      .cls-15 {
        letter-spacing: 0em;
      }

      .cls-16 {
        letter-spacing: 0em;
      }

      .cls-17 {
        letter-spacing: 0em;
      }

      .cls-18 {
        letter-spacing: 0em;
      }

      .cls-19 {
        letter-spacing: -.01em;
      }

      .cls-20 {
        fill: #ee3441;
      }

      .cls-21 {
        letter-spacing: 0em;
      }

      .cls-22 {
        letter-spacing: 0em;
      }

      .cls-23 {
        letter-spacing: 0em;
      }
    </style>
    <symbol id="Derthona_Lion_White" data-name="Derthona Lion White" viewBox="0 0 117.67 155.94">
      <g>
        <path class="cls-20" d="M30.27,6.82c2.16-3.26-.48-6.44-.48-6.44,0,0-3.84-1.52-6.27,1.54-2.43-3.06-6.27-1.54-6.27-1.54,0,0-2.63,3.18-.47,6.44-3.66,1.37-3.4,5.49-3.4,5.49,0,0,2.21,3.49,5.98,2.44.17,3.9,4.17,4.93,4.17,4.93,0,0,4-1.02,4.17-4.93,3.76,1.05,5.98-2.44,5.98-2.44,0,0,.26-4.12-3.4-5.49ZM25.46,11.75l-1.94-.98-1.94.98.33-2.15-1.53-1.55,2.15-.35.99-1.94,1,1.94,2.15.35-1.53,1.55.33,2.15Z"/>
        <path class="cls-3" d="M55.31,141.03s0,0,0,0"/>
        <path class="cls-3" d="M10.29,60.45c-.46-.15-.87-.29-1.28-.44l-.19-.07s.47-5.28.52-10.85.35-8.94.35-8.94h.23c.32-.03.64-.08.97-.16l.35-.08s-.26,3.03-.25,10.02c0,6.98-.37,10.63-.37,10.63l-.32-.1Z"/>
        <path class="cls-3" d="M0,90.8c.07-.06.14-.12.2-.18.17-.18.42-.45.57-.61.09-.12.22-.28.34-.44.13-.16.26-.33.36-.46l.15-.23.65-1c.1-.18.27-.51.44-.82.16-.29.31-.58.41-.75.11-.22.36-.8.55-1.22l.19-.43c.21-.43.44-1.09.65-1.67.08-.22.15-.43.22-.6.04-.1.08-.22.12-.34.1-.27.21-.57.27-.8.54-1.71,1.02-3.54,1.45-5.44l.05-.21h2.11l-.07.32c-.25,1.24-.51,2.39-.8,3.51l-.77,2.76c-.18.51-.39,1.13-.59,1.71l-.35,1.02c-.12.28-.24.57-.37.87-.31.73-.62,1.49-.96,2.11l-.6,1.14-.88,1.41c-.18.25-.27.36-.36.48-.07.09-.14.18-.25.33l-.2.27c-.05.07-.11.13-.16.19l-.08.08c-.2.22-.46.5-.75.77,0,0-.49-.14-.98-.71s-.57-1.03-.57-1.03Z"/>
        <path class="cls-3" d="M15.12,22.05c-.21-.09-.42-.17-.64-.24l-.3-.09.13-.28c.73-1.52,1.41-2.76,2.11-3.8.36-.54.79-1.19,1.33-1.83,0,0,.22.04.51.26s.38.47.38.47c-1.12,1.39-2.15,3.15-3.17,5.37l-.11.24-.24-.11Z"/>
        <g>
          <path class="cls-3" d="M57.29,12.12h-.24s0,0,0,0c.08,0,.15,0,.23,0h0Z"/>
          <path class="cls-3" d="M49.23,42.35c-.3.62-.62,1.22-.97,1.81-.14.25-.29.5-.44.74-.04.07-.09.15-.13.22-1.57,2.5-3.47,4.78-5.64,6.77-.71.65-1.44,1.27-2.2,1.85h-.01c-1.48-.43-2.21-.57-3.65-1.11-9-3.36-17.04-8.72-23.55-15.53-.73.89-1.84,1.46-3.08,1.46-2.18,0-3.95-1.77-3.95-3.96,0-1.23.56-2.34,1.45-3.06-.65-.59-1.06-1.43-1.06-2.38,0-.09,0-.18.02-.27.13-1.64,1.51-2.92,3.18-2.92.26,0,.52.03.77.09.17-1.6,1.53-2.85,3.17-2.85.98,0,1.86.44,2.45,1.14.05.07.11.15.17.23.01.01.02.02.03.04,6.64,8.62,16.28,14.8,27.37,16.97.23.05.46.09.7.13,1.69.31,3.61.52,5.37.63Z"/>
          <path class="cls-3" d="M48.23,28.95c3.56,0,6.18-1.71,8.63-1.71s4.24.77,4.24.77c0,0-.66-2.95-3.68-2.95-2.17,0-4.18.8-7.77.8-3.16,0-4.65-2.02-4.65-3.96s.51-2.8.51-2.8c0,0-3.15,1.14-3.15,5.06,0,2.45,2.32,4.79,5.88,4.79Z"/>
          <path class="cls-3" d="M104.84,82.02s0-.09,0-.14c-.09-.01-.17-.02-.26-.04.08.06.17.12.26.18Z"/>
          <path class="cls-3" d="M59.74,107.67c-.24-.5-.52-.98-.83-1.44.29.47.57.95.83,1.44Z"/>
          <g>
            <path class="cls-3" d="M74.18,67.95h0s0,.02,0,.03c0-.01,0-.02,0-.03Z"/>
            <polygon class="cls-3" points="74.17 67.99 74.17 67.99 74.17 67.99 74.17 67.99 74.17 67.99 74.17 67.99"/>
            <path class="cls-3" d="M116.61,71.9c-2.8-.96-4.82-4.35-4.82-7.8,0-5.59-5.11-10.36-9.83-10.36-4.47,0-6.77,1.22-9.33,3.26-1.6,1.27-2.93,2.87-3.9,4.69-1.12,2.1-1.75,4.49-1.75,7.03v.39c.14,9.59,5.66,17.89,9,27.36,1.37,3.87,2.37,7.93,2.5,12.36.01.32.02.65.02.98,0,3-.92,5.93-6.05,5.93-7,0-18.94-22.66-18.94-37.54,0-5.28.39-7.67.43-7.95-1.83,4.38-11.14,14.93-17.14,17.28-.66-.84-1.37-1.63-2.12-2.39-4.79-4.77-11.4-7.72-18.7-7.72-2.07,0-4.08.23-6.02.68,1.28,4.49,5.52,11.56,14.76,16.95,9.24,5.39,11.38,6.67,14.17,11.16-2.1-3.07-5.62-5.08-9.62-5.08h-.3c-.29.01-.58.03-.86.05-.01,0-.02.01-.03.01-4.46.52-7.91,4.31-7.91,8.91,0,2.3.87,4.41,2.3,6l-7.63-5.33c.36-1.2.56-2.47.56-3.79,0-2.36-.63-4.58-1.74-6.48-1.26-2.18-3.13-3.95-5.38-5.08-.2-.09-.4-.16-.61-.23-1.01-.34-2.09-.52-3.22-.52-1.3,0-2.56.25-3.71.7.84.53,1.55,1.25,2.08,2.09.12.18.23.36.33.56-.51,0-1.01.06-1.48.17-.98.22-1.88.64-2.64,1.23.16.13.31.26.46.39.7.64,1.27,1.43,1.65,2.31-1.33.5-2.46,1.42-3.24,2.58,1.27.29,2.42.95,3.31,1.86.08.07.15.15.22.23,1.09,1.22,1.75,2.81,1.75,4.57,0,.11-.01.22-.01.34-.06,1.13-.39,2.18-.93,3.1-.07.13-.14.25-.23.37-.4.6-.9,1.14-1.47,1.58l19.14,13.37,10.65,7.43c0-12.41,4.57-16.58,9.91-16.58s9.91,4.17,9.91,16.58c0,1.78-.17,4.88-1.07,7.96-1.44-.76-3-1.31-4.66-1.6h-.01c-.9-.16-1.82-.24-2.77-.24-1.2,0-2.37.13-3.5.39-4.48,1-8.25,3.89-10.43,7.79,1.35-.37,2.76-.57,4.22-.57.54,0,1.08.03,1.6.08-.85,1.4-1.49,2.94-1.87,4.58h23.85c.11-1.09.28-2.16.52-3.21.4-1.77.96-3.47,1.68-5.09,2.09-4.72,5.47-8.74,9.68-11.62-.27-1.56-.41-3.16-.41-4.79,0-2.07.22-4.08.66-6.02,1.07.24,2.19.37,3.34.37,3.71,0,7.1-1.34,9.72-3.57,3.23-2.75,5.27-6.84,5.27-11.41v-.39c-.02-1.77-.17-3.44-.44-5.04-1.39-8.58-5.84-14.88-8.73-22.37-1.48-3.84-3.78-7.74-3.78-13.66,0-7.43,3.75-9.9,6.08-9.9s3.52,1.93,3.52,3.72c0,.49-.09.95-.26,1.38-.55,1.44-1.94,2.46-3.57,2.46-1,0-1.91-.38-2.59-1-.25.52-.39,1.11-.39,1.73,0,2.24,1.81,4.05,4.05,4.05.12,0,.23,0,.34-.01-.07.51-.11,1.03-.11,1.56,0,3.59,1.77,6.77,4.49,8.71.08.01.17.03.25.04v-.2c0-2.38,1.16-4.48,2.94-5.77.98.51,2.09.79,3.27.79,1.56,0,3-.5,4.17-1.35.11-.08.21-.16.32-.25.94-.77,1.69-1.77,2.14-2.93-.37-.06-.72-.15-1.06-.27Z"/>
            <path class="cls-3" d="M57.73,83.36c5.55-3.46,15.11-15.59,16.25-20.99,2.46,2.26,4.3,5.6,4.95,10.26,1.74-1.96,5.95-7.95,8.87-15.07.76-1.68,1.34-3.47,1.69-5.33,0-.03.01-.05.02-.08.02-.1.03-.19.05-.28.15-.79.25-1.57.29-2.32,0,0,2.35.09,4.39,2.55,2.33-6.99-4.32-13.85-4.32-13.85,0,0,2.48-1.6,7.72.24-.58-7-5.08-12.91-9.19-15.02,3.77-2.96,5.59-5.92,6.52-11.34h-7.08c.86-2.02,1.56-4.12,2.07-6.3h-18.86c-.47,0-.93.03-1.38.1-.25.03-.5.08-.74.13-2.68.59-4.94,2.28-6.3,4.56.78.77,1.85,1.24,3.03,1.24.65,0,1.26-.14,1.81-.4.2-.09.39-.2.57-.31.01,0,.03-.02.04-.03.85-.57,1.88-.9,2.98-.9.23,0,.46.02.69.05.92.11,1.77.46,2.48.98-.33.32-.68.61-1.05.88-.61.44-1.26.81-1.96,1.11-1.18.5-2.49.78-3.86.78-.06,0-.12,0-.17,0-.42,0-.84-.04-1.24-.1-.73-.1-1.43-.28-2.09-.54-.05-.02-.1-.04-.15-.06-.64-.25-1.3-.46-1.98-.63-1.42-.36-2.91-.56-4.44-.56-.08,0-.16,0-.23,0-1.5.02-2.96.22-4.35.59.14.29.27.57.4.86.25.55.48,1.1.69,1.67.1.25.2.51.29.77.89,2.48,1.52,5.08,1.84,7.78,1.39-1,3.1-1.59,4.95-1.59.86,0,1.69.13,2.48.37.53.16,1.03.37,1.51.62.37.2.72.42,1.06.66,0,.03,0,.06-.01.08,0,.01,0,.02,0,.03-.23,1.89-1.09,3.59-2.35,4.89-.78.8-1.86,1.26-2.98,1.28-.04,0-.07,0-.11,0-1.57,0-3.04-.42-4.3-1.17-.02.78-.06,1.56-.14,2.33-.13,1.49-.36,2.95-.67,4.39-.09.41-.19.83-.29,1.24-.22.88-.48,1.75-.77,2.6,7.63-.57,15.28-1.74,21.03-6.21-6.97,9.78-22.16,9.11-22.16,9.11-.32.72-.66,1.43-1.02,2.12-.37.72-.78,1.43-1.2,2.11-.48.78-.98,1.54-1.52,2.27-1.6,2.22-3.46,4.24-5.52,6.03-.12.1-.24.2-.35.3-3.8,3.21-8.28,5.64-13.2,7.04-3.09.88-6.36,1.35-9.74,1.35-3.55,0-6.98-.52-10.21-1.49-2.49-.74-4.86-1.75-7.09-3-.75.75-1.21,1.79-1.21,2.93,0,.34.04.67.12.99-1.29.56-2.2,1.84-2.2,3.34,0,1.68,1.14,3.1,2.7,3.51-.08.28-.12.57-.12.87,0,1.77,1.43,3.2,3.2,3.2h30.18c8.56,0,16.29,3.6,21.74,9.37Z"/>
          </g>
        </g>
      </g>
    </symbol>
  </defs>
  <g id="Layer_1" data-name="Layer 1">
    <rect class="cls-1" x="0" width="595.28" height="841.89"/>
    <g>
      <g>
        <path class="cls-3" d="M35.27,37.54h18.63l8.67,8.52v22.19c0,5.26-1.43,9.32-4.3,12.19-2.87,2.86-6.95,4.3-12.25,4.3h-10.75v-47.19ZM52.24,75.96c1.19-1.24,1.79-3.32,1.79-6.23v-18.88c0-2.11-.57-3.73-1.72-4.86s-2.79-1.69-4.94-1.69h-3.8v33.53h2.58c2.87,0,4.9-.62,6.09-1.87Z"/>
        <path class="cls-3" d="M68.79,37.54h23.21v6.9h-14.9v14.16c1-.47,2.35-.82,4.05-1.06,1.69-.23,3.57-.35,5.62-.35,1.24,0,2.17.02,2.79.07v6.9c-1.72-.09-2.94-.14-3.65-.14-4.06,0-7,.52-8.81,1.55v12.12h15.55v7.04h-23.86v-47.19Z"/>
        <path class="cls-3" d="M97.66,37.54h18.48l8.67,8.52v2.04c0,7.09-2.44,11.97-7.31,14.65,5.49,3.66,8.24,10.99,8.24,21.98h-8.38c0-6.53-.82-11.29-2.47-14.3-1.65-3-4.29-4.51-7.92-4.51h-1v18.81h-8.31v-47.19ZM113.82,57.44c1.65-1.15,2.47-2.97,2.47-5.46v-1.69c0-1.88-.59-3.36-1.75-4.44-1.17-1.08-2.78-1.62-4.84-1.62h-3.73v15c3.58-.05,6.2-.64,7.84-1.8Z"/>
        <path class="cls-3" d="M138.14,44.16h-9.24v-6.62h26.79v6.62h-9.24v40.57h-8.31v-40.57Z"/>
        <path class="cls-3" d="M179.62,66.35c-.43-.85-1.16-1.51-2.18-2.01-1.03-.49-2.19-.74-3.47-.74-1.39,0-2.58.25-3.58.74-1,.49-1.7,1.19-2.08,2.08v18.31h-8.31v-47.19h8.31v20.85c1.91-1.08,3.82-1.62,5.73-1.62s3.7.52,5.66,1.55v-20.78h8.24v47.19h-8.31v-18.38Z"/>
        <path class="cls-3" d="M194.02,76.63v-30.99l8.81-8.52h11.61l8.81,8.52v30.99l-8.81,8.52h-11.61l-8.81-8.52ZM213,76.56c1.19-1.03,1.79-2.3,1.79-3.8v-23.38c0-1.5-.6-2.77-1.79-3.8-1.19-1.03-2.65-1.55-4.37-1.55s-3.18.52-4.37,1.55c-1.19,1.03-1.79,2.3-1.79,3.8v23.38c0,1.5.6,2.77,1.79,3.8,1.19,1.03,2.65,1.55,4.37,1.55s3.18-.52,4.37-1.55Z"/>
        <path class="cls-3" d="M229.34,37.54h9.03l10.39,28.6.43,2.04h.36v-30.64h8.02v47.19h-8.67l-10.6-28.39-.57-2.04h-.36l.07,1.34v29.09h-8.1v-47.19Z"/>
        <path class="cls-3" d="M270.53,37.54h11.32l9.38,47.19h-7.81c-.72-2.3-1.77-4.17-3.15-5.6-1.39-1.43-2.82-2.15-4.3-2.15s-2.99.72-4.37,2.15c-1.39,1.43-2.41,3.3-3.08,5.6h-7.31l9.31-47.19ZM275.97,70.22c1.62,0,3.3.63,5.01,1.9l-3.08-15.78-1.65-10.42h-.36l-1.65,10.42-3.15,15.64c1.72-1.17,3.34-1.76,4.87-1.76Z"/>
      </g>
      <g>
        <path class="cls-3" d="M370.49,37.52h18.63l8.67,8.53v.56c0,5.92-1.77,10.43-5.3,13.53l5.95,5.85v10.22l-8.52,8.53h-19.41v-47.21ZM386.82,56.05c1.67-1.22,2.51-3.15,2.51-5.78,0-2.11-.53-3.65-1.58-4.62-1.05-.96-2.75-1.44-5.09-1.44h-3.87v13.74c3.68-.05,6.35-.68,8.02-1.9ZM383.24,77.82c2.34,0,4.04-.52,5.09-1.55,1.05-1.03,1.58-2.65,1.58-4.86v-1.06c0-3.9-1.77-6.06-5.3-6.48-1.91.38-3.85.56-5.8.56v13.39h4.44Z"/>
        <path class="cls-3" d="M410.46,37.52h11.32l9.38,47.21h-7.81c-.72-2.3-1.77-4.17-3.15-5.6-1.39-1.43-2.82-2.15-4.3-2.15s-2.99.72-4.37,2.15c-1.39,1.43-2.41,3.3-3.08,5.6h-7.31l9.31-47.21ZM415.91,70.21c1.62,0,3.3.63,5.01,1.9l-3.08-15.78-1.65-10.43h-.36l-1.65,10.43-3.15,15.64c1.72-1.17,3.34-1.76,4.87-1.76Z"/>
        <path class="cls-3" d="M433.68,76.63v-8.67h8.31v4.86c0,1.74.47,3.07,1.4,3.98.93.92,2.28,1.37,4.05,1.37s3.12-.46,4.05-1.37c.93-.92,1.4-2.24,1.4-3.98,0-.85-.25-1.73-.75-2.64-.5-.92-1.21-1.75-2.11-2.5l-16.05-13.67v-8.39l8.67-8.53h9.46l8.67,8.53v6.84h-8.31v-3.17c0-1.74-.43-3.07-1.29-3.98-.86-.92-2.1-1.37-3.73-1.37s-2.89.39-3.8,1.16c-.91.78-1.36,1.87-1.36,3.28,0,.61.25,1.29.75,2.04.5.75,1.16,1.48,1.97,2.18l16.19,13.81v10.22l-8.67,8.53h-10.17l-8.67-8.53Z"/>
        <path class="cls-3" d="M466.2,37.52h8.31v19.87c1.05,0,2.12.12,3.22.35l8.1-20.22h8.31l-9.53,23.11c3.06,2.16,5.43,5.32,7.13,9.48,1.69,4.16,2.54,9.03,2.54,14.62h-8.38c0-6.44-.99-11.42-2.97-14.94-1.98-3.52-4.79-5.35-8.42-5.5v20.44h-8.31v-47.21Z"/>
        <path class="cls-3" d="M499.94,37.52h23.21v6.91h-14.9v14.16c1-.47,2.35-.82,4.05-1.06,1.69-.23,3.57-.35,5.62-.35,1.24,0,2.17.02,2.79.07v6.91c-1.72-.09-2.94-.14-3.65-.14-4.06,0-7,.52-8.81,1.55v12.12h15.55v7.05h-23.86v-47.21Z"/>
        <path class="cls-3" d="M535.9,44.14h-9.24v-6.62h26.79v6.62h-9.24v40.59h-8.31v-40.59Z"/>
      </g>
      <use width="117.67" height="155.94" transform="translate(303.11 22.99) scale(.47)" xlink:href="#Derthona_Lion_White"/>
    </g>
  </g>
  <g id="Layer_2" data-name="Layer 2">
    <g id="Derthona_Lion_White-3" data-name="Derthona Lion White">
      <g>
        <g>
          <path class="cls-3" d="M35.27,37.54h18.63l8.67,8.52v22.19c0,5.26-1.43,9.32-4.3,12.19-2.87,2.86-6.95,4.3-12.25,4.3h-10.75v-47.19ZM52.24,75.96c1.19-1.24,1.79-3.32,1.79-6.23v-18.88c0-2.11-.57-3.73-1.72-4.86s-2.79-1.69-4.94-1.69h-3.8v33.53h2.58c2.87,0,4.9-.62,6.09-1.87Z"/>
          <path class="cls-3" d="M68.79,37.54h23.21v6.9h-14.9v14.16c1-.47,2.35-.82,4.05-1.06,1.69-.23,3.57-.35,5.62-.35,1.24,0,2.17.02,2.79.07v6.9c-1.72-.09-2.94-.14-3.65-.14-4.06,0-7,.52-8.81,1.55v12.12h15.55v7.04h-23.86v-47.19Z"/>
          <path class="cls-3" d="M97.66,37.54h18.48l8.67,8.52v2.04c0,7.09-2.44,11.97-7.31,14.65,5.49,3.66,8.24,10.99,8.24,21.98h-8.38c0-6.53-.82-11.29-2.47-14.3-1.65-3-4.29-4.51-7.92-4.51h-1v18.81h-8.31v-47.19ZM113.82,57.44c1.65-1.15,2.47-2.97,2.47-5.46v-1.69c0-1.88-.59-3.36-1.75-4.44-1.17-1.08-2.78-1.62-4.84-1.62h-3.73v15c3.58-.05,6.2-.64,7.84-1.8Z"/>
          <path class="cls-3" d="M138.14,44.16h-9.24v-6.62h26.79v6.62h-9.24v40.57h-8.31v-40.57Z"/>
          <path class="cls-3" d="M179.62,66.35c-.43-.85-1.16-1.51-2.18-2.01-1.03-.49-2.19-.74-3.47-.74-1.39,0-2.58.25-3.58.74-1,.49-1.7,1.19-2.08,2.08v18.31h-8.31v-47.19h8.31v20.85c1.91-1.08,3.82-1.62,5.73-1.62s3.7.52,5.66,1.55v-20.78h8.24v47.19h-8.31v-18.38Z"/>
          <path class="cls-3" d="M194.02,76.63v-30.99l8.81-8.52h11.61l8.81,8.52v30.99l-8.81,8.52h-11.61l-8.81-8.52ZM213,76.56c1.19-1.03,1.79-2.3,1.79-3.8v-23.38c0-1.5-.6-2.77-1.79-3.8-1.19-1.03-2.65-1.55-4.37-1.55s-3.18.52-4.37,1.55c-1.19,1.03-1.79,2.3-1.79,3.8v23.38c0,1.5.6,2.77,1.79,3.8,1.19,1.03,2.65,1.55,4.37,1.55s3.18-.52,4.37-1.55Z"/>
          <path class="cls-3" d="M229.34,37.54h9.03l10.39,28.6.43,2.04h.36v-30.64h8.02v47.19h-8.67l-10.6-28.39-.57-2.04h-.36l.07,1.34v29.09h-8.1v-47.19Z"/>
          <path class="cls-3" d="M270.53,37.54h11.32l9.38,47.19h-7.81c-.72-2.3-1.77-4.17-3.15-5.6-1.39-1.43-2.82-2.15-4.3-2.15s-2.99.72-4.37,2.15c-1.39,1.43-2.41,3.3-3.08,5.6h-7.31l9.31-47.19ZM275.97,70.22c1.62,0,3.3.63,5.01,1.9l-3.08-15.78-1.65-10.42h-.36l-1.65,10.42-3.15,15.64c1.72-1.17,3.34-1.76,4.87-1.76Z"/>
        </g>
        <g>
          <path class="cls-3" d="M370.49,37.52h18.63l8.67,8.53v.56c0,5.92-1.77,10.43-5.3,13.53l5.95,5.85v10.22l-8.52,8.53h-19.41v-47.21ZM386.82,56.05c1.67-1.22,2.51-3.15,2.51-5.78,0-2.11-.53-3.65-1.58-4.62-1.05-.96-2.75-1.44-5.09-1.44h-3.87v13.74c3.68-.05,6.35-.68,8.02-1.9ZM383.24,77.82c2.34,0,4.04-.52,5.09-1.55,1.05-1.03,1.58-2.65,1.58-4.86v-1.06c0-3.9-1.77-6.06-5.3-6.48-1.91.38-3.85.56-5.8.56v13.39h4.44Z"/>
          <path class="cls-3" d="M410.46,37.52h11.32l9.38,47.21h-7.81c-.72-2.3-1.77-4.17-3.15-5.6-1.39-1.43-2.82-2.15-4.3-2.15s-2.99.72-4.37,2.15c-1.39,1.43-2.41,3.3-3.08,5.6h-7.31l9.31-47.21ZM415.91,70.21c1.62,0,3.3.63,5.01,1.9l-3.08-15.78-1.65-10.43h-.36l-1.65,10.43-3.15,15.64c1.72-1.17,3.34-1.76,4.87-1.76Z"/>
          <path class="cls-3" d="M433.68,76.63v-8.67h8.31v4.86c0,1.74.47,3.07,1.4,3.98.93.92,2.28,1.37,4.05,1.37s3.12-.46,4.05-1.37c.93-.92,1.4-2.24,1.4-3.98,0-.85-.25-1.73-.75-2.64-.5-.92-1.21-1.75-2.11-2.5l-16.05-13.67v-8.39l8.67-8.53h9.46l8.67,8.53v6.84h-8.31v-3.17c0-1.74-.43-3.07-1.29-3.98-.86-.92-2.1-1.37-3.73-1.37s-2.89.39-3.8,1.16c-.91.78-1.36,1.87-1.36,3.28,0,.61.25,1.29.75,2.04.5.75,1.16,1.48,1.97,2.18l16.19,13.81v10.22l-8.67,8.53h-10.17l-8.67-8.53Z"/>
          <path class="cls-3" d="M466.2,37.52h8.31v19.87c1.05,0,2.12.12,3.22.35l8.1-20.22h8.31l-9.53,23.11c3.06,2.16,5.43,5.32,7.13,9.48,1.69,4.16,2.54,9.03,2.54,14.62h-8.38c0-6.44-.99-11.42-2.97-14.94-1.98-3.52-4.79-5.35-8.42-5.5v20.44h-8.31v-47.21Z"/>
          <path class="cls-3" d="M499.94,37.52h23.21v6.91h-14.9v14.16c1-.47,2.35-.82,4.05-1.06,1.69-.23,3.57-.35,5.62-.35,1.24,0,2.17.02,2.79.07v6.91c-1.72-.09-2.94-.14-3.65-.14-4.06,0-7,.52-8.81,1.55v12.12h15.55v7.05h-23.86v-47.21Z"/>
          <path class="cls-3" d="M535.9,44.14h-9.24v-6.62h26.79v6.62h-9.24v40.59h-8.31v-40.59Z"/>
        </g>
        <use width="117.67" height="155.94" transform="translate(303.11 22.99) scale(.47)" xlink:href="#Derthona_Lion_White"/>
      </g>
      <g>
        <path class="cls-3" d="M35.27,238.71h77v24.25h-48v46.5c8.75-3,22.5-4.25,38.25-3.25v24.5c-18.5-1.25-30.25-.25-38.25,3.25v72.25h-29v-167.5Z"/>
        <path class="cls-3" d="M131.01,377.46v-110l30.75-30.25h40.5l30.75,30.25v110l-30.75,30.25h-40.5l-30.75-30.25ZM203.51,363.71v-83c0-10.75-9.5-19-21.5-19s-21.5,8.25-21.5,19v83c0,10.75,9.5,19,21.5,19s21.5-8.25,21.5-19Z"/>
        <path class="cls-3" d="M254.26,238.71h64.5l30.25,30.25v7.25c0,25.25-8.5,42.5-25.5,52,19.25,13,28.75,39,28.75,78h-29.25c0-46.5-11-66.75-36.25-66.75h-3.5v66.75h-29v-167.5ZM319.26,289.96v-6c0-13.25-8.75-21.5-23-21.5h-13v53.25c25-.25,36-8,36-25.75Z"/>
        <path class="cls-3" d="M365.51,385.71l57-123h-55v-24h87.75v20l-58.25,123.5h60.25v24h-91.75v-20.5Z"/>
        <path class="cls-3" d="M497.76,238.71h39.25l33,167.5h-27.5c-5-16.25-15.75-27.5-26-27.5s-21.25,11.25-26,27.5h-26.25l33.5-167.5ZM516.51,354.71c5.5,0,11.5,2.25,17.5,6.75l-10.75-56-5.75-37h-1.25l-5.75,37-11,55.5c5.75-4,11.5-6.25,17-6.25Z"/>
        <path class="cls-3" d="M63.39,428.71h29v142h49.25v25.5H63.39v-167.5Z"/>
        <path class="cls-3" d="M159.14,428.71h81v24.5h-52v47.75c8.5-4,25.75-5.75,43.5-4.75v24.5c-20.5-1.25-35,.25-43.5,5v45.5h54.25v25h-83.25v-167.5Z"/>
        <path class="cls-3" d="M258.64,567.46v-110l30.75-30.25h40.5l30.75,30.25v110l-30.75,30.25h-40.5l-30.75-30.25ZM331.14,553.71v-83c0-10.75-9.5-19-21.5-19s-21.5,8.25-21.5,19v83c0,10.75,9.5,19,21.5,19s21.5-8.25,21.5-19Z"/>
        <path class="cls-3" d="M381.89,428.71h31.5l36.25,101.5,1.5,7.25h1.25v-108.75h28v167.5h-30.25l-37-100.75-2-7.25h-1.25l.25,4.75v103.25h-28.25v-167.5Z"/>
        <path class="cls-3" d="M502.89,428.71h29v167.5h-29v-167.5Z"/>
      </g>
      <text class="cls-2" transform="translate(85.25 802.66)"><tspan class="cls-12" x="0" y="0">A</tspan><tspan x="8.36" y="0" xml:space="preserve"> co</tspan><tspan class="cls-11" x="25.4" y="0">n</tspan><tspan class="cls-16" x="32.47" y="0">t</tspan><tspan x="37.26" y="0">empo</tspan><tspan class="cls-7" x="69.6" y="0">r</tspan><tspan x="74.17" y="0">ar</tspan><tspan class="cls-4" x="85.64" y="0">y</tspan><tspan x="91.6" y="0" xml:space="preserve"> ba</tspan><tspan class="cls-17" x="108.8" y="0">s</tspan><tspan class="cls-14" x="114.65" y="0">k</tspan><tspan class="cls-21" x="120.69" y="0">e</tspan><tspan x="127.4" y="0">tball in</tspan><tspan class="cls-15" x="166.2" y="0">s</tspan><tspan x="172.02" y="0">titution inspi</tspan><tspan class="cls-8" x="244.44" y="0">r</tspan><tspan x="249.03" y="0">ed </tspan><tspan class="cls-10" x="266.35" y="0">b</tspan><tspan class="cls-4" x="273.5" y="0">y</tspan><tspan class="cls-6" x="279.45" y="0"> </tspan><tspan x="282.39" y="0">the herit</tspan><tspan class="cls-23" x="331.39" y="0">a</tspan><tspan class="cls-9" x="338.13" y="0">g</tspan><tspan x="345.31" y="0">e </tspan><tspan class="cls-19" x="355.35" y="0">o</tspan><tspan class="cls-5" x="362.34" y="0">f</tspan><tspan x="366.9" y="0" xml:space="preserve"> Derthona</tspan><tspan x="90.41" y="14.4">and</tspan><tspan class="cls-6" x="111.6" y="14.4"> </tspan><tspan x="114.54" y="14.4">the ambition </tspan><tspan class="cls-19" x="190.59" y="14.4">o</tspan><tspan class="cls-5" x="197.59" y="14.4">f</tspan><tspan x="202.15" y="14.4"> </tspan><tspan class="cls-18" x="205.37" y="14.4">E</tspan><tspan x="212.41" y="14.4">u</tspan><tspan class="cls-8" x="219.56" y="14.4">r</tspan><tspan x="224.15" y="14.4">opean comp</tspan><tspan class="cls-22" x="294.67" y="14.4">e</tspan><tspan x="301.39" y="14.4">tition</tspan><tspan class="cls-13" x="331.83" y="14.4">.</tspan></text>
    </g>
  </g>
</svg>