<?xml version="1.0" encoding="UTF-8"?>
<svg id="Layer_2" data-name="Layer 2" xmlns="http://www.w3.org/2000/svg" viewBox="0 0 841.89 595.28">
  <defs>
    <style>
      .cls-1 {
        fill: none;
        stroke: #2d2926;
        stroke-width: 20px;
      }

      .cls-2 {
        fill: #fff;
      }

      .cls-3 {
        fill: #ee3441;
      }
    </style>
  </defs>
  <g id="Derthona_Lion_White-2" data-name="Derthona Lion White">
    <rect class="cls-2" width="841.89" height="587.29"/>
    <g>
      <path class="cls-1" d="M1219.79,262.64S989.14-34.03,420.96-34.03-377.9,262.64-377.9,262.64"/>
      <path class="cls-1" d="M1211.5,287.24S975.92,4.94,420.96,4.94-369.61,287.24-369.61,287.24"/>
      <path class="cls-1" d="M1203.22,311.83S962.7,43.9,420.96,43.9-361.33,311.83-361.33,311.83"/>
      <path class="cls-1" d="M1194.93,336.42S949.48,82.87,420.96,82.87s-774,253.56-774,253.56"/>
      <path class="cls-1" d="M1186.65,361.02S936.26,121.83,420.96,121.83s-765.72,239.19-765.72,239.19"/>
      <path class="cls-1" d="M1178.36,385.61s-255.32-224.82-757.41-224.82-757.43,224.82-757.43,224.82"/>
      <path class="cls-1" d="M1170.08,410.21s-260.26-210.44-749.12-210.44-749.15,210.44-749.15,210.44"/>
      <path class="cls-1" d="M1161.79,434.8s-265.2-196.07-740.84-196.07-740.86,196.07-740.86,196.07"/>
      <path class="cls-1" d="M1153.51,459.39s-270.13-181.7-732.55-181.7-732.57,181.7-732.57,181.7"/>
      <path class="cls-1" d="M1145.22,483.99s-275.07-167.33-724.27-167.33-724.29,167.33-724.29,167.33"/>
      <path class="cls-1" d="M1136.94,508.58s-280.01-152.96-715.99-152.96-716,152.96-716,152.96"/>
      <path class="cls-1" d="M1128.66,533.18s-284.94-138.59-707.7-138.59-707.72,138.59-707.72,138.59"/>
      <path class="cls-1" d="M1120.37,557.77s-289.88-124.22-699.42-124.22-699.43,124.22-699.43,124.22"/>
      <path class="cls-1" d="M1112.09,582.36s-294.81-109.85-691.14-109.85-691.15,109.85-691.15,109.85"/>
      <path class="cls-1" d="M1103.8,606.96s-299.75-95.48-682.85-95.48-682.86,95.48-682.86,95.48"/>
      <path class="cls-1" d="M1095.52,631.55s-304.69-81.11-674.57-81.11-674.57,81.11-674.57,81.11"/>
      <path class="cls-1" d="M1087.23,656.15s-309.62-66.74-666.29-66.74-666.29,66.74-666.29,66.74"/>
    </g>
    <g>
      <path class="cls-3" d="M124.9,218.56h-37.17v-27.08h107.76v27.08h-37.17v165.96h-33.42v-165.96Z"/>
      <path class="cls-3" d="M212.78,191.48h74.33l34.86,34.86v8.36c0,29.1-9.8,48.98-29.39,59.93,22.19,14.98,33.13,44.95,33.13,89.89h-33.71c0-53.59-12.68-76.93-41.78-76.93h-4.03v76.93h-33.42v-193.04ZM287.69,250.54v-6.91c0-15.27-10.09-24.78-26.51-24.78h-14.98v61.37c28.81-.29,41.49-9.22,41.49-29.68Z"/>
      <path class="cls-3" d="M348.48,191.48h33.42v193.04h-33.42v-193.04Z"/>
      <path class="cls-3" d="M407.83,191.48h72.61l34.86,34.86v18.15c0,45.23-25.64,70.3-71.45,70.3h-2.59v69.72h-33.42v-193.04ZM446.73,287.13c23.91,0,34.29-9.8,34.29-31.98v-11.52c0-15.27-10.08-24.78-26.51-24.78h-13.25v68.28h5.47Z"/>
      <path class="cls-3" d="M536.91,191.48h33.42v163.65h56.76v29.39h-90.18v-193.04Z"/>
      <path class="cls-3" d="M673.77,191.48h45.23l38.03,193.04h-31.69c-5.76-18.73-18.15-31.69-29.96-31.69s-24.49,12.96-29.96,31.69h-30.25l38.61-193.04ZM695.38,325.17c6.34,0,13.25,2.59,20.17,7.78l-12.39-64.54-6.62-42.64h-1.44l-6.63,42.64-12.68,63.96c6.62-4.61,13.25-7.2,19.59-7.2Z"/>
    </g>
  </g>
</svg>