<?xml version="1.0" encoding="UTF-8"?>
<svg id="Layer_2" data-name="Layer 2" xmlns="http://www.w3.org/2000/svg" viewBox="0 0 841.89 595.28">
  <defs>
    <style>
      .cls-1 {
        fill: none;
        stroke: #2d2926;
        stroke-width: 20px;
      }

      .cls-2 {
        fill: #ee3441;
        font-family: DerthonaDisplay-Regular, 'Derthona Display';
        font-size: 288.12px;
      }
    </style>
  </defs>
  <rect width="841.89" height="595.28" fill="#fff"/>
  <g id="Derthona_Lion_White-2" data-name="Derthona Lion White">
    <g>
      <path class="cls-1" d="M1219.79,262.64S989.14-34.03,420.96-34.03-377.9,262.64-377.9,262.64"/>
      <path class="cls-1" d="M1211.5,287.24S975.92,4.94,420.96,4.94-369.61,287.24-369.61,287.24"/>
      <path class="cls-1" d="M1203.22,311.83S962.7,43.9,420.96,43.9-361.33,311.83-361.33,311.83"/>
      <path class="cls-1" d="M1194.93,336.42S949.48,82.87,420.96,82.87s-774,253.56-774,253.56"/>
      <path class="cls-1" d="M1186.65,361.02S936.26,121.83,420.96,121.83s-765.72,239.19-765.72,239.19"/>
      <path class="cls-1" d="M1178.36,385.61s-255.32-224.82-757.41-224.82-757.43,224.82-757.43,224.82"/>
      <path class="cls-1" d="M1170.08,410.21s-260.26-210.44-749.12-210.44-749.15,210.44-749.15,210.44"/>
      <path class="cls-1" d="M1161.79,434.8s-265.2-196.07-740.84-196.07-740.86,196.07-740.86,196.07"/>
      <path class="cls-1" d="M1153.51,459.39s-270.13-181.7-732.55-181.7-732.57,181.7-732.57,181.7"/>
      <path class="cls-1" d="M1145.22,483.99s-275.07-167.33-724.27-167.33-724.29,167.33-724.29,167.33"/>
      <path class="cls-1" d="M1136.94,508.58s-280.01-152.96-715.99-152.96-716,152.96-716,152.96"/>
      <path class="cls-1" d="M1128.66,533.18s-284.94-138.59-707.7-138.59-707.72,138.59-707.72,138.59"/>
      <path class="cls-1" d="M1120.37,557.77s-289.88-124.22-699.42-124.22-699.43,124.22-699.43,124.22"/>
      <path class="cls-1" d="M1112.09,582.36s-294.81-109.85-691.14-109.85-691.15,109.85-691.15,109.85"/>
      <path class="cls-1" d="M1103.8,606.96s-299.75-95.48-682.85-95.48-682.86,95.48-682.86,95.48"/>
      <path class="cls-1" d="M1095.52,631.55s-304.69-81.11-674.57-81.11-674.57,81.11-674.57,81.11"/>
      <path class="cls-1" d="M1087.23,656.15s-309.62-66.74-666.29-66.74-666.29,66.74-666.29,66.74"/>
    </g>
    <text class="cls-2" transform="translate(83.42 384.52)"><tspan x="0" y="0">TRIPLA</tspan></text>
  </g>
</svg>
