<?xml version="1.0" encoding="UTF-8"?>
<svg id="Layer_2" data-name="Layer 2" xmlns="http://www.w3.org/2000/svg" xmlns:xlink="http://www.w3.org/1999/xlink" viewBox="0 0 412.79 155.94">
  <defs>
    <style>
      .cls-1 {
        fill: #2d2926;
      }

      .cls-2 {
        fill: #2d2926;
      }
    </style>
    <symbol id="Derthona_Lion" data-name="Derthona Lion" viewBox="0 0 117.67 155.94">
      <g>
        <path class="cls-2" d="M30.27,6.82c2.16-3.26-.48-6.44-.48-6.44,0,0-3.84-1.52-6.27,1.54-2.43-3.06-6.27-1.54-6.27-1.54,0,0-2.63,3.18-.47,6.44-3.66,1.37-3.4,5.49-3.4,5.49,0,0,2.21,3.49,5.98,2.44.17,3.9,4.17,4.93,4.17,4.93,0,0,4-1.02,4.17-4.93,3.76,1.05,5.98-2.44,5.98-2.44,0,0,.26-4.12-3.4-5.49ZM25.46,11.75l-1.94-.98-1.94.98.33-2.15-1.53-1.55,2.15-.35.99-1.94,1,1.94,2.15.35-1.53,1.55.33,2.15Z"/>
        <path class="cls-1" d="M55.31,141.03s0,0,0,0"/>
        <path class="cls-1" d="M10.29,60.45c-.46-.15-.87-.29-1.28-.44l-.19-.07s.47-5.28.52-10.85.35-8.94.35-8.94h.23c.32-.03.64-.08.97-.16l.35-.08s-.26,3.03-.25,10.02c0,6.98-.37,10.63-.37,10.63l-.32-.1Z"/>
        <path class="cls-1" d="M0,90.8c.07-.06.14-.12.2-.18.17-.18.42-.45.57-.61.09-.12.22-.28.34-.44.13-.16.26-.33.36-.46l.15-.23.65-1c.1-.18.27-.51.44-.82.16-.29.31-.58.41-.75.11-.22.36-.8.55-1.22l.19-.43c.21-.43.44-1.09.65-1.67.08-.22.15-.43.22-.6.04-.1.08-.22.12-.34.1-.27.21-.57.27-.8.54-1.71,1.02-3.54,1.45-5.44l.05-.21h2.11l-.07.32c-.25,1.24-.51,2.39-.8,3.51l-.77,2.76c-.18.51-.39,1.13-.59,1.71l-.35,1.02c-.12.28-.24.57-.37.87-.31.73-.62,1.49-.96,2.11l-.6,1.14-.88,1.41c-.18.25-.27.36-.36.48-.07.09-.14.18-.25.33l-.2.27c-.05.07-.11.13-.16.19l-.08.08c-.2.22-.46.5-.75.77,0,0-.49-.14-.98-.71s-.57-1.03-.57-1.03Z"/>
        <path class="cls-1" d="M15.12,22.05c-.21-.09-.42-.17-.64-.24l-.3-.09.13-.28c.73-1.52,1.41-2.76,2.11-3.8.36-.54.79-1.19,1.33-1.83,0,0,.22.04.51.26s.38.47.38.47c-1.12,1.39-2.15,3.15-3.17,5.37l-.11.24-.24-.11Z"/>
        <g>
          <path class="cls-1" d="M57.29,12.12h-.24s0,0,0,0c.08,0,.15,0,.23,0h0Z"/>
          <path class="cls-1" d="M49.23,42.35c-.3.62-.62,1.22-.97,1.81-.14.25-.29.5-.44.74-.04.07-.09.15-.13.22-1.57,2.5-3.47,4.78-5.64,6.77-.71.65-1.44,1.27-2.2,1.85h-.01c-1.48-.43-2.21-.57-3.65-1.11-9-3.36-17.04-8.72-23.55-15.53-.73.89-1.84,1.46-3.08,1.46-2.18,0-3.95-1.77-3.95-3.96,0-1.23.56-2.34,1.45-3.06-.65-.59-1.06-1.43-1.06-2.38,0-.09,0-.18.02-.27.13-1.64,1.51-2.92,3.18-2.92.26,0,.52.03.77.09.17-1.6,1.53-2.85,3.17-2.85.98,0,1.86.44,2.45,1.14.05.07.11.15.17.23.01.01.02.02.03.04,6.64,8.62,16.28,14.8,27.37,16.97.23.05.46.09.7.13,1.69.31,3.61.52,5.37.63Z"/>
          <path class="cls-1" d="M48.23,28.95c3.56,0,6.18-1.71,8.63-1.71s4.24.77,4.24.77c0,0-.66-2.95-3.68-2.95-2.17,0-4.18.8-7.77.8-3.16,0-4.65-2.02-4.65-3.96s.51-2.8.51-2.8c0,0-3.15,1.14-3.15,5.06,0,2.45,2.32,4.79,5.88,4.79Z"/>
          <path class="cls-1" d="M104.84,82.02s0-.09,0-.14c-.09-.01-.17-.02-.26-.04.08.06.17.12.26.18Z"/>
          <path class="cls-1" d="M59.74,107.67c-.24-.5-.52-.98-.83-1.44.29.47.57.95.83,1.44Z"/>
          <g>
            <path class="cls-1" d="M74.18,67.95h0s0,.02,0,.03c0-.01,0-.02,0-.03Z"/>
            <polygon class="cls-1" points="74.17 67.99 74.17 67.99 74.17 67.99 74.17 67.99 74.17 67.99 74.17 67.99"/>
            <path class="cls-1" d="M116.61,71.9c-2.8-.96-4.82-4.35-4.82-7.8,0-5.59-5.11-10.36-9.83-10.36-4.47,0-6.77,1.22-9.33,3.26-1.6,1.27-2.93,2.87-3.9,4.69-1.12,2.1-1.75,4.49-1.75,7.03v.39c.14,9.59,5.66,17.89,9,27.36,1.37,3.87,2.37,7.93,2.5,12.36.01.32.02.65.02.98,0,3-.92,5.93-6.05,5.93-7,0-18.94-22.66-18.94-37.54,0-5.28.39-7.67.43-7.95-1.83,4.38-11.14,14.93-17.14,17.28-.66-.84-1.37-1.63-2.12-2.39-4.79-4.77-11.4-7.72-18.7-7.72-2.07,0-4.08.23-6.02.68,1.28,4.49,5.52,11.56,14.76,16.95,9.24,5.39,11.38,6.67,14.17,11.16-2.1-3.07-5.62-5.08-9.62-5.08h-.3c-.29.01-.58.03-.86.05-.01,0-.02.01-.03.01-4.46.52-7.91,4.31-7.91,8.91,0,2.3.87,4.41,2.3,6l-7.63-5.33c.36-1.2.56-2.47.56-3.79,0-2.36-.63-4.58-1.74-6.48-1.26-2.18-3.13-3.95-5.38-5.08-.2-.09-.4-.16-.61-.23-1.01-.34-2.09-.52-3.22-.52-1.3,0-2.56.25-3.71.7.84.53,1.55,1.25,2.08,2.09.12.18.23.36.33.56-.51,0-1.01.06-1.48.17-.98.22-1.88.64-2.64,1.23.16.13.31.26.46.39.7.64,1.27,1.43,1.65,2.31-1.33.5-2.46,1.42-3.24,2.58,1.27.29,2.42.95,3.31,1.86.08.07.15.15.22.23,1.09,1.22,1.75,2.81,1.75,4.57,0,.11-.01.22-.01.34-.06,1.13-.39,2.18-.93,3.1-.07.13-.14.25-.23.37-.4.6-.9,1.14-1.47,1.58l19.14,13.37,10.65,7.43c0-12.41,4.57-16.58,9.91-16.58s9.91,4.17,9.91,16.58c0,1.78-.17,4.88-1.07,7.96-1.44-.76-3-1.31-4.66-1.6h-.01c-.9-.16-1.82-.24-2.77-.24-1.2,0-2.37.13-3.5.39-4.48,1-8.25,3.89-10.43,7.79,1.35-.37,2.76-.57,4.22-.57.54,0,1.08.03,1.6.08-.85,1.4-1.49,2.94-1.87,4.58h23.85c.11-1.09.28-2.16.52-3.21.4-1.77.96-3.47,1.68-5.09,2.09-4.72,5.47-8.74,9.68-11.62-.27-1.56-.41-3.16-.41-4.79,0-2.07.22-4.08.66-6.02,1.07.24,2.19.37,3.34.37,3.71,0,7.1-1.34,9.72-3.57,3.23-2.75,5.27-6.84,5.27-11.41v-.39c-.02-1.77-.17-3.44-.44-5.04-1.39-8.58-5.84-14.88-8.73-22.37-1.48-3.84-3.78-7.74-3.78-13.66,0-7.43,3.75-9.9,6.08-9.9s3.52,1.93,3.52,3.72c0,.49-.09.95-.26,1.38-.55,1.44-1.94,2.46-3.57,2.46-1,0-1.91-.38-2.59-1-.25.52-.39,1.11-.39,1.73,0,2.24,1.81,4.05,4.05,4.05.12,0,.23,0,.34-.01-.07.51-.11,1.03-.11,1.56,0,3.59,1.77,6.77,4.49,8.71.08.01.17.03.25.04v-.2c0-2.38,1.16-4.48,2.94-5.77.98.51,2.09.79,3.27.79,1.56,0,3-.5,4.17-1.35.11-.08.21-.16.32-.25.94-.77,1.69-1.77,2.14-2.93-.37-.06-.72-.15-1.06-.27Z"/>
            <path class="cls-1" d="M57.73,83.36c5.55-3.46,15.11-15.59,16.25-20.99,2.46,2.26,4.3,5.6,4.95,10.26,1.74-1.96,5.95-7.95,8.87-15.07.76-1.68,1.34-3.47,1.69-5.33,0-.03.01-.05.02-.08.02-.1.03-.19.05-.28.15-.79.25-1.57.29-2.32,0,0,2.35.09,4.39,2.55,2.33-6.99-4.32-13.85-4.32-13.85,0,0,2.48-1.6,7.72.24-.58-7-5.08-12.91-9.19-15.02,3.77-2.96,5.59-5.92,6.52-11.34h-7.08c.86-2.02,1.56-4.12,2.07-6.3h-18.86c-.47,0-.93.03-1.38.1-.25.03-.5.08-.74.13-2.68.59-4.94,2.28-6.3,4.56.78.77,1.85,1.24,3.03,1.24.65,0,1.26-.14,1.81-.4.2-.09.39-.2.57-.31.01,0,.03-.02.04-.03.85-.57,1.88-.9,2.98-.9.23,0,.46.02.69.05.92.11,1.77.46,2.48.98-.33.32-.68.61-1.05.88-.61.44-1.26.81-1.96,1.11-1.18.5-2.49.78-3.86.78-.06,0-.12,0-.17,0-.42,0-.84-.04-1.24-.1-.73-.1-1.43-.28-2.09-.54-.05-.02-.1-.04-.15-.06-.64-.25-1.3-.46-1.98-.63-1.42-.36-2.91-.56-4.44-.56-.08,0-.16,0-.23,0-1.5.02-2.96.22-4.35.59.14.29.27.57.4.86.25.55.48,1.1.69,1.67.1.25.2.51.29.77.89,2.48,1.52,5.08,1.84,7.78,1.39-1,3.1-1.59,4.95-1.59.86,0,1.69.13,2.48.37.53.16,1.03.37,1.51.62.37.2.72.42,1.06.66,0,.03,0,.06-.01.08,0,.01,0,.02,0,.03-.23,1.89-1.09,3.59-2.35,4.89-.78.8-1.86,1.26-2.98,1.28-.04,0-.07,0-.11,0-1.57,0-3.04-.42-4.3-1.17-.02.78-.06,1.56-.14,2.33-.13,1.49-.36,2.95-.67,4.39-.09.41-.19.83-.29,1.24-.22.88-.48,1.75-.77,2.6,7.63-.57,15.28-1.74,21.03-6.21-6.97,9.78-22.16,9.11-22.16,9.11-.32.72-.66,1.43-1.02,2.12-.37.72-.78,1.43-1.2,2.11-.48.78-.98,1.54-1.52,2.27-1.6,2.22-3.46,4.24-5.52,6.03-.12.1-.24.2-.35.3-3.8,3.21-8.28,5.64-13.2,7.04-3.09.88-6.36,1.35-9.74,1.35-3.55,0-6.98-.52-10.21-1.49-2.49-.74-4.86-1.75-7.09-3-.75.75-1.21,1.79-1.21,2.93,0,.34.04.67.12.99-1.29.56-2.2,1.84-2.2,3.34,0,1.68,1.14,3.1,2.7,3.51-.08.28-.12.57-.12.87,0,1.77,1.43,3.2,3.2,3.2h30.18c8.56,0,16.29,3.6,21.74,9.37Z"/>
          </g>
        </g>
      </g>
    </symbol>
  </defs>
  <g id="Layer_1-2" data-name="Layer 1">
    <g>
      <g>
        <path class="cls-1" d="M0,32.55h38.17l17.76,17.76v46.24c0,10.96-2.94,19.43-8.81,25.4-5.87,5.97-14.24,8.96-25.1,8.96H0V32.55ZM34.79,112.63c2.44-2.59,3.67-6.92,3.67-12.99v-39.34c0-4.4-1.17-7.78-3.52-10.13s-5.73-3.52-10.13-3.52h-7.78v69.88h5.29c5.87,0,10.03-1.3,12.48-3.89Z"/>
        <path class="cls-1" d="M83.24,46.35h-18.94v-13.8h54.91v13.8h-18.94v84.56h-17.03V46.35Z"/>
      </g>
      <g>
        <path class="cls-1" d="M284.44,30.8h38.85l18.08,18.08v1.19c0,12.55-3.69,22.11-11.06,28.69l12.4,12.4v21.67l-17.78,18.08h-40.49V30.8ZM318.51,70.1c3.49-2.59,5.23-6.67,5.23-12.25,0-4.48-1.1-7.74-3.29-9.79-2.19-2.04-5.73-3.06-10.61-3.06h-8.07v29.14c7.67-.1,13.25-1.44,16.73-4.03ZM311.04,116.27c4.88,0,8.42-1.1,10.61-3.29,2.19-2.19,3.29-5.63,3.29-10.31v-2.24c0-8.27-3.69-12.85-11.06-13.75-3.99.8-8.02,1.2-12.1,1.2v28.39h9.26Z"/>
        <path class="cls-1" d="M354.22,30.8h17.33v42.14c2.19,0,4.43.25,6.72.75l16.88-42.88h17.33l-19.87,49.01c6.37,4.58,11.33,11.28,14.87,20.1,3.53,8.82,5.3,19.15,5.3,31h-17.48c0-13.65-2.07-24.21-6.2-31.68-4.13-7.47-9.99-11.36-17.56-11.65v43.33h-17.33V30.8Z"/>
      </g>
      <use width="117.67" height="155.94" transform="translate(144.68)" xlink:href="#Derthona_Lion"/>
    </g>
  </g>
</svg>