<?xml version="1.0" encoding="UTF-8"?>
<svg id="Layer_2" data-name="Layer 2" xmlns="http://www.w3.org/2000/svg" xmlns:xlink="http://www.w3.org/1999/xlink" viewBox="0 0 159.02 159.02">
  <defs>
    <style>
      .cls-1, .cls-2 {
        fill: #2d2926;
      }

      .cls-3 {
        fill: #fff;
      }

      .cls-2 {
        stroke: #fff;
        stroke-miterlimit: 10;
        stroke-width: 24.47px;
      }

      .cls-4 {
        fill: #fff;
      }
    </style>
    <symbol id="Derthona_Lion_White" data-name="Derthona Lion White" viewBox="0 0 117.67 155.94">
      <g>
        <path class="cls-4" d="M30.27,6.82c2.16-3.26-.48-6.44-.48-6.44,0,0-3.84-1.52-6.27,1.54-2.43-3.06-6.27-1.54-6.27-1.54,0,0-2.63,3.18-.47,6.44-3.66,1.37-3.4,5.49-3.4,5.49,0,0,2.21,3.49,5.98,2.44.17,3.9,4.17,4.93,4.17,4.93,0,0,4-1.02,4.17-4.93,3.76,1.05,5.98-2.44,5.98-2.44,0,0,.26-4.12-3.4-5.49ZM25.46,11.75l-1.94-.98-1.94.98.33-2.15-1.53-1.55,2.15-.35.99-1.94,1,1.94,2.15.35-1.53,1.55.33,2.15Z"/>
        <path class="cls-3" d="M55.31,141.03s0,0,0,0"/>
        <path class="cls-3" d="M10.29,60.45c-.46-.15-.87-.29-1.28-.44l-.19-.07s.47-5.28.52-10.85.35-8.94.35-8.94h.23c.32-.03.64-.08.97-.16l.35-.08s-.26,3.03-.25,10.02c0,6.98-.37,10.63-.37,10.63l-.32-.1Z"/>
        <path class="cls-3" d="M0,90.8c.07-.06.14-.12.2-.18.17-.18.42-.45.57-.61.09-.12.22-.28.34-.44.13-.16.26-.33.36-.46l.15-.23.65-1c.1-.18.27-.51.44-.82.16-.29.31-.58.41-.75.11-.22.36-.8.55-1.22l.19-.43c.21-.43.44-1.09.65-1.67.08-.22.15-.43.22-.6.04-.1.08-.22.12-.34.1-.27.21-.57.27-.8.54-1.71,1.02-3.54,1.45-5.44l.05-.21h2.11l-.07.32c-.25,1.24-.51,2.39-.8,3.51l-.77,2.76c-.18.51-.39,1.13-.59,1.71l-.35,1.02c-.12.28-.24.57-.37.87-.31.73-.62,1.49-.96,2.11l-.6,1.14-.88,1.41c-.18.25-.27.36-.36.48-.07.09-.14.18-.25.33l-.2.27c-.05.07-.11.13-.16.19l-.08.08c-.2.22-.46.5-.75.77,0,0-.49-.14-.98-.71s-.57-1.03-.57-1.03Z"/>
        <path class="cls-3" d="M15.12,22.05c-.21-.09-.42-.17-.64-.24l-.3-.09.13-.28c.73-1.52,1.41-2.76,2.11-3.8.36-.54.79-1.19,1.33-1.83,0,0,.22.04.51.26s.38.47.38.47c-1.12,1.39-2.15,3.15-3.17,5.37l-.11.24-.24-.11Z"/>
        <g>
          <path class="cls-3" d="M57.29,12.12h-.24s0,0,0,0c.08,0,.15,0,.23,0h0Z"/>
          <path class="cls-3" d="M49.23,42.35c-.3.62-.62,1.22-.97,1.81-.14.25-.29.5-.44.74-.04.07-.09.15-.13.22-1.57,2.5-3.47,4.78-5.64,6.77-.71.65-1.44,1.27-2.2,1.85h-.01c-1.48-.43-2.21-.57-3.65-1.11-9-3.36-17.04-8.72-23.55-15.53-.73.89-1.84,1.46-3.08,1.46-2.18,0-3.95-1.77-3.95-3.96,0-1.23.56-2.34,1.45-3.06-.65-.59-1.06-1.43-1.06-2.38,0-.09,0-.18.02-.27.13-1.64,1.51-2.92,3.18-2.92.26,0,.52.03.77.09.17-1.6,1.53-2.85,3.17-2.85.98,0,1.86.44,2.45,1.14.05.07.11.15.17.23.01.01.02.02.03.04,6.64,8.62,16.28,14.8,27.37,16.97.23.05.46.09.7.13,1.69.31,3.61.52,5.37.63Z"/>
          <path class="cls-3" d="M48.23,28.95c3.56,0,6.18-1.71,8.63-1.71s4.24.77,4.24.77c0,0-.66-2.95-3.68-2.95-2.17,0-4.18.8-7.77.8-3.16,0-4.65-2.02-4.65-3.96s.51-2.8.51-2.8c0,0-3.15,1.14-3.15,5.06,0,2.45,2.32,4.79,5.88,4.79Z"/>
          <path class="cls-3" d="M104.84,82.02s0-.09,0-.14c-.09-.01-.17-.02-.26-.04.08.06.17.12.26.18Z"/>
          <path class="cls-3" d="M59.74,107.67c-.24-.5-.52-.98-.83-1.44.29.47.57.95.83,1.44Z"/>
          <g>
            <path class="cls-3" d="M74.18,67.95h0s0,.02,0,.03c0-.01,0-.02,0-.03Z"/>
            <polygon class="cls-3" points="74.17 67.99 74.17 67.99 74.17 67.99 74.17 67.99 74.17 67.99 74.17 67.99"/>
            <path class="cls-3" d="M116.61,71.9c-2.8-.96-4.82-4.35-4.82-7.8,0-5.59-5.11-10.36-9.83-10.36-4.47,0-6.77,1.22-9.33,3.26-1.6,1.27-2.93,2.87-3.9,4.69-1.12,2.1-1.75,4.49-1.75,7.03v.39c.14,9.59,5.66,17.89,9,27.36,1.37,3.87,2.37,7.93,2.5,12.36.01.32.02.65.02.98,0,3-.92,5.93-6.05,5.93-7,0-18.94-22.66-18.94-37.54,0-5.28.39-7.67.43-7.95-1.83,4.38-11.14,14.93-17.14,17.28-.66-.84-1.37-1.63-2.12-2.39-4.79-4.77-11.4-7.72-18.7-7.72-2.07,0-4.08.23-6.02.68,1.28,4.49,5.52,11.56,14.76,16.95,9.24,5.39,11.38,6.67,14.17,11.16-2.1-3.07-5.62-5.08-9.62-5.08h-.3c-.29.01-.58.03-.86.05-.01,0-.02.01-.03.01-4.46.52-7.91,4.31-7.91,8.91,0,2.3.87,4.41,2.3,6l-7.63-5.33c.36-1.2.56-2.47.56-3.79,0-2.36-.63-4.58-1.74-6.48-1.26-2.18-3.13-3.95-5.38-5.08-.2-.09-.4-.16-.61-.23-1.01-.34-2.09-.52-3.22-.52-1.3,0-2.56.25-3.71.7.84.53,1.55,1.25,2.08,2.09.12.18.23.36.33.56-.51,0-1.01.06-1.48.17-.98.22-1.88.64-2.64,1.23.16.13.31.26.46.39.7.64,1.27,1.43,1.65,2.31-1.33.5-2.46,1.42-3.24,2.58,1.27.29,2.42.95,3.31,1.86.08.07.15.15.22.23,1.09,1.22,1.75,2.81,1.75,4.57,0,.11-.01.22-.01.34-.06,1.13-.39,2.18-.93,3.1-.07.13-.14.25-.23.37-.4.6-.9,1.14-1.47,1.58l19.14,13.37,10.65,7.43c0-12.41,4.57-16.58,9.91-16.58s9.91,4.17,9.91,16.58c0,1.78-.17,4.88-1.07,7.96-1.44-.76-3-1.31-4.66-1.6h-.01c-.9-.16-1.82-.24-2.77-.24-1.2,0-2.37.13-3.5.39-4.48,1-8.25,3.89-10.43,7.79,1.35-.37,2.76-.57,4.22-.57.54,0,1.08.03,1.6.08-.85,1.4-1.49,2.94-1.87,4.58h23.85c.11-1.09.28-2.16.52-3.21.4-1.77.96-3.47,1.68-5.09,2.09-4.72,5.47-8.74,9.68-11.62-.27-1.56-.41-3.16-.41-4.79,0-2.07.22-4.08.66-6.02,1.07.24,2.19.37,3.34.37,3.71,0,7.1-1.34,9.72-3.57,3.23-2.75,5.27-6.84,5.27-11.41v-.39c-.02-1.77-.17-3.44-.44-5.04-1.39-8.58-5.84-14.88-8.73-22.37-1.48-3.84-3.78-7.74-3.78-13.66,0-7.43,3.75-9.9,6.08-9.9s3.52,1.93,3.52,3.72c0,.49-.09.95-.26,1.38-.55,1.44-1.94,2.46-3.57,2.46-1,0-1.91-.38-2.59-1-.25.52-.39,1.11-.39,1.73,0,2.24,1.81,4.05,4.05,4.05.12,0,.23,0,.34-.01-.07.51-.11,1.03-.11,1.56,0,3.59,1.77,6.77,4.49,8.71.08.01.17.03.25.04v-.2c0-2.38,1.16-4.48,2.94-5.77.98.51,2.09.79,3.27.79,1.56,0,3-.5,4.17-1.35.11-.08.21-.16.32-.25.94-.77,1.69-1.77,2.14-2.93-.37-.06-.72-.15-1.06-.27Z"/>
            <path class="cls-3" d="M57.73,83.36c5.55-3.46,15.11-15.59,16.25-20.99,2.46,2.26,4.3,5.6,4.95,10.26,1.74-1.96,5.95-7.95,8.87-15.07.76-1.68,1.34-3.47,1.69-5.33,0-.03.01-.05.02-.08.02-.1.03-.19.05-.28.15-.79.25-1.57.29-2.32,0,0,2.35.09,4.39,2.55,2.33-6.99-4.32-13.85-4.32-13.85,0,0,2.48-1.6,7.72.24-.58-7-5.08-12.91-9.19-15.02,3.77-2.96,5.59-5.92,6.52-11.34h-7.08c.86-2.02,1.56-4.12,2.07-6.3h-18.86c-.47,0-.93.03-1.38.1-.25.03-.5.08-.74.13-2.68.59-4.94,2.28-6.3,4.56.78.77,1.85,1.24,3.03,1.24.65,0,1.26-.14,1.81-.4.2-.09.39-.2.57-.31.01,0,.03-.02.04-.03.85-.57,1.88-.9,2.98-.9.23,0,.46.02.69.05.92.11,1.77.46,2.48.98-.33.32-.68.61-1.05.88-.61.44-1.26.81-1.96,1.11-1.18.5-2.49.78-3.86.78-.06,0-.12,0-.17,0-.42,0-.84-.04-1.24-.1-.73-.1-1.43-.28-2.09-.54-.05-.02-.1-.04-.15-.06-.64-.25-1.3-.46-1.98-.63-1.42-.36-2.91-.56-4.44-.56-.08,0-.16,0-.23,0-1.5.02-2.96.22-4.35.59.14.29.27.57.4.86.25.55.48,1.1.69,1.67.1.25.2.51.29.77.89,2.48,1.52,5.08,1.84,7.78,1.39-1,3.1-1.59,4.95-1.59.86,0,1.69.13,2.48.37.53.16,1.03.37,1.51.62.37.2.72.42,1.06.66,0,.03,0,.06-.01.08,0,.01,0,.02,0,.03-.23,1.89-1.09,3.59-2.35,4.89-.78.8-1.86,1.26-2.98,1.28-.04,0-.07,0-.11,0-1.57,0-3.04-.42-4.3-1.17-.02.78-.06,1.56-.14,2.33-.13,1.49-.36,2.95-.67,4.39-.09.41-.19.83-.29,1.24-.22.88-.48,1.75-.77,2.6,7.63-.57,15.28-1.74,21.03-6.21-6.97,9.78-22.16,9.11-22.16,9.11-.32.72-.66,1.43-1.02,2.12-.37.72-.78,1.43-1.2,2.11-.48.78-.98,1.54-1.52,2.27-1.6,2.22-3.46,4.24-5.52,6.03-.12.1-.24.2-.35.3-3.8,3.21-8.28,5.64-13.2,7.04-3.09.88-6.36,1.35-9.74,1.35-3.55,0-6.98-.52-10.21-1.49-2.49-.74-4.86-1.75-7.09-3-.75.75-1.21,1.79-1.21,2.93,0,.34.04.67.12.99-1.29.56-2.2,1.84-2.2,3.34,0,1.68,1.14,3.1,2.7,3.51-.08.28-.12.57-.12.87,0,1.77,1.43,3.2,3.2,3.2h30.18c8.56,0,16.29,3.6,21.74,9.37Z"/>
          </g>
        </g>
      </g>
    </symbol>
  </defs>
  <g id="Layer_1-2" data-name="Layer 1">
    <g>
      <circle class="cls-2" cx="79.51" cy="79.51" r="67.27"/>
      <g>
        <g>
          <path class="cls-1" d="M48.99,130.32l5.69,2.84,1.32,3.97-.09.17c-.92,1.84-2.2,2.98-3.72,3.39l.91,2.72-1.59,3.17-3.93,1.35-5.93-2.96,7.33-14.66ZM46.62,144.78c1.42.71,2.34.4,3.03-.97l.16-.33c.6-1.2.39-2.16-.61-2.82-.6-.16-1.22-.39-1.86-.71l-2.08,4.16,1.36.68ZM52.76,137.15c.66-1.31.33-2.19-1.09-2.9l-1.18-.59-2.13,4.27c2.24,1.09,3.59.86,4.41-.78Z"/>
          <path class="cls-1" d="M61.85,135.94l3.7,1.03-1.26,16.66-2.59-.72c-.05-1.66-.77-3-1.73-3.27-.99-.27-2.3.51-3.17,1.91l-2.48-.69,7.54-14.92ZM60.59,147.37c.52.14,1.03.51,1.47,1.09l.45-5.56.42-3.64-.12-.03-1.51,3.34-2.49,4.95c.65-.23,1.25-.29,1.77-.14Z"/>
          <path class="cls-1" d="M68.8,151.53l.25-3,2.83.23-.14,1.68c-.1,1.19.5,1.91,1.7,2.01,1.19.1,1.91-.5,2.01-1.7.05-.58-.26-1.3-.83-1.86l-5.07-5.18.24-2.9,3.19-2.71,3.22.27,2.71,3.19-.2,2.37-2.83-.23.09-1.1c.1-1.19-.46-1.9-1.55-1.99-1.12-.09-1.8.42-1.88,1.39-.03.41.29,1,.81,1.54l5.12,5.23-.29,3.54-3.19,2.71-3.46-.29-2.71-3.19Z"/>
          <path class="cls-1" d="M81.42,138.74l2.82-.31.75,6.86c.39-.04.76-.03,1.11,0l1.98-7.28,2.82-.31-2.36,8.33c2.23,1.26,3.77,4.07,4.2,7.96l-2.85.31c-.49-4.43-2.15-6.8-4.64-6.63l.77,7.05-2.82.31-1.79-16.3Z"/>
          <path class="cls-1" d="M93.24,137.11l7.58-2.33.71,2.29-4.87,1.5,1.38,4.47c.68-.62,2.24-1.28,3.93-1.7l.71,2.29c-1.95.47-3.27,1.03-3.93,1.72l1.31,4.26,5.08-1.56.72,2.34-7.79,2.4-4.83-15.67Z"/>
          <path class="cls-1" d="M106.31,134.76l-2.81,1.44-1.05-2.04,8.14-4.19,1.05,2.05-2.81,1.44,6.45,12.53-2.52,1.3-6.45-12.53Z"/>
        </g>
        <g>
          <path class="cls-1" d="M28.64,23.56l4.96-3.99,4.16.45,4.83,6.01c2.3,2.86,2,5.74-.82,8.01l-2.86,2.3-10.27-12.78ZM40.65,28.26l-4.11-5.11c-.92-1.14-2.06-1.27-3.2-.35l-1.01.81,7.3,9.08.69-.55c1.53-1.23,1.61-2.3.33-3.88Z"/>
          <path class="cls-1" d="M40.65,14.68l7-3.73,1.13,2.12-4.49,2.4,2.2,4.12c.55-.74,1.96-1.68,3.54-2.42l1.13,2.12c-1.83.84-3.01,1.63-3.53,2.44l2.1,3.93,4.69-2.5,1.15,2.16-7.19,3.84-7.72-14.47Z"/>
          <path class="cls-1" d="M52.67,8.79l6.03-1.87,3.71,1.95.21.68c.73,2.36.44,4.22-.88,5.6,2.18.66,3.82,2.81,4.95,6.46l-2.74.85c-1.35-4.35-2.96-5.92-5.33-5.19l-.33.1,1.94,6.24-2.71.84-4.86-15.66ZM60.24,11.7l-.17-.56c-.38-1.24-1.44-1.76-2.77-1.34l-1.22.38,1.54,4.98c2.33-.75,3.13-1.79,2.62-3.45Z"/>
          <path class="cls-1" d="M69.73,6.97l-3.14.36-.26-2.29,9.09-1.04.26,2.29-3.13.36,1.6,14-2.82.32-1.6-14Z"/>
          <path class="cls-1" d="M86.36,14.12c-.25-.61-.98-1.03-1.86-1.09-.93-.07-1.69.24-2,.83l-.49,6.59-2.83-.21,1.21-16.35,2.83.21-.52,6.98c.66-.32,1.36-.46,1.99-.42.63.05,1.28.29,1.89.68l.51-6.95,2.81.21-1.21,16.35-2.83-.21.49-6.61Z"/>
          <path class="cls-1" d="M91.84,18.64l2.97-10.35,3.71-2.01,3.81,1.09,2.07,3.68-2.97,10.35-3.71,2.01-3.81-1.09-2.07-3.68ZM99.03,19.31l2.24-7.81c.29-1.01-.38-2.04-1.51-2.37s-2.25.19-2.54,1.21l-2.24,7.81c-.29,1.01.38,2.04,1.51,2.37,1.13.32,2.25-.19,2.54-1.21Z"/>
          <path class="cls-1" d="M110.53,10.52l2.72,1.44-1.52,10.44-.2.7.11.06,4.98-9.41,2.42,1.28-7.68,14.49-2.62-1.39,1.42-10.41.16-.72-.11-.06-.2.42-4.73,8.93-2.44-1.29,7.68-14.49Z"/>
          <path class="cls-1" d="M125.57,19.69l2.98,2.42-7.83,14.76-2.09-1.7c.62-1.54.5-3.06-.28-3.69-.8-.65-2.31-.46-3.67.49l-2-1.62,12.88-10.66ZM119.83,29.66c.42.34.74.88.91,1.59l2.64-4.92,1.85-3.17-.09-.08-2.72,2.46-4.26,3.54c.68.05,1.26.23,1.68.57Z"/>
        </g>
      </g>
      <g>
        <path class="cls-1" d="M8.75,86.15h-1.84v-9.43l1.21-1.22h.64v10.65Z"/>
        <path class="cls-1" d="M11.24,77.32l1.96-1.92h2.42l1.96,1.92v7l-1.96,1.92h-2.19l-1.96-1.92v-1.5h1.81v.65c0,.75.46,1.21,1.21,1.21s1.21-.46,1.21-1.21v-2.16l-.79.86h-1.7l-1.96-1.92v-2.93ZM14.33,80.62c.76,0,1.37-.54,1.37-1.22v-1.19c0-.68-.53-1.21-1.29-1.21s-1.29.53-1.29,1.21v1.19c0,.75.46,1.22,1.21,1.22Z"/>
      </g>
      <g>
        <path class="cls-1" d="M139.61,75.5h6.11v1.62h-4.23v2.35l.72-.76h1.78l1.96,1.92v3.69l-1.96,1.92h-2.42l-1.96-1.92v-1.7h1.88v.83c0,.68.52,1.21,1.29,1.21s1.29-.52,1.29-1.21v-1.96c0-.75-.46-1.22-1.21-1.22s-1.37.52-1.37,1.18v.05h-1.88v-5.99Z"/>
        <path class="cls-1" d="M148.2,75.5h6.11v1.62h-4.23v2.35l.72-.76h1.78l1.96,1.92v3.69l-1.96,1.92h-2.42l-1.96-1.92v-1.7h1.88v.83c0,.68.52,1.21,1.29,1.21s1.29-.52,1.29-1.21v-1.96c0-.75-.46-1.22-1.21-1.22s-1.37.52-1.37,1.18v.05h-1.88v-5.99Z"/>
      </g>
      <use width="117.67" height="155.94" transform="translate(43.64 33.56) scale(.61)" xlink:href="#Derthona_Lion_White"/>
    </g>
  </g>
</svg>